<svg xmlns="http://www.w3.org/2000/svg" width="2416" height="3607" viewBox="0 0 2416 3607" version="1.1">
	<path d="M 452 1802.500 L 452 3153 1208 3153 L 1964 3153 1964 1802.500 L 1964 452 1208 452 L 452 452 452 1802.500 M 595.185 832.750 C 595.430 834.040, 596.676 834.583, 599.924 834.816 C 602.782 835.020, 605.836 836.167, 608.618 838.081 C 610.976 839.704, 614.389 841.321, 616.203 841.676 C 618.016 842.031, 620.509 842.973, 621.742 843.771 C 622.976 844.568, 624.658 844.962, 625.480 844.646 C 626.322 844.323, 626.872 844.577, 626.738 845.227 C 626.607 845.862, 627.305 846.557, 628.289 846.772 C 629.793 847.099, 629.970 846.709, 629.401 844.331 C 628.392 840.116, 628.563 840.231, 619.202 837.438 C 614.416 836.010, 608.097 833.978, 605.161 832.921 C 598.281 830.446, 594.737 830.385, 595.185 832.750 M 1718.500 832.654 C 1717.400 832.872, 1714.925 833.467, 1713 833.976 C 1711.075 834.485, 1708.263 835.157, 1706.750 835.470 C 1702.506 836.347, 1703.270 838.750, 1707.750 838.614 C 1710.932 838.517, 1711.549 838.845, 1711.823 840.778 C 1712.001 842.030, 1713.238 844.148, 1714.573 845.482 C 1716.612 847.521, 1717.897 852.757, 1716.750 854.346 C 1716.612 854.537, 1717.098 855.413, 1717.829 856.294 C 1718.851 857.525, 1718.893 858.312, 1718.010 859.698 C 1716.977 861.321, 1716.910 861.276, 1717.338 859.249 C 1717.608 857.968, 1717.402 857.251, 1716.861 857.586 C 1716.336 857.910, 1716.114 859.486, 1716.367 861.088 C 1716.822 863.980, 1715.628 865.144, 1714.662 862.750 C 1714.385 862.063, 1714.122 863.188, 1714.079 865.250 C 1714.015 868.284, 1714.360 869, 1715.883 869 C 1717.861 869, 1719.495 864.424, 1717.875 863.423 C 1717.404 863.131, 1718.061 861.768, 1719.336 860.393 C 1721.153 858.434, 1721.597 856.944, 1721.386 853.510 C 1721.129 849.309, 1726.499 842, 1729.842 842 C 1732.879 842, 1733.167 833.049, 1730.133 832.943 C 1729.235 832.911, 1726.700 832.744, 1724.500 832.571 C 1722.300 832.399, 1719.600 832.436, 1718.500 832.654 M 1157.726 986.608 C 1156.901 987.432, 1158.918 990.738, 1162.237 994.001 C 1163.743 995.481, 1164.731 996.936, 1164.433 997.233 C 1164.136 997.531, 1164.780 999.234, 1165.865 1001.018 C 1166.949 1002.802, 1167.601 1004.877, 1167.312 1005.631 C 1167.022 1006.384, 1167.284 1007, 1167.893 1007 C 1168.502 1007, 1169 1007.873, 1169 1008.941 C 1169 1011.763, 1170.742 1012.399, 1173.509 1010.586 C 1174.840 1009.714, 1176.676 1009, 1177.587 1009 C 1178.947 1009, 1179.021 1008.731, 1178 1007.500 C 1177.315 1006.675, 1176.205 1006, 1175.533 1006 C 1174.860 1006, 1173.495 1005.100, 1172.500 1004 C 1170.743 1002.059, 1170.753 1002, 1172.845 1002 C 1174.094 1002, 1175 1001.369, 1175 1000.500 C 1175 999.675, 1174.523 999, 1173.941 999 C 1173.359 999, 1173.160 998.550, 1173.500 998 C 1173.840 997.450, 1173.690 997, 1173.167 997 C 1172.645 997, 1171.948 995.928, 1171.619 994.619 C 1171.234 993.084, 1170.102 992.061, 1168.435 991.743 C 1166.589 991.390, 1166.156 991.556, 1166.924 992.324 C 1168.188 993.588, 1168.359 996, 1167.184 996 C 1165.692 996, 1161.732 988.007, 1163.186 987.930 C 1163.909 987.891, 1163.600 987.473, 1162.500 987 C 1160.030 985.938, 1158.519 985.814, 1157.726 986.608" stroke="none" fill="black" fill-rule="evenodd"/>
</svg>