<svg xmlns="http://www.w3.org/2000/svg" width="1991" height="2973" viewBox="0 0 1991 2973" version="1.1">
	<path d="M 373 568.917 C 373 725.559, 373.256 765.919, 374.250 766.254 C 375.206 766.576, 375.227 767.007, 374.340 768.087 C 372.556 770.259, 372.542 792.390, 374.325 791.705 C 377.555 790.466, 378.496 792.841, 375.720 795.227 C 372.355 798.118, 372.097 802.118, 375.185 803.513 C 376.387 804.056, 377.571 805.125, 377.815 805.889 C 378.084 806.729, 377.813 807.002, 377.130 806.580 C 376.508 806.196, 376 806.359, 376 806.941 C 376 807.523, 376.675 808, 377.500 808 C 379.441 808, 379.441 809.617, 377.500 810.362 C 376.675 810.678, 376 811.937, 376 813.160 C 376 815.329, 375.965 815.335, 374.532 813.441 C 373.174 811.646, 373.071 811.838, 373.168 816 C 373.225 818.475, 373.467 819.487, 373.706 818.250 C 374.216 815.598, 375.986 815.218, 376.032 817.750 C 376.060 819.327, 376.184 819.343, 377.282 817.916 C 377.952 817.044, 379.756 816.019, 381.291 815.636 C 382.826 815.254, 383.812 814.505, 383.482 813.971 C 383.152 813.437, 383.632 813, 384.548 813 C 385.585 813, 386.006 813.542, 385.663 814.435 C 385.360 815.225, 385.650 816.063, 386.306 816.298 C 387.001 816.547, 387.129 817.097, 386.613 817.613 C 386.097 818.129, 385.539 817.977, 385.280 817.250 C 384.573 815.271, 382 815.797, 382 817.921 C 382 819.249, 381.058 820.048, 378.942 820.513 C 376.353 821.081, 375.932 821.591, 376.192 823.842 C 376.528 826.739, 379.589 827.661, 379.369 824.799 C 379.265 823.441, 379.821 823.214, 382.119 823.674 C 384.587 824.167, 385 823.938, 385 822.075 C 385 820.142, 385.439 819.944, 388.955 820.295 C 393.632 820.763, 395.760 819.300, 393.215 817.367 C 392.272 816.650, 390.712 816.049, 389.750 816.032 C 387.948 815.999, 387.210 814, 389 814 C 389.550 814, 390 813.550, 390 813 C 390 812.450, 389.325 812, 388.500 812 C 387.675 812, 387 811.325, 387 810.500 C 387 809.675, 387.563 808.993, 388.250 808.985 C 389.155 808.974, 389.120 808.729, 388.122 808.096 C 387.364 807.616, 387.053 806.723, 387.431 806.112 C 388.423 804.507, 390 804.745, 390 806.500 C 390 807.611, 391.167 808, 394.500 808 C 398.333 808, 399 807.704, 399 806 C 399 804.889, 398.333 804, 397.500 804 C 394.717 804, 395.672 798.660, 398.707 797.250 C 402.280 795.591, 404 795.672, 404 797.500 C 404 799.695, 406.680 799.333, 407.275 797.058 C 407.949 794.478, 407.314 794, 403.217 794 C 400.127 794, 399.830 793.765, 400.370 791.750 C 400.701 790.513, 400.979 789.163, 400.986 788.750 C 401.012 787.352, 402.991 787.991, 405.067 790.067 C 406.676 791.676, 407.441 791.879, 408.522 790.982 C 410.452 789.380, 408.369 786.091, 405.843 786.751 C 404.830 787.016, 404 786.731, 404 786.117 C 404 784.448, 401.303 784.769, 400.632 786.518 C 399.973 788.235, 394.010 788.252, 393.985 786.537 C 393.976 785.967, 393.544 786.173, 393.024 786.995 C 392.210 788.283, 391.885 788.225, 390.682 786.580 C 389.355 784.765, 389.235 784.758, 388.289 786.448 C 387.366 788.098, 387.252 788.073, 386.740 786.113 C 386.435 784.949, 386.557 784.226, 387.009 784.506 C 387.462 784.785, 388.938 784.594, 390.289 784.080 C 391.946 783.450, 393.113 783.513, 393.873 784.273 C 394.493 784.893, 395 785.030, 395 784.578 C 395 784.125, 395.656 784.300, 396.459 784.966 C 397.661 785.963, 398.032 785.721, 398.567 783.588 C 399.361 780.426, 399.280 780.428, 402.595 783.500 C 406.148 786.793, 406.503 786.700, 408.391 781.980 C 410.576 776.519, 410.465 773.355, 408.065 772.727 C 406.031 772.195, 406.170 768.631, 408.275 767.330 C 408.844 766.978, 409.028 767.145, 408.685 767.700 C 407.677 769.332, 412.278 773.064, 413.993 772.005 C 414.958 771.408, 416.008 771.602, 417.083 772.575 C 418.831 774.157, 422.410 773.472, 421.350 771.758 C 420.999 771.190, 421.790 769.912, 423.106 768.917 C 425.022 767.469, 425.251 766.858, 424.250 765.854 C 423.563 765.164, 423 763.340, 423 761.800 C 423 760.068, 422.467 759, 421.601 759 C 419.747 759, 416.341 752.101, 416.787 749.250 C 416.981 748.013, 417.752 747, 418.500 747 C 419.248 747, 420.005 748.013, 420.181 749.250 C 420.383 750.668, 421.144 751.449, 422.240 751.363 C 423.196 751.288, 423.713 751.656, 423.388 752.181 C 423.063 752.706, 422.168 752.895, 421.399 752.600 C 420.622 752.302, 420 752.669, 420 753.424 C 420 755.031, 422.437 756.153, 424.340 755.423 C 425.077 755.140, 426.257 755.604, 426.962 756.454 C 428.852 758.732, 429.763 758.358, 430.500 755 C 431.269 751.499, 432.338 751.217, 434.288 754.001 L 435.689 756.001 437.500 754.001 C 438.495 752.900, 439.873 752, 440.561 752 C 441.337 752, 441.606 751.208, 441.268 749.915 C 440.895 748.490, 440.485 748.214, 439.973 749.044 C 439.551 749.727, 438.672 749.915, 437.960 749.475 C 436.997 748.880, 437.118 748.387, 438.470 747.398 C 440.073 746.226, 440.094 745.951, 438.693 744.551 C 436.460 742.317, 435.692 742.637, 436.411 745.500 C 436.772 746.942, 436.607 748, 436.019 748 C 435.459 748, 435 748.675, 435 749.500 C 435 750.333, 434.111 751, 433 751 C 430.543 751, 430.297 748.013, 432.750 747.968 C 434.408 747.938, 434.407 747.866, 432.733 746.595 C 430.903 745.207, 431.238 742.473, 433.327 741.747 C 435.760 740.900, 440.496 741.765, 440.207 743.003 C 440.009 743.853, 440.652 744.061, 442.207 743.650 C 443.864 743.212, 444.967 743.658, 446.182 745.257 C 447.106 746.474, 448.180 747.153, 448.567 746.766 C 449.504 745.829, 446.289 741, 444.727 740.999 C 444.052 740.998, 442.193 739.873, 440.594 738.499 C 438.996 737.124, 437.110 736, 436.403 736 C 434.639 736, 433.969 734.669, 434.940 733.097 C 435.591 732.043, 436.231 732.105, 438.233 733.417 C 439.600 734.313, 441.457 734.762, 442.359 734.416 C 444.141 733.732, 444.592 730.484, 443.038 729.524 C 442.446 729.158, 442.422 728.021, 442.974 726.567 C 443.468 725.268, 443.622 723.956, 443.317 723.650 C 443.012 723.345, 443.551 722.306, 444.515 721.342 C 445.834 720.023, 445.947 719.482, 444.971 719.157 C 444.258 718.919, 443.136 719.462, 442.477 720.362 C 441.227 722.071, 437.486 722.595, 436.613 721.183 C 436.336 720.734, 437.415 719.595, 439.011 718.653 C 442.435 716.630, 442.042 714.260, 438.140 713.404 C 436.688 713.086, 435.177 712.752, 434.782 712.663 C 434.387 712.573, 434.465 711.854, 434.956 711.064 C 435.674 709.909, 436.140 709.871, 437.345 710.871 C 438.608 711.920, 438.758 711.790, 438.301 710.042 C 438.003 708.902, 437.363 707.724, 436.879 707.425 C 436.396 707.127, 436 705.806, 436 704.491 C 436 703.175, 435.438 701.740, 434.750 701.300 C 432.322 699.746, 432.989 696.959, 435.631 697.622 C 438.176 698.261, 438.011 696.625, 434.953 690.912 C 433.250 687.730, 434.835 686.943, 437.665 689.565 C 439.110 690.904, 441.371 692, 442.690 692 C 444.402 692, 445.004 692.490, 444.794 693.714 C 444.618 694.740, 445.260 695.583, 446.393 695.815 C 447.892 696.121, 448.172 695.764, 447.737 694.101 C 447.434 692.945, 447.595 692, 448.094 692 C 448.592 692, 449 691.298, 449 690.441 C 449 689.584, 448.592 689.134, 448.093 689.442 C 446.818 690.231, 448.091 685.654, 449.383 684.804 C 449.966 684.421, 450.056 683.747, 449.584 683.304 C 449.112 682.862, 448.525 683.063, 448.280 683.750 C 448.034 684.438, 447.083 685.007, 446.167 685.015 C 442.650 685.048, 441.324 686.776, 443.505 688.483 C 445.428 689.989, 445.392 690.035, 442.500 689.773 C 439.906 689.537, 439.525 689.128, 439.688 686.750 C 439.860 684.247, 439.568 684, 436.438 684 C 434.547 684, 433 683.503, 433 682.895 C 433 682.213, 434.500 681.933, 436.921 682.164 C 440.526 682.508, 440.887 682.315, 441.396 679.769 C 441.991 676.794, 442.651 676.473, 445 678.015 C 446.119 678.750, 446.196 679.197, 445.303 679.776 C 444.494 680.301, 444.419 681.031, 445.072 682.026 C 445.906 683.299, 446.221 683.261, 447.379 681.750 C 448.839 679.845, 451 679.398, 451 681 C 451 684.700, 452.718 681.004, 452.860 677 C 452.960 674.157, 452.597 672, 452.018 672 C 451.029 672, 450.622 673.318, 450.898 675.629 C 451.297 678.978, 447.194 677.581, 446.642 674.180 C 445.973 670.060, 446.134 669.774, 449.218 669.603 C 450.903 669.510, 451.479 668.891, 451.421 667.238 C 451.368 665.761, 451.923 665, 453.054 665 C 454.704 665, 456.065 662.117, 455.887 659 C 455.839 658.175, 455.504 658.557, 455.141 659.849 C 454.514 662.079, 454.315 661.966, 451.178 657.599 C 449.362 655.070, 448.354 653, 448.938 653 C 449.522 653, 450 652.325, 450 651.500 C 450 650.675, 449.325 650, 448.500 650 C 447.500 650, 447 651, 447 653 C 447 654.911, 446.490 656, 445.594 656 C 444.675 656, 444.370 656.700, 444.716 658.021 C 445.117 659.555, 445.560 659.780, 446.552 658.957 C 449.316 656.663, 451.168 663.975, 448.500 666.643 C 446.931 668.212, 446.825 668.062, 446.624 664 C 446.545 662.408, 445.905 661.495, 444.862 661.486 C 441.394 661.456, 436.809 656.867, 438.757 655.374 C 440.261 654.221, 440.298 653.906, 439.029 653.073 C 438.220 652.543, 437.872 651.795, 438.255 651.412 C 438.638 651.029, 439.622 651.272, 440.442 651.952 C 442.451 653.619, 444.244 652.871, 444.652 650.197 C 444.902 648.557, 444.482 648, 442.994 648 C 441.031 648, 440.607 647.139, 440.936 643.816 C 441.067 642.497, 440.443 642.216, 438.052 642.519 C 435.873 642.795, 435 642.490, 435 641.452 C 435 640.654, 435.402 640, 435.893 640 C 437.475 640, 437.978 637.047, 436.827 634.520 C 436.211 633.168, 435.323 632.300, 434.854 632.590 C 434.384 632.881, 434 632.641, 434 632.059 C 434 631.477, 434.845 631, 435.878 631 C 438.654 631, 440.366 628.354, 440.967 623.137 C 441.468 618.781, 441.682 618.498, 444.500 618.464 C 448.689 618.413, 450.428 617.221, 448.937 615.424 C 448.298 614.655, 448.084 613.232, 448.460 612.263 C 449.100 610.610, 449.231 610.620, 450.561 612.427 C 452.384 614.903, 453.826 613.553, 452.178 610.914 C 450.786 608.684, 451.380 607, 453.559 607 C 454.352 607, 455.032 606.438, 455.070 605.750 C 455.109 605.063, 455.527 605.400, 456 606.500 C 456.759 608.265, 456.868 608.174, 456.930 605.719 C 456.970 604.117, 456.364 602.693, 455.500 602.362 C 453.602 601.633, 453.572 599.286, 455.436 597.421 C 456.907 595.950, 458.642 597.152, 457.565 598.895 C 457.260 599.388, 457.721 600.063, 458.588 600.395 C 460.791 601.241, 461.213 601.154, 460.500 600 C 460.160 599.450, 460.832 599, 461.993 599 C 463.963 599, 464.075 599.417, 463.660 605.250 C 463.251 611.025, 463.037 611.500, 460.858 611.500 C 459.241 611.500, 458.542 610.959, 458.634 609.777 C 458.745 608.364, 458.414 608.243, 456.801 609.106 C 454.951 610.096, 454.934 610.270, 456.515 612.017 C 457.440 613.038, 457.901 614.351, 457.541 614.934 C 457.088 615.667, 457.663 615.698, 459.407 615.035 C 461.138 614.377, 462.145 614.426, 462.617 615.190 C 463.079 615.937, 463.733 615.719, 464.605 614.526 C 465.346 613.512, 466.569 613.004, 467.452 613.343 C 469.471 614.118, 469.418 612.567, 467.315 609.358 C 465.735 606.947, 465.735 606.728, 467.315 605.844 C 469.404 604.674, 469.533 602, 467.500 602 C 466.500 602, 466 601, 466 599 C 466 597.350, 466.394 596, 466.875 596 C 467.356 596, 468.020 597.350, 468.350 599 C 469.015 602.325, 469.756 602.630, 472.422 600.681 C 474.150 599.417, 474.136 599.187, 472.092 595.181 C 470.919 592.881, 470.418 591, 470.980 591 C 471.541 591, 472.052 589.763, 472.116 588.250 C 472.187 586.558, 472.408 586.173, 472.689 587.250 C 473.215 589.262, 474.633 589.608, 474.736 587.750 C 474.774 587.063, 475.125 585.066, 475.515 583.314 C 476.197 580.251, 476.104 580.131, 473.112 580.216 C 470.396 580.293, 468.375 582, 471 582 C 471.550 582, 472 582.563, 472 583.250 C 472 584.129, 469.953 584.500, 465.099 584.500 C 458.221 584.500, 456.417 582.312, 461.642 580.307 C 462.473 579.988, 463.649 578.551, 464.255 577.114 L 465.357 574.500 465.760 576.838 C 466.101 578.819, 466.569 579.074, 468.825 578.508 C 472.692 577.537, 474.462 575.909, 472.797 574.854 C 471.914 574.293, 472.297 574.016, 474 573.984 C 477.404 573.919, 480.984 571.226, 479.161 570.100 C 478.117 569.454, 478.208 569.134, 479.583 568.606 C 482.979 567.304, 483.630 569.895, 480.569 572.525 C 478.890 573.968, 478.275 575.006, 479.094 575.015 C 480.237 575.028, 480.220 575.208, 479 575.979 C 477.460 576.953, 476.689 586, 478.146 586 C 478.554 586, 479.684 584.650, 480.659 583 C 481.634 581.350, 483.164 580, 484.061 580 C 484.957 580, 486.505 579.100, 487.500 578 C 488.495 576.900, 490.140 576, 491.155 576 C 492.333 576, 493 575.277, 493 574 C 493 571.848, 488.696 571.065, 487.500 573 C 487.160 573.550, 487.696 574.007, 488.691 574.015 C 490.173 574.028, 490.239 574.196, 489.054 574.946 C 486.396 576.627, 483.477 574.235, 485.482 572.020 C 486.513 570.880, 486.748 569.962, 486.109 569.567 C 485.547 569.220, 485.351 568.249, 485.674 567.408 C 486.059 566.404, 485.531 565.690, 484.130 565.324 C 481.467 564.627, 481.351 562.403, 483.942 561.725 C 486.352 561.095, 487 561.705, 487 564.600 C 487 566.509, 487.420 566.791, 489.661 566.385 C 491.225 566.101, 492.667 566.438, 493.161 567.201 C 493.837 568.247, 494.181 568.218, 494.931 567.052 C 495.663 565.914, 496.010 566.190, 496.551 568.346 C 497.340 571.489, 499.346 571.388, 499.818 568.180 C 499.994 566.991, 501.016 565.402, 502.091 564.649 C 503.308 563.796, 503.807 562.662, 503.415 561.640 C 502.617 559.559, 502.421 559.579, 500 562 C 497.847 564.153, 496 564.615, 496 563 C 496 562.450, 496.408 562, 496.906 562 C 497.405 562, 497.562 561.040, 497.255 559.866 C 496.719 557.818, 496.639 557.841, 495.281 560.433 C 493.793 563.272, 492.501 562.964, 489.282 559 C 488.286 557.774, 488.058 557.755, 488.032 558.896 C 488.005 560.088, 485.205 557.503, 482.190 553.500 C 480.582 551.366, 481.420 547.493, 483.450 547.672 C 486.360 547.929, 491.202 545.143, 490.341 543.707 C 489.896 542.967, 490.270 543.031, 491.308 543.872 C 492.239 544.627, 493 546.315, 493 547.622 C 493 549.056, 493.588 550, 494.481 550 C 495.295 550, 496.247 551.137, 496.596 552.526 C 497.350 555.531, 499.947 557.169, 502.071 555.980 C 504.164 554.809, 505.786 556.035, 506.365 559.228 C 507.186 563.757, 508.933 566.098, 508.970 562.719 C 508.986 561.189, 509.675 559.678, 510.500 559.362 C 512.521 558.586, 512.396 557.250, 510.250 556.689 C 508.685 556.280, 508.678 556.220, 510.183 556.116 C 511.108 556.052, 512.151 555.100, 512.500 554 C 513.237 551.678, 516 551.283, 516 553.500 C 516 557.400, 523.681 560.456, 524.829 557.012 C 525.114 556.157, 524.732 555.889, 523.761 556.262 C 522.789 556.634, 521.855 555.976, 521.146 554.421 C 520.521 553.050, 519.187 552, 518.068 552 C 516.205 552, 513.237 545.429, 514.521 544.146 C 515.262 543.405, 519 547.168, 519 548.655 C 519 549.395, 519.620 550, 520.378 550 C 521.136 550, 522.475 551.013, 523.354 552.250 C 524.836 554.337, 525.029 554.373, 526.025 552.750 C 526.616 551.788, 527.955 551, 529 551 C 530.045 551, 531.339 550.216, 531.875 549.258 C 532.411 548.300, 533.173 547.840, 533.567 548.234 C 533.962 548.629, 533.716 549.638, 533.020 550.476 C 532.034 551.664, 532.026 552, 532.986 552 C 533.800 552, 534.004 552.848, 533.589 554.500 C 533.075 556.548, 533.327 557, 534.981 557 C 536.091 557, 537.052 556.438, 537.115 555.750 C 537.179 555.063, 537.291 553.864, 537.365 553.086 C 537.439 552.308, 537.965 551.516, 538.534 551.325 C 540.823 550.556, 539.163 565.344, 536.737 567.337 C 535.507 568.347, 535.056 568.887, 535.735 568.537 C 536.651 568.065, 536.801 568.751, 536.316 571.200 C 535.723 574.196, 535.817 574.373, 537.331 573.128 C 538.249 572.373, 539 570.910, 539 569.878 C 539 568.845, 539.450 568, 540 568 C 541.305 568, 541.266 569.939, 539.881 573.912 C 539.158 575.987, 538.273 576.935, 537.381 576.593 C 536.373 576.206, 536 576.983, 536 579.472 C 536 583.324, 537.797 585.114, 539.181 582.640 C 540.823 579.708, 542 580.902, 542 585.500 C 542 588.919, 541.624 590, 540.433 590 C 539.320 590, 539.050 589.419, 539.500 588 C 540.412 585.125, 538.535 585.530, 537.182 588.500 C 536.326 590.378, 536.329 591, 537.193 591 C 537.825 591, 539.202 591.778, 540.253 592.729 C 542.064 594.368, 542.214 594.368, 543.132 592.729 C 543.664 591.778, 544.993 591, 546.085 591 C 547.845 591, 547.929 591.256, 546.830 593.250 C 546.148 594.487, 545.711 596.288, 545.858 597.250 C 546.005 598.212, 545.535 599.045, 544.813 599.100 C 544.091 599.155, 544.625 599.510, 546 599.889 C 548.536 600.589, 550.366 606, 548.066 606 C 547.480 606, 547 605.550, 547 605 C 547 604.450, 546.188 604, 545.195 604 C 543.092 604, 542.824 610.224, 544.840 612.240 C 545.478 612.878, 546 614.174, 546 615.119 C 546 617.554, 549.303 623.059, 550.500 622.618 C 551.050 622.416, 551.445 621.856, 551.377 621.375 C 551.310 620.894, 550.967 618.587, 550.615 616.250 C 550.052 612.505, 550.204 612, 551.895 612 C 553.320 612, 553.679 611.487, 553.290 610 C 552.997 608.882, 553.259 608, 553.883 608 C 555.578 608, 555.235 602.304, 553.500 601.638 C 550.362 600.434, 551.769 597.704, 555.177 598.385 C 559.249 599.200, 559.396 599.393, 557.844 601.878 C 556.856 603.461, 556.826 604.226, 557.721 605.121 C 558.365 605.765, 558.646 607.521, 558.345 609.025 C 558.044 610.528, 558.203 612.007, 558.697 612.313 C 560.191 613.236, 562.310 611.329, 562.489 608.899 C 562.668 606.470, 564.969 604.910, 565.045 607.167 C 565.070 607.900, 565.708 607.150, 566.464 605.500 C 567.360 603.543, 567.866 603.109, 567.919 604.250 C 567.963 605.212, 568.450 606, 569 606 C 569.550 606, 569.986 606.788, 569.968 607.750 C 569.933 609.694, 567 614.083, 567 612.191 C 567 610.003, 565.225 610.967, 564.589 613.500 C 564.244 614.875, 563.295 616, 562.481 616 C 561.666 616, 560.993 616.563, 560.985 617.250 C 560.974 618.118, 560.692 618.061, 560.061 617.064 C 559.354 615.947, 558.838 615.890, 557.734 616.806 C 556.102 618.160, 554.903 617.416, 555.637 615.503 C 555.912 614.788, 555.656 613.905, 555.068 613.542 C 553.961 612.858, 553.898 613.184, 553.768 620.250 C 553.706 623.648, 554.067 624.573, 555.570 624.867 C 556.604 625.068, 557.965 625.937, 558.593 626.797 C 560.195 628.987, 562.297 625.283, 560.885 622.759 C 560.251 621.627, 560.359 620.398, 561.210 619.035 C 562.595 616.817, 565 616.282, 565 618.191 C 565 618.846, 565.668 618.509, 566.484 617.441 C 567.936 615.540, 567.980 615.547, 568.600 617.750 C 569.091 619.496, 569.936 619.982, 572.367 619.921 C 574.090 619.878, 574.825 619.591, 574 619.284 C 570.597 618.018, 568.522 614.822, 570.272 613.543 C 571.158 612.895, 572.056 611.072, 572.268 609.491 C 572.479 607.909, 573.181 606.440, 573.826 606.225 C 575.286 605.738, 575.450 612.604, 574 613.500 C 572.174 614.628, 572.965 616, 575.441 616 C 578.676 616, 579.765 614.032, 577.462 612.348 C 576.447 611.607, 576.151 611, 576.803 611 C 577.784 611, 577.865 608.359, 576.956 606 C 576.850 605.725, 576.832 605.116, 576.916 604.646 C 577.407 601.905, 575.840 600.083, 573.987 601.240 C 572.944 601.891, 571.746 602.079, 571.324 601.658 C 570.903 601.236, 571.081 600.568, 571.720 600.173 C 572.534 599.670, 572.031 598.090, 570.037 594.885 C 567.272 590.443, 567.254 590.326, 569.389 590.734 C 570.777 590.999, 571.646 591.954, 571.748 593.327 C 571.926 595.723, 575.688 599.311, 577.104 598.436 C 578.438 597.611, 578.187 596, 576.724 596 C 575.862 596, 575.454 594.420, 575.466 591.124 C 575.479 587.624, 575.839 586.385, 576.742 586.731 C 577.434 586.997, 578 587.525, 578 587.906 C 578 588.287, 579.636 588.407, 581.636 588.174 C 584.160 587.879, 585.060 588.094, 584.577 588.875 C 584.195 589.494, 583.196 590, 582.358 590 C 581.519 590, 581.026 590.563, 581.262 591.250 C 581.498 591.938, 583.104 592.496, 584.831 592.491 C 588.470 592.481, 589.136 593.520, 587.720 597 C 585.907 601.456, 586.061 602.431, 589.045 605.348 L 591.983 608.221 592.860 605.860 C 593.833 603.243, 593.330 601, 591.771 601 C 591.172 601, 591.251 600.403, 591.964 599.544 C 592.628 598.743, 592.843 597.556, 592.442 596.906 C 592.040 596.256, 591.605 593.873, 591.476 591.612 C 591.346 589.350, 591.444 588.288, 591.693 589.250 C 591.943 590.212, 592.590 591, 593.132 591 C 593.674 591, 593.863 591.412, 593.552 591.916 C 592.518 593.589, 594.928 598.022, 597.377 598.953 C 598.704 599.458, 599.950 600.290, 600.145 600.803 C 600.340 601.316, 601.578 602.071, 602.896 602.482 L 605.292 603.227 602.646 600.374 C 601.191 598.804, 600 597.251, 600 596.921 C 600 596.591, 598.844 595.794, 597.432 595.151 C 593.839 593.514, 594.332 589.365, 598.068 589.798 C 600.022 590.024, 600.921 589.468, 601.832 587.469 C 603.136 584.607, 604.755 584.596, 606.429 587.438 C 607.223 588.786, 607.177 589.375, 606.250 589.712 C 605.562 589.962, 605 590.804, 605 591.583 C 605 592.363, 604.100 593, 603 593 C 601.900 593, 601 593.464, 601 594.031 C 601 595.687, 603.896 596.331, 605.469 595.026 C 606.955 593.793, 609 594.391, 609 596.059 C 609 596.577, 608.325 597, 607.500 597 C 606.675 597, 606 597.632, 606 598.403 C 606 600.247, 615.872 601.125, 618 599.470 C 618.825 598.829, 620.288 598.025, 621.250 597.683 C 622.212 597.342, 623 596.450, 623 595.700 C 623 594.951, 624.125 593.736, 625.500 593 C 628.510 591.389, 628.741 590, 626 590 C 624.900 590, 624 590.450, 624 591 C 624 591.550, 623.531 592, 622.958 592 C 621.394 592, 618.265 595.254, 617.858 597.303 C 617.352 599.851, 615.603 599.553, 614.955 596.809 C 614.655 595.539, 613.980 594.493, 613.455 594.485 C 611.568 594.454, 610 592.846, 610 590.941 C 610 589.873, 609.438 588.993, 608.750 588.985 C 607.917 588.974, 608 588.646, 609 588 C 611.361 586.474, 612 586.809, 612 589.570 C 612 591.638, 612.423 592.077, 614.172 591.820 C 616.378 591.495, 617.532 587.639, 616.064 585.500 C 615.466 584.629, 615.411 583.452, 615.875 581.465 C 615.944 581.170, 616.913 581.418, 618.028 582.015 C 619.143 582.612, 619.789 583.532, 619.463 584.059 C 618.528 585.573, 619.987 589, 621.567 589 C 622.355 589, 623 588.100, 623 587 C 623 584.729, 623.383 584.599, 625.981 585.990 C 628.396 587.282, 630.551 596.631, 628.894 598.627 C 626.786 601.167, 629.873 600.161, 632.121 597.575 C 634.453 594.893, 637 595.171, 637 598.107 C 637 602.780, 642.430 605.346, 644.182 601.500 C 644.808 600.125, 645.876 599, 646.554 599 C 647.231 599, 648.054 598.302, 648.382 597.448 C 648.723 596.558, 648.555 596.157, 647.989 596.507 C 647.445 596.843, 647 596.143, 647 594.952 C 647 593.438, 646.549 592.959, 645.500 593.362 C 643.528 594.118, 643.598 593.102, 645.676 590.805 C 646.874 589.481, 647.045 588.645, 646.275 587.875 C 645.534 587.134, 645.506 585.815, 646.186 583.649 C 646.730 581.917, 647.204 578.925, 647.239 577 C 647.309 573.157, 648.328 572.038, 651.781 572.015 C 653.036 572.007, 654.334 571.292, 654.666 570.427 C 655.109 569.275, 656.345 568.941, 659.294 569.177 C 662.198 569.410, 663.451 569.083, 663.796 568 C 664.059 567.175, 663.916 566.834, 663.479 567.241 C 663.042 567.649, 662.193 567.595, 661.592 567.122 C 659.745 565.666, 653 564.782, 653 565.997 C 653 567.698, 649.280 571.262, 648.620 570.194 C 648.295 569.668, 649.147 567.589, 650.514 565.574 C 653.401 561.320, 653.550 560.425, 651.500 559.638 C 649.281 558.787, 649.664 556, 652 556 C 653.333 556, 654 556.667, 654 558 C 654 560.288, 655.032 560.558, 656.871 558.750 C 657.891 557.747, 658.506 557.945, 659.981 559.750 C 660.993 560.987, 662.311 562, 662.910 562 C 664.407 562, 664.287 563.726, 662.750 564.302 C 661.884 564.627, 662.114 565.257, 663.500 566.353 C 666.419 568.664, 668.586 568.404, 668.539 565.750 C 668.488 562.810, 670.227 562.191, 671.508 564.693 C 673.036 567.678, 677.577 565.864, 678.359 561.955 C 678.710 560.201, 679.582 559, 680.506 559 C 681.362 559, 682.361 558.222, 682.726 557.272 C 684.034 553.862, 688.271 550.732, 689.238 552.461 C 689.712 553.307, 690.752 554, 691.550 554 C 692.347 554, 693 554.450, 693 555 C 693 556.148, 695.947 556.386, 696.103 555.250 C 696.913 549.369, 696.713 547.173, 695.415 547.671 C 694.471 548.033, 694 547.513, 694 546.107 C 694 544.948, 694.563 543.948, 695.250 543.885 C 695.938 543.821, 697.175 543.702, 698 543.619 C 698.825 543.536, 700.057 543.863, 700.737 544.346 C 702.803 545.812, 705.480 544.283, 703.990 542.488 C 702.616 540.832, 696 540.428, 696 542 C 696 542.550, 695.270 543, 694.378 543 C 693.119 543, 693.009 542.694, 693.890 541.633 C 695.349 539.874, 692.997 537.680, 690.627 538.590 C 689.732 538.933, 688.274 538.936, 687.387 538.595 C 684.682 537.557, 687.745 535, 691.694 535 C 694.764 535, 695.108 534.734, 694.826 532.578 C 694.644 531.193, 695.505 528.809, 696.835 527.010 C 698.214 525.145, 698.903 523.189, 698.527 522.209 C 698.023 520.897, 697.723 520.830, 697.071 521.885 C 696.564 522.705, 696.013 522.830, 695.631 522.212 C 695.290 521.660, 695.676 520.954, 696.489 520.643 C 697.328 520.321, 697.711 519.411, 697.376 518.538 C 696.496 516.244, 698.758 516.679, 700.026 519.048 C 700.836 520.562, 701.693 520.920, 703.311 520.420 C 705.280 519.812, 705.224 520.003, 702.750 522.324 C 698.021 526.761, 702.088 534, 709.309 534 C 711.169 534, 708.977 529.330, 706.564 528.148 C 703.268 526.534, 704.369 524.932, 708.250 525.694 C 710.048 526.046, 711 526.865, 711 528.058 C 711 529.061, 711.449 530.160, 711.999 530.499 C 712.548 530.838, 712.926 530.303, 712.840 529.308 C 712.497 525.361, 713.051 524, 715 524 C 716.403 524, 717.005 524.672, 717.015 526.250 C 717.027 527.941, 717.250 528.153, 717.914 527.105 C 718.534 526.126, 719.994 525.870, 722.806 526.247 C 725.011 526.543, 727.194 526.434, 727.658 526.005 C 728.121 525.576, 729.513 524.919, 730.750 524.545 C 734.685 523.356, 733.261 526.039, 729.010 527.824 C 724.003 529.927, 723.885 530.930, 728.721 530.279 C 734.040 529.562, 738.081 523.357, 733.935 522.273 C 732.871 521.994, 732 520.967, 732 519.990 C 732 516.747, 729.191 516.854, 728.473 520.125 C 727.670 523.779, 725.370 524.889, 723.605 522.474 C 722.699 521.236, 722.089 521.046, 721.594 521.849 C 720.726 523.252, 719 523.369, 719 522.025 C 719 521.489, 721.025 520.127, 723.500 519 C 725.975 517.873, 728 516.479, 728 515.904 C 728 514.350, 730.985 511.651, 731.798 512.470 C 732.184 512.859, 732.500 514.375, 732.500 515.839 C 732.500 517.760, 732.987 518.461, 734.250 518.361 C 735.212 518.285, 736 518.532, 736 518.911 C 736 519.290, 737.575 519.600, 739.500 519.600 C 741.425 519.600, 743 519.163, 743 518.629 C 743 516.853, 746.167 514.127, 747.594 514.674 C 748.443 515, 749 514.577, 749 513.607 C 749 512.723, 749.480 512, 750.067 512 C 750.654 512, 750.898 512.788, 750.608 513.750 C 749.929 516.007, 754.841 521.876, 755.932 520.110 C 756.516 519.165, 757.260 519.162, 759.311 520.096 C 761.379 521.038, 762.265 521.025, 763.458 520.035 C 764.292 519.343, 765.655 519.037, 766.487 519.357 C 767.381 519.700, 768 519.380, 768 518.576 C 768 516.836, 765.785 515.982, 763.096 516.685 C 761.943 516.987, 761 516.768, 761 516.198 C 761 514.002, 762.277 512, 763.678 512 C 764.484 512, 765.818 511.325, 766.643 510.500 C 768.745 508.398, 771.733 508.633, 773 511 C 774.056 512.974, 773.871 513.206, 771.082 513.407 C 768.633 513.583, 768.909 515.450, 771.566 516.683 C 773.641 517.646, 774.216 517.600, 774.664 516.433 C 774.967 515.645, 776.013 515, 776.990 515 C 777.967 515, 778.983 514.174, 779.247 513.165 C 779.633 511.688, 779.265 511.418, 777.363 511.781 C 775.450 512.147, 775 511.808, 775 510 C 775 508.259, 775.441 507.882, 776.999 508.289 C 779.475 508.937, 780.200 507.838, 780.200 503.434 C 780.200 499.660, 780.709 499.335, 783.465 501.350 C 784.760 502.297, 785.126 503.410, 784.691 505.074 C 783.962 507.860, 787.261 512, 790.209 512 C 791.760 512, 791.892 511.667, 791 510 C 790.274 508.644, 790.263 508, 790.965 508 C 792.058 508, 792.116 508.146, 792.495 511.831 C 792.657 513.409, 792.050 514.439, 790.617 515.018 C 787.226 516.388, 791.374 516.254, 796.384 514.831 C 801.198 513.465, 802.599 512.488, 801.087 511.554 C 800.489 511.184, 800 511.316, 800 511.847 C 800 512.378, 799.100 512.577, 798 512.290 C 796.577 511.918, 796 510.926, 796 508.852 C 796 507.184, 795.359 505.691, 794.500 505.362 C 793.675 505.045, 793 504.215, 793 503.518 C 793 502.821, 791.650 501.980, 790 501.650 C 786.347 500.919, 786.198 499.879, 789.523 498.337 C 792.430 496.988, 795 498.741, 795 502.071 C 795 503.132, 795.394 504, 795.875 504 C 796.356 504, 797.034 505.422, 797.382 507.160 C 798.181 511.157, 799.208 510.180, 799.935 504.731 C 800.653 499.353, 802.596 500.116, 802.213 505.626 C 801.954 509.349, 802.174 509.800, 804.463 510.238 C 806.444 510.616, 807 510.315, 807 508.861 C 807 506.905, 808.039 506.636, 811.750 507.630 C 813.090 507.989, 814 509.008, 814 510.149 C 814 511.202, 814.697 513.732, 815.549 515.771 C 817.456 520.336, 816.742 523.718, 813.748 524.294 C 812.313 524.571, 812.817 524.777, 815.143 524.864 C 817.564 524.954, 818.980 524.494, 819.365 523.491 C 819.684 522.661, 820.375 522.098, 820.902 522.241 C 821.428 522.383, 822.453 521.705, 823.179 520.734 C 824.394 519.109, 824.512 519.171, 824.646 521.506 C 824.786 523.959, 826.587 527.016, 827.872 526.985 C 831 526.908, 833.144 517.351, 830.729 514.250 C 830.078 513.414, 830.127 513, 830.878 513 C 831.495 513, 832 513.450, 832 514 C 832 516.001, 834.504 514.925, 837.237 511.750 C 840.596 507.848, 841.966 509.024, 841.252 515.201 C 840.895 518.297, 841.102 519.133, 842.143 518.786 C 842.980 518.507, 843.524 516.745, 843.562 514.188 C 843.637 509.183, 844.450 508.175, 847.086 509.822 C 848.184 510.507, 849.462 510.833, 849.927 510.545 C 850.879 509.957, 852.169 513.918, 851.420 515.130 C 850.679 516.329, 848 514.968, 848 513.393 C 848 512.627, 847.494 512, 846.875 512 C 846.163 512, 845.966 513.081, 846.339 514.943 C 846.818 517.340, 846.440 518.241, 844.301 519.799 C 842.560 521.068, 841.888 522.265, 842.306 523.356 C 843.153 525.562, 844.727 525.436, 845.467 523.103 C 845.865 521.851, 846.705 521.372, 847.938 521.694 C 849.213 522.027, 850.018 521.518, 850.471 520.091 C 851.148 517.957, 853 517.173, 853 519.020 C 853 519.580, 854.098 519.840, 855.441 519.597 C 857.330 519.254, 857.951 519.627, 858.191 521.249 C 858.711 524.774, 860.830 524.342, 862.489 520.372 C 864.769 514.915, 862.354 511.458, 859.047 515.444 C 854.706 520.674, 851.487 510.450, 855.049 502.750 C 856.485 499.646, 861 498.780, 861 501.608 C 861 502.825, 860.391 503.064, 858.500 502.589 C 857.058 502.228, 856 502.393, 856 502.981 C 856 503.541, 856.436 504, 856.969 504 C 857.501 504, 857.734 504.563, 857.486 505.250 C 856.886 506.914, 860.450 511.458, 861.734 510.665 C 862.288 510.322, 863.039 507.670, 863.402 504.771 C 863.766 501.872, 864.237 498.600, 864.448 497.500 C 864.660 496.400, 864.871 495.163, 864.917 494.750 C 864.962 494.337, 866.125 494, 867.500 494 C 869.381 494, 870.038 493.443, 870.152 491.750 C 870.236 490.512, 870.409 489.050, 870.537 488.500 C 870.665 487.950, 870.821 486.712, 870.885 485.750 C 870.956 484.672, 871.811 484, 873.111 484 C 875.532 484, 875.175 488.827, 872.351 494.288 C 870.885 497.122, 870.896 497.142, 873.687 496.823 C 876.174 496.537, 876.500 496.094, 876.500 493 C 876.500 488.334, 878.229 485.490, 880.530 486.373 C 882.232 487.026, 882.232 487.110, 880.531 488.354 C 876.875 491.027, 879.389 493.765, 885.003 493.226 C 888.957 492.846, 890.093 493.079, 890.590 494.374 C 891.606 497.022, 894.925 496.458, 894.262 493.750 C 893.959 492.512, 893.326 491.004, 892.856 490.398 C 890.946 487.937, 893.917 483.276, 897.805 482.633 C 903.832 481.636, 904.453 481.750, 902.942 483.570 C 902.226 484.433, 900.842 484.930, 899.866 484.675 C 896.347 483.755, 894.497 486.286, 896.198 489.694 C 897.352 492.008, 897.430 493.059, 896.540 494.276 C 895.905 495.145, 895.583 497.552, 895.825 499.624 L 896.265 503.392 898.131 501.087 C 899.530 499.359, 899.907 497.564, 899.637 493.920 C 899.283 489.139, 899.343 489.023, 903.258 486.982 C 907.925 484.550, 908.509 484.788, 906.844 488.442 C 905.980 490.340, 905.933 491.345, 906.688 491.822 C 907.279 492.195, 907.760 493.756, 907.756 495.292 C 907.748 498.745, 908.539 499.627, 910.318 498.151 C 911.069 497.528, 911.980 497.313, 912.342 497.675 C 913.358 498.691, 913.120 501.192, 912.069 500.543 C 911.557 500.226, 910.856 500.425, 910.510 500.984 C 910.165 501.543, 910.359 502, 910.941 502 C 913.316 502, 911.792 504.792, 909.126 505.325 C 904.312 506.288, 904.286 510.171, 909.062 515.297 C 910.047 516.354, 910.613 517.845, 910.320 518.610 C 909.481 520.796, 910.753 523.032, 912.462 522.376 C 914.192 521.712, 914.540 518.452, 912.984 517.490 C 911.008 516.269, 913.280 514.806, 916.234 515.397 C 919.093 515.969, 919.207 515.860, 918.784 512.979 C 918.256 509.385, 919.725 507.902, 923.931 507.783 C 925.910 507.727, 927 507.179, 927 506.241 C 927 505.293, 926.418 505.009, 925.330 505.427 C 924.411 505.779, 923.321 505.519, 922.906 504.848 C 922.323 503.904, 921.779 503.939, 920.500 505 C 919.098 506.164, 918.716 506.159, 917.981 504.969 C 916.622 502.770, 918.631 501.273, 922.944 501.273 C 925.246 501.273, 927.547 500.596, 928.506 499.636 C 930.428 497.715, 931.615 497.568, 932.581 499.132 C 932.966 499.754, 932.543 500.676, 931.640 501.181 C 928.761 502.793, 929.590 505.320, 932.740 504.529 C 935.857 503.747, 937.351 501.951, 936.005 500.605 C 935.456 500.056, 935.491 498.950, 936.093 497.826 C 938.184 493.920, 934.020 492.518, 930.926 496.086 C 928.927 498.390, 925 497.957, 925 495.433 C 925 494.456, 926.140 494, 928.583 494 C 931.006 494, 932.032 493.595, 931.750 492.750 C 931.521 492.063, 930.583 491.537, 929.667 491.583 C 922.464 491.943, 919.757 492.299, 921.250 492.689 C 922.212 492.941, 923 493.564, 923 494.073 C 923 494.583, 922.212 495.036, 921.250 495.079 C 920.288 495.122, 920.037 495.376, 920.694 495.644 C 922.596 496.417, 920.992 499.132, 919.006 498.502 C 917.775 498.111, 917.041 498.627, 916.557 500.222 C 916.093 501.750, 915.685 502.056, 915.316 501.151 C 915.015 500.410, 915.351 498.713, 916.064 497.381 C 917.007 495.618, 917.060 494.660, 916.258 493.858 C 915.652 493.252, 915.392 492.142, 915.680 491.392 C 915.998 490.564, 915.181 489.639, 913.602 489.039 C 912.171 488.495, 911 487.787, 911 487.466 C 911 487.145, 911.437 487.152, 911.971 487.482 C 913.421 488.378, 914.405 483.193, 913.086 481.604 C 912.223 480.564, 912.274 480.109, 913.296 479.717 C 914.037 479.432, 915.142 479.998, 915.752 480.974 C 918.460 485.311, 922.953 481.445, 922.986 474.750 C 922.994 473.238, 923.436 472, 923.970 472 C 924.503 472, 924.883 473.504, 924.813 475.343 C 924.744 477.181, 925.012 479.210, 925.407 479.850 C 925.814 480.507, 925.428 481.282, 924.521 481.630 C 923.638 481.969, 922.987 482.978, 923.073 483.873 C 923.436 487.630, 923.026 488.223, 920.500 487.589 C 917.957 486.951, 916.809 489.146, 918.983 490.489 C 922.357 492.575, 926.847 489.820, 926.457 485.903 C 926.244 483.756, 926.401 482, 926.807 482 C 929.312 482, 931.303 474.992, 929.407 472.852 C 927.501 470.702, 927.502 470.701, 930.250 471.369 C 933.336 472.120, 933.694 471.300, 931.532 468.441 C 929.879 466.255, 929.551 464, 930.886 464 C 934.559 464, 936.841 478.309, 933.250 478.820 C 932.013 478.995, 931 479.783, 931 480.570 C 931 481.356, 930.325 482, 929.500 482 C 928.675 482, 928 482.450, 928 483 C 928 484.257, 931.684 484.321, 932.452 483.077 C 932.766 482.569, 934.340 481.865, 935.951 481.511 C 937.943 481.073, 938.978 480.170, 939.189 478.684 C 939.395 477.235, 940.093 476.600, 941.263 476.797 C 943.865 477.235, 944.527 474.249, 942.371 471.793 C 940.583 469.755, 940.581 469.690, 942.332 470.330 C 943.339 470.699, 944.936 471, 945.881 471 C 947.255 471, 947.517 471.700, 947.190 474.500 C 946.835 477.537, 946.423 478, 944.075 478 C 940 478, 940.292 486.321, 944.385 486.816 C 945.823 486.990, 947 487.583, 947 488.134 C 947 488.684, 946.161 488.868, 945.135 488.543 C 943.610 488.059, 943.164 488.605, 942.688 491.533 C 942.046 495.489, 942.719 498.292, 944.105 497.435 C 944.597 497.131, 945 497.584, 945 498.441 C 945 499.298, 944.325 500, 943.500 500 C 942.588 500, 942.031 500.882, 942.079 502.250 C 942.122 503.488, 942.386 503.935, 942.664 503.244 C 942.943 502.553, 943.595 502.250, 944.113 502.570 C 945.940 503.699, 948.828 498.715, 948.285 495.369 C 947.865 492.783, 948.157 492.085, 949.886 491.536 C 952.245 490.787, 952.653 489.430, 950.750 488.662 C 950.063 488.385, 950.764 488.122, 952.309 488.079 C 953.942 488.033, 954.855 487.575, 954.490 486.984 C 954.144 486.425, 953.443 486.226, 952.931 486.543 C 952.419 486.859, 952 486.443, 952 485.618 C 952 483, 953.665 482.969, 954.848 485.565 C 955.773 487.597, 955.708 488.175, 954.500 488.639 C 953.681 488.953, 953.292 489.663, 953.634 490.217 C 953.976 490.770, 953.636 491.616, 952.878 492.096 C 951.855 492.744, 952.080 492.973, 953.750 492.985 C 956.278 493.002, 956.569 494.116, 954.788 496.968 C 952.432 500.740, 955.007 500.234, 958.976 496.144 C 961.188 493.865, 963.621 492, 964.382 492 C 966.683 492, 967.082 488.068, 964.918 486.716 C 963.863 486.058, 963 484.727, 963 483.759 C 963 482.792, 962.325 482, 961.500 482 C 960.675 482, 960 481.550, 960 481 C 960 479.652, 961.139 479.790, 963.250 481.392 C 964.212 482.123, 965 483.496, 965 484.444 C 965 485.400, 965.556 485.963, 966.250 485.708 C 966.938 485.456, 967.376 484.710, 967.225 484.051 C 967.074 483.391, 967.442 483.155, 968.043 483.526 C 968.661 483.908, 969.373 483.290, 969.684 482.101 C 969.986 480.945, 970.911 480, 971.739 480 C 972.885 480, 972.979 479.680, 972.131 478.658 C 970.811 477.067, 971.626 476, 974.161 476 C 975.667 476, 975.909 475.387, 975.540 472.500 C 975.039 468.590, 977.154 467.552, 978.916 470.843 C 979.705 472.317, 979.225 473.405, 976.525 476.267 C 974.172 478.762, 973.311 480.472, 973.686 481.906 C 974.087 483.441, 973.595 484.204, 971.748 484.906 C 969.195 485.876, 967.216 489, 969.154 489 C 969.874 489, 969.821 489.511, 969 490.500 C 967.986 491.722, 968.038 492, 969.284 492 C 970.320 492, 970.644 492.644, 970.290 494 C 969.666 496.387, 969.310 496.453, 967.400 494.542 C 966.598 493.741, 965.327 493.321, 964.575 493.609 C 962.500 494.406, 964.178 499.465, 966.576 499.644 C 970.340 499.925, 970.476 500.086, 968.410 501.814 C 967.068 502.936, 966.544 504.199, 966.945 505.344 C 967.514 506.967, 967.815 506.901, 970.285 504.611 C 973.046 502.053, 973.809 500, 972 500 C 971.450 500, 971 499.151, 971 498.114 C 971 496.217, 976.247 493, 979.342 493 C 981.470 493, 982.449 494.890, 980.674 495.572 C 979.813 495.902, 979.427 496.918, 979.727 498.065 C 980.295 500.235, 982.565 500.666, 983.338 498.750 C 983.615 498.063, 983.878 498.706, 983.921 500.180 C 983.981 502.202, 983.464 502.939, 981.817 503.180 C 979.449 503.527, 977.349 508.749, 978.939 510.339 C 980.200 511.600, 982 510.223, 982 507.998 C 982 506.072, 982.461 506.036, 988.250 507.515 C 991.080 508.237, 992.343 505.948, 989.935 504.460 C 987.913 503.210, 992.114 500, 995.772 500 C 998.741 500, 999.159 499.716, 998.710 497.999 C 997.585 493.695, 1005.048 490.943, 1008.047 494.556 C 1008.941 495.634, 1008.634 495.801, 1006.478 495.410 C 1003.010 494.781, 1001.368 496.223, 1000.544 500.619 C 1000.128 502.836, 999.417 503.990, 998.648 503.695 C 997.912 503.413, 997.338 504.184, 997.220 505.612 C 997.072 507.395, 997.526 508, 999.011 508 C 1000.483 508, 1001 507.328, 1001 505.417 C 1001 503.783, 1001.459 502.994, 1002.250 503.272 C 1002.938 503.513, 1003.370 504.900, 1003.212 506.355 C 1003.054 507.810, 1003.391 509, 1003.962 509 C 1004.533 509, 1005 507.875, 1005 506.500 C 1005 505.125, 1005.450 504, 1006 504 C 1006.550 504, 1007.014 504.788, 1007.030 505.750 C 1007.058 507.360, 1007.147 507.352, 1008.134 505.654 C 1008.903 504.330, 1008.895 503.495, 1008.104 502.704 C 1006.128 500.728, 1006.927 500, 1011.071 500 C 1013.357 500, 1015.801 499.342, 1016.643 498.500 C 1017.468 497.675, 1019.044 497, 1020.145 497 C 1021.521 497, 1022.035 496.453, 1021.788 495.250 C 1021.510 493.893, 1020.594 493.566, 1017.715 493.793 C 1015.672 493.955, 1014 493.779, 1014 493.404 C 1014 492.269, 1017.386 490.066, 1019.183 490.032 C 1021.376 489.990, 1022.407 486.628, 1021.020 484.038 C 1019.445 481.095, 1018.230 481.514, 1016.528 485.588 C 1015.026 489.183, 1012.782 489.786, 1012.193 486.753 C 1012.020 485.860, 1012.783 484.886, 1013.945 484.517 C 1015.571 484.001, 1015.882 483.301, 1015.421 481.182 C 1015.030 479.383, 1015.144 478.932, 1015.767 479.813 C 1018.133 483.158, 1026.263 480.723, 1025.280 476.963 C 1024.924 475.603, 1025.269 475, 1026.402 475 C 1027.648 475, 1027.888 475.597, 1027.411 477.500 C 1026.997 479.148, 1027.201 480, 1028.008 480 C 1028.774 480, 1029.020 480.816, 1028.665 482.175 C 1028.305 483.549, 1028.690 484.784, 1029.710 485.530 C 1032.205 487.355, 1030.665 490.432, 1028.068 488.811 C 1025.400 487.144, 1024.369 488.453, 1025.980 491.463 C 1026.823 493.038, 1028.054 493.848, 1029.399 493.712 C 1030.554 493.595, 1031.420 493.966, 1031.321 494.536 C 1031.223 495.105, 1031.898 495.586, 1032.821 495.604 C 1033.745 495.621, 1035.625 495.966, 1037 496.370 L 1039.500 497.104 1036.750 494.968 C 1035.098 493.685, 1034 491.869, 1034 490.417 C 1034 489.087, 1033.550 488, 1033 488 C 1031.763 488, 1031.669 484.322, 1032.887 483.570 C 1034.143 482.794, 1036.253 485.621, 1036.393 488.268 C 1036.484 489.981, 1037.033 490.427, 1038.756 490.187 C 1040.258 489.978, 1041 490.391, 1041 491.437 C 1041 493.429, 1042.605 493.471, 1043.362 491.500 C 1044.027 489.767, 1046.574 489.502, 1047.541 491.067 C 1047.904 491.653, 1047.385 492.729, 1046.388 493.458 C 1044.851 494.582, 1044.779 495.028, 1045.910 496.392 C 1046.921 497.610, 1046.968 498.334, 1046.101 499.378 C 1045.203 500.460, 1045.391 500.869, 1046.979 501.284 C 1048.594 501.706, 1049 501.329, 1049 499.406 C 1049 496.794, 1050.730 496.132, 1051.604 498.410 C 1052.255 500.107, 1049.555 505.640, 1047.771 506.264 C 1046.841 506.589, 1047.010 507.282, 1048.404 508.852 C 1049.948 510.592, 1050.100 511.422, 1049.209 513.248 L 1048.110 515.500 1047.424 513.193 C 1046.997 511.760, 1046.205 511.091, 1045.331 511.427 C 1044.557 511.723, 1043.668 511.299, 1043.355 510.483 C 1042.615 508.555, 1041 508.567, 1041 510.500 C 1041 511.325, 1041.436 512, 1041.969 512 C 1042.501 512, 1042.739 512.563, 1042.497 513.250 C 1041.776 515.295, 1044.792 518.608, 1046.143 517.257 C 1046.990 516.410, 1047.742 516.678, 1049.106 518.311 C 1050.702 520.223, 1050.938 520.276, 1050.967 518.731 C 1050.993 517.342, 1051.543 517.098, 1053.530 517.597 C 1056.010 518.219, 1056.049 518.145, 1055.447 513.866 C 1054.570 507.628, 1054.260 506.963, 1052.538 507.624 C 1051.445 508.043, 1051 507.585, 1051 506.040 C 1051 504.320, 1051.419 503.998, 1053 504.500 C 1054.495 504.974, 1055.007 504.676, 1055.027 503.317 C 1055.047 501.912, 1055.440 502.123, 1056.758 504.250 C 1058.676 507.343, 1059.534 507.658, 1060.337 505.563 C 1061.023 503.776, 1058.060 496, 1056.693 496 C 1056.142 496, 1056.446 495.165, 1057.370 494.143 C 1058.439 492.963, 1059.927 492.454, 1061.458 492.747 C 1064.610 493.350, 1065.714 496, 1062.814 496 C 1060.750 496, 1060.741 496.057, 1062.509 498.010 C 1064.077 499.743, 1064.149 500.353, 1063.031 502.442 C 1062.318 503.775, 1062.054 505.683, 1062.444 506.683 C 1063.072 508.289, 1063.323 508.181, 1064.609 505.750 C 1065.409 504.238, 1066.751 503, 1067.591 503 C 1068.431 503, 1068.821 503.480, 1068.458 504.067 C 1068.095 504.655, 1068.743 505.381, 1069.899 505.684 C 1072.338 506.322, 1072.370 506.440, 1070.868 509.246 C 1069.776 511.287, 1069.689 511.296, 1068.379 509.503 C 1067.632 508.482, 1066.692 507.975, 1066.289 508.377 C 1065.887 508.780, 1066.165 509.484, 1066.907 509.943 C 1067.649 510.401, 1067.965 511.247, 1067.609 511.823 C 1066.762 513.195, 1073.355 518.201, 1075.690 517.958 C 1078.871 517.627, 1080.135 517.973, 1079.500 519 C 1079.160 519.550, 1079.367 520, 1079.960 520 C 1080.616 520, 1080.802 518.922, 1080.436 517.250 C 1079.332 512.212, 1079.116 511.933, 1076.772 512.514 C 1075.153 512.915, 1074.131 512.480, 1073.216 510.998 C 1071.645 508.453, 1072.568 506.396, 1074.545 508.038 C 1075.297 508.662, 1076.364 508.893, 1076.916 508.552 C 1077.467 508.211, 1078.800 508.483, 1079.878 509.156 C 1082.249 510.636, 1085 508.875, 1085 505.878 C 1085 504.845, 1085.620 504, 1086.378 504 C 1088.074 504, 1090.226 506.441, 1089.325 507.342 C 1088.963 507.704, 1089.668 508, 1090.892 508 C 1092.121 508, 1092.841 508.448, 1092.500 509 C 1092.160 509.550, 1092.769 510, 1093.852 510 C 1095.151 510, 1095.737 509.411, 1095.569 508.271 C 1094.881 503.581, 1101.510 503.043, 1104.081 507.580 C 1106.096 511.137, 1105.141 512.695, 1100.400 513.585 C 1097.209 514.183, 1096.404 515.117, 1097.023 517.500 C 1097.166 518.050, 1097.248 519.270, 1097.206 520.211 C 1097.111 522.360, 1106.276 522.520, 1112.083 520.471 C 1116.371 518.958, 1117.382 519.415, 1115.701 522.108 C 1114.788 523.570, 1114.796 524.444, 1115.739 525.954 C 1116.507 527.184, 1116.596 528.131, 1115.980 528.513 C 1115.441 528.846, 1115 528.669, 1115 528.121 C 1115 527.573, 1114.100 527.192, 1113 527.275 C 1110.540 527.460, 1110.473 528.237, 1112.750 530.193 C 1115.690 532.718, 1117.617 532.928, 1119.343 530.912 C 1122.330 527.424, 1124.075 528.775, 1124.386 534.815 C 1124.490 536.844, 1124.941 539.095, 1125.388 539.818 C 1126.501 541.619, 1125.561 542.313, 1123.075 541.524 C 1120.995 540.864, 1120.121 538, 1122 538 C 1122.550 538, 1123 537.325, 1123 536.500 C 1123 535.675, 1122.550 535, 1122 535 C 1121.450 535, 1121 535.689, 1121 536.531 C 1121 537.374, 1120.325 538.322, 1119.500 538.638 C 1117.122 539.551, 1117.754 541.956, 1120.662 543.062 C 1123.656 544.200, 1132.279 543.260, 1131.431 541.888 C 1131.129 541.400, 1131.584 541, 1132.441 541 C 1133.298 541, 1134 541.430, 1134 541.955 C 1134 542.480, 1135.559 543.202, 1137.464 543.559 C 1141.221 544.264, 1143.556 546.292, 1142.527 547.956 C 1142.172 548.530, 1142.614 549, 1143.508 549 C 1144.656 549, 1144.956 548.436, 1144.526 547.083 C 1144.042 545.557, 1144.311 545.269, 1145.846 545.670 C 1146.907 545.947, 1148.077 545.684, 1148.448 545.084 C 1148.934 544.299, 1149.692 544.300, 1151.168 545.090 C 1152.648 545.882, 1153.517 545.883, 1154.307 545.093 C 1155.673 543.727, 1157 543.682, 1157 545 C 1157 546.297, 1153.297 550, 1152 550 C 1151.043 550, 1150.718 551.180, 1151.250 552.727 C 1151.646 553.879, 1154.837 554.073, 1155.509 552.986 C 1156.403 551.540, 1159.703 551.784, 1160.300 553.341 C 1161.302 555.951, 1156.609 557.915, 1154.459 555.785 C 1154.062 555.392, 1152.826 555.558, 1151.712 556.154 C 1150.060 557.038, 1149.395 556.853, 1148.094 555.145 C 1147.025 553.741, 1146.050 553.334, 1145.133 553.908 C 1142.579 555.505, 1147.873 561.275, 1151.269 560.596 C 1153.761 560.098, 1153.943 560.238, 1153.024 561.954 C 1151.274 565.226, 1151.858 566.722, 1155.142 567.378 C 1156.871 567.724, 1158.783 568.672, 1159.392 569.485 C 1160.168 570.520, 1160.949 570.673, 1162 569.997 C 1163.292 569.164, 1163.266 569.029, 1161.809 569.015 C 1159.395 568.993, 1158.604 567.189, 1160.164 565.264 C 1161.117 564.089, 1161.141 563.832, 1160.250 564.367 C 1159.552 564.787, 1159 564.631, 1159 564.015 C 1159 563.409, 1158.229 563.045, 1157.286 563.206 C 1156.300 563.375, 1155.420 562.757, 1155.213 561.750 C 1154.638 558.953, 1160.935 559.438, 1163.750 562.408 C 1164.987 563.714, 1166 565.088, 1166 565.462 C 1166 566.270, 1168.622 569, 1169.397 569 C 1169.694 569, 1169.678 568.325, 1169.362 567.500 C 1169.004 566.567, 1169.368 566, 1170.326 566 C 1171.172 566, 1172.151 566.900, 1172.500 568 C 1172.849 569.100, 1174.004 570, 1175.067 570 C 1176.130 570, 1177 570.661, 1177 571.469 C 1177 572.363, 1176.414 572.712, 1175.500 572.362 C 1174.675 572.045, 1174 572.284, 1174 572.893 C 1174 573.502, 1174.450 574, 1175 574 C 1175.550 574, 1175.996 574.337, 1175.992 574.750 C 1175.983 575.648, 1171.140 578, 1169.301 578 C 1168.585 578, 1168 578.675, 1168 579.500 C 1168 580.325, 1168.640 581, 1169.423 581 C 1170.206 581, 1172.184 582.125, 1173.818 583.500 C 1177.008 586.185, 1179.524 586.808, 1178.721 584.715 C 1178.390 583.852, 1179.093 583.472, 1180.864 583.559 C 1185.309 583.776, 1185.450 583.932, 1183.135 586.089 C 1180.899 588.172, 1180.740 590.725, 1182.875 590.250 C 1183.494 590.112, 1184 590.675, 1184 591.500 C 1184 593.611, 1182.417 593.364, 1180.116 590.894 C 1178.093 588.722, 1176 589.045, 1176 591.528 C 1176 592.335, 1176.607 592.704, 1177.420 592.392 C 1178.352 592.035, 1178.963 592.648, 1179.194 594.174 C 1179.414 595.620, 1180.106 596.366, 1181.024 596.145 C 1181.836 595.949, 1183.526 595.781, 1184.781 595.770 C 1190.061 595.724, 1191.758 587.243, 1187.500 582.182 C 1186.125 580.548, 1185.007 578.826, 1185.015 578.356 C 1185.024 577.885, 1185.428 578.128, 1185.914 578.896 C 1188.158 582.439, 1190.003 579.179, 1189.940 571.781 C 1189.906 567.776, 1190.145 559.775, 1190.470 554 C 1191.260 539.989, 1191.742 528.033, 1192.367 506.964 C 1192.653 497.319, 1193.328 488.267, 1193.867 486.850 C 1194.492 485.205, 1194.514 481.617, 1193.926 476.934 C 1193.324 472.143, 1193.350 469.250, 1194.002 468.598 C 1194.551 468.049, 1195 465.017, 1195 461.859 C 1195 458.701, 1195.451 455.839, 1196.003 455.498 C 1196.673 455.084, 1196.673 454.257, 1196.003 453.005 C 1194.110 449.469, 1196.128 438.728, 1198.280 440.880 C 1199.953 442.553, 1201 442.237, 1201 440.059 C 1201 437.468, 1203.032 436.333, 1204.402 438.159 C 1207.178 441.862, 1208.769 441.045, 1208.769 435.916 C 1208.769 433.203, 1209.308 430.333, 1209.967 429.539 C 1210.626 428.746, 1210.893 427.238, 1210.560 426.189 C 1209.739 423.601, 1212.327 421.614, 1215.487 422.407 C 1216.869 422.754, 1218 422.635, 1218 422.141 C 1218 420.997, 1215.479 418.882, 1214.355 419.083 C 1210.176 419.833, 1209.895 417.281, 1214 415.850 C 1215.650 415.275, 1217 414.398, 1217 413.902 C 1217 413.406, 1218.013 412.997, 1219.250 412.993 C 1221.561 412.985, 1225.892 403.252, 1224.550 401.081 C 1224.241 400.580, 1224.553 399.943, 1225.244 399.664 C 1226.242 399.262, 1226.243 399.142, 1225.250 399.079 C 1223.462 398.966, 1223.698 397, 1225.500 397 C 1226.493 397, 1227 396.007, 1227 394.059 C 1227 392.441, 1227.450 390.840, 1228 390.500 C 1228.550 390.160, 1229 390.359, 1229 390.941 C 1229 392.595, 1231.139 392.185, 1232.608 390.250 C 1233.339 389.288, 1233.951 387.488, 1233.968 386.250 C 1233.986 385.012, 1234.505 384, 1235.122 384 C 1235.913 384, 1235.887 383.569, 1235.036 382.544 C 1234.372 381.743, 1234.118 380.618, 1234.473 380.044 C 1235.587 378.241, 1236.999 378.906, 1237.033 381.250 C 1237.066 383.432, 1240.103 388, 1241.522 388 C 1243.282 388, 1240.562 380.233, 1237.876 377.591 C 1234.848 374.614, 1234.983 373.559, 1238.500 372.713 C 1239.600 372.448, 1045.313 372.180, 806.750 372.116 L 373 372 373 568.917 M 880.768 517.750 C 880.293 523.438, 881.130 525.281, 884.500 525.967 C 887.455 526.568, 889.157 530, 886.500 530 C 885.667 530, 885 530.889, 885 532 C 885 533.111, 885.667 534, 886.500 534 C 887.325 534, 888 533.341, 888 532.535 C 888 531.730, 888.900 530.589, 890 530 C 893.136 528.322, 892.409 526.167, 888.456 525.426 C 886.491 525.057, 885.079 524.258, 885.285 523.631 C 885.816 522.015, 889.850 521.631, 891.542 523.035 C 892.330 523.689, 893.611 523.979, 894.389 523.681 C 896.637 522.818, 897.027 524.030, 895.333 526.615 C 893.451 529.486, 895.480 530.053, 897.608 527.250 C 900.291 523.715, 899.370 521, 895.486 521 C 893.554 521, 891.079 520.442, 889.986 519.759 C 888.443 518.795, 887.576 518.784, 886.096 519.708 C 883.884 521.090, 882.607 518.221, 883.653 514.220 C 884.061 512.659, 883.790 512, 882.740 512 C 881.645 512, 881.120 513.532, 880.768 517.750 M 496.860 520.750 C 498.065 525.355, 497.179 528, 494.430 528 C 493.094 528, 492 528.482, 492 529.072 C 492 529.661, 493.104 529.998, 494.454 529.822 C 495.804 529.645, 496.816 529.950, 496.704 530.500 C 496.483 531.582, 493.079 531.577, 488.849 530.487 C 486.282 529.826, 486.205 529.934, 486.406 533.876 C 486.623 538.116, 488 540.960, 488 537.167 C 488 535.975, 488.477 535, 489.059 535 C 489.641 535, 489.859 534.581, 489.543 534.069 C 489.226 533.557, 489.394 532.875, 489.915 532.553 C 490.436 532.231, 491.144 532.425, 491.490 532.984 C 492.361 534.394, 497.746 534.263, 498.227 532.820 C 498.458 532.127, 499.364 531.926, 500.423 532.332 C 501.892 532.896, 501.997 533.299, 500.991 534.511 C 499.948 535.768, 500.162 535.964, 502.379 535.781 C 503.820 535.661, 505 535.249, 505 534.864 C 505 534.479, 505.280 533.433, 505.623 532.541 C 506.007 531.540, 505.780 531.030, 505.030 531.209 C 504.361 531.369, 503.293 530.600, 502.657 529.500 C 502.021 528.400, 500.938 527.140, 500.250 526.700 C 498.730 525.728, 498.615 523.356, 500.044 522.473 C 500.618 522.118, 501.672 522.313, 502.386 522.905 C 503.797 524.076, 505 523.396, 505 521.427 C 505 520.720, 504.217 520.392, 503.180 520.663 C 502.179 520.925, 500.774 520.433, 500.058 519.570 C 497.870 516.934, 496.038 517.611, 496.860 520.750 M 747.598 519.736 C 746.613 520.720, 746.923 525.834, 748.007 526.504 C 748.561 526.847, 749.284 526.423, 749.614 525.563 C 750.349 523.649, 754 523.474, 754 525.354 C 754 528.427, 762.245 535.030, 763.516 532.975 C 764.220 531.835, 760.225 528.086, 758.250 528.033 C 757.563 528.015, 757 527.550, 757 527 C 757 526.450, 757.563 525.994, 758.250 525.986 C 758.938 525.979, 760.513 525.701, 761.750 525.370 C 763.378 524.933, 764 525.197, 764 526.324 C 764 530.022, 766.537 529.694, 767.496 525.873 C 768.211 523.022, 763.916 521.348, 760.619 523.193 C 759.745 523.682, 758.863 523.588, 758.478 522.964 C 758.028 522.237, 757.348 522.296, 756.317 523.152 C 755.081 524.178, 754.515 524.033, 753.156 522.346 C 751.351 520.105, 748.546 518.787, 747.598 519.736 M 948.244 526.664 C 947.553 526.943, 947.285 527.652, 947.648 528.240 C 948.060 528.906, 947.831 529.014, 947.043 528.526 C 946.320 528.080, 945.442 528.285, 944.998 529.003 C 944.482 529.838, 941.970 530.214, 937.548 530.118 C 933.157 530.023, 930.174 530.465, 928.823 531.411 C 926.718 532.886, 923.571 532.503, 924.566 530.893 C 925.708 529.046, 919.774 527.795, 918.077 529.525 C 917.210 530.409, 916.950 531.054, 917.500 530.958 C 919.164 530.668, 923 532.173, 923 533.117 C 923 533.602, 922.663 534.034, 922.250 534.077 C 921.837 534.119, 920.825 534.301, 920 534.481 C 919.175 534.662, 917.363 535.029, 915.973 535.298 C 914.584 535.567, 911.691 536.520, 909.546 537.416 C 906.977 538.490, 905.309 538.709, 904.658 538.058 C 904.007 537.407, 903.299 537.577, 902.583 538.556 C 901.985 539.374, 900.147 540.284, 898.498 540.579 C 896.849 540.875, 894.475 541.784, 893.222 542.600 C 891.969 543.416, 890.506 543.813, 889.972 543.483 C 889.437 543.152, 889 543.275, 889 543.756 C 889 544.885, 882.108 548.185, 881.079 547.549 C 880.647 547.282, 879.441 547.758, 878.397 548.606 C 877.354 549.454, 877.063 549.863, 877.750 549.515 C 880.405 548.170, 878.834 550.131, 875.750 552.011 C 872.200 554.175, 870.534 554.563, 871.500 553 C 872.676 551.097, 871.291 552.015, 867.647 555.555 C 865.451 557.687, 863.489 558.823, 862.743 558.394 C 862.059 558.001, 861.816 558.030, 862.202 558.459 C 863.008 559.352, 860.673 562, 859.080 562 C 858.495 562, 857.455 562.900, 856.768 564 C 856.081 565.100, 854.502 566, 853.259 566 C 851.786 566, 850.989 566.609, 850.968 567.750 C 850.940 569.316, 850.769 569.290, 849.343 567.500 C 847.776 565.532, 847.759 565.537, 848.296 567.807 C 848.732 569.646, 848.572 569.890, 847.510 569.009 C 845.892 567.665, 844.729 569.130, 845.604 571.410 C 846.012 572.474, 845.659 573, 844.536 573 C 842.696 573, 840.942 574.475, 839.321 577.383 C 837.502 580.646, 831.864 582.487, 833.023 579.439 C 833.873 577.205, 833.792 577.113, 831.972 578.250 C 830.760 579.007, 830 580.578, 830 582.327 C 830 584.577, 829.366 585.413, 826.976 586.315 C 825.293 586.950, 824.013 588.132, 824.091 588.978 C 824.359 591.903, 823.990 593, 822.741 593 C 822.048 593, 820.919 593.900, 820.232 595 C 819.545 596.100, 818.453 597, 817.806 597 C 817.159 597, 815.526 598.013, 814.177 599.250 C 812.465 600.821, 811.590 601.121, 811.277 600.244 C 811.031 599.553, 810.391 599.259, 809.855 599.590 C 809.302 599.931, 809.613 600.728, 810.573 601.430 C 812.377 602.749, 810.046 607, 807.518 607 C 806.948 607, 805.919 607.900, 805.232 609 C 804.545 610.100, 803.326 611, 802.523 611 C 801.663 611, 801.290 611.592, 801.615 612.439 C 801.928 613.256, 801.266 614.442, 800.084 615.180 C 798.938 615.896, 798 616.853, 798 617.307 C 798 619.062, 792.626 625.071, 791.458 624.622 C 790.633 624.306, 790.406 624.837, 790.771 626.231 C 791.165 627.740, 790.966 628.097, 790.046 627.528 C 789.304 627.070, 788.413 627.317, 787.904 628.122 C 786.554 630.253, 786.836 631, 788.716 630.279 C 790.035 629.773, 789.919 630.170, 788.216 631.999 C 786.997 633.307, 786 634.919, 786 635.582 C 786 636.244, 785.296 637.056, 784.437 637.386 C 783.577 637.716, 783.153 638.439, 783.496 638.993 C 783.838 639.547, 783.641 640, 783.059 640 C 782.477 640, 782 640.623, 782 641.383 C 782 642.144, 781.055 643.014, 779.899 643.316 C 778.744 643.618, 778.076 644.315, 778.416 644.864 C 778.755 645.413, 778.606 646.125, 778.085 646.447 C 777.564 646.769, 776.842 646.553, 776.480 645.968 C 776.023 645.228, 775.387 645.264, 774.399 646.084 C 773.320 646.979, 773.250 647.596, 774.110 648.633 C 775.003 649.708, 774.835 650, 773.322 650 C 772.265 650, 770.804 650.563, 770.075 651.250 C 769.046 652.221, 768.650 652.229, 768.304 651.287 C 768.036 650.557, 766.194 651.752, 763.679 654.287 L 759.500 658.500 760.310 666.500 C 760.755 670.900, 761.542 674.928, 762.060 675.450 C 762.577 675.973, 763 677.795, 763 679.500 C 763 681.205, 763.469 683.069, 764.042 683.642 C 764.766 684.366, 764.612 685.077, 763.542 685.965 C 762.496 686.834, 762 686.884, 762 686.122 C 762 685.505, 762.540 685, 763.200 685 C 764.075 685, 764.101 684.701, 763.296 683.896 C 760.925 681.525, 758.728 684.331, 761.026 686.797 C 762.154 688.009, 762.610 689, 762.039 689 C 761.468 689, 761 689.852, 761 690.893 C 761 691.934, 760.296 693.056, 759.437 693.386 C 758.577 693.716, 758.153 694.439, 758.496 694.993 C 758.838 695.547, 758.529 696.007, 757.809 696.015 C 756.847 696.027, 756.898 696.312, 758 697.091 C 759.129 697.890, 759.191 698.278, 758.250 698.659 C 757.563 698.938, 757 700.003, 757 701.024 C 757 702.046, 756.550 703.160, 756 703.500 C 755.450 703.840, 755 705.216, 755 706.559 C 755 707.902, 754.602 709, 754.117 709 C 753.631 709, 752.972 709.788, 752.653 710.750 C 752.333 711.712, 751.387 714.300, 750.551 716.500 C 749.714 718.700, 749.023 721.786, 749.015 723.357 C 749.005 725.266, 748.575 726.051, 747.718 725.722 C 746.811 725.374, 746.470 726.270, 746.553 728.779 C 746.621 730.810, 745.992 733.026, 745.085 733.957 C 744.213 734.853, 743.347 736.466, 743.160 737.543 C 742.973 738.619, 742.073 740.365, 741.160 741.422 C 740.247 742.479, 740.063 743.015, 740.750 742.613 C 742.173 741.781, 742.493 743.577, 741.077 744.452 C 740.569 744.766, 739.858 746.372, 739.496 748.020 C 739.106 749.793, 738.399 750.746, 737.764 750.354 C 737.104 749.947, 736.984 750.165, 737.452 750.922 C 737.903 751.652, 737.355 752.952, 736.106 754.116 C 734.948 755.195, 734 756.905, 734 757.917 C 734 758.928, 733.305 760.332, 732.454 761.038 C 731.604 761.743, 731.143 762.930, 731.429 763.675 C 731.715 764.421, 731.134 766.486, 730.138 768.265 C 729.115 770.092, 728.244 773.876, 728.137 776.957 C 728.034 779.958, 727.528 782.674, 727.013 782.992 C 725.808 783.737, 725.073 789.057, 723.653 807.337 C 723.019 815.497, 722.236 821.907, 721.912 821.582 C 721.589 821.257, 721.250 822.906, 721.158 825.246 C 720.939 830.858, 720.303 833.930, 719.046 835.444 C 718.480 836.126, 718.271 836.938, 718.582 837.249 C 718.893 837.559, 717.975 840.290, 716.543 843.317 C 715.112 846.343, 714.049 849.198, 714.182 849.660 C 714.316 850.122, 713.895 851.453, 713.248 852.619 C 712.600 853.784, 712.355 855.021, 712.702 855.369 C 713.049 855.716, 712.921 856, 712.417 856 C 711.912 856, 711.512 858.588, 711.527 861.750 C 711.542 864.913, 711.233 867.961, 710.841 868.525 C 710.449 869.089, 709.912 870.889, 709.647 872.525 C 709.381 874.161, 709.074 875.725, 708.964 876 C 708.853 876.275, 708.834 876.890, 708.920 877.366 C 709.007 877.843, 708.456 879.193, 707.697 880.366 C 706.025 882.951, 704.634 887.608, 704.521 891 C 704.475 892.375, 704.155 893.953, 703.810 894.508 C 703.464 895.062, 702.878 897.312, 702.507 899.508 C 701.391 906.107, 699.870 910.428, 698.199 911.750 C 697.251 912.499, 697.095 913, 697.809 913 C 699.202 913, 699.422 918.160, 698.088 919.550 C 697.586 920.072, 696.982 922.975, 696.745 926 C 696.342 931.144, 695.008 935.985, 692.787 940.363 C 691.723 942.460, 691.108 945.199, 690.790 949.250 C 690.672 950.763, 690.271 952, 689.901 952 C 689.530 952, 688.925 954.015, 688.556 956.477 C 688.187 958.939, 687.514 961.182, 687.061 961.462 C 686.608 961.742, 685.921 965.350, 685.534 969.479 C 685.147 973.608, 684.498 977.192, 684.092 977.443 C 683.686 977.694, 683.446 979.610, 683.559 981.700 C 683.672 983.790, 683.491 985.950, 683.156 986.500 C 682.821 987.050, 682.445 989.036, 682.320 990.912 C 682.195 992.789, 681.734 994.589, 681.296 994.912 C 680.858 995.236, 680.443 998.425, 680.373 1002 C 679.761 1033.266, 679.141 1051.193, 678.652 1051.681 C 678.332 1052.001, 678.506 1053.076, 679.038 1054.071 C 679.678 1055.268, 679.652 1056.097, 678.961 1056.524 C 678.387 1056.879, 678.092 1058.917, 678.305 1061.052 C 678.531 1063.313, 678.235 1065.090, 677.597 1065.305 C 676.845 1065.558, 676.909 1066.170, 677.799 1067.248 C 678.532 1068.137, 678.697 1069.069, 678.177 1069.391 C 677.671 1069.704, 677.431 1072.951, 677.645 1076.607 C 677.858 1080.264, 677.618 1083.760, 677.111 1084.378 C 676.604 1084.995, 676.191 1087.232, 676.194 1089.350 C 676.197 1091.467, 675.705 1093.695, 675.100 1094.300 C 674.495 1094.905, 674 1097.245, 674 1099.500 C 674 1101.755, 673.538 1104.062, 672.974 1104.626 C 672.410 1105.190, 671.757 1108.547, 671.524 1112.085 C 671.291 1115.623, 670.388 1120.221, 669.518 1122.303 C 668.648 1124.385, 668.214 1126.538, 668.554 1127.088 C 668.894 1127.638, 668.752 1128.630, 668.239 1129.294 C 667.200 1130.637, 664.438 1145.358, 663.550 1154.283 C 663.234 1157.463, 662.560 1161.963, 662.052 1164.283 C 659.390 1176.456, 657.503 1188.589, 655.484 1206.500 C 654.679 1213.650, 653.349 1224.225, 652.530 1230 C 650.050 1247.484, 648.956 1256.732, 649.017 1259.689 C 649.049 1261.235, 648.594 1264.750, 648.006 1267.500 C 647.417 1270.250, 646.711 1275.650, 646.436 1279.500 C 646.161 1283.350, 645.517 1288.075, 645.004 1290 C 644.492 1291.925, 643.824 1295.504, 643.520 1297.954 C 643.216 1300.404, 642.449 1304.229, 641.815 1306.454 C 640.181 1312.193, 640.296 1311.670, 638.613 1321 C 636.645 1331.903, 635.905 1336.545, 635.341 1341.500 C 635.091 1343.700, 634.484 1346.400, 633.992 1347.500 C 633.500 1348.600, 632.858 1351.075, 632.566 1353 C 632.274 1354.925, 631.542 1358.975, 630.940 1362 C 630.338 1365.025, 629.726 1369.075, 629.579 1371 C 629.432 1372.925, 628.798 1377.650, 628.170 1381.500 C 627.541 1385.350, 626.877 1390.407, 626.693 1392.738 C 626.509 1395.068, 626.053 1397.281, 625.679 1397.654 C 625.306 1398.028, 625 1399.164, 625 1400.180 C 625 1401.196, 624.566 1402.809, 624.035 1403.764 C 622.089 1407.265, 619.261 1414.629, 617.992 1419.500 C 617.276 1422.250, 616.271 1425.043, 615.759 1425.706 C 615.247 1426.370, 615.063 1427.292, 615.350 1427.757 C 616.031 1428.859, 612.751 1443.457, 609.679 1453 C 606.525 1462.797, 603.551 1475.950, 601.651 1488.500 C 601.485 1489.600, 600.783 1491.850, 600.092 1493.500 C 599.400 1495.150, 598.174 1500.325, 597.366 1505 C 595.924 1513.340, 595.658 1514.705, 594.394 1520.250 C 594.005 1521.954, 594.182 1523, 594.859 1523 C 595.598 1523, 595.656 1523.775, 595.039 1525.397 C 594.538 1526.716, 594.436 1528.102, 594.812 1528.479 C 595.189 1528.855, 594.785 1529.689, 593.914 1530.332 C 590.296 1533.003, 590.745 1539, 594.563 1539 C 596.590 1539, 597.897 1539.461, 597.750 1540.125 C 597.613 1540.744, 598.093 1541.466, 598.818 1541.731 C 599.650 1542.035, 600.019 1541.566, 599.818 1540.460 C 599.643 1539.496, 600.063 1538.511, 600.750 1538.270 C 601.438 1538.030, 602 1538.321, 602 1538.917 C 602 1539.513, 602.810 1540, 603.800 1540 C 604.790 1540, 606.140 1540.540, 606.800 1541.200 C 607.673 1542.073, 608.300 1542.100, 609.100 1541.300 C 609.900 1540.500, 610.718 1540.718, 612.100 1542.100 C 613.230 1543.230, 615.394 1544, 617.441 1544 C 619.334 1544, 621.144 1544.424, 621.464 1544.941 C 622.134 1546.025, 629.093 1549.330, 633.500 1550.657 C 636.867 1551.671, 637.392 1555.454, 636.011 1568.727 C 635.587 1572.799, 635.733 1575.090, 636.432 1575.347 C 637.182 1575.622, 637.170 1576.302, 636.390 1577.632 C 634.741 1580.444, 636.202 1583.208, 642.488 1589.166 C 646.958 1593.403, 647.981 1594.940, 647.529 1596.741 C 647.031 1598.724, 647.342 1599, 650.073 1599 C 651.784 1599, 654.329 1599.900, 655.727 1601 C 657.126 1602.100, 658.884 1603, 659.635 1603 C 661.271 1603, 661.334 1605.362, 659.925 1614 C 658.345 1623.687, 658.596 1639.493, 660.453 1647.310 C 662.128 1654.357, 661.994 1658.104, 659.054 1686.500 C 658.542 1691.450, 657.857 1698.650, 657.533 1702.500 C 656.943 1709.502, 656.612 1711.034, 653.607 1720.634 C 652.723 1723.458, 652 1726.694, 652 1727.825 C 652 1728.956, 651.557 1730.156, 651.015 1730.491 C 650.474 1730.825, 650.032 1732.089, 650.034 1733.300 C 650.036 1734.510, 649.757 1739.836, 649.414 1745.136 C 648.856 1753.761, 649.064 1755.641, 651.395 1763.048 C 654.043 1771.458, 654.827 1781.420, 653.106 1784.764 C 651.276 1788.317, 649.912 1797.865, 649.500 1810 C 649.267 1816.875, 648.809 1826.325, 648.482 1831 C 647.752 1841.455, 647.771 1871.523, 648.512 1879 C 649.085 1884.777, 649.507 1889.621, 650.517 1902 C 650.853 1906.125, 651.763 1914.900, 652.539 1921.500 C 653.996 1933.891, 654.504 1942.375, 656.600 1989.386 C 656.880 1995.673, 656.607 2002.578, 655.952 2005.732 C 654.036 2014.961, 654.658 2037.673, 657.014 2044.500 C 657.773 2046.700, 658.418 2049.133, 658.447 2049.907 C 658.476 2050.681, 660.173 2052.256, 662.217 2053.407 C 664.261 2054.558, 667.362 2057.446, 669.109 2059.825 C 673.053 2065.198, 680.570 2068.740, 690.776 2070.035 C 698.502 2071.015, 702.433 2072.491, 701.469 2074.050 C 700.806 2075.123, 706.293 2075.373, 707.348 2074.318 C 707.723 2073.944, 710.524 2073.752, 713.572 2073.894 C 716.620 2074.035, 719.686 2073.676, 720.385 2073.096 C 722.037 2071.725, 735 2070.981, 735 2072.257 C 735 2072.786, 736.562 2073.036, 738.471 2072.814 C 740.783 2072.544, 742.118 2072.864, 742.466 2073.773 C 742.824 2074.705, 743.705 2074.898, 745.245 2074.383 C 746.485 2073.967, 748.850 2073.535, 750.500 2073.421 C 756.279 2073.023, 761.534 2071.784, 765.438 2069.900 C 767.604 2068.855, 770.615 2068, 772.129 2068 C 773.643 2068, 775.187 2067.506, 775.560 2066.902 C 775.934 2066.298, 778.253 2064.527, 780.714 2062.966 C 783.176 2061.405, 785.935 2058.637, 786.845 2056.814 C 787.755 2054.991, 788.950 2053.725, 789.500 2054 C 791.022 2054.761, 791.715 2046.952, 790.804 2039.315 C 790.357 2035.567, 789.561 2027.775, 789.035 2022 C 788.509 2016.225, 787.612 2009.250, 787.042 2006.500 C 785.714 2000.096, 785.120 1995.842, 784.597 1989 C 784.366 1985.975, 783.923 1982.825, 783.613 1982 C 783.302 1981.175, 782.811 1978.250, 782.522 1975.500 C 782.232 1972.750, 781.101 1963.750, 780.009 1955.500 C 776.871 1931.795, 776.129 1925.543, 774.429 1908.500 C 773.552 1899.700, 772.152 1888, 771.319 1882.500 C 769.327 1869.353, 767.997 1858.777, 767.484 1852 C 767.255 1848.975, 766.557 1842.450, 765.934 1837.500 C 765.310 1832.550, 764.724 1827.825, 764.631 1827 C 764.538 1826.175, 763.887 1824.477, 763.183 1823.227 C 762.353 1821.751, 762.140 1819.470, 762.574 1816.727 C 763.926 1808.196, 764.165 1790.161, 763.094 1777.500 C 761.182 1754.877, 760.938 1748.335, 761.919 1745.885 C 762.764 1743.774, 762.884 1743.729, 762.967 1745.500 C 763.050 1747.277, 763.169 1747.314, 764.032 1745.836 C 765.244 1743.759, 764.151 1740.138, 762.915 1742.137 C 761.794 1743.952, 761.361 1743.169, 760.723 1738.176 C 760.286 1734.754, 760.459 1733.962, 761.553 1734.382 C 763.665 1735.192, 764.301 1733.231, 762.278 1732.150 C 760.828 1731.375, 760.563 1730.167, 760.843 1725.598 C 761.065 1721.961, 761.559 1720.227, 762.250 1720.655 C 762.962 1721.095, 763.066 1720.515, 762.564 1718.906 C 761.032 1713.998, 760.775 1711, 761.887 1711 C 762.499 1711, 763 1712.111, 763 1713.470 C 763 1714.828, 763.900 1717.542, 765 1719.500 C 767.462 1723.884, 767.481 1724.359, 765.167 1723.754 C 764.152 1723.488, 763.333 1723.803, 763.333 1724.458 C 763.333 1725.109, 764.240 1725.574, 765.348 1725.493 C 766.846 1725.382, 768.086 1726.758, 770.182 1730.855 C 773.334 1737.019, 773.726 1738.848, 771.500 1737 C 770.675 1736.315, 769.993 1736.148, 769.985 1736.628 C 769.976 1737.107, 769.492 1736.825, 768.909 1736 C 767.966 1734.667, 767.898 1734.667, 768.299 1736 C 768.547 1736.825, 769.213 1737.402, 769.779 1737.282 C 771.575 1736.901, 772.911 1739.471, 773.348 1744.147 C 773.746 1748.411, 773.637 1748.653, 771.503 1748.245 C 770.255 1748.007, 768.887 1748.374, 768.463 1749.060 C 767.991 1749.823, 768.099 1750.057, 768.741 1749.660 C 769.318 1749.303, 770.059 1749.712, 770.388 1750.569 C 770.746 1751.501, 771.491 1751.823, 772.243 1751.371 C 773.088 1750.864, 773.044 1751.179, 772.107 1752.332 C 771.342 1753.276, 771.004 1754.337, 771.357 1754.691 C 771.711 1755.044, 772 1754.808, 772 1754.167 C 772 1753.525, 772.450 1753, 773 1753 C 773.550 1753, 774 1753.675, 774 1754.500 C 774 1755.325, 774.439 1756, 774.975 1756 C 775.561 1756, 775.721 1758.291, 775.377 1761.750 C 775.062 1764.913, 774.798 1768.175, 774.791 1769 C 774.731 1776.141, 770.422 1784.483, 767.394 1783.321 C 766.627 1783.027, 766 1783.284, 766 1783.893 C 766 1784.502, 766.420 1785, 766.933 1785 C 767.446 1785, 768.117 1785.795, 768.426 1786.766 C 768.893 1788.238, 770.131 1788.520, 775.854 1788.463 L 782.722 1788.394 782.490 1791.116 C 782.323 1793.079, 782.644 1793.690, 783.641 1793.308 C 784.621 1792.932, 784.847 1793.318, 784.417 1794.639 C 783.916 1796.177, 783.998 1796.240, 784.887 1795 C 785.698 1793.869, 785.552 1793.193, 784.290 1792.250 C 783.370 1791.563, 783.041 1790.954, 783.559 1790.899 C 785.396 1790.701, 791.506 1791.192, 791.893 1791.569 C 792.707 1792.363, 789.669 1795.015, 788.234 1794.763 C 787.305 1794.600, 786.591 1795.449, 786.356 1797 C 785.734 1801.099, 785.157 1801.998, 783.544 1801.378 C 782.701 1801.055, 782.297 1800.329, 782.645 1799.765 C 782.997 1799.195, 782.662 1798.946, 781.889 1799.203 C 780.130 1799.789, 779.835 1804, 781.553 1804 C 782.257 1804, 782.983 1804.433, 783.167 1804.961 C 783.894 1807.058, 798 1805.850, 798 1803.690 C 798 1803.095, 799.565 1804.124, 801.478 1805.978 C 804.287 1808.701, 804.727 1809.625, 803.765 1810.783 C 802.828 1811.913, 802.913 1812.463, 804.168 1813.381 C 805.555 1814.395, 808.579 1825.479, 809.521 1833 C 810.053 1837.253, 811.836 1846.026, 814.493 1857.469 C 815.894 1863.502, 817.222 1869.352, 817.445 1870.469 C 818.711 1876.826, 820.943 1886.707, 821.406 1888 C 821.701 1888.825, 822.181 1890.625, 822.474 1892 C 823.695 1897.745, 825.913 1906.978, 827.759 1914 C 828.843 1918.125, 830.226 1923.975, 830.832 1927 C 831.439 1930.025, 833.075 1937.396, 834.468 1943.380 C 835.860 1949.364, 837 1955.476, 837 1956.963 C 837 1958.450, 837.309 1959.976, 837.687 1960.354 C 838.065 1960.732, 838.444 1961.819, 838.529 1962.770 C 838.913 1967.066, 840.319 1973.665, 841.211 1975.361 C 841.749 1976.385, 842.387 1982.685, 842.629 1989.361 C 843.095 2002.241, 845.020 2010.598, 849.456 2019 C 850.763 2021.475, 852.154 2025.300, 852.548 2027.500 C 852.942 2029.700, 853.470 2032.400, 853.721 2033.500 C 856.673 2046.397, 857.478 2054.678, 856.409 2061.138 C 855.985 2063.703, 856.314 2065.549, 857.524 2067.396 C 858.468 2068.837, 859.423 2071.924, 859.647 2074.258 C 859.871 2076.591, 860.250 2080.300, 860.489 2082.500 C 861.357 2090.465, 861.569 2130.882, 860.827 2147 C 860.409 2156.075, 859.828 2169.125, 859.536 2176 C 859.243 2182.875, 858.511 2195.925, 857.909 2205 C 856.477 2226.585, 857.287 2252.855, 859.945 2271 C 861.112 2278.975, 862.263 2287.075, 862.500 2289 C 862.738 2290.925, 863.867 2296.775, 865.009 2302 C 866.151 2307.225, 867.309 2312.625, 867.582 2314 C 867.855 2315.375, 868.380 2317.400, 868.748 2318.500 C 869.116 2319.600, 869.451 2321.400, 869.492 2322.500 C 869.533 2323.600, 869.837 2324.950, 870.166 2325.500 C 871.058 2326.990, 872.412 2333.316, 872.145 2334.750 C 872.017 2335.438, 872.307 2336, 872.789 2336 C 873.272 2336, 873.725 2336.563, 873.796 2337.250 C 873.867 2337.938, 875.258 2342.325, 876.886 2347 C 878.515 2351.675, 880.057 2356.850, 880.312 2358.500 C 881.329 2365.071, 884.940 2378.670, 886.419 2381.500 C 887.282 2383.150, 887.990 2385.412, 887.994 2386.528 C 887.997 2387.643, 889.075 2391.918, 890.390 2396.028 C 894.152 2407.792, 897.167 2417.928, 896.992 2418.226 C 896.904 2418.377, 897.763 2420.862, 898.901 2423.750 C 900.111 2426.818, 901.081 2431.869, 901.235 2435.902 C 901.381 2439.698, 901.837 2442.597, 902.250 2442.343 C 903.477 2441.589, 903.101 2443.499, 901.758 2444.842 C 900.770 2445.830, 900.820 2446.275, 902.008 2447.026 C 903.271 2447.825, 903.279 2447.972, 902.059 2447.985 C 901.021 2447.996, 901.161 2448.420, 902.559 2449.501 C 904.363 2450.896, 904.380 2451.074, 902.792 2452.027 C 900.891 2453.168, 901.444 2456.151, 903.416 2455.394 C 904.104 2455.130, 904.715 2455.496, 904.773 2456.207 C 905.109 2460.271, 908.006 2476.098, 909.037 2479.500 C 909.704 2481.700, 910.392 2487.100, 910.565 2491.500 C 910.739 2495.900, 910.912 2499.500, 910.949 2499.500 C 910.987 2499.500, 911.279 2510.300, 911.599 2523.500 C 911.918 2536.700, 912.399 2547.723, 912.669 2547.996 C 912.938 2548.268, 913.010 2536.478, 912.829 2521.794 C 912.648 2507.111, 912.790 2495.413, 913.144 2495.799 C 913.498 2496.184, 914.981 2500.550, 916.439 2505.500 C 917.898 2510.450, 921.496 2521.700, 924.436 2530.500 C 931.608 2551.969, 937.787 2580.248, 937.931 2592.263 L 938 2598.026 950.974 2597.934 C 960.308 2597.869, 963.885 2597.514, 963.724 2596.671 C 963.601 2596.027, 964.120 2595.632, 964.878 2595.793 C 965.819 2595.992, 966.086 2595.437, 965.721 2594.043 C 965.374 2592.714, 965.670 2592, 966.569 2592 C 967.563 2592, 967.786 2592.821, 967.364 2594.929 L 966.778 2597.858 983.889 2597.948 C 993.300 2597.998, 1001 2597.820, 1001 2597.554 C 1001 2597.288, 1000.353 2595.142, 999.563 2592.785 C 994.593 2577.970, 987.595 2546.535, 982.474 2516.019 C 981.534 2510.418, 979.090 2490.858, 976.974 2472 C 975.894 2462.375, 974.782 2453.518, 974.503 2452.318 C 973.763 2449.133, 972.141 2414.905, 971.526 2389.500 C 969.933 2323.714, 967.173 2283.661, 960.256 2226 C 957.024 2199.059, 958.094 2135, 962.580 2086.844 C 964.011 2071.487, 964.783 1934.744, 963.542 1916.500 C 963.280 1912.650, 962.810 1896, 962.498 1879.500 C 962.186 1863, 961.511 1840.950, 960.998 1830.500 C 960.046 1811.091, 959.929 1800.711, 960.709 1804.771 L 961.145 1807.043 962.903 1804.872 C 964.646 1802.719, 964.662 1802.737, 964.831 1807.054 C 965.077 1813.327, 968.663 1840.630, 973.402 1872.299 C 974.867 1882.089, 975.979 1890.639, 975.875 1891.299 C 975.770 1891.960, 975.948 1893.175, 976.270 1894 C 976.592 1894.825, 977.344 1900.450, 977.943 1906.500 C 978.541 1912.550, 979.217 1919.300, 979.445 1921.500 C 979.672 1923.700, 980.138 1929.775, 980.481 1935 C 980.823 1940.225, 981.297 1947.200, 981.535 1950.500 C 982.824 1968.372, 985.842 2012.711, 985.857 2014 C 985.888 2016.713, 988.875 2047.229, 990.457 2061 C 992.451 2078.354, 993.766 2087.456, 996.089 2100 C 996.751 2103.575, 997.372 2112.125, 997.470 2119 C 997.567 2125.875, 998.223 2133.525, 998.926 2136 C 1000.510 2141.572, 999.718 2166.676, 997.587 2178.500 C 988.782 2227.332, 988.759 2291.352, 997.528 2337 C 1001.237 2356.305, 1003 2366.378, 1003 2368.266 C 1003 2369.398, 1003.666 2372.614, 1004.480 2375.412 C 1005.826 2380.042, 1009.224 2395.570, 1013.469 2416.500 C 1014.362 2420.900, 1015.304 2425.175, 1015.562 2426 C 1017.704 2432.837, 1026.464 2479.803, 1027.967 2492.500 C 1028.487 2496.900, 1029.816 2507.475, 1030.919 2516 C 1033.037 2532.371, 1035.176 2563.156, 1034.880 2573.017 C 1034.713 2578.599, 1034.556 2578.935, 1031.602 2580.023 C 1025.761 2582.174, 1025.513 2582.485, 1025.191 2588.050 C 1025.021 2590.989, 1025.142 2594.430, 1025.460 2595.697 L 1026.038 2598 1062.193 2598 L 1098.349 2598 1096.271 2595.750 C 1090.273 2589.257, 1086.893 2508.015, 1091.725 2486.500 C 1092.832 2481.572, 1093.382 2472.917, 1093.585 2457.259 C 1093.744 2445.027, 1094.095 2433.552, 1094.365 2431.759 C 1095.736 2422.673, 1098.495 2385.346, 1099.521 2362 C 1099.824 2355.125, 1100.278 2346.350, 1100.531 2342.500 C 1101.755 2323.864, 1101.964 2277.689, 1100.921 2256.278 C 1100.284 2243.200, 1099.767 2231.825, 1099.772 2231 C 1099.777 2230.175, 1099.152 2219.600, 1098.381 2207.500 C 1097.141 2188.002, 1097.194 2155.702, 1098.481 2148 C 1098.710 2146.625, 1099.403 2138.075, 1100.021 2129 C 1100.779 2117.848, 1101.584 2112.012, 1102.505 2110.995 C 1104.803 2108.455, 1105.397 2099.891, 1103.691 2093.887 C 1102.688 2090.357, 1102.320 2086.087, 1102.626 2081.500 C 1103.724 2065.010, 1106.180 2042.022, 1108.572 2025.865 C 1109.985 2016.314, 1111.520 2005.109, 1111.982 2000.963 C 1112.443 1996.818, 1113.510 1989.393, 1114.351 1984.463 C 1116.207 1973.582, 1117.729 1961.167, 1119.004 1946.500 C 1119.530 1940.450, 1120.646 1929.875, 1121.484 1923 C 1122.321 1916.125, 1123.468 1905.775, 1124.032 1900 C 1124.597 1894.225, 1125.276 1887.475, 1125.543 1885 C 1125.810 1882.525, 1126.690 1873.525, 1127.500 1865 C 1128.309 1856.475, 1129.487 1846.925, 1130.116 1843.778 C 1130.746 1840.631, 1130.979 1836.646, 1130.635 1834.923 C 1130.094 1832.218, 1130.247 1831.885, 1131.754 1832.493 C 1132.714 1832.880, 1135.188 1833.437, 1137.250 1833.730 C 1140.055 1834.129, 1141 1834.734, 1141 1836.132 C 1141 1838.183, 1146.329 1838.895, 1147.500 1837 C 1148.396 1835.550, 1151.022 1835.770, 1150.479 1837.250 C 1149.668 1839.462, 1151.801 1841.803, 1152.985 1840 C 1154.371 1837.888, 1154.237 1835.006, 1152.750 1834.967 C 1152.063 1834.948, 1152.532 1834.073, 1153.793 1833.022 C 1156.299 1830.932, 1155.101 1826.640, 1152.310 1827.711 C 1151.413 1828.055, 1151.180 1827.696, 1151.596 1826.611 C 1151.936 1825.725, 1152.608 1825, 1153.090 1825 C 1153.898 1825, 1153.544 1793.125, 1152.607 1781.500 C 1151.802 1771.514, 1152.149 1691.436, 1153 1690.787 C 1154.961 1689.290, 1159.772 1688, 1163.395 1688 L 1167.695 1688 1168.386 1700.250 C 1169.381 1717.885, 1169.554 1719.347, 1172.076 1731.500 C 1175.258 1746.835, 1174.929 1775.337, 1171.492 1782 C 1170.783 1783.375, 1168.578 1787.875, 1166.592 1792 C 1164.607 1796.125, 1161.651 1801.750, 1160.024 1804.500 C 1153.343 1815.792, 1160.159 1824.473, 1168.268 1815 C 1170.151 1812.800, 1171.874 1811, 1172.096 1811 C 1172.433 1811, 1172.433 1818.770, 1172.097 1822.597 C 1172.043 1823.200, 1170.537 1825.238, 1168.750 1827.126 C 1159.850 1836.527, 1159.403 1845.648, 1167.881 1844.840 L 1172 1844.447 1171.869 1858.474 C 1171.797 1866.188, 1171.460 1875.875, 1171.119 1880 C 1170.400 1888.708, 1172.083 1904.559, 1174.397 1910.876 C 1175.279 1913.282, 1176 1916.262, 1176 1917.498 C 1176 1919.335, 1176.709 1919.858, 1179.890 1920.366 C 1182.957 1920.857, 1183.913 1921.519, 1184.409 1923.494 C 1184.755 1924.872, 1185.568 1926, 1186.215 1926 C 1188.701 1926, 1195 1931.295, 1195.001 1933.386 C 1195.002 1935.273, 1195.617 1935.517, 1200.721 1935.661 C 1203.867 1935.750, 1206.604 1936.312, 1206.804 1936.911 C 1207.015 1937.544, 1209.829 1938, 1213.524 1938 C 1217.021 1938, 1220.160 1938.450, 1220.500 1939 C 1221.423 1940.494, 1224.584 1940.207, 1226 1938.500 C 1226.685 1937.675, 1228.058 1937, 1229.051 1937 C 1230.044 1937, 1231.460 1936.397, 1232.196 1935.661 C 1234.316 1933.541, 1236.376 1933.154, 1238.009 1934.567 C 1241.081 1937.227, 1245.004 1937.119, 1246.059 1934.345 C 1246.590 1932.949, 1247.919 1931.573, 1249.012 1931.287 C 1250.105 1931.001, 1251 1930.253, 1251 1929.626 C 1251 1928.425, 1261.652 1915.741, 1263.144 1915.165 C 1263.622 1914.980, 1263.756 1914.415, 1263.443 1913.908 C 1263.130 1913.401, 1264.229 1909.502, 1265.886 1905.243 C 1267.543 1900.984, 1269.620 1892.775, 1270.503 1887 C 1271.385 1881.225, 1272.579 1874.250, 1273.155 1871.500 C 1273.731 1868.750, 1274.403 1864.700, 1274.649 1862.500 C 1274.894 1860.300, 1275.557 1856.250, 1276.120 1853.500 C 1277.323 1847.634, 1278.925 1833.616, 1279.606 1823 C 1279.871 1818.875, 1280.494 1813.475, 1280.990 1811 C 1281.870 1806.607, 1282.933 1797.262, 1284.970 1776 C 1285.523 1770.225, 1286.220 1758.750, 1286.518 1750.500 C 1286.816 1742.250, 1287.486 1728.525, 1288.008 1720 C 1288.529 1711.475, 1289.204 1695.725, 1289.506 1685 C 1290.284 1657.460, 1291.989 1612.613, 1292.529 1605.500 C 1292.780 1602.200, 1292.424 1594.775, 1291.740 1589 C 1290.584 1579.257, 1290.863 1567.418, 1292.470 1558 C 1293.850 1549.910, 1293.219 1537.086, 1290.749 1523 C 1289.929 1518.325, 1289.189 1510.450, 1289.105 1505.500 C 1288.945 1496.101, 1287.748 1481.876, 1284.941 1456 C 1284.374 1450.775, 1283.523 1441.325, 1283.048 1435 C 1282.032 1421.455, 1281.404 1415.332, 1279.511 1400.500 C 1278.738 1394.450, 1277.820 1386.575, 1277.471 1383 C 1277.121 1379.425, 1276.451 1374.925, 1275.982 1373 C 1275.513 1371.075, 1274.600 1366.125, 1273.954 1362 C 1273.308 1357.875, 1272.090 1351.800, 1271.247 1348.500 C 1269.624 1342.142, 1269.584 1341.741, 1268.556 1321.500 C 1268.192 1314.350, 1267.479 1304.702, 1266.971 1300.060 C 1266.463 1295.418, 1266.257 1291.409, 1266.515 1291.152 C 1266.772 1290.895, 1266.562 1290.178, 1266.049 1289.559 C 1265.535 1288.939, 1265.023 1284.656, 1264.912 1280.041 C 1264.801 1275.425, 1264.142 1268.240, 1263.448 1264.074 C 1262.753 1259.908, 1261.898 1250.686, 1261.546 1243.580 C 1261.195 1236.473, 1260.657 1230.255, 1260.352 1229.761 C 1260.046 1229.266, 1259.408 1223.605, 1258.934 1217.181 C 1258.460 1210.756, 1257.597 1201.900, 1257.016 1197.500 C 1256.436 1193.100, 1255.776 1187.820, 1255.550 1185.767 C 1255.324 1183.713, 1254.927 1181.688, 1254.668 1181.267 C 1254.409 1180.845, 1253.896 1177.368, 1253.528 1173.540 C 1253.159 1169.711, 1252.692 1166.311, 1252.489 1165.982 C 1252.286 1165.654, 1251.858 1163.161, 1251.536 1160.443 C 1251.215 1157.724, 1250.540 1152.800, 1250.037 1149.500 C 1249.533 1146.200, 1248.366 1138.100, 1247.443 1131.500 C 1246.520 1124.900, 1244.855 1115, 1243.742 1109.500 C 1242.629 1104, 1241.519 1098.150, 1241.275 1096.500 C 1241.031 1094.850, 1240.117 1091.925, 1239.243 1090 C 1237.998 1087.258, 1237.609 1082.388, 1237.447 1067.500 C 1237.241 1048.721, 1235.427 1032.538, 1231.503 1014.500 C 1230.666 1010.650, 1229.494 1005.025, 1228.898 1002 C 1228.302 998.975, 1227.405 994.475, 1226.903 992 C 1225.699 986.054, 1223.920 975.253, 1223.528 971.500 C 1223.355 969.850, 1222.972 966.925, 1222.675 965 C 1222.379 963.075, 1221.870 958.575, 1221.543 955 C 1220.539 943.994, 1215.002 912.240, 1211.517 897.500 C 1205.852 873.537, 1202.358 859.952, 1200.896 856.203 C 1200.403 854.940, 1200 852.577, 1200 850.953 C 1200 849.329, 1199.586 848, 1199.079 848 C 1198.573 848, 1197.872 846.538, 1197.521 844.750 C 1196.786 841.001, 1196.431 840.119, 1191.590 829.991 C 1189.615 825.861, 1188 822.149, 1188 821.741 C 1188 821.334, 1187.065 820.065, 1185.923 818.923 C 1184.780 817.780, 1184.100 816.182, 1184.411 815.371 C 1184.729 814.542, 1184.544 814.164, 1183.989 814.507 C 1183.445 814.843, 1183 814.501, 1183 813.748 C 1183 812.994, 1182.205 811.505, 1181.234 810.439 C 1178.774 807.737, 1173 798.537, 1173 797.317 C 1173 796.763, 1172.100 795.495, 1171 794.500 C 1169.900 793.505, 1169 792.291, 1169 791.802 C 1169 790.701, 1162.328 781.617, 1156.709 775.070 C 1150.768 768.147, 1146 761.505, 1146 760.152 C 1146 759.518, 1145.622 759, 1145.159 759 C 1142.568 759, 1138.784 748.573, 1137.969 739.189 C 1137.506 733.857, 1136.882 728.821, 1136.582 727.997 C 1136.283 727.174, 1135.811 723.800, 1135.534 720.500 C 1135.049 714.712, 1134.640 711.465, 1133.458 704 C 1133.153 702.075, 1132.677 698.250, 1132.400 695.500 C 1132.124 692.750, 1131.401 688.700, 1130.796 686.500 C 1130.190 684.300, 1129.651 680.362, 1129.597 677.750 C 1129.534 674.668, 1129.061 673, 1128.250 673 C 1127.563 673, 1127 671.853, 1127 670.450 C 1127 669.048, 1126.288 666.523, 1125.417 664.840 C 1124.547 663.157, 1124.327 662.084, 1124.928 662.455 C 1125.529 662.827, 1125.107 660.514, 1123.990 657.315 C 1120.461 647.210, 1120.233 646.249, 1120.607 643.039 C 1120.817 641.238, 1120.570 640.148, 1120.029 640.482 C 1118.955 641.146, 1115.758 635.575, 1116.682 634.651 C 1117.014 634.320, 1116.716 633.362, 1116.020 632.524 C 1115.324 631.686, 1115.105 631, 1115.533 631 C 1115.960 631, 1115.643 630.212, 1114.827 629.250 C 1113.278 627.423, 1107.847 612.605, 1107.771 610 C 1107.747 609.175, 1107.381 608.050, 1106.958 607.500 C 1106.535 606.950, 1106.186 604.925, 1106.182 603 C 1106.175 599.594, 1103.401 590.003, 1102.132 589 C 1101.086 588.173, 1099 584.107, 1099 582.896 C 1099 582.273, 1097.650 580.226, 1096 578.347 C 1094.350 576.468, 1093 574.271, 1093 573.465 C 1093 571.068, 1092.772 570.554, 1091.196 569.402 C 1090.283 568.734, 1090.011 567.791, 1090.502 566.997 C 1091.035 566.134, 1090.918 565.933, 1090.155 566.405 C 1089.394 566.875, 1089 566.223, 1089 564.496 C 1089 562.598, 1088.517 561.923, 1087.250 562.052 C 1084.123 562.370, 1083.198 562.038, 1080.206 559.520 C 1078.584 558.155, 1076.982 555.659, 1076.644 553.972 C 1076.307 552.285, 1075.462 550.980, 1074.766 551.071 C 1072.301 551.394, 1070.889 550.989, 1071.430 550.113 C 1071.732 549.625, 1071.421 549.283, 1070.739 549.354 C 1067.759 549.661, 1059 546.711, 1059 545.400 C 1059 544.630, 1058.132 544, 1057.071 544 C 1056.011 544, 1054.489 543.346, 1053.690 542.548 C 1052.892 541.749, 1051.959 541.374, 1051.618 541.716 C 1051.276 542.057, 1049.985 541.844, 1048.748 541.241 C 1047.512 540.639, 1045.150 539.737, 1043.500 539.236 C 1041.074 538.500, 1040.557 537.848, 1040.800 535.829 C 1041.005 534.123, 1040.614 533.333, 1039.566 533.333 C 1038.387 533.333, 1038.293 533.648, 1039.158 534.691 C 1040.870 536.754, 1039.647 537.219, 1034.532 536.452 C 1031.077 535.934, 1030.021 535.387, 1030.429 534.326 C 1030.733 533.532, 1030.537 533.168, 1029.989 533.507 C 1029.445 533.843, 1029 533.737, 1029 533.272 C 1029 532.806, 1028.090 532.357, 1026.978 532.273 C 1025.728 532.179, 1025.218 532.544, 1025.642 533.230 C 1026.111 533.988, 1025.721 534.085, 1024.414 533.536 C 1023.361 533.095, 1021.678 532.768, 1020.674 532.810 C 1019.320 532.867, 1019.118 532.563, 1019.890 531.632 C 1020.704 530.652, 1019.682 530.361, 1015.216 530.302 C 1012.072 530.260, 1007.475 529.975, 1005 529.668 C 1002.525 529.361, 999.686 529.085, 998.691 529.055 C 997.696 529.025, 997.091 528.663, 997.346 528.250 C 997.902 527.351, 968.447 526.640, 960.750 527.367 C 958.460 527.583, 956.994 527.289, 956.985 526.611 C 956.976 526, 956.540 526.175, 956.015 527 C 955.229 528.236, 954.707 528.280, 953.044 527.250 C 950.912 525.929, 950.264 525.850, 948.244 526.664 M 735 539.622 C 735 541.737, 734.733 542.023, 733.622 541.101 C 732.642 540.288, 731.465 540.253, 729.557 540.979 C 728.079 541.540, 725.774 542, 724.435 542 C 723.096 542, 722 542.420, 722 542.933 C 722 544.412, 717.912 545.312, 716.699 544.099 C 715.054 542.454, 711 542.739, 711 544.500 C 711 545.543, 712.049 546, 714.441 546 C 716.334 546, 718.178 546.479, 718.540 547.065 C 718.982 547.780, 719.742 547.652, 720.849 546.676 C 721.994 545.667, 723.190 545.484, 724.750 546.079 C 727.431 547.100, 727.764 550, 725.200 550 C 723.301 550, 721 551.797, 721 553.279 C 721 553.763, 722.312 553.871, 723.916 553.518 C 726.116 553.035, 727.109 553.323, 727.960 554.689 C 728.896 556.194, 728.987 555.975, 728.495 553.391 C 728.137 551.513, 728.559 548.643, 729.560 546.141 C 731.210 542.018, 733 540.644, 733 543.500 C 733 545.852, 734.378 545.247, 735.750 542.293 C 737.258 539.046, 737.355 537, 736 537 C 735.450 537, 735 538.180, 735 539.622 M 634 555.686 C 634 558.564, 631.788 560.106, 627.165 560.450 C 624.996 560.612, 622.753 561.034, 622.180 561.389 C 621.606 561.743, 620.523 561.158, 619.774 560.087 C 618.345 558.048, 613 556.139, 613 557.669 C 613 561.119, 620.395 566, 625.622 566 C 628.131 566, 628.870 564.492, 626.750 563.700 C 625.923 563.391, 626.126 562.975, 627.351 562.471 C 628.540 561.981, 629.531 562.208, 630.121 563.104 C 630.868 564.238, 631.407 564.063, 632.992 562.174 C 634.358 560.545, 635.551 560.040, 636.966 560.489 C 638.464 560.965, 638.845 560.759, 638.436 559.694 C 638.132 558.901, 638.610 557.980, 639.506 557.636 C 640.397 557.294, 640.833 556.539, 640.474 555.959 C 640.031 555.240, 639.336 555.306, 638.303 556.164 C 637.052 557.202, 636.538 557.088, 635.392 555.521 C 634.038 553.670, 634 553.674, 634 555.686 M 634.835 564.673 C 631.116 565.658, 631.773 576, 635.555 576 C 636.845 576, 638.348 575.212, 638.894 574.250 C 639.839 572.583, 639.971 572.583, 641.658 574.250 C 643.350 575.923, 643.328 576, 641.155 576 C 639.894 576, 639.157 576.445, 639.500 577 C 639.840 577.550, 640.991 578, 642.059 578 C 643.991 578, 644.407 576.791, 644.039 572.250 C 643.921 570.794, 644.411 570, 645.428 570 C 646.293 570, 647 569.550, 647 569 C 647 568.001, 644.500 567.617, 640.250 567.961 C 638.582 568.096, 638 567.607, 638 566.072 C 638 563.972, 637.806 563.886, 634.835 564.673 M 632.639 577.694 C 632.288 578.046, 632 579.346, 632 580.583 C 632 581.821, 631.438 583.060, 630.750 583.338 C 630.003 583.639, 630.205 583.874, 631.250 583.921 C 632.212 583.964, 633.029 583.438, 633.063 582.750 C 633.098 582.063, 633.562 582.589, 634.094 583.920 C 634.734 585.522, 634.713 586.687, 634.030 587.370 C 632.571 588.829, 632.742 593.997, 634.250 594.014 C 634.938 594.021, 636.513 594.299, 637.750 594.630 C 639.724 595.159, 640 594.858, 640 592.182 C 640 590.503, 640.463 587.913, 641.028 586.425 C 641.828 584.322, 641.717 583.345, 640.528 582.031 C 639.688 581.103, 639 579.746, 639 579.016 C 639 578.076, 638.418 578.217, 637 579.500 C 635.258 581.076, 635 581.104, 635 579.714 C 635 577.915, 633.609 576.724, 632.639 577.694 M 596 604.378 C 596 605.685, 596.670 607.311, 597.489 607.991 C 599.707 609.832, 598.306 611.083, 594.327 610.815 C 592.237 610.675, 589.935 609.676, 588.669 608.360 C 586.447 606.052, 584 606.714, 584 609.622 C 584 610.380, 583.288 611, 582.417 611 C 581.546 611, 581.021 611.563, 581.250 612.250 C 581.796 613.892, 585.075 614.497, 585.930 613.114 C 586.387 612.374, 587.295 612.519, 588.799 613.572 C 591.413 615.403, 591.636 617.545, 589.346 618.827 C 588.295 619.414, 587.934 620.385, 588.356 621.485 C 588.971 623.089, 589.201 623.098, 591.468 621.613 C 592.815 620.731, 594.898 620.119, 596.098 620.254 C 597.298 620.389, 598.479 619.938, 598.723 619.250 C 599.002 618.463, 598.232 618, 596.642 618 C 592.738 618, 592.600 616.287, 596.402 615.032 C 600.741 613.600, 602.405 608.826, 600.393 603.582 C 599.400 600.994, 596 601.610, 596 604.378 M 443.450 698.923 C 442.928 699.431, 441.150 700.013, 439.500 700.217 L 436.500 700.588 439.171 701.918 C 440.752 702.706, 441.627 703.808, 441.316 704.619 C 441.027 705.372, 440.344 705.713, 439.799 705.376 C 439.242 705.031, 438.965 705.581, 439.168 706.632 C 439.637 709.069, 441.243 708.830, 442.487 706.137 C 443.030 704.961, 443.818 704, 444.237 704 C 445.488 704, 445.104 706.480, 443.532 708.559 C 440.843 712.113, 442.626 713.517, 445.799 710.344 C 447.340 708.803, 447.494 708.855, 448.020 711.084 C 448.369 712.562, 448.857 713.040, 449.295 712.332 C 449.685 711.701, 449.615 710.135, 449.141 708.851 C 448.518 707.168, 448.691 706.215, 449.761 705.433 C 451.695 704.018, 450.491 700, 448.133 700 C 447.180 700, 445.950 699.550, 445.400 699 C 444.788 698.388, 444.031 698.358, 443.450 698.923 M 1228.895 1792.281 C 1226.478 1795.622, 1225.844 1798.460, 1226.898 1801.231 C 1227.603 1803.085, 1227.467 1804.104, 1226.370 1805.202 C 1225.558 1806.013, 1224.497 1809.484, 1224.012 1812.915 C 1223.527 1816.345, 1222.407 1820.256, 1221.524 1821.604 C 1219.949 1824.007, 1220.192 1826, 1222.059 1826 C 1222.577 1826, 1223 1825.298, 1223 1824.441 C 1223 1823.584, 1223.408 1823.134, 1223.907 1823.442 C 1224.405 1823.751, 1224.579 1823.108, 1224.293 1822.014 C 1223.963 1820.751, 1224.363 1819.798, 1225.387 1819.405 C 1226.465 1818.991, 1226.852 1817.966, 1226.552 1816.314 C 1226.212 1814.438, 1226.401 1814.088, 1227.338 1814.865 C 1228.241 1815.615, 1228.571 1815.389, 1228.571 1814.018 C 1228.571 1812.989, 1228.218 1812.365, 1227.786 1812.632 C 1226.406 1813.485, 1226.945 1810.291, 1228.382 1809.098 C 1229.142 1808.467, 1229.670 1806.500, 1229.555 1804.726 C 1229.440 1802.952, 1229.702 1800.501, 1230.137 1799.280 C 1230.708 1797.676, 1230.478 1796.807, 1229.309 1796.153 C 1227.868 1795.346, 1227.927 1795.043, 1229.845 1793.401 C 1232.001 1791.555, 1232.661 1789.972, 1231.250 1790.031 C 1230.838 1790.049, 1229.778 1791.061, 1228.895 1792.281 M 883 2246.347 C 883 2247.470, 886.685 2250.624, 887.623 2250.303 C 888.240 2250.091, 888.986 2250.837, 889.279 2251.959 C 889.573 2253.082, 889.405 2254, 888.906 2254 C 888.408 2254, 888 2253.625, 888 2253.167 C 888 2252.193, 884.359 2252.307, 883.354 2253.313 C 882.976 2253.691, 883.368 2254, 884.225 2254 C 886.395 2254, 887.496 2258.932, 885.722 2260.706 C 884.530 2261.898, 884.135 2261.868, 882.995 2260.494 C 881.875 2259.145, 881.889 2258.936, 883.081 2259.194 C 883.861 2259.362, 884.500 2258.825, 884.500 2258 C 884.500 2257.175, 883.938 2256.613, 883.250 2256.750 C 882.563 2256.887, 881.993 2256.438, 881.985 2255.750 C 881.974 2254.914, 881.643 2254.997, 880.985 2256 C 880.157 2257.261, 879.858 2257.280, 879.109 2256.118 C 878.411 2255.034, 878.068 2255.212, 877.518 2256.943 C 877.133 2258.157, 876.971 2259.263, 877.159 2259.399 C 886.103 2265.911, 889.741 2266.488, 889.085 2261.293 C 889.001 2260.629, 890.312 2259.373, 891.999 2258.501 C 893.685 2257.628, 894.778 2256.450, 894.427 2255.882 C 894.035 2255.248, 892.937 2255.650, 891.580 2256.925 C 890.365 2258.066, 889.111 2259, 888.793 2259 C 887.612 2259, 887.127 2256.040, 888.198 2255.378 C 888.871 2254.962, 889.028 2255.146, 888.595 2255.845 C 888.168 2256.536, 888.532 2257, 889.500 2257 C 890.390 2257, 890.833 2256.539, 890.485 2255.975 C 890.136 2255.412, 890.447 2255.074, 891.176 2255.225 C 891.904 2255.376, 892.500 2255.003, 892.500 2254.396 C 892.500 2252.394, 888.559 2248, 886.763 2248 C 885.793 2248, 885 2247.550, 885 2247 C 885 2246.450, 884.550 2246, 884 2246 C 883.450 2246, 883 2246.156, 883 2246.347 M 912.086 2558.500 C 911.308 2564, 910.725 2568.950, 910.790 2569.500 C 910.855 2570.050, 911.120 2572.188, 911.379 2574.250 C 911.638 2576.313, 911.433 2578, 910.925 2578 C 910.416 2578, 909.993 2577.438, 909.985 2576.750 C 909.974 2575.917, 909.646 2576, 909 2577 C 908.161 2578.298, 908.029 2578.277, 908.015 2576.838 C 908.006 2575.830, 907.312 2575.277, 906.250 2575.432 C 904.723 2575.655, 904.464 2577.109, 904.217 2586.844 L 903.934 2598 909.217 2598.001 L 914.500 2598.001 914.226 2577.251 C 913.837 2547.744, 913.734 2546.843, 912.086 2558.500" stroke="none" fill="black" fill-rule="evenodd"/>
</svg>