<svg xmlns="http://www.w3.org/2000/svg" width="3593" height="5385" viewBox="0 0 3593 5385" version="1.1">
	<path d="M 661 2690 L 661 4706 1789.500 4706 L 2918 4706 2918 2690 L 2918 674 1789.500 674 L 661 674 661 2690 M 1369.821 2708.512 C 1369.587 2708.746, 1367.956 2709.048, 1366.198 2709.182 C 1364.305 2709.326, 1363 2709.975, 1363 2710.772 C 1363 2711.512, 1362.550 2711.840, 1362 2711.500 C 1361.450 2711.160, 1361 2711.296, 1361 2711.802 C 1361 2712.309, 1359.898 2712.512, 1358.552 2712.255 C 1355.357 2711.644, 1349.819 2714.087, 1350.482 2715.815 C 1350.819 2716.693, 1350.408 2716.955, 1349.244 2716.601 C 1348.285 2716.309, 1345.363 2715.942, 1342.751 2715.785 C 1340.139 2715.628, 1338.001 2715.162, 1338.001 2714.750 C 1338 2714.338, 1337.523 2714, 1336.941 2714 C 1336.359 2714, 1336.113 2714.373, 1336.395 2714.829 C 1336.677 2715.286, 1335.941 2715.588, 1334.761 2715.501 C 1333.580 2715.414, 1332.404 2714.711, 1332.146 2713.939 C 1330.469 2708.907, 1327.031 2709.620, 1327.031 2715 C 1327.031 2716.979, 1327.233 2717.187, 1328 2716 C 1328.755 2714.831, 1328.973 2715.107, 1328.985 2717.250 C 1329 2719.915, 1329.170 2720, 1334.500 2720 C 1337.525 2720, 1340 2719.550, 1340 2719 C 1340 2717.745, 1345.680 2717.673, 1346.450 2718.919 C 1347.105 2719.978, 1344.314 2720.599, 1334.500 2721.574 C 1328.097 2722.211, 1327.752 2722.357, 1330.454 2723.287 C 1332.079 2723.846, 1334.302 2725.135, 1335.393 2726.151 C 1336.484 2727.168, 1337.967 2728, 1338.689 2728 C 1339.410 2728, 1340 2728.450, 1340 2729 C 1340 2729.550, 1340.702 2730, 1341.559 2730 C 1342.416 2730, 1342.840 2730.450, 1342.500 2731 C 1342.160 2731.550, 1342.359 2732, 1342.941 2732 C 1343.523 2732, 1344 2731.550, 1344 2731 C 1344 2729.638, 1346.611 2729.740, 1348.935 2731.192 C 1350.405 2732.109, 1351.724 2732.113, 1354.672 2731.207 C 1357.107 2730.459, 1358.621 2730.389, 1358.833 2731.015 C 1359.017 2731.557, 1359.804 2732, 1360.583 2732 C 1361.362 2732, 1362 2732.675, 1362 2733.500 C 1362 2734.482, 1362.983 2735, 1364.845 2735 C 1366.410 2735, 1368.462 2735.853, 1369.405 2736.895 C 1371.220 2738.900, 1373.262 2739.451, 1384.500 2740.966 C 1388.350 2741.485, 1392.400 2742.043, 1393.500 2742.205 C 1394.998 2742.426, 1395.736 2741.699, 1396.440 2739.311 C 1397.521 2735.640, 1400.450 2734.460, 1404.581 2736.031 C 1408.266 2737.432, 1419.831 2738.082, 1420.544 2736.928 C 1420.860 2736.418, 1419.543 2736, 1417.618 2736 C 1413.857 2736, 1411.873 2734.370, 1414.437 2733.386 C 1415.296 2733.056, 1416 2732.145, 1416 2731.362 C 1416 2730.578, 1416.755 2729.648, 1417.677 2729.294 C 1419.177 2728.718, 1419.151 2728.571, 1417.427 2727.895 C 1415.953 2727.318, 1416.304 2727.124, 1418.917 2727.070 C 1420.796 2727.032, 1422.036 2727.297, 1421.673 2727.660 C 1421.310 2728.023, 1421.910 2728.949, 1423.006 2729.717 C 1425.191 2731.247, 1425.751 2735.991, 1423.750 2736.015 C 1422.905 2736.026, 1422.977 2736.333, 1423.974 2736.963 C 1424.945 2737.577, 1425.718 2737.486, 1426.242 2736.697 C 1426.821 2735.824, 1427.316 2735.974, 1428.068 2737.250 C 1428.635 2738.213, 1429.752 2739, 1430.550 2739 C 1431.347 2739, 1432 2739.450, 1432 2740 C 1432 2740.550, 1432.927 2741, 1434.059 2741 C 1435.191 2741, 1435.869 2740.597, 1435.565 2740.105 C 1435.260 2739.612, 1435.712 2738.941, 1436.569 2738.612 C 1437.426 2738.283, 1437.809 2737.500, 1437.421 2736.873 C 1436.930 2736.078, 1437.671 2735.871, 1439.858 2736.192 C 1442.375 2736.562, 1443 2736.300, 1443 2734.876 C 1443 2733.899, 1443.738 2732.686, 1444.640 2732.181 C 1446.773 2730.988, 1445.397 2728.739, 1443 2729.500 C 1440.763 2730.210, 1439.677 2728.643, 1439.785 2724.856 C 1439.852 2722.510, 1439.451 2722, 1437.540 2722 C 1436.261 2722, 1434.955 2721.325, 1434.638 2720.500 C 1434.322 2719.675, 1433.197 2719, 1432.138 2719 C 1431.080 2719, 1429.958 2718.333, 1429.645 2717.517 C 1428.836 2715.408, 1426.100 2716.752, 1425.383 2719.610 C 1424.872 2721.646, 1424.169 2722.002, 1420.642 2722.014 C 1414.860 2722.033, 1412.036 2722.930, 1412.658 2724.551 C 1413.532 2726.829, 1412.036 2728.275, 1410.297 2726.832 C 1409.459 2726.136, 1406.687 2725.254, 1404.137 2724.872 L 1399.500 2724.176 1404 2724.181 C 1410.300 2724.187, 1410.693 2724.094, 1409 2723 C 1408.175 2722.467, 1405.138 2722.024, 1402.250 2722.015 C 1399.362 2722.007, 1397 2721.550, 1397 2721 C 1397 2720.450, 1396.142 2720, 1395.094 2720 C 1393.731 2720, 1393.325 2719.472, 1393.671 2718.151 C 1394.231 2716.009, 1390.715 2709.722, 1388.799 2709.441 C 1384.906 2708.870, 1370.184 2708.149, 1369.821 2708.512 M 2537 2932.153 C 2535.075 2932.713, 2532.790 2933.807, 2531.921 2934.585 C 2531.053 2935.363, 2529.553 2936, 2528.588 2936 C 2527.612 2936, 2527.032 2936.555, 2527.282 2937.250 C 2528.079 2939.474, 2526.005 2942, 2523.381 2942 C 2521.801 2942, 2520.990 2942.470, 2521.246 2943.238 C 2521.654 2944.462, 2516.187 2947.084, 2512.750 2947.312 C 2511.787 2947.376, 2511 2947.782, 2511 2948.214 C 2511 2948.646, 2510.100 2949, 2509 2949 C 2507.900 2949, 2506.999 2949.338, 2506.998 2949.750 C 2506.997 2950.162, 2505.379 2950.616, 2503.403 2950.757 C 2501.217 2950.913, 2499.157 2951.819, 2498.144 2953.071 C 2497.183 2954.257, 2495.001 2955.265, 2492.989 2955.451 C 2488.648 2955.854, 2485.159 2957.184, 2484.994 2958.500 C 2484.887 2959.354, 2484.096 2959.394, 2481 2958.703 C 2479.196 2958.301, 2470 2960.250, 2470 2961.034 C 2470 2961.565, 2469.373 2962, 2468.607 2962 C 2467.841 2962, 2466.935 2962.726, 2466.595 2963.614 C 2466.173 2964.713, 2465.171 2965.075, 2463.456 2964.747 C 2461.608 2964.394, 2460.416 2964.927, 2458.985 2966.746 C 2457.850 2968.190, 2456.421 2968.992, 2455.568 2968.664 C 2454.670 2968.320, 2453.861 2968.863, 2453.479 2970.066 C 2453.136 2971.145, 2452.525 2971.824, 2452.120 2971.574 C 2451.716 2971.324, 2450.567 2972.209, 2449.566 2973.541 C 2448.566 2974.873, 2447.326 2975.702, 2446.811 2975.383 C 2445.624 2974.649, 2442 2977.867, 2442 2979.655 C 2442 2980.395, 2441.550 2981, 2441 2981 C 2440.450 2981, 2439.990 2980.213, 2439.978 2979.250 C 2439.958 2977.721, 2439.737 2977.767, 2438.228 2979.617 C 2436.414 2981.840, 2432 2983.462, 2432 2981.906 C 2432 2981.408, 2430.623 2981, 2428.941 2981 C 2427.249 2981, 2426.146 2981.427, 2426.473 2981.956 C 2426.798 2982.482, 2427.679 2982.677, 2428.431 2982.388 C 2429.183 2982.100, 2430.095 2982.344, 2430.458 2982.932 C 2430.880 2983.615, 2429.797 2984, 2427.452 2984 C 2424.550 2984, 2423.910 2984.323, 2424.382 2985.552 C 2424.726 2986.448, 2424.556 2986.844, 2423.981 2986.488 C 2423.433 2986.150, 2422.327 2986.530, 2421.523 2987.335 C 2420.718 2988.139, 2417.330 2989.113, 2413.993 2989.501 C 2409.328 2990.042, 2408.163 2990.492, 2408.954 2991.445 C 2410.183 2992.926, 2409.326 2994.062, 2407.506 2993.364 C 2406.792 2993.090, 2405.517 2993.852, 2404.672 2995.058 C 2403.041 2997.387, 2398.286 2998.080, 2397.100 2996.163 C 2396.731 2995.565, 2395.422 2995.339, 2394.191 2995.660 C 2392.097 2996.208, 2392.067 2996.329, 2393.725 2997.541 C 2396.477 2999.553, 2394.216 3000.661, 2391.058 2998.848 C 2388.316 2997.274, 2383.795 2999.461, 2385.749 3001.415 C 2386.070 3001.737, 2385.846 3002, 2385.250 3002 C 2384.654 3002, 2383.940 3001.438, 2383.662 3000.750 C 2383.378 3000.045, 2383.123 3000.313, 2383.079 3001.367 C 2383.020 3002.750, 2382.463 3003.093, 2380.927 3002.691 C 2379.600 3002.344, 2378.251 3002.852, 2377.181 3004.102 C 2376.261 3005.176, 2373.827 3006.324, 2371.772 3006.652 C 2369.718 3006.981, 2368.307 3007.688, 2368.639 3008.225 C 2369.002 3008.812, 2368.476 3008.790, 2367.317 3008.170 C 2366.258 3007.603, 2364.803 3007.504, 2364.083 3007.949 C 2363.014 3008.609, 2363.024 3008.850, 2364.137 3009.260 C 2367.716 3010.577, 2360.110 3011.822, 2355.963 3010.597 C 2351.171 3009.182, 2352.385 3008.053, 2358.832 3007.930 C 2361.794 3007.873, 2362.115 3007.694, 2360.500 3007 C 2356.461 3005.264, 2353.022 3005.859, 2351.818 3008.500 C 2350.625 3011.119, 2350.078 3011.355, 2346 3011.010 C 2342.599 3010.723, 2341.513 3009.921, 2343.143 3008.901 C 2344.595 3007.992, 2334.575 3008.754, 2332 3009.748 C 2329.214 3010.824, 2325 3010.524, 2325 3009.250 C 2325 3008.563, 2325.540 3008, 2326.200 3008 C 2327.067 3008, 2327.032 3007.653, 2326.075 3006.750 C 2325.015 3005.750, 2324.658 3005.750, 2324.292 3006.750 C 2324.040 3007.438, 2323.196 3008, 2322.417 3008 C 2321.637 3008, 2321 3008.942, 2321 3010.094 C 2321 3011.346, 2320.197 3012.397, 2319 3012.710 C 2317.900 3012.998, 2317 3013.522, 2317 3013.874 C 2317 3014.226, 2314.975 3014.353, 2312.500 3014.157 C 2308.892 3013.870, 2308 3014.116, 2308 3015.399 C 2308 3016.280, 2307.518 3017, 2306.929 3017 C 2306.339 3017, 2306.532 3017.675, 2307.357 3018.500 C 2308.182 3019.325, 2309.339 3020, 2309.929 3020 C 2310.518 3020, 2311 3020.948, 2311 3022.107 C 2311 3023.569, 2310.541 3024.038, 2309.500 3023.638 C 2308.675 3023.322, 2308 3023.499, 2308 3024.031 C 2308 3024.564, 2308.450 3025, 2309 3025 C 2310.639 3025, 2310.134 3028.182, 2308.279 3029.538 C 2306.283 3030.997, 2306.107 3043.830, 2308.066 3045.041 C 2308.674 3045.416, 2309.201 3046.123, 2309.239 3046.612 C 2309.276 3047.100, 2310.150 3047.357, 2311.182 3047.182 C 2312.513 3046.957, 2313.367 3047.754, 2314.126 3049.932 C 2314.714 3051.620, 2315.602 3053, 2316.098 3053 C 2316.594 3053, 2317 3053.623, 2317 3054.383 C 2317 3055.144, 2317.945 3056.014, 2319.101 3056.316 C 2320.256 3056.618, 2320.942 3057.286, 2320.624 3057.799 C 2319.860 3059.036, 2323.425 3062.219, 2324.491 3061.252 C 2324.948 3060.838, 2325.028 3061.013, 2324.669 3061.640 C 2324.311 3062.267, 2325.303 3064.067, 2326.874 3065.640 C 2328.445 3067.213, 2330.036 3069.785, 2330.410 3071.355 C 2330.937 3073.563, 2331.533 3074.094, 2333.047 3073.698 C 2334.123 3073.417, 2334.792 3073.528, 2334.533 3073.946 C 2333.895 3074.979, 2336.396 3078.269, 2338.112 3078.653 C 2338.875 3078.824, 2340.850 3079.234, 2342.500 3079.563 C 2348.088 3080.679, 2348.639 3080.984, 2346.972 3082.038 C 2345.972 3082.671, 2347.585 3082.985, 2352 3083.018 C 2355.575 3083.045, 2361.088 3083.241, 2364.250 3083.452 C 2368.728 3083.752, 2370 3083.523, 2370 3082.418 C 2370 3081.572, 2371.008 3081, 2372.500 3081 C 2373.875 3081, 2375.007 3080.438, 2375.015 3079.750 C 2375.027 3078.828, 2375.255 3078.855, 2375.888 3079.853 C 2376.599 3080.976, 2377.151 3080.983, 2379.123 3079.898 C 2380.430 3079.179, 2382.301 3078.713, 2383.279 3078.863 C 2385.652 3079.227, 2392 3077.086, 2392 3075.922 C 2392 3075.415, 2393.088 3075, 2394.417 3075 C 2395.746 3075, 2396.994 3074.518, 2397.190 3073.929 C 2397.400 3073.300, 2400.472 3072.868, 2404.648 3072.881 C 2409.266 3072.896, 2412.405 3072.407, 2413.625 3071.484 C 2414.656 3070.703, 2416.963 3070.049, 2418.750 3070.032 C 2420.537 3070.014, 2422 3069.574, 2422 3069.053 C 2422 3068.532, 2423.688 3068.114, 2425.750 3068.125 C 2431.010 3068.151, 2433.964 3067.575, 2438.002 3065.737 C 2439.926 3064.861, 2443.789 3063.855, 2446.587 3063.501 C 2449.944 3063.076, 2452.565 3062.031, 2454.294 3060.429 C 2455.734 3059.093, 2458.057 3058, 2459.456 3058 C 2460.855 3058, 2462 3057.550, 2462 3057 C 2462 3056.450, 2461.564 3056, 2461.031 3056 C 2460.499 3056, 2460.336 3055.287, 2460.671 3054.416 C 2461.159 3053.143, 2461.441 3053.094, 2462.111 3054.166 C 2463.170 3055.863, 2466.405 3051.631, 2466.696 3048.167 C 2466.805 3046.884, 2467.469 3045.140, 2468.173 3044.292 C 2468.877 3043.444, 2469.317 3041.456, 2469.151 3039.875 C 2468.985 3038.294, 2469.333 3037, 2469.925 3037 C 2470.516 3037, 2471 3036.395, 2471 3035.655 C 2471 3034.915, 2471.919 3033.478, 2473.043 3032.461 C 2474.834 3030.841, 2475.006 3030.821, 2474.436 3032.306 C 2474.079 3033.238, 2473.358 3034, 2472.834 3034 C 2472.310 3034, 2472.190 3034.498, 2472.566 3035.107 C 2472.942 3035.715, 2473.531 3035.827, 2473.875 3035.355 C 2474.219 3034.883, 2475.738 3033.859, 2477.250 3033.079 C 2480.280 3031.518, 2480.867 3030, 2478.441 3030 C 2477.584 3030, 2477.114 3029.625, 2477.397 3029.167 C 2477.680 3028.708, 2479.346 3028.544, 2481.098 3028.801 C 2483.337 3029.130, 2484.072 3028.926, 2483.572 3028.116 C 2483.130 3027.402, 2484.124 3026.413, 2486.179 3025.521 C 2488.006 3024.727, 2488.911 3024.061, 2488.191 3024.039 C 2487.471 3024.018, 2487.171 3023.532, 2487.525 3022.959 C 2487.879 3022.387, 2488.918 3022.143, 2489.834 3022.417 C 2491.626 3022.953, 2496 3019.883, 2496 3018.090 C 2496 3017.490, 2496.942 3017, 2498.094 3017 C 2499.409 3017, 2500.401 3016.183, 2500.762 3014.804 C 2501.310 3012.707, 2501.371 3012.696, 2502.098 3014.554 C 2502.788 3016.318, 2502.866 3016.331, 2502.930 3014.691 C 2502.968 3013.696, 2503.445 3013.157, 2503.989 3013.493 C 2504.555 3013.843, 2504.723 3013.442, 2504.382 3012.552 C 2504.054 3011.698, 2504.284 3011, 2504.893 3011 C 2505.502 3011, 2506 3011.675, 2506 3012.500 C 2506 3014.821, 2508.514 3014.274, 2510.597 3011.500 C 2511.630 3010.125, 2513.268 3009, 2514.237 3009 C 2515.207 3009, 2516 3008.550, 2516 3008 C 2516 3007.450, 2517.173 3007, 2518.606 3007 C 2520.195 3007, 2521.980 3006.024, 2523.179 3004.500 C 2524.260 3003.125, 2526.137 3002, 2527.350 3002 C 2528.563 3002, 2530.519 3001.325, 2531.696 3000.500 C 2532.896 2999.660, 2534.609 2999.296, 2535.592 2999.674 C 2536.955 3000.197, 2537.201 2999.966, 2536.693 2998.642 C 2536.227 2997.427, 2536.724 2996.675, 2538.422 2996.030 C 2539.733 2995.531, 2541.080 2994.680, 2541.415 2994.138 C 2541.750 2993.596, 2544.268 2992.407, 2547.012 2991.496 C 2551.685 2989.944, 2553.300 2987.921, 2551 2986.500 C 2550.450 2986.160, 2550 2986.359, 2550 2986.941 C 2550 2987.523, 2549.325 2988, 2548.500 2988 C 2547.675 2988, 2547 2987.550, 2547 2987 C 2547 2985.999, 2548.976 2985.557, 2552.237 2985.827 C 2554.708 2986.033, 2558 2979.062, 2558 2973.623 C 2558 2971.172, 2558.446 2969.017, 2558.990 2968.833 C 2559.535 2968.650, 2560.044 2965.678, 2560.122 2962.228 C 2560.199 2958.778, 2560.653 2955.714, 2561.131 2955.419 C 2561.609 2955.124, 2562 2953.821, 2562 2952.524 C 2562 2951.228, 2562.563 2949.930, 2563.250 2949.641 C 2564.076 2949.293, 2563.445 2948.162, 2561.392 2946.307 C 2559.682 2944.763, 2558.048 2942.825, 2557.761 2942 C 2557.392 2940.941, 2556.908 2941.332, 2556.113 2943.331 C 2555.443 2945.018, 2554.485 2945.928, 2553.744 2945.582 C 2553.060 2945.263, 2551.775 2944.740, 2550.889 2944.420 C 2549.666 2943.979, 2549.298 2942.548, 2549.357 2938.470 C 2549.399 2935.517, 2549.224 2932.905, 2548.967 2932.665 C 2547.788 2931.564, 2540.152 2931.238, 2537 2932.153 M 2457.558 3174.906 C 2457.250 3175.404, 2456.099 3175.577, 2455.001 3175.290 C 2453.902 3175.003, 2451.765 3175.591, 2450.252 3176.598 L 2447.500 3178.427 2451.500 3179.156 C 2453.700 3179.557, 2457.412 3179.911, 2459.750 3179.942 C 2463.776 3179.997, 2465.462 3181.311, 2462.750 3182.280 C 2462.063 3182.525, 2461.816 3183.066, 2462.202 3183.482 C 2462.589 3183.898, 2463.580 3183.563, 2464.405 3182.738 C 2465.230 3181.913, 2465.626 3180.960, 2465.286 3180.619 C 2464.945 3180.279, 2466.317 3180, 2468.333 3180 C 2471.333 3180, 2472 3180.364, 2472 3182 C 2472 3183.333, 2471.333 3184, 2470 3184 C 2468.900 3184, 2468 3184.450, 2468 3185 C 2468 3186.398, 2465.975 3186.236, 2462.808 3184.583 C 2461.327 3183.811, 2458.562 3182.969, 2456.663 3182.714 C 2454.764 3182.458, 2452.764 3181.972, 2452.219 3181.635 C 2451.096 3180.942, 2448.698 3183.364, 2449.606 3184.273 C 2449.930 3184.597, 2450.827 3184.620, 2451.598 3184.324 C 2452.585 3183.945, 2453 3184.577, 2453 3186.459 C 2453 3191.036, 2454.654 3193.082, 2457.484 3192.006 C 2459.927 3191.077, 2463 3192.786, 2463 3195.071 C 2463 3196.163, 2462.798 3196.164, 2457.250 3195.091 C 2453.101 3194.288, 2453 3194.332, 2453 3196.954 C 2453 3199.540, 2456.802 3204, 2459.008 3204 C 2459.553 3204, 2460 3204.900, 2460 3206 C 2460 3207.100, 2459.550 3208, 2459 3208 C 2458.450 3208, 2458 3208.723, 2458 3209.607 C 2458 3210.662, 2457.456 3211.005, 2456.418 3210.607 C 2455.548 3210.273, 2454.648 3210, 2454.418 3210 C 2454.188 3210, 2454 3209.073, 2454 3207.941 C 2454 3206.809, 2454.450 3206.160, 2455 3206.500 C 2455.550 3206.840, 2456 3206.162, 2456 3204.993 C 2456 3201.466, 2450.600 3202.633, 2450.184 3206.250 C 2450.010 3207.762, 2449.560 3209.007, 2449.184 3209.015 C 2446.640 3209.072, 2445.586 3210.976, 2447.374 3212.284 C 2449.008 3213.479, 2449.070 3213.914, 2447.878 3215.823 C 2446.185 3218.535, 2444.968 3218.595, 2444.290 3216 C 2444.002 3214.900, 2443.417 3214, 2442.990 3214 C 2441.758 3214, 2440.987 3216.874, 2442.044 3217.527 C 2442.570 3217.852, 2443 3218.793, 2443 3219.618 C 2443 3220.443, 2442.633 3220.891, 2442.184 3220.614 C 2438.936 3218.607, 2432.051 3223.814, 2432.796 3227.713 C 2433.109 3229.348, 2432.909 3230.062, 2432.252 3229.656 C 2431.680 3229.302, 2430.928 3230.152, 2430.577 3231.548 C 2430.228 3232.942, 2429.556 3233.843, 2429.084 3233.552 C 2428.613 3233.261, 2427.993 3233.917, 2427.707 3235.011 C 2427.310 3236.532, 2426.283 3237.027, 2423.344 3237.116 C 2421.224 3237.180, 2420.397 3237.448, 2421.500 3237.713 C 2422.600 3237.978, 2423.928 3238.600, 2424.450 3239.097 C 2424.972 3239.594, 2426.450 3240, 2427.732 3240 C 2429.015 3240, 2430.387 3240.787, 2430.782 3241.750 C 2431.736 3244.075, 2433.952 3244.447, 2435.363 3242.519 C 2436.366 3241.147, 2437.716 3241.105, 2446.750 3242.165 C 2457.290 3243.402, 2459.290 3244.292, 2453.934 3245.363 C 2448.724 3246.405, 2451.513 3247.619, 2459.488 3247.782 C 2468.148 3247.959, 2470.173 3248.669, 2467.529 3250.603 C 2465.398 3252.161, 2466.680 3252.518, 2482 3254.639 C 2484.475 3254.981, 2487.006 3255.661, 2487.625 3256.149 C 2489.789 3257.857, 2520.134 3258.513, 2519.491 3256.837 C 2519.030 3255.635, 2520.232 3255.361, 2526.170 3255.317 C 2530.626 3255.284, 2533.558 3254.827, 2533.790 3254.131 C 2534.033 3253.400, 2537.410 3252.996, 2543.333 3252.989 C 2555.191 3252.975, 2560.273 3252.153, 2559.585 3250.360 C 2558.822 3248.374, 2560.728 3248.695, 2561.893 3250.750 C 2562.827 3252.398, 2562.967 3252.388, 2564.298 3250.588 C 2565.138 3249.451, 2566.352 3248.921, 2567.291 3249.281 C 2568.160 3249.615, 2569.012 3249.569, 2569.185 3249.179 C 2570.181 3246.937, 2581.369 3244.785, 2582.684 3246.582 C 2583.877 3248.214, 2584 3248.224, 2584 3246.691 C 2584 3245.554, 2584.819 3245, 2586.500 3245 C 2588.056 3245, 2589 3244.433, 2589 3243.500 C 2589 3242.531, 2589.974 3241.999, 2591.750 3241.996 C 2593.262 3241.994, 2595.951 3241.108, 2597.724 3240.027 C 2599.497 3238.946, 2602.526 3237.899, 2604.456 3237.701 C 2606.386 3237.503, 2608.853 3236.538, 2609.938 3235.556 C 2611.306 3234.318, 2613.006 3233.899, 2615.487 3234.188 C 2618.041 3234.486, 2618.927 3234.253, 2618.588 3233.370 C 2618.061 3231.997, 2623.302 3230.450, 2624.976 3231.485 C 2625.539 3231.833, 2626 3231.641, 2626 3231.059 C 2626 3230.477, 2626.675 3230, 2627.500 3230 C 2628.325 3230, 2629 3229.334, 2629 3228.519 C 2629 3227.705, 2630.125 3226.756, 2631.500 3226.411 C 2632.875 3226.066, 2634 3225.371, 2634 3224.867 C 2634 3223.713, 2638.968 3221.623, 2641.097 3221.881 C 2641.975 3221.987, 2643.268 3221.382, 2643.969 3220.537 C 2644.671 3219.692, 2645.977 3218.993, 2646.872 3218.985 C 2648.101 3218.973, 2648.184 3218.769, 2647.211 3218.152 C 2646.250 3217.542, 2646.180 3216.656, 2646.936 3214.667 C 2648.108 3211.585, 2649.448 3211.013, 2648.500 3214 C 2647.250 3217.937, 2653.074 3215.938, 2658.198 3210.671 C 2662.095 3206.665, 2663.246 3201.834, 2661.373 3197.349 C 2660.553 3195.388, 2659.629 3194.037, 2659.320 3194.347 C 2659.010 3194.657, 2656.626 3193.831, 2654.022 3192.511 C 2651.178 3191.070, 2648.414 3190.341, 2647.098 3190.685 C 2645.668 3191.059, 2644.467 3190.654, 2643.637 3189.518 C 2642.430 3187.867, 2642.274 3187.869, 2640.592 3189.551 C 2639.268 3190.875, 2638.628 3191.015, 2638.064 3190.104 C 2637.246 3188.781, 2633.999 3189.235, 2627.863 3191.532 C 2625.863 3192.281, 2623.986 3192.652, 2623.691 3192.358 C 2623.397 3192.063, 2621.441 3192.987, 2619.346 3194.411 C 2615.061 3197.323, 2611.446 3197.886, 2612.362 3195.500 C 2612.678 3194.675, 2612.571 3194, 2612.124 3194 C 2611.101 3194, 2608.440 3197.014, 2607.709 3199 C 2607.375 3199.910, 2607.127 3200.008, 2607.079 3199.250 C 2606.986 3197.777, 2602.157 3197.606, 2600 3199 C 2598.667 3199.862, 2598.667 3199.984, 2600 3200.103 C 2602.394 3200.316, 2595.861 3201.751, 2591.904 3201.882 C 2589.926 3201.947, 2587.001 3202.651, 2585.404 3203.446 C 2583.807 3204.241, 2580.033 3205.173, 2577.017 3205.516 C 2574.002 3205.860, 2570.992 3206.592, 2570.328 3207.143 C 2569.664 3207.694, 2564.931 3208.331, 2559.810 3208.559 C 2539.354 3209.468, 2534.953 3209.265, 2525.625 3206.979 C 2522.234 3206.148, 2520.552 3206.106, 2520.099 3206.840 C 2519.718 3207.456, 2518.639 3206.695, 2517.510 3205.015 C 2515.914 3202.640, 2515.076 3202.235, 2512.729 3202.704 C 2510.452 3203.160, 2509.779 3202.872, 2509.358 3201.263 C 2509.069 3200.157, 2507.456 3198.235, 2505.774 3196.991 C 2504.091 3195.747, 2503.011 3195.209, 2503.374 3195.795 C 2503.736 3196.382, 2503.622 3197.115, 2503.121 3197.425 C 2502.275 3197.948, 2500.785 3195.690, 2500.586 3193.583 C 2500.539 3193.079, 2499.866 3192.455, 2499.091 3192.197 C 2498.108 3191.869, 2497.877 3192.238, 2498.329 3193.415 C 2498.735 3194.472, 2498.582 3194.860, 2497.920 3194.451 C 2497.339 3194.092, 2497.105 3193.168, 2497.400 3192.399 C 2497.696 3191.629, 2497.501 3191, 2496.969 3191 C 2496.436 3191, 2496 3190.530, 2496 3189.955 C 2496 3189.380, 2494.889 3187.798, 2493.531 3186.440 C 2490.833 3183.742, 2482 3181.769, 2482 3183.864 C 2482 3184.489, 2480.988 3184.964, 2479.750 3184.921 C 2478.512 3184.878, 2478.072 3184.612, 2478.770 3184.331 C 2479.631 3183.985, 2479.224 3183.177, 2477.511 3181.830 C 2476.119 3180.735, 2475.237 3179.426, 2475.549 3178.920 C 2475.862 3178.414, 2475.529 3177.993, 2474.809 3177.985 C 2473.858 3177.974, 2473.910 3177.704, 2475 3177 C 2476.058 3176.316, 2474.684 3176.026, 2470.333 3176.015 C 2466.942 3176.007, 2464.017 3176.442, 2463.833 3176.982 C 2463.623 3177.602, 2462.393 3177.634, 2460.500 3177.068 C 2458.850 3176.575, 2458.063 3176.133, 2458.750 3176.086 C 2459.438 3176.039, 2460 3175.550, 2460 3175 C 2460 3173.752, 2458.311 3173.687, 2457.558 3174.906 M 2553.672 3396.414 C 2553.283 3397.427, 2552.040 3397.681, 2549.279 3397.311 C 2546.907 3396.992, 2543.955 3397.410, 2541.592 3398.397 C 2537.024 3400.306, 2534.816 3400.416, 2533.216 3398.816 C 2531.684 3397.284, 2527.850 3396.971, 2526.250 3398.247 C 2525.459 3398.879, 2524.541 3398.898, 2523.750 3398.299 C 2521.551 3396.636, 2518.228 3397.021, 2517.711 3398.998 C 2517.383 3400.250, 2516.128 3400.962, 2513.862 3401.178 C 2511.830 3401.373, 2510.599 3401.995, 2510.750 3402.750 C 2510.887 3403.438, 2510.325 3404, 2509.500 3404 C 2507.728 3404, 2507.653 3404.483, 2509.028 3407.051 C 2509.952 3408.778, 2509.816 3408.880, 2507.682 3408.069 C 2505.560 3407.262, 2505.356 3407.410, 2505.749 3409.466 C 2505.991 3410.731, 2505.696 3412.070, 2505.094 3412.442 C 2504.411 3412.864, 2504 3412.157, 2504 3410.559 C 2504 3409.152, 2503.523 3408, 2502.941 3408 C 2502.359 3408, 2502.191 3408.500, 2502.569 3409.112 C 2502.947 3409.723, 2502.764 3410.528, 2502.162 3410.900 C 2500.344 3412.024, 2499.388 3423.172, 2501.168 3422.489 C 2501.965 3422.183, 2503.672 3422.848, 2504.961 3423.967 C 2506.251 3425.085, 2508.587 3426, 2510.153 3426 C 2511.821 3426, 2513 3426.538, 2513 3427.299 C 2513 3428.195, 2511.914 3428.472, 2509.500 3428.190 C 2506.722 3427.866, 2506 3428.129, 2506 3429.467 C 2506 3430.771, 2506.761 3431.088, 2509.352 3430.864 C 2511.235 3430.702, 2513.803 3431.296, 2515.214 3432.220 C 2517.846 3433.945, 2522.729 3433.623, 2532.814 3431.058 C 2535.187 3430.455, 2537.542 3430.217, 2538.047 3430.529 C 2539.681 3431.539, 2546 3429.839, 2546 3428.389 C 2546 3426.181, 2551.160 3427.644, 2553.164 3430.420 C 2554.333 3432.040, 2559.435 3431.656, 2561.439 3429.798 C 2563.192 3428.172, 2565.908 3427.454, 2568.445 3427.946 C 2568.964 3428.047, 2570.390 3427.594, 2571.614 3426.939 C 2573.490 3425.935, 2574.333 3426.101, 2576.999 3427.999 C 2580.263 3430.324, 2588.294 3429.959, 2588.001 3427.500 C 2587.936 3426.950, 2588.921 3426.197, 2590.191 3425.827 C 2591.753 3425.371, 2591.141 3425.209, 2588.298 3425.327 C 2585.940 3425.424, 2584.185 3425.061, 2584.298 3424.500 C 2584.409 3423.950, 2585.624 3423.522, 2586.998 3423.548 C 2589.904 3423.605, 2592.781 3419.381, 2591.029 3417.629 C 2590.463 3417.063, 2590 3415.565, 2590 3414.300 C 2590 3412.736, 2589.413 3412, 2588.167 3412 C 2585.410 3412, 2584.909 3410.969, 2586.535 3408.646 C 2588.751 3405.483, 2588.318 3404.313, 2584.897 3404.216 C 2580.864 3404.101, 2580.192 3403.323, 2582.573 3401.521 C 2585.374 3399.402, 2580.323 3399.385, 2577.298 3401.504 C 2575.324 3402.887, 2575.004 3402.823, 2573.326 3400.705 C 2571.866 3398.865, 2570.888 3398.530, 2568.449 3399.035 C 2566.771 3399.382, 2564.521 3399.323, 2563.449 3398.903 C 2562.243 3398.431, 2562.053 3398.114, 2562.950 3398.070 C 2564.059 3398.017, 2564.124 3397.724, 2563.227 3396.827 C 2562.332 3395.932, 2561.448 3395.931, 2559.493 3396.821 C 2557.394 3397.778, 2556.829 3397.719, 2556.359 3396.494 C 2555.637 3394.610, 2554.378 3394.573, 2553.672 3396.414" stroke="none" fill="black" fill-rule="evenodd"/>
</svg>