<svg xmlns="http://www.w3.org/2000/svg" width="600" height="800" viewBox="0 0 600 800" version="1.1">
	<path d="M 0 22.428 C 0 39.417, 0.302 44.955, 1.250 45.338 C 2.239 45.737, 2.236 45.859, 1.234 45.921 C 0.229 45.984, -0.022 57.204, 0.017 100.435 L 0.066 154.869 2.283 155.308 L 4.500 155.746 2.265 156.486 L 0.030 157.225 0.009 478.620 L -0.012 800.015 263.957 799.993 C 473.030 799.975, 527.829 799.714, 527.458 798.735 C 527.044 797.644, 533.921 794, 536.393 794 C 536.873 794, 538.019 793.131, 538.940 792.069 C 539.861 791.007, 542.614 789.363, 545.058 788.417 C 547.501 787.470, 550.400 785.977, 551.500 785.098 C 553.871 783.204, 555.069 782.522, 567.507 775.996 C 572.744 773.248, 577.712 771, 578.546 771 C 579.380 771, 580.322 770.325, 580.638 769.500 C 581.284 767.818, 584 767.434, 584 769.025 C 584 769.588, 582.988 770.496, 581.750 771.043 C 580.513 771.589, 577.475 773.298, 575 774.841 C 572.525 776.384, 566.675 779.714, 562 782.241 C 554.208 786.452, 542.764 792.850, 534 797.896 L 530.500 799.911 534.500 799.949 C 536.873 799.971, 539.721 799.178, 541.500 798 C 543.150 796.907, 545.218 796.010, 546.095 796.007 C 546.972 796.003, 548.505 795.100, 549.500 794 C 550.495 792.900, 551.958 792, 552.751 792 C 554.392 792, 559.532 789.312, 562.500 786.902 C 565.314 784.616, 576.905 778, 578.095 778 C 578.639 778, 580.050 777.100, 581.230 776 C 583.652 773.744, 586.006 773.373, 585.989 775.250 C 585.979 776.394, 577.762 781.373, 553.500 794.933 L 544.500 799.964 548.770 799.982 C 551.626 799.994, 554.351 799.172, 557 797.500 C 559.178 796.125, 561.869 795, 562.980 795 C 564.091 795, 565 794.622, 565 794.159 C 565 793.696, 567.138 792.097, 569.750 790.605 C 572.363 789.113, 576.975 786.343, 580 784.450 C 585.392 781.076, 589 780.071, 589 781.943 C 589 782.728, 573.989 791.766, 562.500 797.899 L 559.500 799.500 563.271 799.812 C 566.052 800.041, 568.473 799.304, 572.500 797 C 579.154 793.193, 584.275 794.034, 577.943 797.894 L 574.500 799.993 579.528 799.996 C 583.321 799.999, 584.976 799.509, 586.268 798 C 587.276 796.822, 589.218 796, 590.990 796 C 594.715 796, 594.769 796.510, 591.250 798.460 C 588.563 799.949, 588.638 799.979, 594.500 799.742 L 600.500 799.500 600.747 491.282 C 601.010 164.276, 601.183 178.183, 596.937 186.118 C 595.549 188.712, 594.336 188.473, 593.579 185.458 C 592.560 181.399, 598.901 177.420, 600.285 181.250 C 600.534 181.938, 600.811 176.760, 600.901 169.745 C 600.994 162.524, 600.616 156.151, 600.030 155.056 C 599.340 153.767, 599.330 152.914, 599.999 152.501 C 600.657 152.094, 600.997 125.714, 600.987 75.938 L 600.971 -0.004 582.486 0.049 C 564.132 0.101, 564 0.117, 563.978 2.301 C 563.956 4.466, 563.925 4.461, 562 2 C 560.195 -0.308, 560.037 -0.347, 559.952 1.500 C 559.862 3.440, 559.837 3.442, 559.105 1.573 C 558.429 -0.151, 558.282 -0.177, 557.706 1.323 C 557.352 2.245, 557.413 3, 557.840 3 C 558.268 3, 559.491 3.644, 560.559 4.431 C 562.418 5.802, 562.393 5.852, 559.991 5.595 C 556.813 5.257, 553 3.244, 553 1.906 C 553 1.343, 553.450 1.160, 554 1.500 C 554.550 1.840, 555 1.641, 555 1.059 C 555 0.357, 549.535 -0, 538.800 -0 C 527.471 -0, 522.916 0.316, 523.651 1.051 C 526.761 4.161, 519.791 13.029, 515.881 10.936 C 514.397 10.142, 513.933 9.131, 514.262 7.411 C 514.515 6.085, 514.385 5, 513.973 5 C 513.560 5, 512.927 6.575, 512.566 8.500 C 512.205 10.425, 511.494 12, 510.986 12 C 510.478 12, 510.336 12.713, 510.671 13.584 C 511.005 14.455, 511.553 14.747, 511.889 14.234 C 513.842 11.248, 519.009 12.742, 518.985 16.285 C 518.962 19.613, 517.520 21.300, 515.301 20.596 C 512.855 19.819, 507.183 14, 508.872 14 C 509.557 14, 509.828 13.530, 509.473 12.956 C 509.118 12.382, 509.338 11.297, 509.962 10.545 C 510.596 9.782, 510.701 8.933, 510.199 8.623 C 509.705 8.318, 508.708 9.178, 507.982 10.534 C 506.865 12.620, 505.879 13.023, 501.581 13.150 C 498.178 13.250, 497.490 13.445, 499.497 13.740 C 502.280 14.149, 503.948 15.453, 503.985 17.250 C 504.013 18.613, 495.284 18.048, 494.090 16.609 C 493.455 15.844, 492.932 13.481, 492.927 11.359 C 492.903 -0.083, 492.917 0, 491.036 0 C 489.018 0, 487.489 2.663, 489.183 3.228 C 490.321 3.607, 487.446 9.931, 484.513 13.500 C 482.262 16.238, 482.835 12.698, 485.847 5.250 C 487.015 2.362, 487.527 0, 486.985 0 C 486.443 0, 486 0.681, 486 1.514 C 486 2.346, 485.596 3.809, 485.103 4.764 C 484.609 5.719, 483.756 7.625, 483.206 9 L 482.207 11.500 481.222 9 C 480.577 7.363, 480.575 5.854, 481.218 4.629 C 481.890 3.348, 481.869 2.963, 481.150 3.407 C 480.573 3.764, 479.596 3.114, 478.980 1.963 C 478.121 0.358, 477.549 0.130, 476.519 0.984 C 475.594 1.752, 474.977 1.772, 474.530 1.049 C 473.704 -0.288, 470 -0.328, 470 1 C 470 1.550, 470.338 1.947, 470.750 1.882 C 473.252 1.486, 474 2.319, 474 5.500 C 474 9.725, 472.472 9.998, 468.406 6.501 C 466.807 5.127, 465.079 4.002, 464.564 4.001 C 464.050 4.001, 462.628 3.059, 461.404 1.909 C 460.180 0.760, 458.351 0.015, 457.339 0.255 C 455.615 0.663, 455.626 0.744, 457.500 1.539 C 463.485 4.080, 471.484 10.231, 471.187 12.065 C 470.990 13.286, 471.451 14, 472.437 14 C 473.297 14, 474 14.675, 474 15.500 C 474 16.325, 473.564 17, 473.031 17 C 472.499 17, 472.322 17.675, 472.638 18.500 C 473.003 19.450, 472.625 20, 471.607 20 C 470.723 20, 470 19.309, 470 18.465 C 470 17.257, 469.588 17.150, 468.066 17.965 C 465.355 19.416, 465.313 19.378, 465.632 15.750 C 465.788 13.962, 465.673 13.400, 465.374 14.500 C 465.076 15.600, 464.136 17.042, 463.287 17.704 C 462.381 18.411, 461.964 19.754, 462.278 20.954 C 462.850 23.141, 461.469 23.846, 460.720 21.750 C 460.475 21.062, 459.901 20.848, 459.446 21.274 C 458.991 21.699, 459.332 22.760, 460.202 23.631 C 461.647 25.075, 461.976 25.024, 463.953 23.047 C 466.716 20.284, 471.500 20.553, 471.500 23.470 C 471.500 24.554, 470.490 25.944, 469.256 26.560 C 468.022 27.175, 467.314 27.981, 467.683 28.350 C 468.052 28.719, 467.423 29.889, 466.284 30.950 C 465.145 32.011, 463.940 32.607, 463.606 32.273 C 463.273 31.940, 463 32.417, 463 33.333 C 463 34.250, 462.550 35, 462 35 C 460.590 35, 460.750 31.250, 462.180 30.773 C 462.931 30.523, 463.071 29.674, 462.567 28.440 C 461.873 26.744, 461.608 26.941, 460.463 30 C 457.427 38.109, 459.928 38.601, 467.556 31.396 C 470.115 28.978, 472.729 27, 473.364 27 C 473.999 27, 475.149 25.987, 475.920 24.750 C 477.214 22.673, 477.190 22.608, 475.618 23.908 C 474.040 25.212, 473.957 24.918, 474.486 19.908 C 474.801 16.934, 475.305 12.027, 475.607 9.005 C 475.909 5.983, 476.371 3.296, 476.633 3.034 C 477.689 1.978, 478.836 5.598, 478.350 8.453 C 477.951 10.797, 478.078 11.154, 478.900 10 C 479.532 9.114, 479.976 8.978, 479.985 9.668 C 479.993 10.311, 480.293 11.601, 480.652 12.535 C 481.214 14.001, 481.009 14.075, 479.152 13.081 C 477.818 12.368, 477 12.310, 477 12.930 C 477 13.480, 477.922 14.423, 479.048 15.026 C 481.185 16.170, 481.122 17.767, 478.733 23 C 477.217 26.319, 473.895 30.053, 472.968 29.480 C 471.671 28.679, 471.230 32.594, 472.432 34.237 C 473.431 35.604, 473.917 35.324, 476.042 32.159 C 477.392 30.146, 479.063 27.902, 479.755 27.172 C 480.447 26.442, 481.514 24.907, 482.127 23.762 C 483.660 20.898, 484.969 23.289, 485.237 29.446 C 485.359 32.254, 485.903 34, 486.655 34 C 487.995 34, 487.619 30.093, 485.465 21.617 C 484.228 16.749, 486.312 10, 489.053 10 C 490.237 10, 491.346 16.484, 490.642 19.289 C 490.076 21.547, 490.190 21.583, 496.682 21.169 C 503.028 20.765, 503.276 20.835, 502.743 22.874 C 502.437 24.043, 502.543 25, 502.977 25 C 503.411 25, 504.018 24.039, 504.325 22.863 C 504.913 20.618, 511.058 20.749, 511.833 23.023 C 512.017 23.560, 512.595 24, 513.119 24 C 513.642 24, 515.161 24.715, 516.495 25.589 L 518.919 27.177 514.710 31.585 C 510.234 36.271, 509.090 36.698, 506.068 34.811 C 504.592 33.889, 503.640 33.896, 501.832 34.842 C 500.549 35.513, 500.320 35.825, 501.322 35.535 C 503.497 34.905, 507.292 36.718, 506.496 38.006 C 506.188 38.505, 505.374 38.697, 504.688 38.434 C 502.793 37.707, 502.755 42.696, 504.634 45.563 C 506.127 47.842, 506.126 47.986, 504.626 47.410 C 503.732 47.067, 503 46.133, 503 45.334 C 503 44.527, 502.508 44.186, 501.893 44.566 C 501.131 45.037, 501.020 44.512, 501.537 42.883 C 502.233 40.692, 502.154 40.627, 500.482 42.008 C 499.103 43.146, 498.575 43.204, 498.254 42.250 C 498.023 41.562, 497.274 41, 496.591 41 C 495.908 41, 494.292 39.875, 493 38.500 C 491.708 37.125, 490.294 36, 489.857 36 C 488.411 36, 490.292 39.459, 493.168 42.089 C 496.741 45.356, 496.756 46.401, 493.217 45.693 C 490.865 45.223, 489.671 45.903, 485.517 50.083 C 479.421 56.216, 478.174 55.465, 477.308 45.138 C 476.976 41.177, 476.414 37.756, 476.059 37.537 C 474.851 36.790, 476.233 50.488, 477.645 53.249 C 480.488 58.810, 472.278 61.279, 467.714 56.236 C 466.142 54.499, 466.116 54.149, 467.475 53.021 C 468.314 52.325, 469 50.487, 469 48.937 C 469 47.386, 469.398 45.872, 469.885 45.571 C 470.371 45.271, 470.965 43.693, 471.204 42.065 C 471.443 40.437, 471.266 39.335, 470.812 39.616 C 469.378 40.502, 466 48.275, 466 50.688 C 466 51.960, 465.523 53, 464.941 53 C 464.359 53, 464.220 52.437, 464.633 51.750 C 465.145 50.898, 464.845 50.937, 463.694 51.870 C 462.227 53.061, 461.544 52.890, 458.502 50.570 C 454.803 47.748, 453.856 48.078, 456.683 51.202 C 458.868 53.617, 456.179 57.223, 453.717 55.180 C 452.645 54.290, 452.333 54.366, 452.333 55.516 C 452.333 56.332, 452.933 57, 453.667 57 C 455.081 57, 455.438 58.228, 454.342 59.325 C 453.980 59.687, 453.093 59.492, 452.370 58.892 C 450.786 57.578, 448.089 59.766, 448.771 61.812 C 449.085 62.756, 449.572 62.618, 450.569 61.303 C 452.001 59.415, 452.535 60.611, 451.199 62.712 C 450.321 64.094, 446 63.304, 446 61.761 C 446 61.189, 445.357 61.289, 444.511 61.991 C 443.692 62.671, 443.237 63.575, 443.500 64 C 443.763 64.426, 443.196 64.712, 442.239 64.637 C 441.085 64.546, 440.178 65.593, 439.543 67.750 C 438.469 71.398, 437.066 71.970, 436.308 69.069 C 435.425 65.695, 431 65.269, 431 68.559 C 431 69.480, 429.961 70, 428.122 70 C 425.114 70, 422.483 72.104, 423.759 73.490 C 424.166 73.933, 423.375 73.964, 422 73.560 C 417.300 72.178, 415.576 72.417, 415.227 74.500 C 415.008 75.813, 415.181 76.084, 415.732 75.288 C 416.475 74.215, 421 74.541, 421 75.666 C 421 75.904, 420.288 77.477, 419.417 79.160 C 418.547 80.843, 418.291 81.938, 418.848 81.594 C 420.509 80.568, 421.038 82.566, 419.620 84.505 C 417.656 87.191, 415.975 85.573, 417.004 81.987 C 417.731 79.452, 417.585 79, 416.041 79 C 415.041 79, 414.285 79.563, 414.361 80.250 C 414.438 80.938, 414.053 81.500, 413.507 81.500 C 412.961 81.500, 412.629 80.996, 412.771 80.380 C 412.932 79.676, 411.842 79.397, 409.843 79.630 C 407.844 79.863, 405.977 79.384, 404.829 78.345 C 403.542 77.181, 403 77.069, 403 77.967 C 403 78.951, 402.677 78.977, 401.596 78.079 C 400.819 77.434, 399.074 77.194, 397.689 77.542 C 396.312 77.887, 394.244 77.666, 393.093 77.050 C 391.376 76.131, 391 76.216, 391 77.524 C 391 78.401, 390.550 78.840, 390 78.500 C 389.450 78.160, 389 78.584, 389 79.441 C 389 81.420, 388.269 81.412, 386.268 79.411 C 384.816 77.959, 384.591 77.981, 383.662 79.661 C 382.580 81.617, 379.726 84.059, 379.171 83.504 C 378.988 83.321, 379.340 82.233, 379.954 81.086 C 380.599 79.881, 380.668 79, 380.119 79 C 379.595 79, 378.990 79.530, 378.774 80.177 C 378.522 80.933, 377.867 81.036, 376.942 80.464 C 376.149 79.974, 374.263 79.704, 372.751 79.862 C 370.750 80.072, 370 79.703, 370 78.509 C 370 77.308, 369.262 76.952, 367.250 77.184 C 364.630 77.485, 360.145 74.522, 361.369 73.298 C 361.664 73.003, 362.633 73.490, 363.524 74.381 C 365.750 76.607, 366.700 76.431, 364.655 74.171 C 363.745 73.165, 362.993 71.478, 362.985 70.421 C 362.976 69.365, 362.533 67.825, 362 67 C 361.178 65.728, 361.028 65.775, 361.015 67.309 C 361.007 68.304, 360.549 68.839, 359.998 68.499 C 359.373 68.112, 359.167 69.205, 359.449 71.412 C 359.698 73.354, 359.470 75.209, 358.944 75.535 C 357.810 76.235, 356.998 74.413, 356.657 70.403 C 356.402 67.409, 356.116 67.321, 350.750 68.585 C 348.617 69.088, 348 68.871, 348 67.617 C 348 65.594, 346.630 65.536, 345.009 67.489 C 343.718 69.045, 341.541 68.552, 342.543 66.931 C 342.859 66.419, 342.009 66, 340.653 66 C 338.673 66, 338.291 66.397, 338.714 68.016 C 339.307 70.282, 341 71.734, 341 69.976 C 341 69.347, 341.521 69.007, 342.158 69.219 C 343.602 69.701, 344.353 74, 342.994 74 C 342.447 74, 342 73.550, 342 73 C 342 72.450, 341.325 72, 340.500 72 C 339.675 72, 339 71.564, 339 71.031 C 339 70.499, 338.247 70.352, 337.326 70.705 C 336.068 71.188, 335.809 70.940, 336.283 69.706 C 336.629 68.803, 336.482 67.798, 335.956 67.473 C 335.430 67.148, 335 67.621, 335 68.524 C 335 69.428, 334.437 69.967, 333.750 69.723 C 333.063 69.479, 332.607 68.317, 332.738 67.140 C 332.869 65.963, 332.532 65, 331.988 65 C 330.334 65, 330.882 61.966, 333.029 59.236 C 334.419 57.469, 334.734 56.334, 334.029 55.629 C 332.198 53.798, 332.935 52.767, 335.598 53.435 C 337.487 53.909, 338.073 53.734, 337.744 52.794 C 337.496 52.082, 336.490 51.646, 335.510 51.825 C 334.164 52.071, 333.855 51.664, 334.247 50.164 C 334.720 48.354, 334.042 48.092, 326.633 47.228 C 319.658 46.414, 319.212 46.258, 323.500 46.134 C 329.813 45.951, 334.849 44.503, 337.809 42.021 C 340.638 39.648, 341.611 35.448, 339.517 34.645 C 338.629 34.304, 338.260 33.359, 338.598 32.288 C 339.110 30.668, 339.037 30.651, 337.823 32.111 C 332.638 38.344, 323.650 30.734, 327.494 23.364 C 328.315 21.789, 328.990 21.111, 328.994 21.857 C 328.997 22.639, 329.623 22.975, 330.471 22.649 C 331.280 22.339, 332.642 22.785, 333.497 23.640 C 335.633 25.776, 338 24.612, 338 21.424 C 338 19.409, 337.620 18.932, 336.389 19.404 C 335.209 19.857, 334.941 19.596, 335.389 18.430 C 335.725 17.553, 336 16.198, 336 15.418 C 336 14.638, 336.526 14.113, 337.168 14.250 C 337.811 14.388, 338.849 13.520, 339.475 12.321 C 340.735 9.909, 342.095 10.350, 343.885 13.750 C 345.456 16.733, 347 16.609, 347 13.500 C 347 10.389, 348.759 10.241, 349.969 13.250 C 350.662 14.974, 350.888 15.091, 350.937 13.750 C 351.029 11.207, 352.804 11.603, 353.180 14.250 C 353.411 15.871, 354.059 16.407, 355.500 16.166 C 357.112 15.897, 357.258 16.082, 356.250 17.116 C 355.562 17.822, 355 19.075, 355 19.900 C 355 24.282, 357.718 17.640, 357.926 12.750 C 357.967 11.787, 358.404 11, 358.897 11 C 359.391 11, 359.729 12.415, 359.647 14.143 C 359.566 15.876, 360.061 17.484, 360.750 17.727 C 361.491 17.987, 362 17.318, 362 16.083 C 362 14.937, 362.450 14, 363 14 C 363.550 14, 364 13.100, 364 12 C 364 10.733, 364.667 10, 365.820 10 C 368.317 10, 372 5.526, 372 2.492 L 372 0 346.617 0 L 321.233 0 320.490 2.250 L 319.746 4.500 319.303 2.245 L 318.859 -0.011 159.430 0.006 L 0 0.023 0 22.428 M 522.667 11.667 C 520.849 13.484, 522.226 15.004, 525.750 15.070 C 528.518 15.122, 528.995 15.338, 527.573 15.895 C 525.779 16.598, 525.768 16.697, 527.413 17.328 C 528.385 17.701, 529.702 17.714, 530.340 17.357 C 531.116 16.922, 531.096 17.143, 530.277 18.026 C 529.334 19.044, 528.494 19.090, 526.605 18.230 C 524.196 17.132, 521 19.781, 521 22.876 C 521 23.998, 523.607 23.759, 524.721 22.535 C 525.149 22.065, 524.938 22.003, 524.250 22.399 C 522.772 23.249, 522.537 21.404, 524.007 20.496 C 525.434 19.614, 526.488 22.912, 525.194 24.206 C 524.431 24.969, 524.754 25.837, 526.311 27.215 C 527.515 28.281, 527.938 28.867, 527.250 28.517 C 525.096 27.423, 525.889 29.809, 528.223 31.443 C 531.300 33.599, 534.096 33.494, 533.374 31.250 C 532.913 29.816, 532.998 29.764, 533.845 30.960 C 534.739 32.225, 535.131 32.191, 536.768 30.710 C 539.069 28.627, 540.606 28.530, 541.332 30.422 C 541.666 31.293, 542.677 31.636, 543.939 31.306 C 546.256 30.700, 546.628 29.455, 544.750 28.593 C 544.063 28.277, 544.625 28.300, 546 28.644 C 547.375 28.988, 548.781 29.707, 549.125 30.242 C 549.514 30.847, 550.010 30.793, 550.439 30.099 C 552.193 27.260, 545.381 24.931, 542.250 27.299 C 541.385 27.953, 541 27.783, 541 26.745 C 541 25.040, 543.343 22.770, 544.350 23.500 C 544.717 23.766, 544.582 23.466, 544.051 22.834 C 543.328 21.974, 542.697 22.007, 541.542 22.965 C 539.972 24.268, 539.639 23.821, 539.937 20.813 C 540.122 18.950, 536.526 16.557, 534.979 17.513 C 534.441 17.846, 534 17.416, 534 16.559 C 534 15.702, 533.325 15, 532.500 15 C 531.675 15, 530.100 14.100, 529 13 C 527.022 11.022, 523.957 10.376, 522.667 11.667 M 0 99.500 C 0 129.108, 0.218 153.116, 0.483 152.850 C 1.149 152.184, 1.199 46.866, 0.534 46.201 C 0.240 45.907, 0 69.892, 0 99.500 M 494.521 47.976 C 493.538 49.063, 492.427 49.764, 492.054 49.534 C 490.302 48.450, 480.855 55.120, 482.070 56.584 C 482.758 57.413, 484.087 57.790, 485.141 57.455 C 486.716 56.955, 487 57.411, 487 60.433 C 487 64.325, 487.205 64.496, 490.051 62.972 C 491.776 62.049, 491.880 62.185, 491.074 64.306 C 489.770 67.734, 490.808 68.721, 499.072 71.907 C 507.156 75.023, 508.333 74.529, 506.106 68.953 C 505.434 67.270, 505.107 67.038, 505.063 68.215 C 504.995 70.077, 501 72.850, 501 71.035 C 501 70.466, 501.675 70, 502.500 70 C 503.325 70, 504 69.270, 504 68.378 C 504 67.029, 503.740 66.971, 502.458 68.035 C 499.841 70.206, 498.341 67.654, 500.393 64.523 C 501.323 63.104, 501.766 61.430, 501.378 60.802 C 500.911 60.047, 501.236 59.877, 502.336 60.299 C 503.611 60.788, 504 60.360, 504 58.469 C 504 57.111, 503.464 56, 502.809 56 C 502.154 56, 502.474 55.374, 503.521 54.608 C 505.160 53.410, 505.234 52.987, 504.054 51.565 C 502.030 49.126, 499.906 50.050, 498.629 53.925 C 498.008 55.809, 496.983 57.518, 496.351 57.725 C 495.687 57.941, 495.993 56.496, 497.077 54.300 C 500.005 48.366, 498.203 43.908, 494.521 47.976 M 518.137 53.148 C 515.020 54.045, 514.818 54.350, 515.385 57.308 C 515.822 59.587, 515.716 60.071, 515.014 59 C 514.238 57.817, 514.027 58.058, 514.015 60.143 C 514.007 61.597, 514.675 63.045, 515.500 63.362 C 516.325 63.678, 517 64.550, 517 65.300 C 517 68.161, 521.355 69.296, 525.570 67.535 C 527.714 66.640, 529.007 65.590, 528.444 65.203 C 526.982 64.199, 525.023 57.104, 525.712 55.309 C 526.823 52.414, 523.742 51.535, 518.137 53.148 M 531.814 53.508 C 530.533 54.810, 533.102 59.425, 537.545 63.806 L 541.972 68.170 547.054 66.482 C 550.758 65.252, 551.981 64.394, 551.568 63.315 C 551.255 62.502, 550.997 61.086, 550.993 60.168 C 550.978 56.370, 534.594 50.681, 531.814 53.508 M 516 71.653 C 516 73.559, 515.597 74.869, 515.105 74.565 C 514.612 74.260, 513.937 74.721, 513.605 75.588 C 512.745 77.828, 512.815 78, 514.582 78 C 516.640 78, 528.263 84.795, 529.300 86.604 C 529.740 87.372, 530.597 88, 531.205 88 C 531.814 88, 533.786 89.125, 535.589 90.500 C 537.392 91.875, 539.199 93, 539.605 93 C 540.010 93, 541.165 93.745, 542.171 94.655 C 543.177 95.565, 544 95.845, 544 95.277 C 544 94.710, 543.325 93.685, 542.500 93 C 541.675 92.315, 540.964 90.798, 540.921 89.628 C 540.878 88.457, 540.615 88.063, 540.338 88.750 C 540.060 89.438, 539.373 90, 538.810 90 C 538.247 90, 538.028 89.369, 538.324 88.597 C 538.620 87.826, 538.233 86.363, 537.463 85.347 C 535.789 83.138, 535.591 81, 537.059 81 C 537.641 81, 537.841 81.448, 537.503 81.996 C 537.164 82.543, 538.038 84.057, 539.444 85.360 C 540.850 86.663, 542 88.439, 542 89.306 C 542 91.345, 543.678 92.387, 544.336 90.756 C 544.614 90.065, 544.888 90.400, 544.943 91.500 C 545.037 93.354, 545.193 93.318, 547.089 91 C 549.057 88.595, 549.091 88.588, 547.986 90.836 C 546.283 94.299, 547.268 94.341, 549.249 90.889 C 550.191 89.248, 550.520 88.179, 549.980 88.512 C 549.441 88.845, 548.992 88.529, 548.983 87.809 C 548.973 87.089, 547.877 85.468, 546.546 84.206 L 544.126 81.911 543.695 85.206 C 543.458 87.018, 543.356 86.118, 543.468 83.207 C 543.580 80.295, 543.408 78.270, 543.086 78.707 C 541.446 80.928, 539.754 79.981, 540.319 77.157 C 540.737 75.065, 540.394 73.762, 539.124 72.612 C 535.711 69.524, 531.980 71.580, 535.183 74.783 C 535.834 75.434, 536.103 76.230, 535.781 76.553 C 535.459 76.875, 534.379 75.757, 533.382 74.069 C 532.385 72.381, 531.189 71, 530.725 71 C 530.262 71, 530.162 70.547, 530.504 69.993 C 531.461 68.445, 528.134 67.606, 525.683 68.776 C 522.049 70.511, 520 70.983, 520 70.085 C 520 69.617, 519.100 68.998, 518 68.710 C 516.284 68.262, 516 68.680, 516 71.653 M 445.931 71.250 C 445.143 74.110, 445.379 77, 446.402 77 C 447.097 77, 447.713 77.787, 447.770 78.750 C 447.949 81.802, 446.999 85, 445.914 85 C 445.320 85, 445.141 84.132, 445.500 83 C 446.252 80.629, 444.494 80.271, 443.595 82.613 C 443.100 83.904, 442.686 83.984, 441.516 83.013 C 440.365 82.058, 439.756 82.087, 438.639 83.151 C 434.540 87.057, 433.190 87.790, 432.102 86.702 C 431.299 85.899, 431 86.045, 431 87.241 C 431 89.980, 432.741 90.168, 435.214 87.695 C 436.502 86.407, 438.107 85.536, 438.778 85.759 C 439.450 85.983, 440.007 85.567, 440.015 84.833 C 440.027 83.834, 440.272 83.876, 440.992 85 C 441.522 85.825, 441.688 87.356, 441.362 88.401 C 440.914 89.839, 441.152 90.156, 442.341 89.700 C 443.626 89.206, 443.556 89.680, 441.960 92.298 C 439.641 96.102, 439.322 98.413, 441.557 95.223 C 442.413 94, 443.570 93, 444.128 93 C 446.664 93, 448.481 89.825, 446.693 88.518 C 444.454 86.880, 444.553 86, 446.977 86 C 450.081 86, 452.550 81.502, 451.142 78.412 C 450.514 77.034, 450 75.075, 450 74.060 C 450 72.339, 446.330 69.804, 445.931 71.250 M 469.845 79.093 C 468.051 84.940, 468.438 87.787, 473.128 103.250 C 474.755 108.612, 476.592 113, 477.210 113 C 477.828 113, 478.049 113.284, 477.702 113.631 C 476.894 114.440, 478.770 118, 480.004 118 C 480.517 118, 480.678 117.325, 480.362 116.500 C 480.045 115.675, 480.235 115, 480.785 115 C 481.334 115, 482.040 116.022, 482.353 117.270 C 482.774 118.946, 484.177 119.902, 487.711 120.919 C 490.345 121.677, 494.170 123.130, 496.210 124.149 C 498.251 125.167, 500.388 126, 500.960 126 C 502.597 126, 502.173 123.004, 500.443 122.340 C 499.569 122.004, 499.135 121.091, 499.454 120.260 C 499.840 119.254, 499.553 118.958, 498.562 119.338 C 497.693 119.671, 497.272 119.413, 497.523 118.699 C 498.300 116.484, 495.326 113.773, 492.823 114.415 L 490.500 115.011 492.752 113.852 C 494.578 112.912, 495.348 113.005, 496.830 114.346 C 499.412 116.682, 499.577 116.512, 499.349 111.750 C 499.236 109.412, 499.368 108.513, 499.642 109.750 C 500.389 113.132, 503 112.588, 503 109.050 C 503 107.295, 503.709 105.686, 504.750 105.080 C 505.712 104.519, 505.990 104.047, 505.367 104.030 C 504.743 104.014, 503.956 102.987, 503.617 101.750 C 503.102 99.873, 502.837 99.749, 502.015 101 C 501.086 102.416, 500.929 102.313, 500.625 100.083 C 500.556 99.579, 500.194 98.860, 499.819 98.486 C 499.444 98.111, 499.367 97.206, 499.648 96.475 C 499.928 95.744, 499.333 93.200, 498.325 90.823 C 497.318 88.445, 496.540 85.263, 496.597 83.750 C 496.706 80.894, 495.604 80.078, 494.574 82.250 C 494.247 82.938, 494.204 82.009, 494.478 80.187 C 494.928 77.191, 494.775 76.937, 492.889 77.535 C 491.116 78.098, 490.903 77.882, 491.469 76.099 C 491.861 74.862, 491.696 74, 491.067 74 C 490.480 74, 490 74.579, 490 75.287 C 490 75.995, 489.126 76.640, 488.057 76.721 C 486.862 76.811, 486.301 76.379, 486.600 75.600 C 487.184 74.078, 482.875 73.989, 481.765 75.500 C 481.310 76.119, 481.025 76.024, 481.015 75.250 C 481.005 74.426, 479.366 74, 476.204 74 L 471.408 74 469.845 79.093 M 506 80.417 C 506 81.196, 506.473 81.991, 507.051 82.184 C 507.679 82.393, 507.030 84.876, 505.438 88.354 C 503.602 92.365, 503.095 94.495, 503.809 95.209 C 504.378 95.778, 504.606 96.863, 504.315 97.620 C 504.025 98.377, 504.848 100.099, 506.144 101.445 C 507.440 102.792, 508.356 104.030, 508.180 104.197 C 508.004 104.364, 508.336 105.754, 508.919 107.287 C 509.824 109.668, 509.587 110.666, 507.297 114.128 C 502.881 120.801, 503.321 127.240, 508.250 128.061 C 510.960 128.512, 512 128.329, 512 127.402 C 512 125.261, 514.104 124.662, 515.600 126.378 C 516.374 127.266, 516.466 127.544, 515.804 126.996 C 513.989 125.494, 513 125.792, 513 127.839 C 513 130.276, 517.960 132.667, 519.144 130.801 C 519.598 130.086, 519.976 128.477, 519.985 127.228 C 520.004 124.436, 527.681 115.876, 529.841 116.238 C 531.904 116.583, 541 104.608, 541 101.547 C 541 99.814, 539.639 98.348, 535.750 95.887 C 532.862 94.060, 530.154 92.101, 529.732 91.533 C 529.242 90.875, 528.589 91.135, 527.932 92.250 C 526.436 94.788, 524.675 94.475, 526.046 91.914 C 526.660 90.767, 527.013 89.716, 526.831 89.578 C 523.292 86.894, 514.536 82.893, 514.227 83.818 C 513.750 85.251, 511 85.406, 511 84 C 511 83.450, 511.450 83, 512 83 C 514.197 83, 512.813 81.130, 509.851 80.098 C 505.910 78.724, 506 78.717, 506 80.417 M 461 82.300 C 461 83.015, 461.399 84.027, 461.888 84.550 C 463.394 86.162, 464.225 90, 463.067 90 C 462.480 90, 461.986 89.213, 461.968 88.250 C 461.925 85.851, 459 89.584, 459 92.038 C 459 93.931, 455.765 98, 454.261 98 C 453.694 98, 453.385 99.935, 453.552 102.440 C 453.786 105.939, 453.549 106.764, 452.431 106.335 C 450.386 105.550, 448.753 110.216, 450.682 111.334 C 451.474 111.792, 452.732 111.933, 453.478 111.647 C 454.224 111.361, 455.095 111.806, 455.414 112.637 C 456.239 114.786, 459.496 113.868, 459.498 111.487 C 459.499 110.188, 460.280 109.389, 461.750 109.180 C 464.311 108.817, 464.356 108.932, 463.025 112.435 C 462.217 114.559, 462.346 115.026, 463.775 115.152 C 466.948 115.432, 467.494 115.549, 468.500 116.164 C 473.716 119.351, 475.699 116.195, 472.817 109.294 C 472.175 107.757, 471.525 105.411, 471.372 104.079 C 471.219 102.748, 470.176 99.373, 469.054 96.579 C 467.932 93.786, 466.800 89.763, 466.539 87.641 C 465.892 82.391, 461 77.674, 461 82.300 M 588.364 94.494 C 588.048 95.316, 587.318 95.697, 586.741 95.340 C 586.123 94.958, 585.988 95.172, 586.415 95.862 C 586.813 96.506, 587.557 96.774, 588.069 96.457 C 588.581 96.141, 589 96.933, 589 98.218 C 589 103.233, 591.499 105.036, 596 103.268 C 600.904 101.341, 602.093 94.794, 597.750 93.630 C 593.595 92.517, 588.959 92.943, 588.364 94.494 M 546 105.319 C 546 106.728, 545.480 108.203, 544.845 108.595 C 544.130 109.038, 543.962 108.870, 544.405 108.155 C 545.829 105.850, 544.322 107.073, 542.199 109.944 L 540.023 112.889 543.619 111.386 C 548.945 109.160, 548.926 110.497, 543.598 112.853 C 537.158 115.703, 530.658 122, 534.159 122 C 543.710 122, 553.336 108.843, 547.393 103.911 C 546.264 102.974, 546 103.241, 546 105.319 M 440 113 C 440 113.550, 440.450 114, 441 114 C 441.550 114, 442 114.520, 442 115.155 C 442 115.828, 441.204 115.589, 440.091 114.582 C 438.279 112.942, 438.127 112.947, 437.121 114.677 C 436.493 115.756, 436.048 115.966, 436.030 115.191 C 436.014 114.471, 435.550 114.160, 435 114.500 C 434.450 114.840, 434.036 116.104, 434.079 117.309 C 434.122 118.514, 434.385 118.938, 434.662 118.250 C 435.250 116.795, 438 116.548, 438 117.950 C 438 118.473, 437.255 119.317, 436.346 119.827 C 435.287 120.419, 434.933 121.383, 435.363 122.503 C 435.732 123.466, 435.513 124.882, 434.875 125.651 C 434.237 126.419, 434.029 127.362, 434.412 127.745 C 434.795 128.128, 435.472 127.855, 435.916 127.137 C 436.502 126.188, 436.900 126.469, 437.374 128.165 C 438.019 130.477, 438.057 130.466, 441.226 127 C 442.986 125.075, 445.111 123.499, 445.950 123.498 C 446.788 123.497, 447.616 122.597, 447.790 121.498 C 448.041 119.921, 447.901 119.803, 447.130 120.936 C 445.522 123.297, 442.708 120.414, 444.094 117.825 C 444.941 116.243, 444.712 115.485, 442.920 113.930 C 440.379 111.727, 440 111.606, 440 113 M 562.461 113.545 C 557.757 115.867, 559.415 122.362, 564.297 120.734 C 564.949 120.517, 566.081 120.938, 566.813 121.670 C 567.544 122.401, 568.997 123, 570.040 123 C 571.432 123, 571.761 123.466, 571.275 124.750 C 570.911 125.713, 572.544 124.615, 574.903 122.311 C 578.891 118.417, 579.724 115.124, 576.399 116.400 C 575.629 116.696, 575 116.558, 575 116.094 C 575 115.194, 569.176 113.560, 567.500 113.988 C 563.562 114.995, 562.580 115.021, 564.750 114.060 C 566.940 113.091, 567.760 111.977, 566.250 112.023 C 565.837 112.035, 564.132 112.720, 562.461 113.545 M 546 120.160 C 544.625 120.724, 542.150 121.801, 540.500 122.555 C 538.850 123.309, 535.925 124.085, 534.001 124.278 C 531.260 124.555, 529.796 125.556, 527.245 128.901 C 523.041 134.412, 523.546 134.955, 532.261 134.300 C 537.271 133.924, 540.578 134.188, 543 135.159 C 548.083 137.196, 550.904 136.508, 550.680 133.287 C 550.466 130.202, 555.393 127.975, 556.433 130.686 C 557.395 133.194, 557.061 136, 555.800 136 C 554.891 136, 554.881 136.281, 555.758 137.158 C 556.634 138.034, 557.289 138.005, 558.458 137.035 C 560.315 135.494, 560.485 132.363, 558.750 131.659 C 557.809 131.278, 557.871 130.890, 559 130.091 C 561.763 128.137, 563 128.875, 563 132.477 C 563 138.737, 568.820 140.536, 572.955 135.555 C 573.664 134.700, 574.783 134, 575.440 134 C 577.399 134, 576.293 141.059, 573.943 143.561 L 571.825 145.815 576.338 144.192 C 578.821 143.299, 580.646 142.236, 580.394 141.828 C 580.142 141.421, 579.275 141.341, 578.468 141.651 C 577.661 141.960, 577 141.716, 577 141.107 C 577 140.498, 577.900 140, 579 140 C 580.100 140, 581 139.885, 581 139.743 C 581 139.602, 581.410 138.057, 581.911 136.309 C 582.649 133.736, 582.554 133.234, 581.411 133.672 C 580.635 133.970, 580 134.616, 580 135.107 C 580 135.598, 579.550 136, 579 136 C 578.450 136, 578 135.358, 578 134.573 C 578 133.789, 577.212 132.941, 576.250 132.689 C 574.678 132.279, 574.690 132.220, 576.367 132.116 C 577.709 132.033, 578.089 131.448, 577.720 130.037 C 577.437 128.957, 577.813 127.570, 578.554 126.956 C 579.655 126.041, 579.806 126.535, 579.380 129.669 C 578.883 133.324, 578.933 133.408, 580.473 131.500 C 581.360 130.400, 582.393 129.646, 582.768 129.825 C 583.143 130.004, 583.632 129.604, 583.855 128.936 C 584.085 128.245, 583.777 128.020, 583.141 128.413 C 582.445 128.843, 582.234 128.554, 582.582 127.647 C 583.601 124.990, 577.250 124.439, 573.927 126.896 C 570.710 129.274, 568.379 129.595, 567.720 127.750 C 567.475 127.063, 566.951 126.799, 566.556 127.164 C 566.161 127.530, 566.335 128.757, 566.942 129.892 C 567.840 131.569, 567.776 131.851, 566.600 131.400 C 563.166 130.082, 563.675 126, 567.273 126 C 570.819 126, 567.110 123.054, 562.654 122.331 C 559.017 121.741, 558.965 121.778, 559.916 124.280 C 560.652 126.214, 560.550 126.959, 559.494 127.364 C 558.582 127.714, 558.294 127.398, 558.658 126.449 C 558.964 125.652, 558.764 125, 558.214 125 C 557.664 125, 556.955 125.675, 556.638 126.500 C 555.688 128.976, 552.742 128.389, 553.538 125.882 C 554.018 124.366, 553.832 123.889, 552.883 124.206 C 552.152 124.449, 551.305 125.707, 551 127 C 550.695 128.293, 549.895 129.535, 549.222 129.759 C 547.738 130.254, 547.676 129.474, 549.003 126.995 C 550.319 124.535, 548.516 123.355, 546.206 125.164 C 544.669 126.367, 544.636 126.326, 545.872 124.750 C 547.461 122.725, 549.990 122.420, 550.022 124.250 C 550.045 125.532, 553.938 121.103, 553.978 119.750 C 554.009 118.685, 548.966 118.944, 546 120.160 M 381.022 123.464 C 378.707 127.210, 377.198 128.366, 378.987 125.024 C 379.938 123.247, 379.816 123.134, 377.772 123.908 C 376.462 124.404, 375.624 125.451, 375.794 126.384 C 375.955 127.273, 375.528 128, 374.844 128 C 373.890 128, 373.875 128.275, 374.776 129.176 C 375.635 130.035, 375.656 130.710, 374.854 131.676 C 373.493 133.316, 376.024 133.576, 377.637 131.963 C 378.332 131.268, 379.525 131.249, 381.253 131.906 C 383.398 132.722, 384.273 132.476, 386.467 130.443 C 387.917 129.099, 389.374 128, 389.705 128 C 390.036 128, 392.755 126.842, 395.747 125.427 C 400.944 122.968, 404.486 122.599, 400.038 124.980 C 397.717 126.222, 395.621 130.577, 396.589 132.144 C 396.928 132.693, 397.792 132.329, 398.564 131.310 C 399.319 130.314, 399.951 129.907, 399.968 130.405 C 399.986 130.903, 400.900 130.495, 402 129.500 C 404.014 127.678, 404.892 128.708, 402.967 130.633 C 402.256 131.344, 402.398 131.667, 403.424 131.667 C 404.243 131.667, 405.126 131.115, 405.384 130.440 C 405.999 128.839, 402.045 120.854, 400.967 121.521 C 400.511 121.802, 399.856 121.575, 399.510 121.016 C 397.686 118.065, 394.232 120.592, 394.922 124.373 C 395.010 124.853, 394.371 124.973, 393.503 124.640 C 392.595 124.291, 391.690 124.645, 391.372 125.472 C 390.535 127.654, 388.199 125.058, 388.724 122.530 C 389.064 120.892, 388.649 121.079, 386.578 123.500 C 385.165 125.150, 384.008 126.028, 384.005 125.450 C 384.002 124.873, 384.469 123.931, 385.042 123.358 C 385.766 122.634, 385.644 121.950, 384.646 121.121 C 383.472 120.147, 382.807 120.577, 381.022 123.464 M 417.750 120.577 C 417.337 120.993, 417 122.357, 417 123.608 C 417 124.859, 416.550 126.160, 416 126.500 C 415.450 126.840, 415 128.243, 415 129.618 C 415 130.993, 414.592 131.866, 414.094 131.558 C 413.596 131.250, 413.402 130.180, 413.663 129.179 C 413.925 128.179, 413.468 126.804, 412.648 126.123 C 411.387 125.076, 411.246 125.226, 411.736 127.099 C 412.185 128.817, 412 129.123, 410.908 128.464 C 409.798 127.796, 409.736 127.922, 410.614 129.058 C 412.387 131.354, 411.939 133.797, 409.845 133.249 C 408.842 132.987, 408.250 132.405, 408.528 131.955 C 408.805 131.506, 408.626 130.887, 408.130 130.580 C 407.634 130.274, 406.982 130.963, 406.681 132.112 C 406.380 133.261, 405.654 133.904, 405.067 133.542 C 404.443 133.156, 404 133.736, 404 134.941 C 404 137.080, 402.432 137.795, 401.813 135.939 C 401.611 135.334, 399.857 135.965, 397.730 137.409 C 395.497 138.924, 393.994 139.450, 393.985 138.720 C 393.975 137.947, 393.614 138.049, 393 139 C 392.263 140.140, 392.027 139.727, 392.015 137.281 C 392.003 134.670, 392.330 134.167, 393.750 134.613 C 395.281 135.094, 395.263 134.970, 393.603 133.614 C 392.559 132.761, 391.322 132.301, 390.853 132.591 C 390.384 132.881, 390 132.641, 390 132.059 C 390 131.477, 389.314 131, 388.475 131 C 386.825 131, 384.626 135.585, 385.555 137.088 C 385.883 137.619, 384.653 137.775, 382.650 137.457 C 380.458 137.108, 378.899 137.354, 378.424 138.122 C 377.912 138.952, 378.179 139.145, 379.263 138.729 C 380.138 138.394, 381.945 138.634, 383.280 139.264 L 385.707 140.409 382.246 142.264 C 380.343 143.284, 378.547 143.880, 378.256 143.589 C 377.964 143.298, 376.436 143.978, 374.859 145.101 C 371.852 147.242, 370.023 145.988, 371.300 142.659 C 371.950 140.965, 370.371 138.295, 369.333 139.333 C 368.907 139.760, 369.220 140.527, 370.029 141.039 C 371.025 141.669, 371.097 141.974, 370.250 141.985 C 368.370 142.008, 368.748 144.803, 370.876 146.626 C 371.914 147.515, 372.543 149.031, 372.285 150.020 C 371.737 152.113, 375.599 153.801, 377.223 152.177 C 377.784 151.616, 378.851 151.389, 379.592 151.674 C 380.334 151.959, 382.140 151.248, 383.605 150.096 C 386.811 147.574, 388.163 147.413, 387.302 149.655 C 386.743 151.113, 387.043 151.088, 389.834 149.439 C 392.881 147.639, 394.134 145, 391.941 145 C 391.359 145, 391.143 144.578, 391.462 144.061 C 391.781 143.545, 391.245 142.659, 390.271 142.092 C 388.815 141.244, 388.777 141.055, 390.059 141.030 C 393.083 140.971, 395.324 143.524, 394.774 146.402 C 394.401 148.353, 394.618 148.977, 395.545 148.621 C 396.254 148.349, 397.083 148.773, 397.386 149.563 C 397.689 150.353, 398.514 150.964, 399.219 150.921 C 400.222 150.859, 400.229 150.733, 399.250 150.338 C 397.173 149.499, 397.782 147.130, 399.931 147.692 C 401.017 147.976, 401.639 148.776, 401.353 149.521 C 401.074 150.249, 401.780 151.780, 402.923 152.923 C 405.209 155.209, 405.604 157.509, 403.893 158.566 C 403.160 159.019, 402.998 158.580, 403.415 157.266 C 404.271 154.571, 401.590 152.265, 399.559 153.951 C 398.767 154.608, 398.382 155.833, 398.704 156.672 C 399.207 157.981, 398.994 158.013, 397.210 156.899 C 394.994 155.515, 395.176 154, 397.559 154 C 399.994 154, 399.162 152.560, 395.891 151.112 C 393.937 150.247, 392.543 150.099, 392.141 150.714 C 391.788 151.252, 390.244 152, 388.709 152.375 C 384.943 153.297, 386.010 154.605, 390.409 154.459 C 393.258 154.365, 393.743 154.604, 392.858 155.671 C 392.052 156.642, 392.057 157, 392.878 157 C 394.196 157, 393.942 159.175, 392.500 160.235 C 391.935 160.650, 392.262 160.976, 393.250 160.985 C 395.661 161.006, 395.461 163.646, 393 164.290 C 391.900 164.577, 391 164.357, 391 163.799 C 391 163.242, 390.302 163.054, 389.448 163.382 C 388.558 163.723, 388.157 163.555, 388.507 162.989 C 389.271 161.752, 388.381 161.725, 386.153 162.918 C 385.181 163.438, 384.331 165.234, 384.192 167.063 C 383.992 169.694, 384.199 170.080, 385.315 169.153 C 386.944 167.802, 388 168.617, 388 171.226 C 388 172.266, 388.457 172.835, 389.016 172.490 C 389.575 172.144, 389.779 171.452, 389.470 170.952 C 388.513 169.403, 390.964 166, 393.035 166 C 394.116 166, 395 165.550, 395 165 C 395 164.450, 395.900 164, 397 164 C 398.200 164, 399 163.333, 399 162.333 C 399 161.417, 399.337 161.004, 399.750 161.417 C 400.163 161.829, 400.506 162.692, 400.514 163.333 C 400.522 164.018, 401.864 164.422, 403.764 164.311 C 407.018 164.121, 408.523 166.941, 406 168.500 C 405.450 168.840, 405.052 169.879, 405.116 170.809 C 405.221 172.334, 405.277 172.328, 405.689 170.750 C 405.941 169.787, 406.616 169, 407.190 169 C 407.764 169, 408.011 169.787, 407.739 170.750 C 406.487 175.177, 406.539 175.500, 408.500 175.500 C 409.600 175.500, 410.545 174.825, 410.601 174 C 410.656 173.175, 411.476 170.749, 412.424 168.608 C 413.371 166.467, 413.891 163.702, 413.580 162.462 C 413.229 161.063, 413.523 160.013, 414.357 159.693 C 416.065 159.038, 417.971 149.699, 416.817 147.638 C 416.050 146.267, 415.509 146.290, 411.828 147.854 C 407.713 149.602, 403 147.564, 403 144.038 C 403 143.559, 402.460 142.987, 401.801 142.767 C 401.048 142.516, 401.230 142.126, 402.290 141.719 C 403.524 141.245, 404.146 141.733, 404.596 143.528 C 404.936 144.880, 405.626 145.731, 406.131 145.419 C 406.636 145.107, 406.926 145.447, 406.775 146.176 C 406.590 147.066, 407.442 147.433, 409.372 147.295 C 412.941 147.040, 413.892 146.180, 411.971 144.946 C 410.680 144.116, 410.683 143.880, 412 143.015 C 413.915 141.758, 414.730 141.754, 415.500 143 C 415.840 143.550, 416.612 144, 417.215 144 C 417.818 144, 416.414 142.088, 414.095 139.750 C 410.751 136.379, 410.233 135.427, 411.592 135.147 C 412.535 134.953, 413.709 135.516, 414.202 136.397 C 415.093 137.988, 418.109 138.687, 417.882 137.250 C 417.471 134.647, 418.345 135.033, 419.387 137.915 L 420.621 141.329 421.660 138.415 C 424.662 130, 424.819 129.094, 423.468 127.974 C 422.454 127.132, 421.867 127.379, 420.989 129.021 C 419.400 131.990, 418.709 130.896, 420.011 127.472 C 420.651 125.788, 420.708 124.433, 420.154 124.083 C 419.647 123.762, 419.067 122.672, 418.866 121.660 C 418.665 120.648, 418.163 120.161, 417.750 120.577 M 474.820 121.898 C 473.636 123.280, 473.494 124.094, 474.298 124.898 C 475.101 125.701, 475.063 126.337, 474.158 127.242 C 473.170 128.230, 472.737 128.193, 472.035 127.056 C 471.336 125.925, 470.849 125.880, 469.693 126.840 C 468.524 127.810, 468.109 127.727, 467.608 126.422 C 467.255 125.502, 466.345 125.037, 465.518 125.355 C 464.712 125.664, 463.605 125.148, 463.057 124.208 C 462.509 123.269, 462.047 122.972, 462.030 123.550 C 462.014 124.127, 462.488 125.088, 463.084 125.684 C 463.863 126.463, 463.528 127.217, 461.895 128.361 C 460.644 129.237, 459.968 130.301, 460.392 130.725 C 460.816 131.150, 461.715 130.742, 462.389 129.820 C 463.810 127.878, 465.451 128.603, 466.380 131.583 C 466.875 133.171, 466.443 133.933, 464.562 134.790 C 462.462 135.747, 462.185 135.680, 462.699 134.341 C 463.181 133.086, 462.843 132.915, 461.026 133.492 C 459.610 133.941, 458.981 133.840, 459.361 133.225 C 459.698 132.680, 458.995 130.945, 457.800 129.368 C 456.605 127.790, 455.501 126.327, 455.345 126.115 C 455.190 125.903, 453.947 126.460, 452.583 127.353 C 449.601 129.307, 447.810 127.595, 450.650 125.505 C 452.369 124.240, 452.378 124.096, 450.785 123.478 C 447.300 122.127, 440.593 128.529, 441.540 132.303 C 442.232 135.061, 447.037 136.504, 449.102 134.573 C 449.924 133.804, 450.380 133.854, 450.708 134.750 C 450.960 135.438, 451.917 135.964, 452.833 135.921 C 453.873 135.872, 454.030 135.652, 453.250 135.338 C 452.563 135.060, 452.032 133.858, 452.070 132.667 C 452.122 131.074, 452.321 130.898, 452.820 132 C 453.194 132.825, 454.394 133.500, 455.486 133.500 C 456.583 133.500, 457.624 134.284, 457.810 135.250 C 458.068 136.592, 457.470 137, 455.248 137 C 451.746 137, 447.642 140.904, 448.579 143.345 C 449.469 145.665, 451 145.410, 451 142.941 C 451 141.809, 451.450 141.160, 452 141.500 C 452.550 141.840, 453 143.640, 453 145.500 C 453 147.360, 452.550 149.160, 452 149.500 C 451.450 149.840, 451 149.641, 451 149.059 C 451 148.477, 450.501 148, 449.892 148 C 449.199 148, 449.027 148.970, 449.432 150.585 C 450.303 154.055, 449.274 157.042, 447.449 156.342 C 446.652 156.036, 446 154.957, 446 153.945 C 446 151.526, 441.419 146.623, 439.986 147.509 C 439.201 147.994, 439.311 148.688, 440.357 149.849 C 442.349 152.060, 443.559 157, 442.108 157 C 441.499 157, 440.970 156.438, 440.932 155.750 C 440.895 155.063, 440.376 155.512, 439.780 156.750 C 439.183 157.988, 438.080 159, 437.328 159 C 436.355 159, 436.150 159.751, 436.616 161.608 C 437.217 164, 437.100 164.124, 435.201 163.108 C 432.056 161.425, 431 161.760, 431 164.441 C 431 165.784, 430.592 167.134, 430.093 167.442 C 429.595 167.751, 429.422 167.102, 429.710 166.001 C 430.112 164.465, 429.741 164, 428.117 164 C 425.724 164, 425.306 166.179, 427.371 167.893 C 428.845 169.116, 435.201 168.494, 438.336 166.819 C 439.345 166.279, 440.422 166.089, 440.729 166.395 C 441.035 166.702, 440.434 167.255, 439.393 167.624 C 432.484 170.074, 431 171.015, 431 172.949 C 431 174.077, 430.438 175.007, 429.750 175.015 C 428.845 175.026, 428.880 175.271, 429.878 175.904 C 430.747 176.454, 430.942 177.279, 430.405 178.138 C 429.936 178.887, 429.541 180.131, 429.526 180.902 C 429.490 182.831, 426.037 183.180, 424.289 181.432 C 423.046 180.189, 423.131 180, 424.929 180 C 426.068 180, 427 179.571, 427 179.048 C 427 177.773, 421.785 178.493, 419.165 180.129 C 417.607 181.102, 417.228 182.062, 417.685 183.883 C 418.163 185.786, 417.967 186.201, 416.804 185.755 C 415.696 185.330, 414.879 186.543, 413.654 190.428 C 412.183 195.097, 411.380 201.429, 412.662 198.250 C 413.437 196.329, 415 196.768, 415 198.906 C 415 200.974, 418.798 200.745, 420.211 198.593 C 420.672 197.890, 421.450 198.210, 422.429 199.505 C 424.658 202.455, 424.338 202.954, 421.016 201.700 C 418.466 200.737, 417.835 200.843, 416.677 202.427 C 415.360 204.229, 415.300 204.228, 414.561 202.390 C 413.863 200.656, 413.721 200.705, 412.848 202.976 C 412.081 204.973, 411.723 205.169, 410.993 203.989 C 410.274 202.825, 410.115 202.933, 410.216 204.513 C 410.286 205.606, 409.985 207.625, 409.547 209 C 409.110 210.375, 409.122 211.148, 409.574 210.719 C 410.026 210.289, 411.007 210.964, 411.753 212.219 C 413.104 214.490, 413.108 214.488, 412.694 211.750 C 412.412 209.893, 412.719 209, 413.639 209 C 414.387 209, 415 209.675, 415 210.500 C 415 211.325, 415.450 212, 416 212 C 416.550 212, 417 211.550, 417 211 C 417 210.450, 417.477 210, 418.059 210 C 418.641 210, 418.896 210.359, 418.625 210.798 C 418.354 211.237, 418.545 212.249, 419.051 213.048 C 419.826 214.273, 419.972 214.243, 419.985 212.857 C 420.003 210.868, 423.067 209.490, 424.025 211.040 C 424.507 211.821, 425.121 211.745, 426.105 210.783 C 430.375 206.606, 437.857 204.327, 439.341 206.750 C 439.594 207.162, 437.986 207.524, 435.769 207.553 C 430.113 207.628, 425.263 214.190, 429.107 216.566 C 429.863 217.033, 429.985 216.528, 429.492 214.974 C 428.909 213.137, 429.081 212.817, 430.385 213.317 C 431.273 213.658, 432 213.501, 432 212.969 C 432 212.436, 432.450 212, 433 212 C 433.550 212, 434 212.648, 434 213.441 C 434 216.342, 436.040 216.052, 436.637 213.066 C 437.322 209.639, 437.385 209.600, 440.005 211.003 C 441.316 211.704, 442.094 211.658, 442.594 210.848 C 443.059 210.095, 442.868 209.963, 442.048 210.471 C 440.331 211.531, 441.678 204.904, 443.469 203.481 C 445.175 202.124, 445.109 197.256, 443.375 196.590 C 442.619 196.300, 442 196.461, 442 196.948 C 442 197.435, 442.563 198.042, 443.250 198.297 C 443.959 198.561, 443.335 199.226, 441.811 199.833 C 440.332 200.422, 438.628 201.826, 438.026 202.952 C 437.423 204.078, 436.440 205, 435.842 205 C 435.071 205, 435.065 204.627, 435.820 203.717 C 438.469 200.525, 439.053 197, 436.931 197 C 435.605 197, 435.013 197.564, 435.206 198.646 C 435.368 199.552, 434.923 200.494, 434.219 200.740 C 433.514 200.986, 433.046 200.808, 433.178 200.344 C 433.311 199.880, 432.633 198.150, 431.673 196.500 C 430.677 194.789, 430.148 194.359, 430.441 195.500 C 431.063 197.924, 430.234 199.314, 427.218 200.903 C 425.075 202.031, 424.975 201.949, 425.576 199.552 C 426.174 197.169, 425.978 197, 422.608 197 C 420.624 197, 419 197.436, 419 197.969 C 419 198.501, 418.325 198.678, 417.500 198.362 C 415.158 197.463, 415.613 194.665, 417.999 195.289 C 419.098 195.577, 420.269 195.374, 420.600 194.838 C 420.931 194.302, 421.832 194.105, 422.601 194.400 C 423.371 194.696, 424 194.501, 424 193.969 C 424 193.436, 423.520 193, 422.933 193 C 422.320 193, 422.136 192.147, 422.500 191 C 422.964 189.539, 422.680 189, 421.445 189 C 420.045 189, 419.972 188.739, 421.019 187.477 C 421.748 186.598, 423.068 186.204, 424.141 186.545 C 425.164 186.869, 426 186.654, 426 186.067 C 426 185.480, 426.502 185, 427.117 185 C 427.765 185, 428.035 186.036, 427.761 187.470 C 427.501 188.828, 427.635 189.725, 428.059 189.464 C 428.483 189.202, 429.007 189.521, 429.225 190.174 C 429.475 190.924, 430.332 191.074, 431.560 190.580 C 433.370 189.852, 433.334 189.736, 431.024 188.848 C 429.179 188.140, 428.888 187.687, 429.881 187.074 C 430.793 186.510, 430.871 186.038, 430.127 185.579 C 429.355 185.101, 429.382 184.362, 430.221 183.018 C 430.869 181.979, 431.782 181.365, 432.249 181.654 C 432.715 181.942, 432.570 182.813, 431.926 183.589 C 431.030 184.668, 431.033 185, 431.937 185 C 432.586 185, 432.840 185.450, 432.500 186 C 432.160 186.550, 432.373 187, 432.972 187 C 433.572 187, 434.322 186.325, 434.638 185.501 C 435.095 184.309, 435.616 184.514, 437.179 186.501 C 439.576 189.547, 440.597 189.649, 441.313 186.910 C 441.739 185.284, 442.346 184.975, 444.055 185.517 C 445.450 185.960, 446.603 185.719, 447.219 184.857 C 447.933 183.858, 448.023 184.007, 447.560 185.420 C 446.718 187.995, 449.036 189.333, 450.611 187.180 C 451.285 186.258, 452.162 185.829, 452.561 186.227 C 452.959 186.626, 452.716 187.638, 452.020 188.476 C 451.155 189.518, 451.110 190, 451.878 190 C 452.495 190, 453 190.606, 453 191.347 C 453 195.857, 457.246 197.663, 460.409 194.500 C 463.183 191.726, 464.169 191.375, 463.925 193.250 C 463.542 196.203, 463.994 197.558, 464.890 196.143 C 465.494 195.191, 465.955 195.118, 466.438 195.900 C 466.817 196.513, 466.423 197.284, 465.563 197.614 C 464.566 197.997, 464 199.456, 464 201.646 C 464 204.531, 463.778 204.873, 462.607 203.789 C 461.614 202.871, 461.486 201.925, 462.162 200.500 C 463.095 198.533, 463.085 198.532, 461.555 200.441 C 459.956 202.438, 459.415 206.092, 460.750 205.882 C 462.441 205.615, 464 206.048, 464 206.786 C 464 207.968, 459.609 207.780, 458.765 206.561 C 458.327 205.928, 458.024 206.206, 458.015 207.250 C 458.007 208.213, 458.450 209, 459 209 C 459.550 209, 459.947 209.338, 459.882 209.750 C 459.570 211.725, 460.128 212.349, 461 211 C 461.809 209.748, 461.972 209.821, 461.985 211.439 C 461.999 213.270, 462.114 213.255, 464.060 211.166 C 465.389 209.740, 465.898 208.255, 465.495 206.986 C 464.943 205.246, 465.140 205.134, 467.185 206.025 C 468.458 206.579, 470.288 207.303, 471.250 207.633 C 473.196 208.301, 473.525 209.557, 472 210.500 C 471.450 210.840, 471 211.597, 471 212.181 C 471 212.892, 471.459 212.864, 472.383 212.097 C 473.454 211.208, 473.906 211.312, 474.383 212.556 C 475.340 215.050, 475.123 216, 473.598 216 C 472.827 216, 471.702 217.417, 471.098 219.149 C 469.770 222.958, 469.679 226, 470.892 226 C 472.016 226, 473.262 221.232, 472.472 219.954 C 472.147 219.429, 472.359 219, 472.941 219 C 473.876 219, 474.458 221.099, 474.118 223.250 C 473.951 224.312, 475.769 224.183, 476.447 223.085 C 476.758 222.582, 476.530 222.010, 475.941 221.814 C 475.323 221.608, 475.743 220.449, 476.935 219.075 C 478.071 217.766, 479 216.088, 479 215.347 C 479 214.606, 479.450 214, 480 214 C 480.550 214, 481.007 212.988, 481.015 211.750 C 481.026 210.136, 481.270 209.877, 481.876 210.834 C 482.557 211.908, 482.840 211.859, 483.329 210.584 C 483.664 209.713, 484.401 209, 484.969 209 C 486.303 209, 486.316 213.687, 484.984 214.510 C 484.425 214.856, 484.180 215.482, 484.440 215.902 C 485.101 216.973, 481.630 216.895, 480.925 215.824 C 480.609 215.343, 479.864 216.536, 479.269 218.475 C 478.674 220.414, 478.543 222, 478.977 222 C 479.411 222, 480.017 221.042, 480.324 219.870 C 480.703 218.422, 481.392 217.937, 482.480 218.354 C 485.655 219.572, 492 212.463, 492 207.686 C 492 206.920, 493.756 200.939, 495.903 194.396 C 501.820 176.359, 503.835 164.580, 501.454 161.949 C 500.027 160.372, 499.962 160.048, 501.165 160.510 C 502.511 161.026, 502.605 160.398, 501.871 155.803 C 501.405 152.886, 500.981 145.659, 500.930 139.741 C 500.848 130.349, 500.601 128.857, 498.984 127.991 C 496.486 126.655, 496 126.737, 496 128.500 C 496 130.783, 494.495 130.293, 493.014 127.526 C 491.427 124.561, 485.395 122.205, 483.708 123.892 C 481.941 125.659, 480.615 125.173, 482.128 123.313 C 483.322 121.844, 483.284 121.706, 481.833 122.250 C 480.840 122.621, 479.943 122.293, 479.614 121.437 C 478.848 119.441, 476.750 119.643, 474.820 121.898 M 502.482 132.055 C 501.494 135.171, 502.904 155.421, 504.414 159.782 L 505.645 163.337 509.284 152.384 C 511.285 146.359, 513.615 139.773, 514.460 137.749 C 516.016 134.027, 513.889 130.714, 511.065 132.460 C 510.573 132.764, 510.020 132.570, 509.835 132.029 C 509.034 129.678, 503.230 129.699, 502.482 132.055 M 523.121 138.628 C 521.350 139.868, 521.109 140.449, 522.110 141.068 C 523.101 141.680, 522.757 142.403, 520.711 144.013 C 517.047 146.895, 513.781 152.983, 511.060 162 C 509.816 166.125, 508.168 170.978, 507.399 172.784 C 506.630 174.590, 506 176.990, 506 178.117 C 506 181.546, 502 196.070, 500.372 198.555 C 498.472 201.455, 497.376 207.504, 498.923 206.547 C 500.259 205.722, 500.309 207.975, 499 210 C 498.138 211.333, 498.027 211.333, 498 210 C 497.973 208.667, 497.862 208.667, 497 210 C 495.533 212.270, 495.796 212.924, 498.004 212.499 C 501.052 211.912, 502 211.068, 502 208.941 C 502 207.873, 502.533 207, 503.186 207 C 503.838 207, 505.511 205.988, 506.905 204.750 C 508.299 203.512, 508.916 203.190, 508.277 204.034 C 506.785 206.001, 508.153 208.262, 510.330 207.427 C 511.618 206.932, 512 207.363, 512 209.311 C 512 214.888, 509.729 216.568, 506.706 213.227 C 505.608 212.014, 505.396 210.988, 506.035 209.977 C 507.699 207.346, 507.057 207.017, 504.685 209.286 C 503.413 210.504, 502.539 211.838, 502.745 212.250 C 503.092 212.947, 501.508 213.400, 499.731 213.112 C 499.309 213.044, 498.465 214.080, 497.857 215.415 C 497.249 216.750, 496.234 217.643, 495.602 217.401 C 494.970 217.158, 493.915 218.432, 493.257 220.230 C 492.246 222.992, 492.267 223.228, 493.390 221.750 C 494.122 220.787, 495.458 220, 496.360 220 C 497.262 220, 498 219.298, 498 218.441 C 498 217.584, 498.450 217.160, 499 217.500 C 499.550 217.840, 500 218.991, 500 220.059 C 500 222.248, 501.048 222.552, 502.744 220.856 C 503.603 219.997, 503.748 220.247, 503.327 221.856 C 502.934 223.360, 503.225 224, 504.300 224 C 505.143 224, 506.023 224.563, 506.254 225.250 C 506.956 227.335, 509.504 224.532, 510.984 220.047 C 511.707 217.858, 512.634 216.274, 513.044 216.527 C 513.455 216.781, 512.937 218.661, 511.895 220.706 C 510.853 222.750, 510 224.965, 510 225.628 C 510 226.291, 509.470 227.010, 508.823 227.226 C 507.440 227.687, 508.609 230, 510.226 230 C 510.835 230, 511.054 229.721, 510.713 229.379 C 510.371 229.038, 511.196 227.133, 512.546 225.147 C 513.896 223.161, 515 220.965, 515 220.268 C 515 219.571, 515.401 219, 515.891 219 C 516.380 219, 517.005 217.537, 517.278 215.750 C 518.668 206.645, 520.441 199.274, 521.706 197.335 C 522.483 196.144, 523.712 191.644, 524.438 187.335 C 525.219 182.689, 525.806 180.857, 525.878 182.833 C 526.050 187.534, 527.956 186.499, 531.192 179.949 C 535.529 171.169, 532.848 166.294, 528.195 174.500 C 527.347 175.996, 527.053 176.107, 527.030 174.941 C 526.983 172.512, 529.253 170.173, 532 169.821 C 534 169.564, 534.608 168.800, 535.042 166 L 535.584 162.500 536.152 165.978 C 536.564 168.500, 535.956 171.250, 533.940 175.975 C 530.595 183.815, 530.818 184.300, 535.724 179.871 C 537.801 177.995, 540.561 175.718, 541.858 174.810 C 543.156 173.903, 543.920 172.679, 543.556 172.091 C 543.161 171.452, 543.477 171.246, 544.344 171.579 C 546.829 172.532, 549.470 167.817, 547.328 166.250 C 546.057 165.321, 545.979 165, 547.023 165 C 547.795 165, 550.581 162.645, 553.214 159.766 C 557.979 154.556, 559.130 152.441, 556.750 153.267 C 556.063 153.506, 554.386 152.836, 553.024 151.779 C 551.543 150.629, 550.404 150.287, 550.191 150.928 C 549.994 151.518, 549.373 152, 548.810 152 C 548.247 152, 548.045 151.325, 548.362 150.500 C 549.004 148.825, 547.471 148.428, 546.490 150.016 C 545.614 151.434, 544 150.234, 544 148.164 C 544 147.004, 541.213 145.064, 535.421 142.191 C 530.703 139.851, 527.101 138.354, 527.416 138.864 C 527.731 139.373, 527.279 140.063, 526.412 140.395 C 523.434 141.538, 522.693 140.997, 524.500 139 C 526.694 136.576, 526.230 136.450, 523.121 138.628 M 591.723 138.610 C 591.335 138.998, 591.552 139.960, 592.205 140.747 C 593.173 141.914, 593.033 142.115, 591.446 141.839 C 590.376 141.653, 589.228 141.129, 588.895 140.676 C 588.563 140.223, 587.582 140.560, 586.717 141.426 C 585.851 142.292, 584.639 143, 584.023 143 C 583.407 143, 582.225 144.463, 581.397 146.250 C 580.480 148.229, 580.070 148.622, 580.350 147.255 C 580.816 144.983, 576.059 144.891, 575.167 147.155 C 574.983 147.620, 573.971 148, 572.917 148 C 571.843 148, 571 148.689, 571 149.567 C 571 150.670, 570.418 150.950, 569.038 150.512 C 567.236 149.940, 562.325 151.658, 563.216 152.549 C 564.165 153.498, 571.124 156.010, 570.642 155.230 C 570.345 154.750, 570.932 153.647, 571.945 152.779 C 572.959 151.911, 574.246 150.383, 574.805 149.384 C 575.709 147.769, 576.106 147.719, 578.377 148.934 C 581.210 150.450, 584.548 148.871, 583.620 146.453 C 583.315 145.656, 583.823 145.402, 585.071 145.729 C 586.294 146.049, 587.662 145.404, 588.837 143.953 C 590.100 142.394, 590.908 142.042, 591.400 142.838 C 591.795 143.477, 591.851 144, 591.524 144 C 591.197 144, 591.411 144.900, 592 146 C 592.589 147.100, 593.955 148, 595.035 148 C 596.116 148, 597 148.546, 597 149.214 C 597 149.962, 597.672 149.757, 598.750 148.678 C 600.281 147.146, 600.313 146.807, 599 145.964 C 597.770 145.173, 597.741 144.845, 598.837 144.137 C 601.623 142.339, 599.776 138.523, 595.964 138.202 C 594.020 138.039, 592.111 138.222, 591.723 138.610 M 247.663 148.564 C 247.966 149.354, 247.753 150, 247.190 150 C 246.627 150, 245.994 149.482, 245.783 148.850 C 245.243 147.228, 239.405 149.343, 239.798 151.019 C 240.308 153.191, 238.886 158.047, 237.915 157.447 C 237.408 157.134, 237.254 155.836, 237.574 154.563 C 238.088 152.514, 237.859 152.304, 235.577 152.740 C 231.883 153.447, 232.242 156.565, 236.250 158.591 C 238.037 159.495, 240.477 161.127, 241.672 162.218 C 242.866 163.309, 244.961 164.269, 246.326 164.351 C 247.691 164.433, 248.581 164.868, 248.303 165.318 C 248.025 165.768, 247.145 165.886, 246.347 165.580 C 245.468 165.242, 245.160 165.450, 245.565 166.106 C 245.933 166.701, 247.307 166.983, 248.617 166.733 C 249.928 166.482, 251 166.665, 251 167.139 C 251 168.649, 253.762 168.062, 254.393 166.418 C 255.618 163.226, 255.041 162.121, 252.250 162.312 C 250.385 162.439, 249.593 162.060, 249.789 161.134 C 249.948 160.382, 249.355 158.665, 248.472 157.317 L 246.866 154.866 249.425 156.543 C 250.833 157.465, 252.713 157.940, 253.604 157.599 C 254.719 157.171, 255.057 157.409, 254.689 158.367 C 254.147 159.780, 255.709 162, 257.246 162 C 258.838 162, 257.641 148.709, 256 148.169 C 254.706 147.743, 254.691 147.906, 255.893 149.362 C 256.658 150.289, 256.957 151.375, 256.556 151.774 C 256.156 152.173, 254.916 151.375, 253.802 150 C 251.565 147.240, 246.720 146.107, 247.663 148.564 M 558.688 155.646 C 558.309 156.024, 558 157.331, 558 158.550 C 558 159.836, 557.251 160.963, 556.217 161.233 C 555.237 161.489, 552.650 164.579, 550.467 168.100 C 548.285 171.620, 545.825 174.638, 545 174.806 C 543.217 175.170, 537.510 180.979, 537.478 182.463 C 537.465 183.033, 536.790 183.406, 535.978 183.292 C 533.633 182.962, 526.506 188.390, 526.444 190.554 C 526.413 191.624, 525.814 193.551, 525.113 194.836 C 523.614 197.582, 524.205 198.556, 526.707 197.465 C 527.693 197.035, 528.848 196.757, 529.273 196.849 C 529.947 196.994, 531.621 191.358, 531.307 190 C 531.243 189.725, 531.748 188.990, 532.429 188.367 C 533.398 187.479, 533.646 188.269, 533.573 192.017 L 533.479 196.800 537.490 196.450 C 539.695 196.258, 542.764 196.078, 544.309 196.050 C 545.917 196.021, 546.854 195.572, 546.500 195 C 546.160 194.450, 546.546 194, 547.358 194 C 548.169 194, 549.060 193.438, 549.338 192.750 C 549.615 192.063, 549.878 192.512, 549.921 193.750 C 549.964 194.988, 550.477 196, 551.059 196 C 551.641 196, 551.840 195.550, 551.500 195 C 551.160 194.450, 551.359 194, 551.941 194 C 552.523 194, 553 193.373, 553 192.607 C 553 191.841, 553.675 190.955, 554.500 190.638 C 555.325 190.322, 555.993 189.486, 555.985 188.781 C 555.974 187.885, 555.678 187.951, 555 189 C 554.179 190.270, 554.028 190.220, 554.015 188.678 C 553.997 186.451, 549.161 178, 547.905 178 C 547.407 178, 547.013 177.438, 547.029 176.750 C 547.060 175.453, 551.960 180.389, 553.872 183.643 C 554.811 185.241, 555.099 185.292, 555.937 184.013 C 556.740 182.787, 556.904 182.876, 556.869 184.513 C 556.757 189.723, 559.457 193.957, 562.051 192.636 C 563.889 191.701, 564.428 190.714, 564.210 188.681 C 564.021 186.913, 564.359 186.065, 565.186 186.237 C 565.883 186.382, 566.594 185.584, 566.768 184.465 C 566.941 183.345, 567.915 181.910, 568.932 181.274 C 570.524 180.280, 570.711 180.389, 570.274 182.060 C 569.995 183.127, 569.294 184, 568.717 184 C 568.139 184, 567.964 184.297, 568.327 184.661 C 568.690 185.024, 569.936 184.463, 571.096 183.413 C 573.189 181.519, 573.201 181.523, 572.852 184.003 C 572.614 185.694, 571.774 186.603, 570.250 186.820 C 569.013 186.995, 568 187.516, 568 187.976 C 568 190.810, 573.884 186.625, 576.406 181.997 C 577.454 180.074, 577.944 178.835, 577.495 179.244 C 577.046 179.653, 576.188 179.026, 575.589 177.851 C 574.990 176.675, 573.150 174.981, 571.500 174.085 C 568.113 172.247, 567.189 169, 570.052 169 C 572.547 169, 573.443 167.239, 571.897 165.375 C 570.774 164.023, 571.065 163.922, 574.310 164.530 C 576.732 164.985, 578 164.848, 578 164.132 C 578 162.180, 570.251 159, 565.496 159 C 561.788 159, 560.968 158.685, 561.206 157.354 C 561.517 155.613, 559.850 154.483, 558.688 155.646 M 264.750 162.434 C 262.225 164.290, 262.489 164.717, 267.597 167.044 C 270.126 168.196, 271.969 169.364, 271.694 169.639 C 271.419 169.915, 269.289 169.220, 266.961 168.095 C 259.489 164.485, 258.244 169.195, 265.540 173.471 C 270.941 176.636, 273.500 176.480, 273.500 172.986 C 273.500 171.619, 273.775 170.275, 274.112 170 C 275.770 168.645, 266.497 161.151, 264.750 162.434 M 354.750 165.666 C 352.376 166.318, 352.549 167.688, 355.183 169.098 C 357.031 170.087, 357.631 169.939, 359.093 168.133 C 360.043 166.960, 361.648 166.029, 362.660 166.063 C 364.178 166.116, 364.106 166.285, 362.250 167.031 C 359.424 168.167, 359.397 169.465, 362.159 171.399 C 363.976 172.671, 364.113 173.159, 363.022 174.474 C 360.774 177.183, 360.012 183.835, 361.893 184.338 C 363.250 184.701, 363.228 184.786, 361.750 184.884 C 359.968 185.002, 359.160 189, 360.918 189 C 363.139 189, 364.830 187.720, 364.330 186.417 C 364.031 185.638, 364.339 185, 365.015 185 C 365.866 185, 365.936 184.614, 365.245 183.750 C 362.837 180.741, 362.540 177.327, 364.867 179.405 C 366.040 180.453, 367 180.929, 367 180.464 C 367 179.998, 367.613 180.456, 368.362 181.480 C 370.546 184.468, 372.780 184.266, 372.140 181.138 C 371.756 179.263, 371.492 179.006, 371.226 180.250 C 371.021 181.213, 370.436 182, 369.927 182 C 368.688 182, 368.759 180.909, 370.198 177.861 L 371.395 175.323 373.613 177.716 L 375.831 180.109 376.602 177.805 C 378.215 172.985, 376.215 167.385, 373.758 169.842 C 372.770 170.830, 372.820 171.289, 374.008 172.095 C 375.226 172.922, 375.133 173.049, 373.502 172.790 C 372.403 172.616, 371.503 171.719, 371.502 170.798 C 371.501 169.877, 370.488 168.178, 369.250 167.022 C 367.008 164.929, 366.558 165.344, 366.933 169.161 C 367.022 170.075, 366.576 171.144, 365.941 171.537 C 365.139 172.032, 364.992 171.600, 365.460 170.125 C 365.860 168.864, 365.701 168, 365.067 168 C 364.480 168, 364.113 167.438, 364.250 166.750 C 364.509 165.455, 358.160 164.731, 354.750 165.666 M 260 174 C 260.854 175.596, 260.760 176, 259.535 176 C 256.891 176, 257.497 184.354, 260.365 187.448 C 263.109 190.410, 264 190.637, 264 188.378 C 264 187.008, 264.248 186.961, 265.590 188.075 C 267.036 189.275, 267.019 189.513, 265.399 190.697 C 263.733 191.916, 263.757 192, 265.774 192 C 268.918 192, 270.640 188.401, 267.845 187.670 C 265.552 187.070, 267.397 184, 270.051 184 C 270.923 184, 270.889 183.572, 269.925 182.410 C 268.719 180.956, 268.505 180.956, 267.442 182.410 C 265.811 184.641, 264.804 184.388, 265.180 181.841 C 265.507 179.632, 268.533 178.435, 269.565 180.105 C 270.213 181.153, 272 180.345, 272 179.005 C 272 178.244, 260.801 172, 259.435 172 C 259.157 172, 259.411 172.900, 260 174 M 0.236 251.917 C 0.106 289.546, 0.219 320.114, 0.487 319.846 C 0.755 319.578, 0.998 303.738, 1.027 284.645 C 1.067 257.756, 1.352 250.095, 2.290 250.657 C 3.202 251.205, 3.196 251.008, 2.264 249.856 C 1.353 248.731, 0.955 239.803, 0.750 215.914 C 0.597 198.087, 0.365 214.287, 0.236 251.917 M 398 186 C 397.395 187.131, 396.468 187.789, 395.941 187.463 C 391.922 184.980, 389.890 189.674, 393.590 192.891 C 396.015 195, 396.140 195.017, 395.549 193.155 C 395.041 191.552, 395.292 191.264, 396.843 191.669 C 398.208 192.026, 398.631 192.802, 398.297 194.336 C 397.970 195.841, 398.107 196.108, 398.747 195.211 C 399.385 194.316, 399.667 194.884, 399.667 197.065 L 399.667 200.210 397.820 197.855 C 396.384 196.023, 396.125 195.925, 396.657 197.414 C 397.130 198.739, 396.980 199.106, 396.170 198.605 C 395.421 198.142, 395 198.624, 395 199.941 C 395 201.073, 395.450 202, 396 202 C 396.550 202, 397 202.675, 397 203.500 C 397 204.325, 397.675 205, 398.500 205 C 399.325 205, 400 205.408, 400 205.906 C 400 206.405, 400.988 206.554, 402.196 206.238 C 404.293 205.690, 404.304 205.629, 402.446 204.902 C 400.930 204.309, 400.861 204.125, 402.131 204.070 C 403.849 203.996, 405.232 199.775, 406.577 190.503 C 407.240 185.930, 407.161 185.622, 405.651 186.875 C 404.577 187.766, 404 187.852, 404 187.122 C 404 186.505, 403.502 186, 402.893 186 C 402.284 186, 402.031 186.638, 402.330 187.417 C 402.778 188.585, 401.182 190, 399.418 190 C 398.405 190, 399.121 186.126, 400.201 185.766 C 401.094 185.469, 401.107 185.184, 400.251 184.655 C 399.593 184.248, 398.629 184.824, 398 186 M 540.835 197.751 C 539.919 197.950, 538.912 198.787, 538.597 199.609 C 538.272 200.454, 538.453 200.838, 539.011 200.493 C 539.555 200.157, 540 200.487, 540 201.227 C 540 201.966, 539.100 202.571, 538.001 202.571 C 536.613 202.571, 536.159 202.076, 536.515 200.952 C 536.837 199.938, 536.453 199.333, 535.487 199.333 C 534.638 199.333, 534.125 199.821, 534.345 200.417 C 534.565 201.012, 533.790 202.585, 532.623 203.911 C 531.455 205.237, 531.033 206.017, 531.684 205.643 C 533.202 204.772, 532.840 208.619, 531.101 211.836 C 530.406 213.120, 530.117 214.451, 530.459 214.792 C 530.800 215.133, 531.341 214.410, 531.662 213.185 C 532.091 211.545, 532.572 211.230, 533.489 211.991 C 535.068 213.301, 536.438 211.747, 537.890 207 L 538.961 203.500 538.681 207.250 C 538.331 211.946, 538.176 211.981, 544.074 206.021 C 548.552 201.496, 550.208 198.252, 548.250 197.843 C 546.451 197.468, 542.364 197.417, 540.835 197.751 M 526.392 198.713 C 523.015 199.140, 521.124 203.127, 520.532 211.076 C 520.380 213.112, 519.966 215.246, 519.611 215.820 C 519.257 216.393, 519.372 217.112, 519.868 217.418 C 520.933 218.077, 523.457 212.419, 523.261 209.813 C 523.166 208.552, 523.791 208.024, 525.312 208.079 C 526.515 208.122, 526.963 208.376, 526.306 208.644 C 525.650 208.911, 525.360 209.775, 525.663 210.565 C 525.966 211.354, 525.784 212, 525.259 212 C 524.734 212, 524.263 213.461, 524.212 215.246 L 524.120 218.493 526.038 215.996 C 527.092 214.623, 527.966 212.923, 527.978 212.219 C 527.990 211.514, 528.621 210.699, 529.381 210.407 C 530.369 210.028, 530.567 208.971, 530.077 206.689 C 529.700 204.935, 529.502 202.262, 529.636 200.750 C 529.770 199.238, 529.795 198.072, 529.690 198.160 C 529.586 198.248, 528.102 198.497, 526.392 198.713 M 492.500 226.765 C 491.950 227.169, 491.500 228.400, 491.500 229.500 C 491.500 230.600, 490.938 231.387, 490.250 231.250 C 489.563 231.113, 488.931 231.787, 488.848 232.750 C 488.764 233.713, 488.646 235.031, 488.585 235.679 C 488.524 236.328, 488.143 237.191, 487.737 237.596 C 487.332 238.002, 487 239.357, 487 240.608 C 487 241.859, 486.528 243.174, 485.951 243.530 C 484.598 244.367, 486.670 247, 488.681 247 C 489.472 247, 489.826 247.472, 489.470 248.049 C 489.022 248.774, 488.414 248.759, 487.500 248 C 486.539 247.203, 485.990 247.208, 485.489 248.018 C 484.480 249.650, 485.586 250.321, 488.203 249.664 C 489.467 249.347, 490.725 249.144, 491 249.213 C 494.855 250.179, 498.556 239.413, 495.439 236.296 C 493.798 234.655, 494.711 231.675, 496.629 232.411 C 497.383 232.700, 498 232.501, 498 231.969 C 498 231.436, 497.091 231, 495.981 231 C 494.327 231, 494.075 230.548, 494.589 228.500 C 495.212 226.017, 494.417 225.357, 492.500 226.765 M 147.378 234.457 C 147.052 235.306, 147.045 236.675, 147.362 237.500 C 147.678 238.325, 147.501 239, 146.969 239 C 146.436 239, 145.964 238.213, 145.921 237.250 C 145.871 236.135, 145.654 235.969, 145.323 236.793 C 144.534 238.761, 145.918 243.169, 147.096 242.441 C 147.667 242.088, 148.015 242.407, 147.871 243.150 C 147.427 245.428, 149.074 249.072, 150.227 248.360 C 150.823 247.991, 151.024 248.151, 150.675 248.716 C 150.327 249.280, 150.958 250.798, 152.077 252.089 C 154.205 254.542, 155.932 253.622, 155.996 250 C 156.010 249.175, 156.287 246.900, 156.610 244.945 C 157.469 239.754, 149.026 230.162, 147.378 234.457 M 462.750 233.689 C 461.788 233.941, 460.993 234.676, 460.985 235.323 C 460.975 236.094, 460.674 236.033, 460.113 235.148 C 459.434 234.077, 458.951 234.232, 457.788 235.892 C 456.981 237.044, 456.034 237.701, 455.684 237.351 C 455.335 237.001, 454.425 237.232, 453.664 237.864 C 452.263 239.027, 452.542 244, 454.008 244 C 454.434 244, 455.076 245.165, 455.433 246.588 C 456.180 249.567, 459 248.262, 459 244.937 C 459 243.936, 459.430 242.852, 459.956 242.527 C 460.482 242.202, 460.655 241.266, 460.341 240.447 C 459.892 239.277, 459.267 239.542, 457.430 241.679 C 455.347 244.104, 455.017 244.208, 454.413 242.634 C 454.040 241.661, 454.132 240.507, 454.617 240.069 C 456.015 238.808, 462.132 236.978, 461.493 238.012 C 461.176 238.524, 461.612 240.005, 462.462 241.302 C 463.312 242.599, 463.705 243.961, 463.337 244.330 C 461.880 245.786, 463.817 244.893, 465.750 243.217 C 468.042 241.229, 467.804 236.246, 465.373 235.313 C 464.624 235.026, 464.260 234.388, 464.565 233.895 C 464.869 233.403, 464.979 233.052, 464.809 233.116 C 464.639 233.180, 463.712 233.438, 462.750 233.689 M 521.500 238.175 C 518.864 239.696, 518.034 241.025, 518.015 243.750 C 518.007 245.011, 517.450 245.890, 516.750 245.750 C 516.043 245.609, 515.577 246.363, 515.678 247.485 C 515.776 248.577, 515.499 249.702, 515.063 249.985 C 514.627 250.268, 513.936 251.569, 513.528 252.875 C 512.947 254.734, 513.081 255.066, 514.143 254.403 C 515.497 253.558, 517.048 253.138, 520.131 252.781 C 521.485 252.624, 521.712 251.507, 521.464 246.219 C 521.202 240.610, 521.332 240.064, 522.551 241.673 C 523.842 243.376, 523.939 243.381, 523.968 241.750 C 523.986 240.787, 524.352 240, 524.783 240 C 526.028 240, 525.456 245.348, 524.165 245.778 C 523.524 245.992, 523 246.606, 523 247.142 C 523 247.679, 523.450 247.840, 524 247.500 C 524.909 246.938, 525.441 248.282, 525.104 250.293 C 524.919 251.401, 528.726 249.261, 529.636 247.745 C 530.078 247.009, 529.645 247.100, 528.577 247.968 C 526.867 249.357, 526.790 249.118, 527.135 243.468 C 527.533 236.965, 526.034 235.557, 521.500 238.175 M 557.817 239.021 C 557.642 239.528, 556.375 240.112, 555 240.320 C 553.625 240.527, 552.365 241.384, 552.201 242.223 C 551.820 244.167, 555.079 245.491, 556.116 243.813 C 557.035 242.326, 557.513 242.723, 558.443 245.750 C 559.374 248.777, 556.162 248.838, 553.596 245.841 L 551.748 243.683 549.789 246.091 L 547.830 248.500 548.377 246.037 C 548.914 243.621, 546.752 240, 544.774 240 C 544.270 240, 544.598 240.740, 545.502 241.645 C 546.407 242.550, 546.777 243.563, 546.324 243.895 C 545.871 244.228, 545.402 246.005, 545.283 247.845 C 545.098 250.683, 545.288 251.006, 546.533 249.973 C 547.340 249.303, 548 249.046, 548 249.401 C 548 249.756, 549.125 249.309, 550.500 248.408 C 552.150 247.327, 553 247.169, 553 247.944 C 553 248.590, 553.450 248.840, 554 248.500 C 554.550 248.160, 555 248.584, 555 249.441 C 555 251.569, 558.652 251.427, 559.920 249.250 C 560.826 247.694, 560.943 247.755, 560.970 249.795 C 560.997 251.874, 561.331 252.029, 564.500 251.434 C 566.425 251.073, 568 251.178, 568 251.668 C 568 252.157, 570.434 252.588, 573.410 252.625 C 577.552 252.677, 578.698 252.378, 578.303 251.347 C 577.977 250.497, 578.518 250, 579.771 250 C 583.086 250, 584.368 247.523, 581.738 246.198 C 577.844 244.237, 567.585 241.138, 566.732 241.666 C 566.281 241.944, 565.355 241.709, 564.673 241.144 C 562.564 239.393, 558.158 238.029, 557.817 239.021 M 185.254 241.605 C 184.289 242.337, 183.870 242.951, 184.321 242.968 C 184.773 242.986, 184.511 243.632, 183.739 244.404 C 181.738 246.405, 181.555 254, 183.507 254 C 185.317 254, 185.492 255.653, 183.750 256.292 C 182.772 256.650, 182.763 257.029, 183.708 258.033 C 185.635 260.079, 187.920 257.519, 187.454 253.836 C 187.124 251.229, 187.349 250.858, 188.997 251.289 C 190.058 251.566, 191.413 251.208, 192.007 250.492 C 193.182 249.075, 187.603 245.510, 185.879 246.575 C 184.703 247.301, 184.786 244.879, 186 243 C 186.833 241.712, 186.972 241.742, 186.985 243.215 C 187.001 245.082, 190.495 247.430, 191.933 246.541 C 192.423 246.238, 192.494 244.755, 192.091 243.245 C 191.264 240.151, 188.153 239.405, 185.254 241.605 M -0 560.500 C -0 692.408, 0.227 800.107, 0.504 799.829 C 1.161 799.173, 1.157 321.823, 0.500 321.167 C 0.225 320.892, -0 428.592, -0 560.500 M 570.776 758.796 C 567.078 760.833, 563.136 763.288, 562.015 764.250 C 560.894 765.212, 559.397 766, 558.689 766 C 557.980 766, 556.973 766.397, 556.450 766.883 C 555.928 767.369, 546.950 772.119, 536.500 777.438 C 515.486 788.135, 513.489 789.364, 514.485 790.976 C 515.121 792.004, 519.208 790.033, 541.500 777.953 C 544.250 776.463, 549.200 773.786, 552.500 772.004 C 555.800 770.222, 559.006 768.359, 559.624 767.864 C 560.243 767.369, 564.855 764.911, 569.874 762.402 C 574.950 759.865, 579 757.210, 579 756.420 C 579 754.433, 578.367 754.615, 570.776 758.796 M 574.807 764.441 C 571.757 766.279, 568.302 768.087, 567.131 768.459 C 565.959 768.830, 565 769.520, 565 769.991 C 565 770.461, 559.038 773.796, 551.750 777.401 C 544.462 781.006, 537.375 784.615, 536 785.422 C 534.625 786.229, 531.333 788.099, 528.684 789.578 C 525.541 791.333, 524.208 792.608, 524.847 793.247 C 525.486 793.886, 530.112 791.887, 538.163 787.492 C 544.948 783.787, 551.850 780.066, 553.500 779.221 C 555.150 778.376, 560.550 775.367, 565.500 772.535 C 570.450 769.703, 576.188 766.521, 578.250 765.465 C 580.313 764.409, 582 763.224, 582 762.832 C 582 760.916, 579.866 761.394, 574.807 764.441 M 551 763.652 C 550.175 763.924, 548.600 764.497, 547.500 764.925 C 544.448 766.113, 515.650 780.392, 514.505 781.284 C 513.952 781.715, 512.601 782.691, 511.502 783.452 C 510.402 784.214, 509.785 785.119, 510.130 785.464 C 510.680 786.014, 534.698 774.491, 536 773.052 C 536.275 772.749, 539.212 771.228, 542.526 769.673 C 545.841 768.118, 549.666 765.991, 551.026 764.945 C 553.575 762.987, 553.572 762.805, 551 763.652" stroke="none" fill="black" fill-rule="evenodd"/>
</svg>