<svg xmlns="http://www.w3.org/2000/svg" width="600" height="800" viewBox="0 0 600 800" version="1.1">
	<path d="M -0 18.893 C -0 35.161, 0.219 37.870, 1.574 38.390 C 3.007 38.940, 3.007 39.136, 1.574 40.569 C -0.415 42.558, -0.384 42.952, 2 46 C 4.486 49.179, 4.488 50, 2.007 50 C 0.021 50, 0.015 51.130, 0.007 425 L -0.001 800 51.558 800 C 85.677 800, 102.909 799.662, 102.500 799 C 101.699 797.704, 103.301 797.701, 104.596 798.996 C 105.253 799.653, 189.774 799.908, 353.046 799.746 L 600.500 799.500 600.718 399.710 L 600.937 -0.080 558.004 0.061 C 517.551 0.194, 515.037 0.307, 514.497 2.009 C 513.551 4.990, 511.066 5.240, 509.809 2.480 L 508.679 -0 468.923 -0 C 438.096 0, 429.036 0.281, 428.583 1.250 C 428.117 2.250, 427.883 2.250, 427.417 1.250 C 426.960 0.272, 414.771 0, 371.408 0 C 317.780 0, 316.020 0.060, 317.136 1.845 C 319.683 5.925, 311.749 17.992, 307.572 16.389 C 305.752 15.691, 305.861 16.063, 305.463 9.174 C 305.069 2.355, 304.322 0.278, 302.807 1.793 C 301.474 3.126, 301.045 8.841, 302.111 11.054 C 302.523 11.909, 302.500 13.191, 302.059 13.904 C 301.115 15.432, 297 12.471, 297 10.264 C 297 9.554, 296.438 8.020, 295.750 6.856 C 294.750 5.162, 294.750 4.648, 295.750 4.286 C 298.528 3.280, 296.741 2.038, 292.838 2.261 C 286.052 2.650, 284.587 15, 291.328 15 C 291.983 15, 293.081 15.900, 293.768 17 C 294.455 18.100, 294.590 19, 294.067 19 C 293.545 19, 292.829 18.532, 292.475 17.959 C 292.121 17.387, 290.970 17.192, 289.916 17.527 C 288.473 17.985, 288 17.651, 288 16.174 C 288 15.096, 287.325 13.955, 286.500 13.638 C 285.675 13.322, 285 12.304, 285 11.376 C 285 9.804, 284.876 9.802, 283.165 11.351 C 281.071 13.245, 275 11.159, 275 8.545 C 275 6.932, 281.310 2, 283.374 2 C 284.203 2, 285.160 1.550, 285.500 1 C 285.905 0.345, 278.694 -0, 264.609 -0 C 248.162 -0, 242.911 0.303, 242.300 1.286 C 241.064 3.274, 235.889 7, 234.365 7 C 232.794 7, 232.504 3.425, 234 2.500 C 236.840 0.745, 234.043 -0, 224.617 -0 C 214.736 -0, 214.197 0.109, 213.490 2.250 L 212.746 4.500 212.303 2.250 C 211.942 0.413, 211.197 -0, 208.242 -0 L 204.623 -0 206.895 2.117 C 209.402 4.453, 208.909 5.409, 204.681 6.407 C 202.359 6.955, 201.894 6.758, 202.046 5.286 C 202.628 -0.357, 200.647 -1.647, 197 2 C 194.626 4.374, 194.422 6, 196.500 6 C 197.425 6, 198 6.939, 198 8.450 C 198 9.798, 198.720 11.304, 199.600 11.796 C 202.389 13.357, 201.827 24.859, 198.850 27.148 C 195.411 29.793, 195.204 29.564, 195.264 23.179 C 195.304 19.022, 194.661 16.041, 193.018 12.751 C 191.297 9.304, 190.855 7.118, 191.264 4.072 L 191.810 0 173.848 0 L 155.887 0 157.415 2.182 C 158.505 3.739, 158.643 4.726, 157.893 5.628 C 156.520 7.284, 150.285 4.474, 149.443 1.820 C 148.709 -0.493, 109.651 -1.037, 108.583 1.250 C 108.117 2.250, 107.883 2.250, 107.417 1.250 C 105.919 -1.958, 99 -0.197, 99 3.393 C 99 5.572, 98.431 7.004, 97.410 7.396 C 94.804 8.396, 93.777 7.001, 94.456 3.385 C 95.095 -0.024, 92.864 -1.729, 91.662 1.250 C 91.259 2.250, 91.142 2.250, 91.079 1.250 C 90.843 -2.492, 86 0.073, 86 3.941 C 86 6.109, 85.480 8.203, 84.844 8.596 C 84.018 9.107, 83.867 8.413, 84.317 6.166 C 85.547 0.014, 85.508 0, 66.593 0 C 54.234 0, 49.051 0.349, 48.158 1.242 C 47.309 2.091, 46.693 2.149, 46.208 1.427 C 44.490 -1.136, 32 -0.190, 32 2.503 C 32 3.958, 31.425 5, 30.622 5 C 28.346 5, 22 2.046, 22 0.987 C 22 -0.989, 14.550 -0.110, 13.218 2.023 C 12.186 3.675, 11.584 3.848, 9.934 2.965 C 8.274 2.076, 7.572 2.295, 5.991 4.192 C 3.688 6.955, 3.342 5.385, 5.557 2.223 C 7.078 0.051, 7.032 0, 3.557 0 L 0 0 -0 18.893 M 314.500 19.668 C 309.576 20.740, 307.817 22.333, 308.390 25.200 C 308.962 28.059, 306.066 32, 303.395 32 C 302.719 32, 301.975 32.563, 301.740 33.250 C 301.415 34.200, 300.615 34.244, 298.406 33.433 C 290.269 30.445, 281.639 42.040, 287.101 48.622 C 288.946 50.845, 290.097 48.824, 289.055 45.191 C 288.239 42.347, 288.418 41.772, 290.557 40.371 C 293.436 38.484, 295.957 39.148, 295.566 41.689 C 295.413 42.685, 295.480 42.938, 295.717 42.250 C 297.553 36.909, 301.316 44.777, 299.743 50.669 C 298.404 55.684, 299.401 60, 301.897 60 C 302.919 60, 304.288 60.642, 304.939 61.427 C 305.726 62.374, 307.237 62.673, 309.435 62.317 C 313.425 61.669, 314.880 63.371, 312.543 65.953 C 311.604 66.991, 311.021 68.999, 311.195 70.604 C 311.569 74.066, 308.608 75.136, 306.395 72.338 C 305.023 70.603, 304.957 70.635, 305.221 72.908 C 305.704 77.073, 312.344 79.808, 316.516 77.562 C 324.419 73.305, 326.490 50, 318.965 50 C 316.074 50, 316.399 45.509, 319.484 42.827 C 321.423 41.141, 321.718 40.365, 320.827 39.291 C 319.970 38.259, 319.974 37.626, 320.842 36.758 C 322.280 35.320, 322.371 23.561, 320.965 20.934 C 319.955 19.048, 318.582 18.779, 314.500 19.668 M 251.973 22.727 C 246.312 26.682, 241.129 35.288, 242.405 38.613 C 242.884 39.861, 243.336 39.966, 244.406 39.078 C 245.470 38.195, 246.182 38.325, 247.500 39.643 C 248.866 41.008, 249.546 41.116, 250.856 40.175 C 251.760 39.526, 253.434 38.587, 254.575 38.089 C 258.031 36.580, 259.828 32.822, 259.510 27.770 C 259.057 20.568, 257.017 19.203, 251.973 22.727 M 218.954 48.927 C 213.448 50.638, 210.817 54.325, 212.579 57.859 C 214.362 61.432, 216.517 61.954, 217.290 59 C 217.597 57.825, 218.654 57, 219.851 57 C 220.971 57, 223.151 55.902, 224.694 54.561 C 229.310 50.548, 225.565 46.873, 218.954 48.927 M 0.479 138 C 0.479 186.675, 0.601 206.588, 0.750 182.250 C 0.899 157.913, 0.899 118.088, 0.750 93.750 C 0.601 69.413, 0.479 89.325, 0.479 138 M 261 58.809 C 261 60.550, 263.924 63.486, 265.664 63.493 C 266.825 63.497, 267.398 64.118, 267.222 65.181 C 267.028 66.352, 267.787 66.977, 269.722 67.241 C 272.570 67.629, 272.406 67.787, 267.250 69.623 C 265.854 70.120, 266.095 70.417, 268.440 71.088 C 270.161 71.580, 271.851 71.539, 272.514 70.988 C 273.237 70.388, 274.074 70.474, 274.824 71.224 C 275.725 72.125, 276 71.816, 276 69.900 C 276 68.525, 276.456 66.944, 277.013 66.387 C 278.720 64.680, 276.185 59.021, 273.652 58.882 C 268.133 58.578, 267.103 59.351, 269.500 62 C 272.716 65.554, 270.487 65.097, 266.985 61.485 C 263.826 58.225, 261 56.961, 261 58.809 M 390.690 71.750 C 390.455 72.162, 389.719 74.188, 389.054 76.250 C 387.701 80.447, 386.925 80.782, 384.402 78.259 C 383.237 77.094, 382.532 76.905, 382.271 77.686 C 382.028 78.417, 380.641 78.654, 378.568 78.317 C 376.745 78.022, 374.965 78.248, 374.611 78.821 C 373.887 79.992, 375.729 81.434, 378 81.474 C 379.057 81.492, 379.455 82.475, 379.347 84.801 C 379.148 89.088, 380.938 88.532, 383.309 83.570 C 384.303 81.488, 385.380 80.047, 385.701 80.368 C 386.022 80.689, 385.732 81.618, 385.056 82.432 C 383.152 84.726, 384.425 85.560, 389.245 85.177 L 393.664 84.825 395.855 78.736 C 397.578 73.949, 397.774 72.474, 396.773 71.839 C 395.163 70.817, 391.255 70.760, 390.690 71.750 M 382.572 87.673 C 382.221 88.587, 382.399 89.799, 382.967 90.367 C 384.578 91.978, 384.190 93, 381.969 93 C 379.471 93, 378.501 95.199, 379.870 97.756 C 381.347 100.518, 386.824 99.593, 388.047 96.376 C 389.147 93.484, 391 93.248, 391 96 C 391 97.100, 391.450 98, 392 98 C 392.550 98, 393 97.116, 393 96.035 C 393 93.948, 395.725 91.991, 397.658 92.688 C 399.195 93.242, 400.155 91.567, 399.411 89.628 C 398.515 87.294, 395.552 86.754, 391.044 88.105 C 386.627 89.428, 386.068 90.358, 388.750 91.920 C 390.246 92.791, 390.101 92.944, 387.750 92.970 C 385.366 92.996, 385 92.608, 385 90.059 C 385 86.678, 383.514 85.218, 382.572 87.673 M 500.473 102.044 C 500.148 102.570, 497.840 103, 495.345 103 C 487.991 103, 482.633 107.601, 487.438 109.790 C 490.400 111.140, 493.309 115.716, 490.526 114.648 C 487.745 113.581, 486.673 115.083, 489.035 116.737 C 490.524 117.780, 491.430 117.923, 491.885 117.186 C 492.588 116.049, 495.469 117.255, 495.536 118.714 C 495.707 122.473, 498.263 123.589, 501.068 121.127 C 504 118.554, 504.070 117, 501.253 117 C 496.267 117, 491.035 110.723, 493.631 107.855 C 495.909 105.338, 496.829 105.516, 498.260 108.750 C 502.341 117.973, 505.733 114.870, 504.157 103.357 C 503.946 101.820, 501.213 100.846, 500.473 102.044 M 0.467 283.500 C 0.467 314.300, 0.594 327.044, 0.749 311.821 C 0.904 296.598, 0.905 271.398, 0.749 255.821 C 0.594 240.244, 0.467 252.700, 0.467 283.500 M 168.667 269.667 C 165.557 272.777, 170.249 283.007, 173.892 281.058 C 176.750 279.528, 177.057 279.719, 176.041 282.393 C 173.865 288.116, 177.059 293.996, 181.576 292.582 C 185.596 291.324, 185.886 289.474, 183 283.500 C 181.937 281.300, 181.053 278.980, 181.034 278.345 C 181.015 277.709, 180.017 275.346, 178.814 273.094 L 176.629 269 174.064 271.250 C 172.654 272.487, 171.834 273.091, 172.241 272.592 C 173.624 270.898, 170.220 268.113, 168.667 269.667 M 0.492 570 C 0.492 696.775, 0.608 748.637, 0.750 685.250 C 0.892 621.862, 0.892 518.137, 0.750 454.750 C 0.608 391.362, 0.492 443.225, 0.492 570 M 477.576 616.338 C 477.859 617.074, 482.007 619.652, 486.795 622.066 C 491.583 624.481, 499.325 628.539, 504 631.085 C 513.816 636.429, 517.437 637.812, 516.828 635.985 C 516.346 634.539, 513.413 632.853, 493.652 622.659 C 478.224 614.701, 476.721 614.110, 477.576 616.338 M 431 619.819 C 431 620.856, 439.717 627, 441.188 627 C 441.654 627, 445.289 628.969, 449.267 631.376 C 457.891 636.594, 472.479 644, 474.133 644 C 476.187 644, 472.012 640.220, 469.176 639.512 C 467.704 639.145, 465.825 638.267, 465 637.561 C 464.175 636.855, 459.675 634.248, 455 631.768 C 450.325 629.288, 443.012 625.361, 438.750 623.043 C 434.488 620.724, 431 619.273, 431 619.819 M 424.500 624.452 C 426.150 625.856, 428.400 627.289, 429.500 627.637 C 430.600 627.985, 431.725 628.546, 432 628.885 C 432.453 629.442, 434.440 630.559, 444.796 636.075 C 446.608 637.041, 448.633 638.257, 449.296 638.779 C 449.958 639.300, 453.875 641.527, 458 643.728 C 462.125 645.929, 467.188 648.735, 469.250 649.964 C 472.395 651.837, 473 651.942, 473 650.616 C 473 649.746, 470.863 647.890, 468.250 646.493 C 465.637 645.095, 462.150 643.141, 460.500 642.151 C 458.850 641.160, 455.025 638.986, 452 637.320 C 446.832 634.474, 443.767 632.780, 431.500 625.991 C 423.988 621.833, 420.526 621.072, 424.500 624.452 M 546.036 626.457 C 548.753 629.162, 593 651.167, 592.995 649.812 C 592.991 648.622, 547.807 625, 545.536 625 C 545.005 625, 545.230 625.656, 546.036 626.457 M 550.271 635.337 C 550.671 636.560, 559.379 641.634, 567 645.084 C 569.475 646.204, 573.750 648.170, 576.500 649.453 C 589.481 655.506, 591.135 656.198, 591.576 655.757 C 592.509 654.824, 586.704 651.522, 573.500 645.475 C 570.200 643.964, 563.538 640.803, 558.696 638.450 C 553.853 636.098, 550.062 634.697, 550.271 635.337 M 356.550 635.826 C 359.123 638.064, 369.374 644.187, 376.674 647.848 C 381.170 650.102, 385.134 652.408, 385.483 652.973 C 385.832 653.538, 387.168 654, 388.452 654 C 389.736 654, 391.045 654.675, 391.362 655.500 C 391.678 656.325, 392.878 657, 394.028 657 C 397.136 657, 395.707 655.574, 388.747 651.730 C 385.311 649.832, 380.925 647.390, 379 646.303 C 363.088 637.316, 352.674 632.456, 356.550 635.826 M 351 640.500 C 351 641.325, 351.504 642, 352.119 642 C 352.735 642, 355.772 643.516, 358.869 645.368 C 361.966 647.220, 370.350 651.763, 377.500 655.462 C 384.650 659.162, 390.928 662.596, 391.450 663.094 C 392.639 664.228, 394 664.268, 394 663.169 C 394 662.712, 392.770 661.699, 391.267 660.919 C 389.765 660.139, 386.287 658.038, 383.540 656.250 C 380.793 654.462, 378.012 653, 377.360 653 C 376.708 653, 373.773 651.411, 370.837 649.468 C 367.902 647.526, 363.164 644.825, 360.308 643.467 C 357.452 642.108, 354.838 640.547, 354.499 639.998 C 353.545 638.455, 351 638.820, 351 640.500 M 347.250 646.249 C 347.479 646.936, 351.982 649.749, 357.257 652.499 C 362.532 655.250, 370.018 659.413, 373.893 661.750 C 381.044 666.063, 383.471 666.913, 382.788 664.865 C 382.411 663.733, 372.736 657.866, 368.002 655.899 C 366.628 655.328, 364.828 654.271, 364.002 653.550 C 359.055 649.234, 346.407 643.722, 347.250 646.249" stroke="none" fill="black" fill-rule="evenodd"/>
</svg>