<svg xmlns="http://www.w3.org/2000/svg" width="1536" height="2049" viewBox="0 0 1536 2049" version="1.1">
	<path d="M 687.218 1.751 C 683.214 1.937, 680.162 2.454, 680.438 2.900 C 680.714 3.346, 679.754 3.485, 678.306 3.208 C 676.205 2.806, 675.795 3.025, 676.281 4.289 C 676.664 5.289, 676.263 6.040, 675.195 6.321 C 674.263 6.567, 675.075 6.868, 677 6.991 L 680.500 7.214 676.250 8.166 C 671.879 9.145, 670.203 12, 674 12 C 676.634 12, 676.579 14.681, 673.928 15.523 C 672.784 15.886, 672.078 16.761, 672.352 17.476 C 672.626 18.188, 672.182 19.723, 671.367 20.887 C 670.551 22.051, 670.142 23.421, 670.458 23.931 C 670.773 24.442, 669.449 25.431, 667.516 26.131 C 665.238 26.954, 664 28.046, 664 29.232 C 664 30.239, 663.325 31.322, 662.500 31.638 C 661.522 32.014, 661 33.569, 661 36.107 C 661 40.477, 662.949 41.543, 663.090 37.250 C 663.180 34.524, 663.188 34.528, 664.102 37.686 C 664.651 39.581, 665.906 41.153, 667.199 41.563 C 669.197 42.197, 669.236 42.354, 667.676 43.495 C 666.204 44.571, 666.171 44.897, 667.429 45.941 C 668.228 46.604, 668.640 47.901, 668.346 48.823 C 667.925 50.142, 668.021 50.206, 668.794 49.122 C 670.339 46.954, 671.996 48.770, 671.363 51.937 L 670.791 54.796 675.729 54.530 C 680.563 54.269, 680.667 54.324, 680.667 57.140 C 680.667 58.722, 681.567 61.025, 682.667 62.258 C 687.002 67.118, 689.844 81.089, 686.750 82.338 C 685.750 82.741, 685.750 82.858, 686.750 82.921 C 688.682 83.043, 688.227 85.377, 686 86.768 C 684.900 87.455, 684 88.943, 684 90.076 C 684 91.680, 683.558 91.994, 682 91.500 C 680.853 91.136, 680 91.320, 680 91.933 C 680 92.520, 680.900 93, 682 93 C 685.696 93, 684.043 94.999, 680.250 95.116 C 678.188 95.180, 677.299 95.440, 678.276 95.694 C 679.373 95.980, 679.982 96.986, 679.870 98.328 C 679.395 104.028, 679.996 106.589, 681.381 104.766 C 682.839 102.845, 684 103.413, 684 106.049 C 684 107.384, 683.082 107.777, 679.861 107.821 C 674.922 107.890, 671.974 109.935, 676.550 110.118 C 678.173 110.184, 679.812 110.192, 680.192 110.138 C 680.573 110.083, 681.803 111.206, 682.926 112.633 C 684.167 114.211, 685.560 114.999, 686.483 114.645 C 687.698 114.179, 688.023 115.002, 688.116 118.781 C 688.180 121.377, 688.438 122.713, 688.689 121.750 C 689.328 119.304, 691.486 119.568, 692.780 122.250 C 693.859 124.487, 693.865 124.488, 693.932 122.357 C 694.010 119.890, 696.038 118.778, 698.091 120.077 C 699.229 120.798, 699.163 120.972, 697.750 120.985 C 696.788 120.993, 696 121.675, 696 122.500 C 696 123.583, 697.111 124, 700 124 C 703.041 124, 704 123.607, 704 122.360 C 704 120.970, 704.838 120.807, 709.500 121.288 C 712.622 121.610, 715 121.454, 715 120.928 C 715 120.417, 713.464 120, 711.587 120 C 708.210 120, 708.186 119.969, 709.306 117 C 710.684 113.350, 712 113.106, 712 116.500 C 712 118.814, 712.354 119.001, 716.750 119.015 C 720.185 119.026, 721.085 119.299, 720 120 C 719.175 120.533, 718.976 120.976, 719.559 120.985 C 720.141 120.993, 721.458 120.386, 722.485 119.634 C 724.174 118.400, 724.527 118.612, 726.176 121.846 C 728.456 126.317, 728.472 127.740, 726.250 128.272 C 724.679 128.648, 724.705 128.777, 726.500 129.537 C 729.091 130.634, 734.502 136, 733.018 136 C 732.393 136, 732.174 136.472, 732.530 137.049 C 732.973 137.765, 733.624 137.727, 734.589 136.926 C 735.697 136.006, 736 136.078, 736 137.261 C 736 138.089, 736.940 139.013, 738.090 139.313 C 739.652 139.722, 740.018 140.369, 739.538 141.879 C 738.923 143.817, 739.019 143.837, 741.961 142.370 C 745.947 140.381, 748.422 141.187, 744.556 143.214 L 741.613 144.759 746.014 145.502 L 750.415 146.246 748.097 148.123 L 745.778 150 748.639 150.070 C 751.842 150.149, 756.498 151.791, 754 151.962 C 752.774 152.045, 752.820 152.306, 754.250 153.392 C 756.560 155.146, 756.458 155.880, 753.750 156.969 C 751.570 157.845, 751.584 157.875, 754.191 157.937 C 755.671 157.971, 757.161 158.452, 757.502 159.004 C 757.843 159.556, 759.107 159.846, 760.311 159.649 C 761.515 159.453, 761.938 159.484, 761.250 159.719 C 760.563 159.954, 760 160.564, 760 161.073 C 760 161.583, 759.100 162, 758 162 C 755.768 162, 755.326 164.213, 757.250 165.760 C 759.106 167.254, 764.909 166.039, 766.043 163.920 C 766.613 162.855, 767.659 162.316, 768.515 162.644 C 770.171 163.280, 770.564 166, 769 166 C 768.450 166, 768 167.350, 768 169 C 768 170.898, 768.512 172, 769.393 172 C 770.772 172, 772.492 174.724, 772.130 176.336 C 772.027 176.796, 772.856 177.411, 773.971 177.703 C 775.087 177.995, 776 178.599, 776 179.047 C 776 179.495, 776.997 180.005, 778.217 180.180 C 779.732 180.399, 780.725 181.521, 781.355 183.726 C 782.702 188.444, 788.918 189.617, 787.690 184.922 C 787.231 183.165, 789.505 181.580, 791.646 182.164 C 792.116 182.292, 793.546 182.041, 794.823 181.607 C 796.514 181.033, 797.485 181.281, 798.390 182.518 C 800.858 185.894, 806.192 182.289, 804.501 178.386 C 804.052 177.349, 803.767 175.971, 803.869 175.325 C 803.970 174.679, 803.614 173.879, 803.077 173.547 C 801.670 172.678, 799.777 176.722, 800.510 179.031 C 801.368 181.735, 798.640 180.625, 796.537 177.416 C 795.034 175.122, 791.150 173.816, 792.546 176.074 C 792.911 176.664, 792.271 176.562, 791.124 175.845 C 787.304 173.460, 787.416 169.628, 791.342 168.403 C 793.684 167.673, 794.961 166.217, 794.985 164.250 C 795.008 162.330, 792.196 162.768, 791.773 164.750 C 791.485 166.098, 791.009 165.764, 789.700 163.300 C 787.543 159.239, 787.431 154, 789.500 154 C 790.500 154, 791 155, 791 157 C 791 158.650, 791.450 160, 792 160 C 792.550 160, 793 158.200, 793 156 C 793 152.667, 792.667 152, 791 152 C 789.684 152, 789 151.333, 789 150.050 C 789 146.979, 791.872 145.971, 795.581 147.740 C 798.104 148.943, 799.454 149.038, 801.904 148.183 L 805.020 147.097 803.260 149.462 C 802.077 151.052, 800.681 151.735, 799 151.548 C 797.625 151.395, 797.288 151.465, 798.250 151.704 C 799.212 151.944, 800 152.613, 800 153.192 C 800 153.831, 800.606 153.742, 801.542 152.965 C 802.711 151.995, 803.366 151.966, 804.242 152.842 C 805.827 154.427, 807 154.295, 807 152.531 C 807 151.592, 807.580 151.285, 808.609 151.680 C 810.089 152.248, 810.089 152.371, 808.609 153.199 C 807.724 153.694, 807 154.779, 807 155.609 C 807 156.439, 807.478 156.822, 808.063 156.461 C 808.648 156.100, 809.885 156.477, 810.813 157.299 C 811.741 158.121, 813.400 159.013, 814.500 159.281 C 816.261 159.710, 816.222 159.782, 814.177 159.884 C 810.244 160.080, 811.885 163.366, 816.272 164.079 C 821.338 164.903, 821.545 165.251, 821.179 172.332 C 820.827 179.136, 819.192 184, 817.256 184 C 816.530 184, 816 185.253, 816 186.969 C 816 189.197, 816.374 189.794, 817.500 189.362 C 818.325 189.045, 819 188.384, 819 187.893 C 819 187.402, 820.125 187, 821.500 187 C 824.349 187, 824.890 185.353, 822.250 184.718 C 821.288 184.486, 822.143 184.487, 824.151 184.719 C 826.741 185.019, 827.785 184.758, 827.743 183.821 C 827.428 176.668, 828.070 174, 830.107 174 C 831.721 174, 832.046 174.409, 831.494 175.750 C 829.641 180.251, 829.631 181.356, 831.451 180.657 C 832.796 180.141, 833.075 180.361, 832.611 181.570 C 832.275 182.447, 832 185.152, 832 187.582 C 832 191.965, 831.972 192, 828.500 192 C 825.071 192, 824.997 192.087, 824.858 196.250 L 824.716 200.500 824 196.500 C 823.295 192.564, 822.803 192.564, 822.602 196.500 C 822.546 197.600, 821.825 198.500, 821 198.500 C 819.946 198.500, 819.590 197.652, 819.804 195.649 C 820.016 193.657, 819.715 192.930, 818.804 193.237 C 818.087 193.479, 817.500 194.609, 817.500 195.748 C 817.500 198.055, 816.018 200.156, 815.970 197.917 C 815.948 196.900, 815.651 196.994, 814.920 198.250 C 813.533 200.631, 812.205 200.450, 811.820 197.828 C 811.644 196.634, 810.874 195.450, 810.108 195.198 C 809.081 194.859, 808.848 195.427, 809.220 197.369 C 809.631 199.522, 809.348 200, 807.661 200 C 806.058 200, 805.867 200.267, 806.800 201.200 C 807.460 201.860, 808.010 203.322, 808.022 204.450 C 808.043 206.369, 808.171 206.340, 810.022 204 L 812 201.500 813.978 204 C 816.763 207.520, 816.590 210, 813.559 210 C 809.951 210, 809.817 211.189, 813.012 214.849 C 814.588 216.653, 816.044 218.631, 816.248 219.245 C 816.453 219.858, 817.380 220.068, 818.310 219.711 C 820.689 218.798, 820.469 214.935, 818 214.290 C 813.819 213.196, 817.701 208, 822.699 208 C 823.415 208, 824 207.495, 824 206.878 C 824 206.060, 824.375 206.066, 825.382 206.902 C 827.967 209.047, 832.710 207.934, 832.207 205.301 C 831.679 202.542, 831.135 202.434, 829.442 204.748 C 827.720 207.104, 826.247 205.436, 827.822 202.914 C 828.507 201.816, 828.814 200.508, 828.503 200.005 C 827.172 197.852, 829.118 194.057, 830.963 195.209 C 834.367 197.335, 836 195.520, 836 189.615 C 836 186.235, 835.540 184.013, 834.788 183.763 C 834.121 183.540, 835.021 182.637, 836.788 181.756 C 839.281 180.512, 840 180.446, 840 181.460 C 840 182.767, 842.954 183.961, 846.250 183.986 C 847.212 183.994, 848 183.432, 848 182.737 C 848 182.043, 849.011 181.030, 850.247 180.487 C 851.599 179.894, 852.695 178.337, 852.997 176.582 C 853.618 172.978, 855.974 171.890, 856.063 175.167 C 856.126 177.474, 856.137 177.476, 856.993 175.352 C 857.470 174.171, 858.361 172.895, 858.974 172.516 C 860.475 171.588, 863.220 173.983, 862.577 175.660 C 862.294 176.397, 862.499 177, 863.031 177 C 863.564 177, 864 176.100, 864 175 C 864 173.876, 864.667 173, 865.521 173 C 866.358 173, 867.555 171.875, 868.182 170.500 C 869.548 167.503, 872.560 167.208, 873.290 170 C 873.897 172.324, 875.814 172.648, 876.614 170.563 C 876.917 169.773, 877.803 169.371, 878.583 169.670 C 879.443 170, 880 169.583, 880 168.607 C 880 167.076, 882.092 166.481, 886.250 166.830 C 887.212 166.910, 888 166.532, 888 165.988 C 888 165.445, 886.677 165, 885.059 165 C 883.441 165, 881.833 164.539, 881.485 163.976 C 881.070 163.305, 882.238 163.174, 884.879 163.597 C 887.093 163.951, 890.614 163.904, 892.702 163.492 L 896.500 162.744 893.637 161.751 C 891.482 161.004, 891.111 160.540, 892.137 159.879 C 893.274 159.146, 893.256 158.843, 892.029 158.054 C 891.220 157.534, 890.892 156.775, 891.299 156.367 C 892.346 155.321, 896 155.165, 896 156.167 C 896 156.625, 896.933 157, 898.073 157 C 900.881 157, 900.229 153.769, 897.275 153.044 C 895.592 152.631, 895.289 152.140, 896.015 151 C 896.649 150.003, 896.975 149.919, 896.985 150.750 C 896.993 151.438, 897.450 152, 898 152 C 898.550 152, 899 151.325, 899 150.500 C 899 149.675, 899.450 149, 900 149 C 900.550 149, 901 147.965, 901 146.700 C 901 145.435, 901.488 143.912, 902.085 143.315 C 903.798 141.602, 902.758 137.567, 900.500 137.163 C 899.400 136.967, 898.050 136.352, 897.500 135.798 C 896.829 135.121, 897.650 135.004, 900 135.442 C 903.257 136.049, 903.368 135.989, 901.597 134.575 C 899.879 133.203, 899.854 132.993, 901.347 132.421 C 903.442 131.616, 903.515 129, 901.441 129 C 900.584 129, 900.174 128.528, 900.530 127.951 C 900.932 127.302, 901.620 127.252, 902.339 127.821 C 903.060 128.391, 904.826 128.249, 907 127.445 L 910.500 126.152 906.750 126.076 C 903.315 126.006, 903.010 125.769, 903.116 123.250 C 903.187 121.558, 903.408 121.173, 903.689 122.250 C 903.993 123.414, 905.127 124, 907.073 124 C 910.153 124, 911.267 122.046, 908.250 121.937 C 907.019 121.892, 907.236 121.580, 908.982 120.883 C 910.627 120.227, 911.576 120.229, 911.797 120.890 C 911.980 121.439, 912.747 121.651, 913.501 121.361 C 914.256 121.071, 914.663 120.285, 914.406 119.614 C 914.148 118.943, 914.622 116.756, 915.459 114.753 C 916.295 112.750, 916.711 110.412, 916.383 109.556 C 915.959 108.451, 916.397 108, 917.893 108 C 920.295 108, 920.721 106.491, 918.555 105.659 C 916.671 104.936, 918.141 99.350, 920.712 97.464 C 922.198 96.374, 922.767 96.393, 924.079 97.576 C 926.139 99.434, 926.756 99.372, 927.311 97.250 C 927.655 95.933, 927.797 96.057, 927.884 97.750 C 927.948 98.987, 928.502 100, 929.117 100 C 929.741 100, 930.003 99.118, 929.710 98 C 929.133 95.793, 931.478 95.124, 932.341 97.250 C 933.111 99.150, 934.870 96.220, 934.290 94.002 C 934.035 93.025, 934.315 91.923, 934.913 91.554 C 935.601 91.129, 936 91.952, 936 93.795 L 936 96.708 942.140 96.360 C 945.517 96.169, 948.887 95.509, 949.627 94.894 C 950.368 94.279, 951.755 94.076, 952.709 94.442 C 954.193 95.011, 954.231 95.242, 952.972 96.038 C 951.944 96.689, 952.949 96.974, 956.309 96.985 C 958.965 96.993, 960.865 96.590, 960.553 96.085 C 960.242 95.582, 960.553 94.942, 961.244 94.662 C 962.195 94.276, 962.135 93.891, 961 93.076 C 959.667 92.120, 959.667 91.889, 961 91 C 962.055 90.297, 962.166 89.777, 961.376 89.250 C 960.658 88.771, 961.653 87.509, 964.126 85.760 C 966.257 84.252, 968 83.465, 968 84.010 C 968 84.554, 969.350 85, 971 85 C 972.704 85, 973.892 84.514, 973.750 83.875 C 973.613 83.256, 974.063 82.544, 974.750 82.292 C 975.462 82.031, 976 82.623, 976.001 83.667 C 976.002 85.171, 976.512 84.961, 978.840 82.500 C 980.630 80.607, 981.495 78.799, 981.183 77.600 C 980.891 76.479, 981.418 75.167, 982.470 74.398 C 984.168 73.157, 984.152 72.904, 982.126 69.017 C 979.272 63.541, 979.181 63.649, 986 64.420 C 991.044 64.991, 992 64.852, 992 63.550 C 992 62.697, 992.440 62, 992.977 62 C 994.863 62, 997.400 57, 996.149 55.749 C 994.257 53.857, 994.841 52.922, 997.500 53.589 C 999.040 53.976, 1000 53.791, 1000 53.108 C 1000 52.499, 999.273 52, 998.383 52 C 997.272 52, 996.926 51.390, 997.277 50.048 C 997.558 48.974, 997.423 47.962, 996.977 47.798 C 996.532 47.634, 995.842 45.747, 995.445 43.605 C 994.925 40.799, 995.041 39.907, 995.862 40.414 C 996.488 40.801, 997 42.216, 997 43.559 C 997 47.020, 998.686 46.594, 999.213 43 C 999.455 41.350, 999.282 40, 998.827 40 C 997.534 40, 997.852 37.503, 999.545 34.364 L 1001.089 31.500 1000.543 35.500 C 1000.243 37.700, 1000.260 38.937, 1000.582 38.250 C 1001.395 36.511, 1003.942 36.685, 1004.649 38.528 C 1005.384 40.443, 1009 42.527, 1009 41.035 C 1009 40.466, 1008.325 40, 1007.500 40 C 1006.675 40, 1006 39.325, 1006 38.500 C 1006 37.675, 1006.450 37, 1007 37 C 1007.550 37, 1008 36.100, 1008 35 C 1008 33.900, 1008.461 33, 1009.025 33 C 1009.588 33, 1010.477 31.875, 1011 30.500 C 1012.422 26.761, 1013.480 27.445, 1014.910 33.028 C 1015.860 36.733, 1015.907 38.408, 1015.087 39.395 C 1014.256 40.397, 1014.342 41.039, 1015.428 41.940 C 1017.294 43.489, 1016.462 45.646, 1013.724 46.362 C 1010.513 47.202, 1012.470 48.349, 1016.824 48.178 C 1019.447 48.075, 1021.341 48.669, 1022.839 50.065 C 1024.042 51.185, 1025.473 51.826, 1026.019 51.488 C 1026.565 51.151, 1028.518 51.419, 1030.358 52.085 C 1033.324 53.157, 1033.935 53.065, 1035.727 51.273 C 1036.840 50.160, 1038.369 49.025, 1039.125 48.750 C 1040.292 48.326, 1040.292 48.042, 1039.125 46.875 C 1038.056 45.806, 1037.648 45.778, 1037.292 46.750 C 1036.084 50.044, 1035.180 47.244, 1035.102 39.966 C 1035.013 31.676, 1036.416 29.002, 1039.317 31.926 C 1040.230 32.846, 1040.131 32.978, 1038.886 32.504 C 1037.672 32.043, 1037.114 32.679, 1036.636 35.070 C 1035.737 39.564, 1035.814 40, 1037.500 40 C 1038.333 40, 1039 39.111, 1039 38 C 1039 36.900, 1039.502 36, 1040.117 36 C 1040.757 36, 1041.037 37.027, 1040.773 38.409 C 1040.443 40.134, 1040.694 40.671, 1041.656 40.302 C 1043.306 39.669, 1043.411 36.811, 1041.842 35.242 C 1040.966 34.366, 1040.997 33.709, 1041.971 32.535 C 1042.888 31.430, 1043.062 29.264, 1042.577 24.981 C 1042.026 20.108, 1042.183 18.867, 1043.411 18.396 C 1044.243 18.076, 1045.225 16.844, 1045.593 15.658 C 1045.961 14.471, 1047.112 12.293, 1048.151 10.818 L 1050.039 8.137 1047.269 7.746 C 1044.912 7.413, 1045.170 7.229, 1048.998 6.510 C 1051.471 6.045, 1052.934 5.478, 1052.248 5.249 C 1050.062 4.521, 1050.905 3.145, 1053.750 2.797 C 1055.263 2.612, 1048.536 2.110, 1038.803 1.681 C 1021.839 0.934, 1000.870 1.609, 1001.297 2.890 C 1001.408 3.225, 1001.050 3.500, 1000.500 3.500 C 999.950 3.500, 999.613 3.162, 999.750 2.750 C 999.888 2.337, 998.200 2, 996 2 C 993.800 2, 992.053 2.338, 992.118 2.750 C 992.451 4.855, 991.837 6, 990.378 6 C 989.105 6, 989.004 5.700, 989.910 4.609 C 992.797 1.130, 987.566 1.012, 839.623 1.214 C 759.805 1.324, 691.223 1.565, 687.218 1.751 M 1268.083 874.503 C 1265.654 875.917, 1263.179 877.666, 1262.583 878.390 C 1260.187 881.303, 1256.675 882.975, 1255.318 881.849 C 1254.593 881.247, 1254 881.148, 1254 881.628 C 1254 882.107, 1252.688 882.500, 1251.083 882.500 C 1249.479 882.500, 1248.242 882.080, 1248.333 881.567 C 1248.555 880.328, 1241.816 879.976, 1240.355 881.150 C 1239.726 881.656, 1238.611 881.942, 1237.879 881.785 C 1237.137 881.626, 1236.391 882.532, 1236.194 883.831 C 1235.859 886.035, 1235.766 886.063, 1234.501 884.333 C 1233.249 882.620, 1233.119 882.679, 1232.473 885.251 C 1231.665 888.471, 1230.036 888.854, 1229.290 886 C 1228.648 883.545, 1228.101 883.498, 1226.392 885.750 C 1224.655 888.039, 1224.669 889, 1226.441 889 C 1227.234 889, 1228.134 889.407, 1228.441 889.905 C 1229.074 890.929, 1222.383 890.668, 1219.837 889.570 C 1218.922 889.175, 1216.672 889.139, 1214.837 889.489 C 1213.002 889.838, 1209.362 890.379, 1206.750 890.690 C 1204.138 891, 1202 891.595, 1202 892.011 C 1202 894.865, 1172.199 899.240, 1169.277 896.815 C 1168.190 895.913, 1167.780 896.126, 1167.336 897.824 C 1166.653 900.436, 1165 899.701, 1165 896.786 C 1165 894.717, 1164.972 894.714, 1162.828 896.595 C 1161.634 897.643, 1160.993 897.925, 1161.404 897.222 C 1161.977 896.244, 1161.372 896.097, 1158.826 896.595 C 1156.997 896.953, 1154.777 897.327, 1153.892 897.427 C 1153.008 897.526, 1149.904 899.318, 1146.995 901.408 C 1143.886 903.642, 1141.960 904.547, 1142.322 903.604 C 1142.660 902.722, 1142.522 902, 1142.014 902 C 1141.506 902, 1140.788 903.611, 1140.419 905.580 C 1140.050 907.549, 1139.161 909.385, 1138.444 909.660 C 1137.726 909.935, 1136.702 911.417, 1136.166 912.953 C 1135.082 916.064, 1129 918.018, 1129 915.255 C 1129 914.486, 1128.325 913.182, 1127.500 912.357 C 1126.464 911.321, 1126 911.237, 1126 912.084 C 1126 912.934, 1125.464 912.840, 1124.250 911.774 C 1122.590 910.318, 1118.759 910.688, 1118.926 912.289 C 1119.122 914.169, 1118.896 914.383, 1118.078 913.092 C 1117.321 911.897, 1116.641 911.942, 1113.582 913.394 C 1111.600 914.335, 1109.456 914.782, 1108.819 914.388 C 1108.056 913.916, 1107.868 914.215, 1108.271 915.263 C 1109.103 917.431, 1106.746 919.346, 1105.176 917.776 C 1104.275 916.875, 1104 916.990, 1104 918.271 C 1104 919.661, 1103.291 919.842, 1099.777 919.350 C 1088.412 917.761, 1069.461 921.705, 1063 927.004 C 1060.392 929.143, 1056.187 931.335, 1053 932.217 C 1049.975 933.053, 1044.125 934.719, 1040 935.919 C 1035.875 937.118, 1030.871 938.239, 1028.881 938.410 C 1024.413 938.793, 1022.928 939.650, 1023.618 941.446 C 1023.955 942.324, 1022.489 943.801, 1019.601 945.494 C 1017.100 946.960, 1013.224 950.344, 1010.988 953.015 C 1006.833 957.978, 1002.264 960.327, 998.271 959.554 C 997.045 959.317, 995.781 959.545, 995.462 960.061 C 995.143 960.578, 992.632 961, 989.882 961 C 986.803 961, 985.119 961.384, 985.500 962 C 986.488 963.599, 984.830 963.156, 982.738 961.263 C 980.915 959.613, 980.754 959.616, 979.499 961.332 C 978.241 963.053, 978.148 963.041, 977.528 961.087 C 977.004 959.436, 976.617 959.277, 975.543 960.268 C 974.810 960.946, 974.395 961.806, 974.621 962.181 C 974.848 962.555, 974.575 963.144, 974.016 963.490 C 973.457 963.835, 972.986 963.304, 972.968 962.309 C 972.939 960.640, 972.812 960.655, 971.334 962.500 C 970.032 964.124, 969.844 964.171, 970.334 962.750 C 971.032 960.724, 970.611 960.602, 967.906 962.050 C 966.827 962.628, 966.197 963.510, 966.506 964.010 C 966.815 964.510, 965.637 964.421, 963.888 963.811 C 961.398 962.943, 960.250 963.002, 958.603 964.084 C 957.447 964.845, 954.250 965.544, 951.500 965.637 C 948.750 965.731, 944.588 966.394, 942.250 967.111 C 938.863 968.149, 936.844 968.170, 932.302 967.218 C 929.168 966.560, 926.356 966.405, 926.052 966.872 C 925.748 967.340, 923.308 968.046, 920.628 968.441 C 915.206 969.240, 909.166 972.054, 906.465 975.038 C 905.489 976.117, 904.221 977, 903.649 977 C 902.583 977, 894.937 981.909, 893.956 983.222 C 893.657 983.623, 892.307 984.074, 890.956 984.225 C 889.605 984.376, 887.905 985.063, 887.179 985.750 C 886.452 986.438, 884.647 987, 883.168 987 C 880.463 987, 875 991.128, 875 993.172 C 875 993.866, 873.561 994.070, 871.052 993.734 C 868.518 993.394, 866.457 993.694, 865.302 994.570 C 864.311 995.322, 862.706 995.951, 861.736 995.968 C 859.871 996.002, 858.888 996.423, 852.500 999.932 C 850.300 1001.140, 847.712 1002.377, 846.750 1002.681 C 845.788 1002.985, 845 1003.631, 845 1004.117 C 845 1004.602, 844.462 1005, 843.804 1005 C 843.146 1005, 840.909 1006.177, 838.833 1007.616 C 836.757 1009.054, 833.583 1010.355, 831.780 1010.506 C 829.976 1010.657, 827.882 1010.830, 827.128 1010.890 C 826.022 1010.979, 825.997 1011.291, 827 1012.500 C 828.118 1013.848, 827.728 1014.402, 825.838 1014.148 C 825.475 1014.099, 821.931 1015.163, 817.965 1016.512 C 813.998 1017.861, 810.358 1018.721, 809.876 1018.424 C 809.394 1018.126, 809 1018.359, 809 1018.941 C 809 1020.740, 807.261 1020.108, 806.742 1018.120 C 806.062 1015.520, 798.041 1015.241, 797.921 1017.813 C 797.869 1018.919, 797.664 1019.055, 797.324 1018.208 C 796.672 1016.583, 794 1018.524, 794 1020.622 C 794 1021.380, 793.587 1022, 793.082 1022 C 792.577 1022, 791.447 1022.275, 790.570 1022.611 C 789.445 1023.043, 789.145 1022.787, 789.547 1021.739 C 790.324 1019.715, 784.985 1020.620, 783.250 1022.807 C 782.217 1024.109, 781.988 1024.132, 781.930 1022.941 C 781.888 1022.087, 781.542 1022.313, 781.081 1023.495 C 780.652 1024.592, 779.671 1025.536, 778.901 1025.593 C 775.434 1025.847, 775 1026.121, 775 1028.059 C 775 1029.191, 774.550 1029.840, 774 1029.500 C 773.450 1029.160, 773 1029.281, 773 1029.768 C 773 1030.255, 771.650 1030.455, 770 1030.213 C 768.350 1029.971, 767 1030.205, 767 1030.732 C 767 1031.287, 764.604 1031.081, 761.313 1030.243 L 755.625 1028.795 753.725 1031.402 C 752.681 1032.837, 751.416 1033.757, 750.915 1033.447 C 749.588 1032.627, 744.094 1036.129, 743.431 1038.217 C 743.119 1039.199, 741.982 1040.474, 740.904 1041.051 C 739.826 1041.628, 739.184 1042.488, 739.476 1042.962 C 739.769 1043.435, 737.668 1045.687, 734.806 1047.965 C 731.945 1050.243, 728.943 1053.473, 728.134 1055.142 C 727.326 1056.811, 725.642 1058.566, 724.393 1059.041 C 723.144 1059.516, 721.628 1060.826, 721.026 1061.952 C 720.423 1063.078, 719.101 1064, 718.087 1064 C 715.286 1064, 714.136 1066.070, 713.902 1071.533 C 713.785 1074.265, 713.308 1077.260, 712.842 1078.189 C 712.329 1079.212, 712.411 1080.136, 713.050 1080.531 C 714.836 1081.635, 713.576 1083.213, 709.973 1084.383 C 705.738 1085.759, 702.179 1091.690, 701.341 1098.770 C 700.665 1104.481, 699.105 1105.824, 692.837 1106.098 C 687.274 1106.341, 684.220 1108.241, 683.819 1111.710 C 683.535 1114.160, 682.900 1114.596, 678.052 1115.668 C 672.478 1116.901, 670.279 1118.735, 667.765 1124.250 C 666.927 1126.090, 665.750 1127, 664.210 1127 C 662.945 1127, 660.755 1128.154, 659.344 1129.565 C 657.729 1131.180, 656.173 1131.897, 655.141 1131.500 C 651.067 1129.937, 645.905 1129.901, 642.871 1131.415 C 641.123 1132.287, 639.303 1133, 638.826 1133 C 638.350 1133, 636.202 1134.110, 634.052 1135.467 C 631.360 1137.167, 630.018 1137.555, 629.739 1136.717 C 627.982 1131.451, 619.098 1136.556, 615.058 1145.152 C 613.852 1147.719, 610.659 1151.710, 607.936 1154.055 C 605.221 1156.393, 602.998 1159.025, 602.996 1159.903 C 602.994 1160.781, 601.998 1163.075, 600.783 1165 C 599.568 1166.925, 598.100 1169.388, 597.521 1170.472 C 596.942 1171.557, 594.570 1173.720, 592.250 1175.278 C 589.930 1176.836, 586.027 1180.716, 583.576 1183.901 C 578.700 1190.238, 575.187 1193, 572.004 1193 C 570.867 1193, 569.678 1193.675, 569.362 1194.500 C 569.045 1195.325, 568.214 1196, 567.515 1196 C 565.701 1196, 563.912 1198.451, 563.742 1201.170 C 563.601 1203.419, 562.374 1204.953, 560.691 1204.985 C 560.246 1204.993, 560.160 1204.550, 560.500 1204 C 560.840 1203.450, 560.416 1203, 559.559 1203 C 558.702 1203, 558 1202.592, 558 1202.094 C 558 1201.595, 557.105 1201.421, 556.011 1201.707 C 554.917 1201.993, 554.313 1202.697, 554.668 1203.271 C 555.074 1203.929, 554.515 1204.106, 553.156 1203.751 C 551.970 1203.441, 551 1203.622, 551 1204.153 C 551 1204.684, 550.550 1204.840, 550 1204.500 C 549.450 1204.160, 549 1204.639, 549 1205.563 C 549 1206.945, 548.732 1207.023, 547.500 1206 C 546.638 1205.285, 546 1205.186, 546 1205.769 C 546 1206.327, 544.200 1207.503, 542 1208.383 C 539.800 1209.264, 538 1210.437, 538 1210.992 C 538 1211.546, 536.237 1212, 534.083 1212 C 531.929 1212, 530.017 1212.345, 529.833 1212.767 C 529.650 1213.189, 527.398 1215.240, 524.828 1217.324 C 519.865 1221.349, 517.093 1224.923, 516.485 1228.078 C 515.903 1231.100, 515.193 1231.799, 511.989 1232.503 C 510.345 1232.864, 509 1233.573, 509 1234.079 C 509 1234.586, 507.620 1235, 505.934 1235 C 500.796 1235, 493.983 1241.655, 490.947 1249.638 C 490.425 1251.012, 489.526 1251.825, 488.935 1251.460 C 488.345 1251.095, 487.619 1251.740, 487.316 1252.899 C 486.790 1254.912, 485.887 1255.408, 483.325 1255.092 C 482.679 1255.012, 481.822 1255.478, 481.421 1256.128 C 480.932 1256.919, 481.123 1257.042, 482 1256.500 C 482.867 1255.964, 483.068 1256.082, 482.594 1256.848 C 482.126 1257.606, 481.292 1257.692, 480.181 1257.097 C 478.514 1256.205, 473.009 1259.733, 472.994 1261.702 C 472.990 1262.141, 471.640 1263.267, 469.994 1264.203 C 468.347 1265.140, 467 1266.603, 467 1267.453 C 467 1268.304, 466.298 1269, 465.441 1269 C 464.584 1269, 464.118 1269.382, 464.406 1269.849 C 464.695 1270.315, 464.023 1271.671, 462.914 1272.862 C 461.805 1274.052, 461.163 1275.454, 461.486 1275.978 C 461.810 1276.501, 460.370 1278.674, 458.287 1280.805 C 456.204 1282.937, 453.022 1286.332, 451.215 1288.350 C 449.409 1290.368, 446.158 1293.138, 443.991 1294.506 C 438.945 1297.691, 436.878 1300.904, 436.241 1306.552 C 435.961 1309.039, 435.004 1311.620, 434.116 1312.287 C 433.227 1312.954, 432.376 1314.175, 432.225 1315 C 432.074 1315.825, 432.851 1315.375, 433.953 1314 C 435.371 1312.230, 435.962 1311.954, 435.978 1313.054 C 435.990 1313.908, 434.425 1316.134, 432.500 1318 C 430.575 1319.866, 429 1321.879, 429 1322.474 C 429 1323.069, 428.148 1324.285, 427.106 1325.177 C 426.064 1326.069, 424.754 1327.617, 424.194 1328.617 C 423.351 1330.123, 421.711 1330.473, 414.650 1330.654 C 405.264 1330.895, 397.507 1333.955, 397.493 1337.424 C 397.489 1338.385, 396.688 1339.755, 395.712 1340.468 C 394.290 1341.509, 394.070 1342.588, 394.604 1345.924 C 395.144 1349.300, 394.923 1350.336, 393.433 1351.426 C 392.423 1352.164, 391.520 1354.058, 391.427 1355.634 C 391.334 1357.210, 391.200 1359.287, 391.129 1360.250 C 391.056 1361.238, 390.196 1362, 389.155 1362 C 386.837 1362, 384.144 1364.920, 383.028 1368.643 C 382.188 1371.447, 382.170 1371.453, 382.086 1368.973 C 382.039 1367.582, 382.756 1365.366, 383.680 1364.046 C 385.253 1361.800, 385.253 1361.689, 383.680 1362.293 C 382.756 1362.647, 382 1362.484, 382 1361.931 C 382 1361.377, 383.238 1361.054, 384.750 1361.212 C 387.623 1361.513, 387.969 1360.584, 386.506 1356.500 C 386.103 1355.375, 386.712 1355.813, 387.898 1357.500 L 390.008 1360.500 389.690 1356.306 C 389.515 1353.999, 389.739 1352.338, 390.186 1352.615 C 391.740 1353.575, 390.990 1351.301, 389.227 1349.706 C 388.014 1348.608, 386.988 1348.396, 385.977 1349.035 C 385.165 1349.549, 383.825 1349.969, 383 1349.969 C 381.687 1349.969, 381.684 1349.853, 382.971 1349.039 C 385.079 1347.706, 383.545 1346.638, 381.270 1347.855 C 379.491 1348.808, 376.926 1348.481, 370.250 1346.451 C 368.852 1346.026, 368 1346.189, 368 1346.883 C 368 1347.498, 367.148 1348, 366.107 1348 C 365.066 1348, 363.944 1348.704, 363.614 1349.563 C 363.284 1350.423, 362.554 1350.842, 361.991 1350.494 C 361.428 1350.146, 361.194 1349.494, 361.472 1349.045 C 361.750 1348.596, 360.821 1348.008, 359.410 1347.738 C 357.783 1347.427, 356.649 1347.752, 356.314 1348.624 C 356.024 1349.381, 355.398 1350, 354.924 1350 C 354.451 1350, 354.322 1349.325, 354.638 1348.500 C 354.995 1347.571, 354.634 1347, 353.690 1347 C 352.852 1347, 352.017 1347.381, 351.833 1347.847 C 351.149 1349.587, 338.780 1347.873, 338.282 1345.970 C 337.324 1342.309, 330.974 1342.971, 327.046 1347.141 C 324.483 1349.861, 318.918 1350.403, 318.288 1347.994 C 318.001 1346.897, 317.092 1346, 316.267 1346 C 315.259 1346, 314.938 1346.656, 315.290 1348 C 315.911 1350.376, 315.083 1350.530, 312.441 1348.532 C 310.243 1346.869, 304 1346.476, 304 1348 C 304 1348.550, 304.788 1349.007, 305.750 1349.015 C 307.243 1349.028, 307.279 1349.171, 306 1349.983 C 305.045 1350.590, 304.379 1350.584, 304.167 1349.968 C 303.983 1349.436, 302.997 1349, 301.976 1349 C 300.954 1349, 299.839 1348.549, 299.499 1347.998 C 298.764 1346.809, 291.542 1347.647, 288.116 1349.319 C 286.049 1350.327, 285.533 1350.183, 284.244 1348.241 C 282.047 1344.932, 280.014 1345.406, 279.921 1349.250 C 279.878 1351.037, 279.615 1351.938, 279.338 1351.250 C 278.682 1349.625, 273.318 1349.625, 272.662 1351.250 C 272.259 1352.250, 272.142 1352.250, 272.079 1351.250 C 272.036 1350.563, 271.346 1350, 270.547 1350 C 267.903 1350, 264.002 1347.705, 263.900 1346.089 C 263.845 1345.215, 263.498 1345.583, 263.127 1346.907 C 262.315 1349.808, 255 1352.995, 255 1350.448 C 255 1349.651, 254.550 1349, 254 1349 C 253.450 1349, 253 1349.603, 253 1350.339 C 253 1351.076, 251.875 1352.192, 250.500 1352.818 C 249.044 1353.481, 248 1353.559, 248 1353.004 C 248 1352.467, 246.620 1352.326, 244.845 1352.681 C 242.986 1353.053, 241.926 1352.929, 242.266 1352.379 C 243.643 1350.150, 237.140 1347.961, 235.614 1350.141 C 234.254 1352.083, 234.150 1352.091, 233.164 1350.334 C 232.195 1348.608, 232.095 1348.603, 231.460 1350.250 C 230.615 1352.445, 228 1352.553, 228 1350.393 C 228 1349.270, 227.473 1348.991, 226.250 1349.467 C 224.131 1350.292, 224.412 1350.264, 219.559 1350.118 C 215.852 1350.007, 215.733 1349.911, 217.559 1348.500 C 219.397 1347.080, 219.407 1346.928, 217.750 1345.640 C 216.788 1344.892, 216 1343.568, 216 1342.699 C 216 1341.829, 215.550 1340.840, 215 1340.500 C 214.450 1340.160, 214 1339.009, 214 1337.941 C 214 1336.873, 213.550 1336, 213 1336 C 212.450 1336, 212 1336.900, 212 1338 C 212 1339.100, 211.550 1340, 211 1340 C 209.413 1340, 209.840 1335.999, 211.494 1335.364 C 213.437 1334.618, 212.421 1333, 210.011 1333 C 208.865 1333, 207.971 1332.127, 207.706 1330.750 L 207.272 1328.500 207.136 1330.750 C 206.967 1333.539, 205.416 1333.699, 204.710 1331 C 204.095 1328.646, 200 1328.212, 200 1330.500 C 200 1332.181, 197.455 1332.545, 196.500 1331 C 195.533 1329.436, 192 1329.828, 192 1331.500 C 192 1332.325, 191.550 1333, 191 1333 C 190.450 1333, 189.986 1332.213, 189.970 1331.250 C 189.941 1329.583, 189.891 1329.583, 188.920 1331.250 C 187.735 1333.284, 185.392 1333.559, 184.662 1331.750 C 184.385 1331.063, 184.122 1331.945, 184.079 1333.711 L 184 1336.923 180.025 1332.711 C 177.150 1329.665, 176.043 1328.984, 176.025 1330.250 C 175.997 1332.186, 174.198 1332.400, 166.640 1331.364 C 161.573 1330.670, 160.354 1329.069, 164.750 1328.884 C 166.442 1328.813, 166.827 1328.592, 165.750 1328.311 C 164.787 1328.059, 164 1327.160, 164 1326.313 C 164 1325.160, 163.309 1324.918, 161.250 1325.350 C 159.738 1325.667, 157.007 1326.224, 155.181 1326.587 C 153.356 1326.950, 151.335 1328.092, 150.691 1329.124 C 149.431 1331.141, 146.509 1331.633, 145.498 1329.997 C 145.091 1329.338, 144.164 1329.377, 142.789 1330.113 C 140.261 1331.466, 132.677 1330.587, 129.861 1328.615 C 128.571 1327.712, 126.451 1327.398, 123.927 1327.737 C 121.242 1328.097, 120 1327.883, 120 1327.060 C 120 1326.279, 119.449 1326.408, 118.429 1327.429 C 117.564 1328.293, 116.327 1328.993, 115.679 1328.985 C 114.790 1328.973, 114.794 1328.782, 115.697 1328.208 C 116.356 1327.790, 116.581 1326.976, 116.197 1326.401 C 115.098 1324.750, 112.168 1323.996, 111.748 1325.255 C 111.504 1325.989, 110.263 1325.612, 108.279 1324.199 C 104.383 1321.425, 103.625 1321.434, 104.332 1324.250 L 104.896 1326.500 103.038 1324.250 C 102.016 1323.013, 100.490 1322, 99.646 1322 C 98.803 1322, 97.525 1321.170, 96.807 1320.155 C 95.878 1318.843, 94.361 1318.350, 91.563 1318.447 C 88.595 1318.551, 87.135 1318.020, 85.632 1316.292 C 83.503 1313.843, 79.159 1313.241, 77.267 1315.133 C 76.599 1315.801, 75.390 1315.942, 74.317 1315.475 C 73.318 1315.040, 71.825 1314.742, 71 1314.813 C 70.008 1314.898, 69.923 1314.754, 70.750 1314.388 C 72.916 1313.427, 72.104 1311.936, 69.738 1312.530 C 68.494 1312.842, 65.865 1312.424, 63.896 1311.601 C 59.951 1309.953, 56 1310.461, 56 1312.617 C 56 1313.377, 55.373 1314, 54.607 1314 C 53.841 1314, 52.979 1314.611, 52.693 1315.358 C 52.406 1316.106, 50.263 1317.022, 47.931 1317.395 C 42.354 1318.287, 41.669 1318.812, 43.583 1320.726 C 44.851 1321.994, 45.346 1322.057, 45.979 1321.034 C 46.418 1320.324, 47.272 1320.050, 47.877 1320.424 C 48.583 1320.860, 48.750 1320.512, 48.343 1319.451 C 47.869 1318.215, 48.187 1317.888, 49.604 1318.157 C 50.837 1318.391, 51.615 1319.521, 51.829 1321.390 C 52.129 1324.004, 51.923 1324.218, 49.555 1323.766 C 48.124 1323.492, 46.711 1323.658, 46.417 1324.134 C 45.554 1325.531, 44 1325.128, 44 1323.508 C 44 1322.688, 43.100 1321.455, 42 1320.768 C 40.900 1320.081, 40 1318.952, 40 1318.259 C 40 1316.641, 38.294 1316.618, 37.757 1318.228 C 37.532 1318.904, 38.169 1320.339, 39.174 1321.417 C 41.083 1323.466, 41.676 1325.536, 40.069 1324.543 C 39.557 1324.226, 38.851 1324.432, 38.500 1325 C 37.534 1326.562, 36.004 1325.167, 35.968 1322.691 C 35.937 1320.523, 33.876 1317, 32.640 1317 C 32.288 1317, 32 1317.675, 32 1318.500 C 32 1319.325, 32.454 1320, 33.008 1320 C 33.624 1320, 33.554 1320.742, 32.829 1321.902 C 31.874 1323.431, 31.972 1324.308, 33.324 1326.372 C 34.725 1328.510, 34.755 1328.843, 33.503 1328.363 C 32.676 1328.046, 32 1327.384, 32 1326.893 C 32 1326.402, 31.550 1326, 31 1326 C 30.450 1326, 30 1326.686, 30 1327.525 C 30 1328.363, 28.902 1329.467, 27.561 1329.977 C 24.984 1330.957, 22.408 1334.648, 22.834 1336.750 C 23.132 1338.216, 21.323 1338.460, 20.833 1337.020 C 20.235 1335.260, 10.282 1335.219, 10.399 1336.978 C 10.462 1337.922, 9.626 1338.510, 8.197 1338.526 C 6.931 1338.541, 5.540 1339.127, 5.106 1339.829 C 4.672 1340.531, 3.711 1340.969, 2.970 1340.803 C 0.584 1340.266, 0.117 1347.484, 0.058 1385.813 L -0 1423.126 15.526 1422.923 C 24.066 1422.811, 31.341 1423.007, 31.693 1423.360 C 32.786 1424.453, 35.804 1424.064, 36.417 1422.750 C 36.883 1421.750, 37.117 1421.750, 37.583 1422.750 C 37.904 1423.438, 38.606 1424, 39.142 1424 C 39.679 1424, 39.864 1423.589, 39.554 1423.087 C 39.231 1422.565, 42.308 1422.200, 46.745 1422.234 C 51.010 1422.268, 57.425 1422.015, 61 1421.673 C 76.617 1420.178, 81.871 1419.983, 82.424 1420.877 C 83.081 1421.940, 84.863 1421.842, 86.794 1420.635 C 87.506 1420.191, 96.745 1419.668, 107.325 1419.472 C 117.904 1419.277, 127.814 1418.641, 129.345 1418.059 C 132.912 1416.703, 139.327 1416.662, 138.500 1418 C 137.558 1419.525, 142.282 1419.198, 146.469 1417.449 C 148.511 1416.595, 149.959 1416.258, 149.686 1416.699 C 149.036 1417.751, 201.666 1417.196, 205.526 1416.110 C 207.162 1415.650, 208.403 1414.808, 208.284 1414.239 C 208.055 1413.140, 211.732 1413.757, 212.463 1414.940 C 213.081 1415.941, 227.221 1415.179, 228.313 1414.087 C 230.059 1412.341, 227.974 1411.130, 224.232 1411.716 L 220.500 1412.301 222.460 1410.089 C 225.792 1406.331, 220.445 1404.880, 216.106 1408.365 C 215.339 1408.980, 212.864 1409.565, 210.606 1409.662 C 208.348 1409.760, 206.500 1409.911, 206.500 1409.997 C 206.500 1410.083, 205.825 1410.300, 205 1410.480 C 204.175 1410.660, 202.600 1411.136, 201.500 1411.538 L 199.500 1412.269 201.500 1410.666 C 203.076 1409.404, 203.171 1409.057, 201.950 1409.032 C 201.097 1409.014, 199.902 1409.498, 199.293 1410.107 C 198.484 1410.916, 198.229 1410.714, 198.343 1409.357 C 198.447 1408.132, 197.735 1407.392, 196.250 1407.181 C 192.228 1406.609, 195.839 1401.361, 200.591 1400.870 C 203.356 1400.585, 218.241 1401.781, 222.500 1402.631 C 223.600 1402.851, 229.675 1402.942, 236 1402.835 C 242.325 1402.727, 251.376 1402.742, 256.113 1402.867 C 260.850 1402.992, 270.308 1402.406, 277.130 1401.565 C 283.952 1400.724, 291.101 1400.285, 293.017 1400.588 C 297.871 1401.358, 303.823 1401.095, 308.273 1399.913 C 310.348 1399.362, 312.445 1399.157, 312.933 1399.458 C 314.112 1400.187, 317.116 1398.997, 316.523 1398.037 C 315.923 1397.066, 322.502 1397.573, 324.205 1398.629 C 324.917 1399.071, 331.125 1399.289, 338 1399.115 C 344.875 1398.941, 355.675 1398.718, 362 1398.619 C 368.325 1398.520, 374.063 1398.089, 374.750 1397.660 C 375.542 1397.167, 376 1397.436, 376 1398.394 C 376 1400.927, 373.759 1405, 372.365 1405 C 371.643 1405, 370.381 1406.295, 369.563 1407.879 C 367.705 1411.471, 362.312 1413.956, 363.588 1410.631 C 363.909 1409.796, 363.215 1409.017, 361.807 1408.631 C 359.889 1408.106, 359.753 1407.834, 361 1407.015 C 362.051 1406.325, 362.117 1406.026, 361.219 1406.015 C 360.514 1406.007, 359.695 1406.630, 359.400 1407.400 C 359.082 1408.228, 357.444 1408.800, 355.392 1408.800 C 352.530 1408.800, 352.125 1408.554, 353.083 1407.400 C 354.017 1406.275, 353.828 1406, 352.122 1406 C 350.955 1406, 350 1406.398, 350 1406.884 C 350 1407.370, 348.537 1407.652, 346.750 1407.511 C 342.475 1407.175, 340.299 1407.940, 342.166 1409.124 C 343.117 1409.727, 342.837 1409.974, 341.191 1409.985 C 339.921 1409.993, 339.157 1409.555, 339.493 1409.011 C 339.843 1408.445, 339.443 1408.276, 338.558 1408.616 C 337.707 1408.943, 337.226 1409.556, 337.488 1409.980 C 337.750 1410.404, 335.702 1410.593, 332.938 1410.399 C 330.173 1410.205, 328.113 1410.374, 328.360 1410.773 C 328.606 1411.173, 327.666 1411.569, 326.270 1411.653 C 320.912 1411.975, 315.257 1416.400, 317.205 1418.747 C 317.943 1419.637, 317.884 1420, 317 1420 C 316.058 1420, 316.089 1420.407, 317.128 1421.673 C 318.360 1423.176, 318.245 1423.279, 316 1422.687 C 314.625 1422.324, 313.136 1422.021, 312.691 1422.014 C 312.246 1422.006, 312.114 1421.625, 312.397 1421.167 C 312.680 1420.708, 312.277 1420.333, 311.500 1420.333 C 310.723 1420.333, 310.367 1420.785, 310.708 1421.337 C 311.073 1421.927, 310.667 1422.086, 309.721 1421.723 C 308.838 1421.384, 306.661 1421.524, 304.885 1422.033 C 303.104 1422.544, 301.172 1422.579, 300.578 1422.111 C 298.801 1420.712, 286.679 1421.826, 276.768 1424.299 C 273.616 1425.085, 269.901 1425.604, 268.513 1425.452 C 267.126 1425.300, 266.244 1425.586, 266.554 1426.088 C 266.864 1426.589, 266.281 1427, 265.259 1427 C 264.237 1427, 262.860 1427.540, 262.200 1428.200 C 261.482 1428.918, 261 1428.985, 261 1428.367 C 261 1427.060, 260.410 1426.963, 249.500 1426.478 C 244.550 1426.258, 239.375 1425.770, 238 1425.394 C 236.625 1425.018, 234.825 1424.573, 234 1424.405 C 233.175 1424.237, 231.204 1423.788, 229.619 1423.408 C 227.478 1422.894, 226.502 1423.139, 225.819 1424.358 C 225.314 1425.261, 224.446 1426, 223.891 1426 C 223.336 1426, 223.137 1425.587, 223.448 1425.083 C 223.760 1424.579, 221.983 1424.167, 219.500 1424.167 C 217.017 1424.167, 215.169 1424.467, 215.394 1424.833 C 215.620 1425.200, 212.855 1425.614, 209.250 1425.754 C 205.646 1425.893, 202.169 1426.444, 201.525 1426.979 C 200.881 1427.513, 198.036 1428.033, 195.202 1428.133 C 190.723 1428.292, 190.275 1428.487, 191.775 1429.626 C 194.038 1431.345, 197.380 1431.435, 196.367 1429.750 C 195.820 1428.839, 196.057 1428.857, 197.244 1429.819 C 198.477 1430.819, 199.373 1430.871, 200.936 1430.034 C 202.159 1429.380, 203 1429.322, 203 1429.891 C 203 1430.421, 203.787 1431.059, 204.750 1431.311 C 206.517 1431.772, 202.643 1432.459, 200.555 1432.054 C 200.036 1431.953, 198.610 1432.406, 197.386 1433.061 C 195.740 1433.942, 194.353 1433.970, 192.052 1433.168 C 188.897 1432.068, 185.610 1432.559, 186.499 1433.998 C 186.767 1434.431, 185.302 1434.406, 183.243 1433.942 C 178.636 1432.903, 179.165 1433, 178.111 1433 C 177.622 1433, 177.285 1432.213, 177.361 1431.250 C 177.449 1430.143, 176.675 1429.384, 175.250 1429.181 C 173.736 1428.966, 173 1429.375, 173 1430.430 C 173 1431.294, 173.787 1432.020, 174.750 1432.044 C 175.713 1432.068, 174.700 1432.736, 172.500 1433.529 C 167.451 1435.348, 166.930 1435.345, 167.638 1433.500 C 168 1432.558, 167.628 1432, 166.638 1432 C 165.580 1432, 165.272 1432.546, 165.701 1433.664 C 166.131 1434.783, 165.957 1435.091, 165.170 1434.605 C 164.526 1434.207, 164 1434.290, 164 1434.788 C 164 1435.286, 162.395 1435.586, 160.434 1435.455 C 157.737 1435.274, 156.999 1435.555, 157.403 1436.608 C 157.697 1437.374, 157.501 1438, 156.969 1438 C 156.436 1438, 156 1437.334, 156 1436.519 C 156 1434.549, 151.294 1433.451, 148.069 1434.668 C 146.563 1435.236, 144.244 1435.292, 142.495 1434.802 C 136.941 1433.247, 129 1432.743, 129 1433.947 C 129 1434.721, 128.438 1434.769, 127.191 1434.102 C 124.917 1432.885, 119.700 1433.401, 119.203 1434.892 C 118.997 1435.508, 118.418 1435.758, 117.915 1435.447 C 117.412 1435.136, 117 1435.584, 117 1436.441 C 117 1437.298, 116.550 1438, 116 1438 C 115.450 1438, 115 1437.578, 115 1437.062 C 115 1434.932, 105.722 1436.889, 102.118 1439.779 C 99.421 1441.941, 97.609 1442.615, 95 1442.426 C 93.075 1442.286, 90.952 1442.133, 90.281 1442.086 C 89.611 1442.039, 89.322 1441.325, 89.638 1440.500 C 90.276 1438.838, 88.478 1438.417, 87.500 1440 C 87.160 1440.550, 86.346 1440.993, 85.691 1440.985 C 84.956 1440.975, 85.074 1440.559, 86 1439.898 C 87.167 1439.064, 86.945 1438.968, 85 1439.465 C 79.118 1440.968, 74.797 1441.187, 70.784 1440.184 C 67.574 1439.381, 63.365 1439.476, 54 1440.561 C 47.125 1441.357, 40.375 1442.119, 39 1442.254 C 37.625 1442.389, 35.885 1443.325, 35.134 1444.334 C 34.153 1445.652, 33.463 1445.863, 32.684 1445.084 C 31.471 1443.871, 22.991 1443.578, 23.015 1444.750 C 23.024 1445.162, 23.448 1446.160, 23.958 1446.966 C 25.340 1449.152, 23.280 1451, 19.461 1451 C 17.649 1451, 16.016 1451.453, 15.831 1452.007 C 15.640 1452.579, 13.841 1452.127, 11.660 1450.958 C 8.816 1449.433, 7.484 1449.184, 6.509 1449.993 C 5.543 1450.794, 5.070 1450.741, 4.726 1449.792 C 4.369 1448.809, 3.807 1448.765, 2.379 1449.608 C 0.642 1450.633, 0.480 1452.424, 0.231 1473.358 C -0.062 1498.091, -0.445 1496.439, 5.500 1496.124 C 7.160 1496.036, 7.086 1496.193, 5.065 1497.045 C 3.726 1497.610, 2.039 1497.845, 1.315 1497.567 C 0.507 1497.257, 0 1497.810, 0 1499.001 C 0 1500.843, 0.682 1500.920, 13.750 1500.558 C 21.313 1500.349, 26.938 1500.400, 26.250 1500.672 C 25.563 1500.944, 25 1501.757, 25 1502.478 C 25 1503.199, 23.988 1503.814, 22.750 1503.844 C 21.512 1503.875, 19.056 1504.074, 17.292 1504.287 C 15.527 1504.499, 14.316 1504.297, 14.601 1503.837 C 14.885 1503.377, 14.641 1503, 14.059 1503 C 13.477 1503, 13 1503.470, 13 1504.044 C 13 1504.618, 12.213 1504.955, 11.250 1504.794 C 10.072 1504.596, 9.499 1505.150, 9.498 1506.487 C 9.497 1507.630, 8.704 1508.626, 7.630 1508.833 C 6.342 1509.081, 6.003 1508.804, 6.536 1507.942 C 7.086 1507.052, 6.904 1506.943, 5.905 1507.565 C 5.132 1508.045, 3.488 1508.307, 2.250 1508.148 L 0 1507.857 0 1778.429 L -0 2049.001 768.250 2048.751 L 1536.500 2048.500 1536.607 1735 C 1536.666 1562.575, 1536.497 1319.928, 1536.232 1195.785 L 1535.751 970.070 1531.625 968.552 C 1529.356 967.717, 1526.375 966.871, 1525 966.673 C 1523.625 966.475, 1521.150 965.756, 1519.500 965.076 C 1517.850 964.395, 1515.073 964.066, 1513.328 964.344 C 1510.977 964.718, 1509.979 964.415, 1509.471 963.174 C 1508.863 961.691, 1508.701 961.728, 1508.041 963.500 C 1507.321 965.433, 1507.272 965.424, 1506.581 963.250 C 1506.187 962.013, 1505.503 961, 1505.060 961 C 1504.618 961, 1503.957 959.135, 1503.593 956.856 C 1502.967 952.943, 1502.845 952.818, 1501.391 954.606 C 1500.544 955.648, 1500.105 955.988, 1500.415 955.363 C 1501.171 953.836, 1498.397 951.637, 1496.889 952.568 C 1496.116 953.047, 1495.953 952.884, 1496.432 952.111 C 1497.265 950.762, 1494.520 946, 1492.910 946 C 1492.335 946, 1492.097 946.788, 1492.379 947.750 C 1494.913 956.375, 1493.228 960.781, 1490.395 952.940 C 1489.711 951.048, 1489.118 950.089, 1489.076 950.809 C 1489.034 951.529, 1488.550 951.840, 1488 951.500 C 1487.450 951.160, 1487 951.782, 1487 952.882 C 1487 956.057, 1485.020 956.447, 1484.829 953.309 C 1484.735 951.764, 1484.558 949.825, 1484.435 949 C 1484.313 948.175, 1484.165 946.938, 1484.106 946.250 C 1484.048 945.563, 1483.325 945, 1482.500 945 C 1481.675 945, 1480.968 944.212, 1480.930 943.250 C 1480.870 941.767, 1480.739 941.805, 1480.068 943.500 C 1479.633 944.600, 1479.500 946.175, 1479.773 947 C 1480.058 947.862, 1479.587 947.649, 1478.666 946.500 C 1477.231 944.709, 1477.060 944.683, 1477.032 946.250 C 1477.014 947.212, 1476.523 948, 1475.941 948 C 1475.359 948, 1475.104 947.641, 1475.375 947.202 C 1476.459 945.448, 1474.176 943.417, 1472.792 944.905 C 1472.050 945.703, 1471.992 946.018, 1472.657 945.645 C 1473.432 945.211, 1473.633 945.686, 1473.268 947.083 C 1472.911 948.447, 1472.472 948.765, 1472 948.001 C 1471.480 947.159, 1471.122 947.239, 1470.721 948.286 C 1470.414 949.085, 1471.026 951.158, 1472.081 952.894 C 1474.486 956.848, 1474.484 957.329, 1472.066 956.035 C 1469.859 954.854, 1467.993 954.658, 1469.500 955.765 C 1474.002 959.073, 1472.691 964.039, 1467.753 962.379 C 1466.514 961.963, 1464.870 961.512, 1464.100 961.378 C 1462.121 961.032, 1460.908 958.846, 1461.395 956.500 C 1461.623 955.400, 1461.463 953.600, 1461.040 952.500 C 1460.616 951.400, 1460.636 949.518, 1461.084 948.319 C 1461.862 946.235, 1457.185 940, 1454.845 940 C 1454.419 940, 1452.591 938.707, 1450.785 937.128 C 1448.978 935.548, 1445.964 933.921, 1444.086 933.512 C 1442.208 933.103, 1437.732 931.450, 1434.139 929.838 C 1430.546 928.226, 1426.007 926.225, 1424.053 925.391 C 1415.722 921.837, 1412.020 919.639, 1411.476 917.923 C 1410.130 913.683, 1396.450 911.275, 1377 911.854 C 1372.082 912.001, 1368.899 910.456, 1366 906.515 C 1364.625 904.646, 1361.836 902.358, 1359.803 901.431 C 1356.264 899.816, 1353 895.169, 1353 891.745 C 1353 890.946, 1351.850 889.051, 1350.445 887.535 C 1349.039 886.018, 1348.131 884.536, 1348.426 884.240 C 1349.279 883.388, 1344.879 880, 1342.919 880 C 1341.943 880, 1340.028 878.573, 1338.663 876.828 C 1336.986 874.686, 1335.248 873.613, 1333.309 873.522 C 1331.729 873.448, 1329.909 873.062, 1329.264 872.663 C 1327.505 871.576, 1323.233 872.952, 1322.505 874.840 C 1321.918 876.364, 1321.785 876.357, 1320.883 874.750 C 1319.859 872.925, 1316.510 872.367, 1315.583 873.866 C 1315.289 874.342, 1313.890 874.511, 1312.476 874.240 C 1310.722 873.905, 1309.477 874.333, 1308.560 875.587 C 1307.508 877.026, 1306.912 877.172, 1305.812 876.259 C 1305.040 875.618, 1302.910 875.284, 1301.079 875.515 C 1299.248 875.747, 1296.794 875.391, 1295.625 874.724 C 1294.456 874.057, 1291.025 873.426, 1288 873.321 C 1284.975 873.216, 1280.250 872.861, 1277.500 872.532 C 1273.284 872.027, 1271.808 872.336, 1268.083 874.503 M 425.244 1316.664 C 424.553 1316.943, 424.242 1317.582, 424.553 1318.085 C 424.866 1318.593, 422.839 1319, 420 1319 C 416.843 1319, 415.119 1319.383, 415.500 1320 C 415.873 1320.604, 414.510 1321, 412.059 1321 C 409.827 1321, 408 1321.408, 408 1321.906 C 408 1322.405, 407.181 1322.599, 406.180 1322.337 C 403.726 1321.695, 401.655 1324.415, 402.245 1327.503 C 402.660 1329.674, 402.513 1329.845, 401.171 1328.759 C 399.942 1327.764, 399.773 1327.762, 400.367 1328.750 C 400.835 1329.528, 400.552 1330, 399.618 1330 C 398.793 1330, 397.840 1329.550, 397.500 1329 C 395.796 1326.243, 392.055 1329.837, 392.765 1333.550 C 393.066 1335.126, 392.755 1336.534, 392.002 1336.999 C 391.046 1337.589, 391.205 1338.040, 392.641 1338.808 C 394.417 1339.758, 394.540 1339.464, 394.379 1334.665 C 394.250 1330.842, 394.444 1330.020, 395.123 1331.500 C 395.973 1333.351, 396.009 1333.333, 395.614 1331.250 C 395.379 1330.013, 395.595 1329, 396.094 1329 C 396.592 1329, 397 1329.633, 397 1330.406 C 397 1331.354, 397.703 1331.629, 399.156 1331.249 C 400.816 1330.815, 401.122 1331.009, 400.484 1332.092 C 399.992 1332.929, 400.468 1332.790, 401.657 1331.750 C 402.757 1330.787, 404.022 1330, 404.468 1330 C 404.915 1330, 405.893 1329.213, 406.642 1328.250 C 407.940 1326.583, 407.976 1326.583, 407.395 1328.250 C 406.974 1329.460, 407.300 1330, 408.452 1330 C 409.519 1330, 409.848 1329.550, 409.367 1328.750 C 408.929 1328.021, 409.402 1328.126, 410.500 1329 C 411.598 1329.874, 412.071 1329.979, 411.633 1329.250 C 411.220 1328.563, 411.359 1328, 411.941 1328 C 412.523 1328, 413 1328.419, 413 1328.930 C 413 1330.045, 418.878 1328.522, 420.383 1327.017 C 420.942 1326.458, 422.140 1326, 423.045 1326 C 423.950 1326, 425.505 1325.100, 426.500 1324 C 427.620 1322.763, 427.848 1322, 427.098 1322 C 426.253 1322, 426.357 1321.328, 427.443 1319.777 C 428.299 1318.555, 428.984 1317.093, 428.965 1316.527 C 428.945 1315.962, 428.242 1316.625, 427.402 1318 C 425.954 1320.370, 425.899 1320.383, 426.344 1318.250 C 426.602 1317.013, 426.742 1316.036, 426.656 1316.079 C 426.570 1316.122, 425.935 1316.386, 425.244 1316.664 M 277 1410.535 C 274.525 1411.235, 270.911 1411.585, 268.970 1411.312 C 266.935 1411.025, 263.970 1411.455, 261.970 1412.326 C 258.117 1414.004, 259.785 1414.496, 264.623 1413.108 C 266.408 1412.596, 268.321 1412.590, 269.116 1413.093 C 270.205 1413.783, 270.115 1413.973, 268.691 1413.985 C 267.696 1413.993, 267.141 1414.419, 267.458 1414.932 C 268.883 1417.237, 286.165 1415.639, 287.878 1413.043 C 288.903 1411.490, 289.023 1410.877, 288.206 1411.379 C 287.459 1411.837, 285.888 1411.502, 284.491 1410.586 C 283.160 1409.714, 281.942 1409.059, 281.785 1409.131 C 281.628 1409.202, 279.475 1409.834, 277 1410.535 M 497 1472.732 C 495.625 1472.985, 493.957 1473.637, 493.294 1474.182 C 492.630 1474.727, 491.548 1474.839, 490.889 1474.432 C 490.174 1473.989, 489.952 1474.114, 490.340 1474.741 C 490.697 1475.318, 490.266 1476.068, 489.383 1476.407 C 488.228 1476.850, 487.943 1476.592, 488.366 1475.488 C 488.842 1474.247, 488.589 1474.149, 487.043 1474.977 C 484.406 1476.388, 483.961 1476.266, 484.701 1474.336 C 485.131 1473.217, 484.957 1472.909, 484.170 1473.395 C 482.624 1474.350, 482.674 1476.742, 484.250 1477.281 C 484.938 1477.516, 484.488 1477.540, 483.250 1477.335 C 480.864 1476.939, 480.141 1478.439, 482.250 1479.407 C 482.938 1479.723, 482.375 1479.710, 481 1479.378 C 479.625 1479.047, 478.050 1478.310, 477.500 1477.740 C 476.819 1477.036, 477.058 1476.902, 478.250 1477.321 C 479.212 1477.660, 480 1477.510, 480 1476.988 C 480 1474.112, 467.137 1475.053, 466.168 1478 C 465.742 1479.295, 465.936 1479.312, 467.587 1478.125 C 468.639 1477.369, 468.150 1478.007, 466.500 1479.542 C 464.850 1481.078, 463.650 1482.521, 463.833 1482.750 C 464.017 1482.979, 463.904 1483.429, 463.583 1483.750 C 463.262 1484.071, 463 1483.756, 463 1483.050 C 463 1482.221, 462.223 1481.970, 460.802 1482.342 C 459.593 1482.658, 458.018 1482.430, 457.302 1481.836 C 456.586 1481.241, 456 1481.004, 456 1481.308 C 456 1481.612, 454.538 1481.417, 452.750 1480.875 C 450.962 1480.334, 448.742 1479.721, 447.814 1479.515 C 445.839 1479.075, 443.538 1481.444, 444.473 1482.956 C 445.246 1484.208, 444.091 1484.354, 432.751 1484.436 C 427.939 1484.471, 424.001 1484.107, 424.001 1483.628 C 424 1483.148, 423.325 1483.315, 422.500 1484 C 421.675 1484.685, 420.993 1484.852, 420.985 1484.372 C 420.976 1483.893, 420.639 1484.017, 420.235 1484.650 C 419.303 1486.108, 413.947 1486.703, 412.090 1485.555 C 411.315 1485.077, 408.840 1484.795, 406.590 1484.930 C 395.821 1485.576, 393.337 1485.452, 391.257 1484.166 C 390.024 1483.403, 387.539 1482.952, 385.736 1483.162 C 382.791 1483.506, 382.459 1483.288, 382.478 1481.023 C 382.493 1479.275, 382.039 1478.615, 381 1478.874 C 380.175 1479.079, 378.188 1479.416, 376.583 1479.623 C 372.849 1480.105, 371.943 1480.979, 375.083 1481.070 C 377.300 1481.135, 377.334 1481.206, 375.500 1481.925 C 374.245 1482.417, 372.691 1482.181, 371.326 1481.290 C 370.045 1480.453, 367.582 1480.033, 365.326 1480.267 L 361.500 1480.664 365.628 1480.832 C 367.898 1480.924, 370.277 1481.629, 370.915 1482.398 C 371.881 1483.562, 371.369 1483.760, 367.855 1483.580 C 365.117 1483.440, 363.085 1483.915, 362.068 1484.932 C 361.044 1485.956, 358.942 1486.441, 356.006 1486.330 C 353.535 1486.236, 350.967 1486.613, 350.300 1487.166 C 349.633 1487.719, 348.588 1487.863, 347.976 1487.485 C 347.335 1487.089, 346.633 1487.687, 346.316 1488.899 C 345.608 1491.608, 341.993 1491.688, 341.293 1489.011 C 341.007 1487.917, 340.374 1487.269, 339.886 1487.570 C 339.399 1487.872, 339 1487.703, 339 1487.196 C 339 1485.925, 335.090 1486.247, 334.212 1487.590 C 333.426 1488.794, 324.914 1488.953, 325.655 1487.750 C 325.910 1487.338, 324.854 1486.973, 323.309 1486.941 C 321.764 1486.909, 318.773 1486.750, 316.662 1486.590 C 314.526 1486.427, 312.636 1486.786, 312.401 1487.399 C 312.137 1488.087, 309.826 1488.358, 306.239 1488.122 C 293.068 1487.255, 287.046 1487.648, 284.990 1489.509 C 283.198 1491.131, 282.826 1491.158, 281.250 1489.785 C 279.602 1488.350, 278.623 1488.342, 275 1489.735 C 274.175 1490.052, 272.150 1490.429, 270.500 1490.572 C 268.850 1490.715, 265.321 1491.086, 262.657 1491.395 C 259.124 1491.805, 257.415 1491.558, 256.336 1490.479 C 255.510 1489.653, 253.234 1489.051, 251.179 1489.116 C 249.155 1489.180, 248.293 1489.439, 249.262 1489.692 C 252.700 1490.588, 250.117 1491.495, 245.096 1491.154 C 242.294 1490.963, 240.252 1490.400, 240.560 1489.904 C 240.867 1489.407, 240.214 1489, 239.109 1489 C 238.004 1489, 236.699 1489.715, 236.210 1490.590 C 235.721 1491.464, 235.017 1492.100, 234.646 1492.004 C 230.063 1490.815, 222.451 1495.405, 223.682 1498.615 C 224.075 1499.637, 223.269 1500, 220.607 1500 C 218.623 1500, 217 1499.550, 217 1499 C 217 1498.450, 216.502 1498, 215.893 1498 C 215.284 1498, 215.045 1498.675, 215.362 1499.500 C 215.678 1500.325, 215.501 1501, 214.969 1501 C 214.436 1501, 214 1500.475, 214 1499.833 C 214 1499.192, 213.711 1498.956, 213.357 1499.309 C 212.005 1500.661, 215.163 1502.838, 217.786 1502.362 C 219.254 1502.096, 220.649 1501.685, 220.885 1501.448 C 221.122 1501.211, 221.807 1501.424, 222.408 1501.920 C 223.009 1502.416, 224.798 1502.573, 226.385 1502.269 L 229.271 1501.715 226.885 1500.306 C 225.573 1499.530, 225.151 1499.061, 225.946 1499.263 C 226.741 1499.465, 229.353 1498.637, 231.751 1497.423 C 236.095 1495.224, 240.581 1495.189, 239.317 1497.364 C 238.954 1497.989, 239.556 1497.713, 240.657 1496.750 C 242.706 1494.957, 245.541 1494.315, 244.587 1495.859 C 244.295 1496.332, 245.170 1496.596, 246.533 1496.447 C 247.895 1496.297, 248.756 1496.586, 248.446 1497.088 C 248.136 1497.589, 248.471 1498.007, 249.191 1498.015 C 250.251 1498.028, 250.246 1498.192, 249.166 1498.876 C 248.102 1499.551, 248.169 1499.851, 249.498 1500.361 C 252.101 1501.360, 255 1501.112, 255 1499.892 C 255 1499.220, 254.052 1499.021, 252.595 1499.387 C 250.494 1499.914, 250.263 1499.710, 250.770 1497.771 C 251.089 1496.550, 251.534 1496.102, 251.759 1496.776 C 251.983 1497.449, 252.606 1498, 253.142 1498 C 253.679 1498, 253.886 1497.625, 253.603 1497.167 C 252.890 1496.013, 256.227 1496.058, 257.706 1497.222 C 259.177 1498.381, 261.286 1497.271, 260.385 1495.813 C 259.960 1495.126, 261.132 1494.898, 263.784 1495.151 C 266.010 1495.363, 267.637 1495.222, 267.400 1494.838 C 266.503 1493.387, 268.600 1493.235, 270.486 1494.613 C 272.182 1495.854, 272.273 1496.332, 271.156 1498.122 C 270.444 1499.262, 270.118 1500.451, 270.431 1500.764 C 270.744 1501.077, 271 1500.865, 271 1500.292 C 271 1499.719, 272.117 1499.250, 273.482 1499.250 C 274.990 1499.250, 275.741 1499.691, 275.395 1500.375 C 275.082 1500.994, 275.805 1500.375, 277 1499 C 278.195 1497.625, 278.823 1497.175, 278.395 1498 C 277.703 1499.333, 277.825 1499.333, 279.500 1498 C 280.536 1497.175, 281.054 1497.049, 280.651 1497.721 C 279.957 1498.877, 280.629 1499.157, 287.251 1500.467 C 288.215 1500.658, 288.757 1500.416, 288.457 1499.931 C 288.158 1499.446, 289.742 1499.204, 291.978 1499.394 C 296.240 1499.755, 298.367 1498.462, 295.390 1497.319 C 294.434 1496.953, 292.831 1495.831, 291.826 1494.826 C 290.822 1493.822, 289.438 1493.036, 288.750 1493.079 C 287.757 1493.142, 287.758 1493.262, 288.756 1493.664 C 290.332 1494.300, 289.374 1496, 287.441 1496 C 286.648 1496, 286 1495.121, 286 1494.047 C 286 1492.064, 299.709 1491.689, 306.279 1493.494 C 308.441 1494.087, 308.448 1494.062, 306.559 1492.552 C 305.165 1491.437, 305.024 1491.004, 306.059 1491.015 C 308.461 1491.041, 310.102 1492.569, 309.477 1494.199 C 308.821 1495.910, 315.910 1496.311, 317.132 1494.632 C 317.480 1494.155, 318.684 1494.684, 319.808 1495.808 C 321.047 1497.047, 322.628 1497.649, 323.824 1497.336 C 324.908 1497.052, 326.796 1497.356, 328.018 1498.010 C 329.241 1498.664, 329.982 1498.780, 329.665 1498.266 C 329.121 1497.387, 332.221 1497.113, 347.655 1496.675 C 351.040 1496.579, 353.603 1496.167, 353.351 1495.759 C 353.099 1495.352, 358.205 1495.194, 364.697 1495.409 C 378.794 1495.875, 392.688 1495.052, 390.812 1493.862 C 389.181 1492.828, 390.403 1492.666, 397.635 1492.961 C 400.521 1493.078, 404.025 1492.541, 405.635 1491.734 C 408.529 1490.282, 415 1491.062, 415 1492.862 C 415 1494.313, 418.446 1493.750, 421.154 1491.856 C 422.614 1490.835, 424.189 1490.007, 424.654 1490.015 C 425.119 1490.024, 424.896 1490.413, 424.158 1490.881 C 423.183 1491.499, 423.546 1491.871, 425.487 1492.242 C 427.214 1492.572, 428.344 1492.266, 428.686 1491.376 C 428.976 1490.619, 429.671 1490, 430.229 1490 C 430.811 1490, 430.707 1490.648, 429.988 1491.514 C 428.837 1492.901, 430.855 1493.127, 434 1491.964 C 434.275 1491.862, 435.505 1491.860, 436.733 1491.959 C 437.962 1492.058, 439.491 1491.814, 440.133 1491.418 C 440.774 1491.022, 444.044 1490.703, 447.399 1490.711 C 450.892 1490.718, 454.783 1490.076, 456.500 1489.207 C 459.275 1487.805, 459.397 1487.815, 458.127 1489.346 C 456.861 1490.872, 457.016 1490.892, 460.127 1489.597 C 462.015 1488.812, 465.482 1488.369, 468 1488.591 C 471.018 1488.856, 471.849 1488.711, 470.522 1488.150 C 467.261 1486.771, 472.004 1484.671, 475.435 1485.975 C 478.453 1487.123, 478.841 1489, 476.059 1489 C 474.991 1489, 473.793 1489.526, 473.395 1490.170 C 472.902 1490.968, 473.227 1491.127, 474.418 1490.670 C 475.378 1490.301, 477.728 1490, 479.641 1490 C 481.598 1490, 482.860 1489.582, 482.527 1489.044 C 482.202 1488.518, 481.163 1488.327, 480.218 1488.619 C 478.835 1489.047, 478.869 1488.916, 480.389 1487.948 C 481.934 1486.964, 482.444 1487.042, 483.189 1488.373 C 483.690 1489.268, 485.004 1490, 486.109 1490 C 487.214 1490, 487.903 1489.652, 487.641 1489.227 C 487.378 1488.803, 489.039 1488.394, 491.332 1488.319 C 497.310 1488.124, 501.241 1486.996, 503.257 1484.897 C 504.299 1483.813, 505.689 1483.327, 506.671 1483.704 C 507.865 1484.162, 508.102 1483.974, 507.519 1483.032 C 506.882 1482, 507.504 1481.872, 510.454 1482.425 C 512.714 1482.849, 513.967 1482.756, 513.617 1482.189 C 513.297 1481.672, 514.770 1480.973, 516.888 1480.634 C 521.207 1479.943, 523.335 1478.038, 522.428 1475.674 C 521.795 1474.022, 516.024 1473.732, 516.335 1475.367 C 516.600 1476.757, 512.708 1476.999, 511.092 1475.693 C 509.935 1474.758, 509.778 1474.770, 510.367 1475.750 C 510.789 1476.452, 510.628 1477, 510 1477 C 509.385 1477, 509.188 1477.495, 509.562 1478.100 C 510.039 1478.873, 509.611 1478.862, 508.121 1478.065 C 506.954 1477.440, 506 1477.182, 506 1477.490 C 506 1477.799, 504.685 1477.371, 503.078 1476.541 C 500.824 1475.374, 500.025 1475.312, 499.578 1476.265 C 499.121 1477.241, 498.877 1477.237, 498.417 1476.250 C 498.096 1475.563, 497.394 1475, 496.858 1475 C 496.321 1475, 496.160 1475.450, 496.500 1476 C 496.840 1476.550, 496.641 1477, 496.059 1477 C 495.477 1477, 495 1477.745, 495 1478.655 C 495 1480.130, 494.777 1480.109, 492.951 1478.456 C 490.910 1476.609, 490.917 1476.596, 494.868 1475.051 C 497.049 1474.198, 499.171 1473.162, 499.584 1472.750 C 499.996 1472.338, 500.146 1472.061, 499.917 1472.136 C 499.688 1472.211, 498.375 1472.479, 497 1472.732 M 548.304 1474.500 C 547.126 1475.325, 545.451 1475.727, 544.581 1475.393 C 542.781 1474.702, 542.471 1476.071, 544.067 1477.667 C 544.822 1478.422, 544.458 1478.691, 542.817 1478.587 C 541.542 1478.507, 540.238 1478.810, 539.917 1479.260 C 539.596 1479.709, 538.197 1479.645, 536.807 1479.117 C 534.584 1478.271, 534.294 1478.412, 534.390 1480.283 C 534.529 1482.979, 537.731 1483.896, 545 1483.325 C 548.025 1483.087, 552.033 1482.796, 553.907 1482.678 C 557.496 1482.452, 559.250 1479.417, 556.421 1478.331 C 555.639 1478.031, 555 1477.398, 555 1476.924 C 555 1475.838, 558.252 1476.992, 559.235 1478.427 C 559.726 1479.144, 559.974 1479.078, 559.985 1478.229 C 560.012 1475.937, 555.510 1474.626, 551.916 1475.880 C 550.134 1476.501, 548.449 1476.782, 548.171 1476.505 C 547.894 1476.227, 548.144 1476, 548.726 1476 C 549.309 1476, 550.045 1475.325, 550.362 1474.500 C 551.075 1472.642, 550.956 1472.642, 548.304 1474.500 M 118.437 1494.677 C 118.770 1495.561, 118.127 1495.592, 115.860 1494.801 C 113.677 1494.040, 112.237 1494.069, 110.669 1494.905 C 108.707 1495.952, 101.648 1496.464, 96.500 1495.932 C 90.818 1495.346, 88.396 1495.985, 90.441 1497.532 C 92.290 1498.930, 92.243 1499.001, 89.441 1499.014 C 87.824 1499.021, 85.375 1499.280, 84 1499.588 C 81.544 1500.139, 81.535 1500.119, 83.500 1498.471 L 85.500 1496.793 83.500 1497.349 C 77.839 1498.923, 75.499 1499.163, 77 1498.015 C 78.237 1497.070, 78.126 1496.974, 76.365 1497.465 C 75.191 1497.793, 73.109 1497.551, 71.739 1496.927 C 69.698 1495.997, 68.736 1496.127, 66.422 1497.643 C 63.806 1499.357, 63.646 1499.365, 64.267 1497.747 C 64.845 1496.240, 63.074 1495.225, 61.654 1496.250 C 61.463 1496.388, 60.603 1495.916, 59.743 1495.201 C 57.978 1493.737, 56.388 1495.201, 57.605 1497.170 C 58.085 1497.947, 57.791 1498.134, 56.730 1497.727 C 55.583 1497.286, 55.174 1497.661, 55.279 1499.057 C 55.428 1501.034, 56.561 1501.692, 57.167 1500.153 C 58.059 1497.885, 70 1500.180, 70 1502.620 C 70 1503.929, 69.662 1504.947, 69.250 1504.882 C 67.322 1504.577, 63.643 1505.215, 64.750 1505.662 C 67.391 1506.728, 65.817 1507.625, 61.750 1507.372 C 58.295 1507.158, 57.930 1507.283, 59.800 1508.040 C 63.690 1509.617, 71 1507.159, 71 1504.275 C 71 1502.239, 89.132 1501.854, 94 1503.786 C 95.884 1504.534, 96.914 1504.414, 98.181 1503.297 C 99.680 1501.975, 100.055 1502.041, 101.653 1503.908 C 103.524 1506.093, 106.658 1506.874, 105.403 1504.842 C 104.912 1504.049, 105.366 1503.862, 106.844 1504.249 C 108.030 1504.559, 109 1504.441, 109 1503.986 C 109 1503.531, 107.725 1502.879, 106.167 1502.537 C 104.587 1502.190, 103.333 1501.249, 103.333 1500.410 C 103.333 1499.113, 103.529 1499.100, 104.747 1500.319 C 106.208 1501.779, 120.513 1498.327, 121.927 1496.173 C 122.242 1495.693, 123.850 1494.850, 125.500 1494.301 C 128.226 1493.393, 128.020 1493.311, 123.246 1493.401 C 119.662 1493.469, 118.133 1493.874, 118.437 1494.677 M 0.493 1778.500 C 0.493 1927.550, 0.609 1988.376, 0.750 1913.669 C 0.891 1838.963, 0.891 1717.013, 0.750 1642.669 C 0.608 1568.326, 0.493 1629.450, 0.493 1778.500" stroke="none" fill="black" fill-rule="evenodd"/>
</svg>