<svg xmlns="http://www.w3.org/2000/svg" width="2048" height="1535" viewBox="0 0 2048 1535" version="1.1">
	<path d="M 1.062 1.500 C 0.640 2.050, 0.419 8.800, 0.571 16.500 C 0.724 24.200, 0.820 34.325, 0.785 39 C 0.631 59.787, 1.031 71.401, 1.919 71.950 C 2.448 72.277, 3.019 75.005, 3.190 78.012 C 3.441 82.448, 3.858 83.549, 5.396 83.842 C 6.822 84.113, 7.132 83.787, 6.649 82.527 C 5.589 79.765, 8.484 77.848, 13.197 78.192 C 16.762 78.452, 17.512 78.890, 18.005 81 C 18.723 84.067, 20.989 84.262, 22.066 81.350 C 22.649 79.774, 22.204 78.310, 20.398 75.861 C 18.032 72.655, 18.652 70.637, 21.323 72.853 C 23.201 74.412, 30.996 72.221, 31.015 70.128 C 31.043 67.133, 32.785 65.275, 33.592 67.379 C 34.020 68.495, 33.761 69.530, 32.925 70.047 C 32.173 70.511, 31.944 71.253, 32.416 71.696 C 32.888 72.138, 33.475 71.938, 33.720 71.250 C 33.966 70.563, 34.818 70, 35.615 70 C 37.638 70, 38.470 67.271, 36.989 65.487 C 35.967 64.255, 36.098 64, 37.755 64 C 38.855 64, 40.315 64.675, 41 65.500 C 41.685 66.325, 42.838 67, 43.563 67 C 45.531 67, 46.454 64.898, 44.906 63.942 C 43.855 63.292, 43.993 62.951, 45.528 62.400 C 46.613 62.010, 47.796 61.535, 48.157 61.344 C 48.518 61.153, 48.565 61.949, 48.260 63.112 C 47.672 65.362, 51.658 65.041, 53.149 62.720 C 54.161 61.144, 57.051 62.705, 56.376 64.462 C 56.003 65.436, 56.351 66, 57.326 66 C 58.172 66, 59.151 65.100, 59.500 64 C 60.151 61.948, 62 61.208, 62 63 C 62 63.550, 63.688 63.948, 65.750 63.884 C 67.813 63.820, 68.713 63.562, 67.750 63.311 C 65.446 62.709, 65.487 60, 67.800 60 C 68.790 60, 70.140 59.460, 70.800 58.800 C 71.733 57.867, 72 57.867, 72 58.800 C 72 61.193, 73.945 59.919, 75.592 56.446 C 76.668 54.180, 77.783 53.086, 78.670 53.427 C 79.507 53.748, 80.522 52.949, 81.220 51.417 L 82.378 48.874 83.844 51.673 C 85.287 54.425, 85.326 54.436, 86.273 52.314 C 86.802 51.128, 88.307 49.889, 89.618 49.560 C 91.124 49.182, 92 48.234, 92 46.981 C 92 44.425, 93.628 44.436, 95 47 C 95.802 48.499, 97.094 49, 100.158 49 C 103.733 49, 104.084 48.806, 102.961 47.453 C 101.956 46.242, 101.506 46.181, 100.893 47.174 C 100.462 47.871, 99.784 48.117, 99.386 47.720 C 98.261 46.594, 101.213 41.868, 102.688 42.434 C 103.409 42.711, 104 42.437, 104 41.826 C 104 41.065, 105.891 40.913, 110 41.342 C 113.696 41.728, 116 41.591, 116 40.985 C 116 38.909, 119.869 40.036, 120.344 42.250 C 120.770 44.233, 120.808 44.203, 120.664 42 C 120.508 39.626, 120.230 39.515, 115.154 39.789 C 111.149 40.006, 109.915 39.756, 110.235 38.794 C 110.471 38.087, 111.302 37.483, 112.082 37.451 C 112.862 37.419, 114.768 37.023, 116.318 36.571 C 118.614 35.901, 119.412 36.143, 120.625 37.875 C 121.569 39.223, 123.189 40, 125.057 40 C 126.676 40, 128 40.436, 128 40.969 C 128 41.501, 128.625 41.697, 129.389 41.404 C 130.214 41.088, 130.590 39.982, 130.315 38.685 C 129.884 36.653, 129.952 36.623, 131.286 38.250 C 133.065 40.420, 135 40.520, 135 38.441 C 135 37.584, 135.400 37.129, 135.888 37.431 C 136.376 37.733, 136.973 36.634, 137.215 34.990 C 137.589 32.442, 137.328 32, 135.449 32 C 130.541 32, 130.383 27.640, 135.160 23.997 C 135.523 23.720, 136.012 22.145, 136.246 20.497 L 136.673 17.500 138.056 20.750 C 139.619 24.425, 140.689 24.778, 142.608 22.250 C 143.788 20.696, 143.955 20.948, 144.104 24.500 C 144.204 26.864, 144.450 27.580, 144.706 26.250 C 145.055 24.438, 145.807 24, 148.570 24 C 151.333 24, 152 23.611, 152 22 C 152 20.871, 152.667 20, 153.531 20 C 155.634 20, 156.608 17.019, 154.896 15.824 C 153.945 15.161, 154.776 15.054, 157.500 15.488 C 159.700 15.839, 162.080 16.883, 162.789 17.808 C 163.899 19.256, 164.205 19.287, 164.982 18.029 C 166.214 16.036, 164.362 14, 161.319 14 C 159.949 14, 159.153 13.562, 159.500 13 C 159.840 12.450, 161.441 12, 163.059 12 C 166.200 12, 166.736 11.136, 164.800 9.200 C 163.867 8.267, 164.089 8, 165.800 8 C 167.010 8, 168 7.592, 168 7.094 C 168 6.595, 167.061 6.433, 165.914 6.733 C 164.173 7.188, 163.883 6.883, 164.164 4.889 C 164.495 2.538, 164.359 2.496, 155.500 2.250 C 150.550 2.113, 144.925 1.727, 143 1.392 C 137.333 0.406, 103.670 0.344, 101.623 1.316 C 100.590 1.806, 99.465 1.823, 99.123 1.353 C 98.216 0.111, 2.018 0.255, 1.062 1.500 M 182.250 313.392 C 184.610 315.184, 184.461 317, 181.955 317 C 180.830 317, 178.847 318.062, 177.550 319.359 C 174.280 322.629, 166 323.669, 166 320.810 C 166 319.250, 166.444 319.006, 168.242 319.577 C 170.235 320.209, 170.333 320.106, 169.120 318.644 C 168.369 317.740, 166.460 317, 164.878 317 C 161.727 317, 160.956 318.581, 163.750 319.311 C 165.417 319.746, 165.417 319.774, 163.750 319.884 C 162.787 319.948, 162 320.675, 162 321.500 C 162 322.325, 161.562 323, 161.026 323 C 158.783 323, 157 328.695, 158.157 332.160 C 159.733 336.878, 159.675 336.848, 168.250 337.288 C 176.400 337.705, 178.346 336.454, 174.250 333.428 C 172.880 332.416, 172.762 331.868, 173.708 330.910 C 174.528 330.077, 175.329 330.003, 176.208 330.680 C 177.990 332.052, 192 332.372, 192 331.040 C 192 330.468, 193.125 330, 194.500 330 C 197.659 330, 197.664 328.840, 194.517 325.855 C 190.869 322.394, 191.121 319.217, 195 319.787 C 196.650 320.029, 198 320.626, 198 321.113 C 198 321.601, 198.900 322, 200 322 C 201.100 322, 202 321.550, 202 321 C 202 320.450, 202.900 320, 204 320 C 205.333 320, 206 320.667, 206 322 C 206 324.521, 207.141 324.531, 210.139 322.033 C 212.446 320.111, 212.452 320.066, 210.394 320.033 C 209.235 320.015, 206.168 318.382, 203.578 316.404 C 199.219 313.076, 198.738 312.927, 197.106 314.404 C 195.368 315.977, 192 316.607, 192 315.360 C 192 315.008, 192.787 314.123, 193.750 313.392 C 195.319 312.201, 195.330 312.060, 193.857 312.032 C 192.953 312.014, 191.955 312.675, 191.638 313.500 C 191.322 314.325, 190.135 315, 189 315 C 187.865 315, 186.678 314.325, 186.362 313.500 C 186.045 312.675, 184.597 312.014, 183.143 312.032 C 180.732 312.061, 180.654 312.180, 182.250 313.392 M 200 328.559 C 200 330.010, 199.567 330.851, 199 330.500 C 197.110 329.332, 198.001 331.559, 200 333 C 201.100 333.793, 202 334.792, 202 335.221 C 202 336.812, 198.392 335.931, 197 334 C 194.446 330.457, 192 331.435, 192 336 L 192 340 184.750 340.160 C 180.762 340.248, 178.963 340.502, 180.750 340.723 C 185.283 341.286, 185.136 344, 180.573 344 C 178.151 344, 177.013 343.487, 176.689 342.250 C 176.345 340.933, 176.203 341.057, 176.116 342.750 C 176.015 344.717, 176.488 345, 179.889 345 C 183.541 345, 183.817 345.213, 184.434 348.500 C 185.373 353.505, 187.349 353.027, 186.500 348 C 185.872 344.285, 187.219 342.158, 188.247 345.241 C 188.714 346.641, 191.323 344.531, 192.134 342.098 C 192.501 340.998, 192.907 341.050, 194.223 342.366 C 196.368 344.511, 199.802 344.671, 198.036 342.544 C 197.372 341.743, 197.118 340.618, 197.473 340.044 C 198.635 338.163, 200 338.949, 200 341.500 C 200 343.477, 200.506 344, 202.417 344 C 203.746 344, 205.018 344.554, 205.243 345.230 C 205.561 346.182, 206.201 346.198, 208.077 345.298 C 209.410 344.658, 209.938 344.105, 209.250 344.068 C 206.915 343.941, 207.653 336, 210 336 C 211.111 336, 212 336.667, 212 337.500 C 212 339.239, 212.890 339.377, 215 337.966 C 216.308 337.092, 216.276 336.832, 214.750 335.932 C 212.084 334.361, 212.640 333.290, 216.500 332.566 C 222.029 331.529, 221.298 328.578, 215.719 329.415 C 212.232 329.938, 211.034 329.681, 209.261 328.028 C 205.877 324.875, 200 325.212, 200 328.559 M 144 456.721 C 140.547 457.340, 139.440 458.620, 140.868 460.341 C 141.801 461.465, 141.715 461.895, 140.462 462.376 C 139.588 462.712, 139.123 463.390, 139.428 463.884 C 139.733 464.377, 138.876 465.506, 137.524 466.393 C 136.100 467.325, 135.294 468.602, 135.609 469.424 C 136.242 471.074, 134.380 475, 132.965 475 C 132.434 475, 132 473.650, 132 472 C 132 470.350, 131.588 469, 131.083 469 C 129.656 469, 129.174 471.313, 130.191 473.288 C 131.170 475.191, 130.361 479.094, 128.775 480.115 C 127.747 480.776, 131.822 485.299, 134.956 486.977 C 138.373 488.805, 144 488.270, 144 486.117 C 144 485.074, 144.893 484, 146 483.710 C 148.047 483.175, 148.853 480, 146.941 480 C 146.359 480, 146.160 479.550, 146.500 479 C 146.840 478.450, 148.006 478, 149.090 478 C 151.856 478, 152.651 475.207, 150.375 473.484 C 148.636 472.166, 148.746 472.061, 151.890 472.032 C 153.927 472.013, 155.787 471.306, 156.552 470.260 C 157.722 468.660, 157.923 468.738, 159.054 471.219 C 160.078 473.467, 160.604 473.747, 162.194 472.896 C 163.245 472.334, 164.869 472.031, 165.802 472.223 C 166.736 472.415, 167.997 471.921, 168.605 471.124 C 169.329 470.175, 170.365 469.944, 171.605 470.454 C 172.847 470.964, 173.069 471.394, 172.250 471.700 C 170.924 472.195, 170.476 476.022, 171.750 475.968 C 176.881 475.751, 176.311 468.712, 171.078 467.666 C 169.135 467.277, 168 466.442, 168 465.403 C 168 464.031, 168.259 463.970, 169.542 465.035 C 170.692 465.989, 171.373 466.027, 172.219 465.181 C 173.044 464.356, 173.712 464.346, 174.676 465.146 C 175.569 465.887, 176 465.903, 176 465.196 C 176 464.619, 176.787 463.941, 177.750 463.689 C 178.713 463.438, 174.395 463.180, 168.156 463.116 C 157.652 463.009, 156.774 462.850, 156.282 460.972 C 155.854 459.333, 155.057 458.998, 152.126 459.222 C 149.145 459.451, 148.552 459.189, 148.794 457.750 C 149.089 455.993, 148.619 455.892, 144 456.721 M 2027.583 480.750 C 2027.171 481.163, 2026.308 481.511, 2025.667 481.524 C 2025.025 481.537, 2024.560 482.307, 2024.632 483.235 C 2024.705 484.163, 2024.405 484.827, 2023.965 484.711 C 2021.926 484.173, 2015.309 489.573, 2013.379 493.349 C 2012.062 495.926, 2010.450 497.621, 2009.129 497.820 C 2007.958 497.995, 2007 498.584, 2007 499.129 C 2007 499.673, 2006.581 499.859, 2006.069 499.543 C 2005.557 499.226, 2004.856 499.425, 2004.510 499.984 C 2004.165 500.543, 2002.839 501, 2001.563 501 C 2000.288 501, 1998.685 501.675, 1998 502.500 C 1997.315 503.325, 1996.135 504, 1995.378 504 C 1994.620 504, 1994 504.691, 1994 505.535 C 1994 506.705, 1993.571 506.841, 1992.196 506.105 C 1989.670 504.753, 1988.399 505.898, 1987.599 510.250 C 1987.159 512.644, 1986.358 514, 1985.383 514 C 1984.544 514, 1983.167 514.691, 1982.323 515.535 C 1981.243 516.614, 1980.422 516.765, 1979.552 516.043 C 1978.114 514.850, 1977.007 515.658, 1976.985 517.917 C 1976.954 521.053, 1975.503 522.142, 1972.748 521.094 C 1969.859 519.996, 1965.021 521.624, 1965.008 523.700 C 1965.004 524.360, 1964.234 525.329, 1963.297 525.854 C 1961.793 526.695, 1961.764 527.015, 1963.047 528.595 C 1963.935 529.688, 1964.014 530.092, 1963.250 529.633 C 1962.384 529.113, 1962 529.643, 1962 531.358 C 1962 532.719, 1962.561 534.020, 1963.247 534.249 C 1964.023 534.508, 1963.667 535.108, 1962.304 535.837 C 1960.628 536.734, 1959.507 536.732, 1957.525 535.830 C 1954.333 534.375, 1940.657 536.284, 1934.503 539.043 C 1932.238 540.059, 1930.067 540.471, 1929.492 539.993 C 1928.156 538.885, 1920.334 542.743, 1916.500 546.402 C 1914.850 547.977, 1911.925 549.921, 1910 550.723 C 1908.075 551.525, 1905.066 553.551, 1903.313 555.226 C 1899.908 558.479, 1898.957 558.248, 1896.216 553.500 C 1895.161 551.674, 1895.058 551.658, 1895.030 553.321 C 1895.003 554.940, 1894.833 554.976, 1893.500 553.643 C 1892.675 552.818, 1892 551.712, 1892 551.186 C 1892 549.962, 1887.008 546.659, 1886.271 547.396 C 1885.965 547.702, 1886.342 548.711, 1887.107 549.640 C 1888.373 551.173, 1888.301 551.221, 1886.316 550.164 C 1883.178 548.492, 1882 548.721, 1882 551 C 1882 552.111, 1881.333 553, 1880.500 553 C 1879.675 553, 1879 552.550, 1879 552 C 1879 551.450, 1878.502 551, 1877.893 551 C 1877.284 551, 1877.051 551.689, 1877.374 552.532 C 1877.772 553.569, 1877.086 554.397, 1875.252 555.094 C 1873.363 555.813, 1872.434 555.803, 1872.187 555.062 C 1871.533 553.100, 1869.761 553.976, 1870.290 556 C 1870.682 557.499, 1870.320 558, 1868.847 558 C 1867.766 558, 1867.160 557.550, 1867.500 557 C 1867.840 556.450, 1867.428 556, 1866.584 556 C 1865.350 556, 1865.241 556.502, 1866.025 558.565 C 1866.561 559.976, 1867 561.278, 1867 561.458 C 1867 563.310, 1851.017 564.645, 1849.929 562.885 C 1849.534 562.245, 1848.662 562.091, 1847.947 562.533 C 1847.245 562.966, 1845.310 563.428, 1843.646 563.559 C 1841.983 563.690, 1840.106 564.502, 1839.476 565.364 C 1838.689 566.439, 1838.007 566.607, 1837.300 565.900 C 1836.733 565.333, 1833.846 564.656, 1830.884 564.395 C 1822.792 563.683, 1821.910 563.473, 1821.029 562.047 C 1820.425 561.070, 1820.046 561.279, 1819.542 562.868 C 1818.840 565.081, 1815 565.908, 1815 563.847 C 1815 563.213, 1814.160 563.663, 1813.133 564.847 C 1812.106 566.031, 1810.306 567, 1809.133 567 C 1807.904 567, 1807 567.636, 1807 568.500 C 1807 569.348, 1806.105 570, 1804.941 570 C 1803.809 570, 1803.143 569.577, 1803.463 569.061 C 1803.782 568.544, 1803.246 568.134, 1802.272 568.151 C 1801.297 568.167, 1798.362 567.486, 1795.750 566.638 C 1793.138 565.790, 1791 565.524, 1791 566.048 C 1791 566.572, 1790.298 567, 1789.441 567 C 1788.584 567, 1788.160 566.550, 1788.500 566 C 1788.840 565.450, 1788.641 565, 1788.059 565 C 1787.477 565, 1787 565.436, 1787 565.969 C 1787 566.501, 1786.325 566.678, 1785.500 566.362 C 1784.675 566.045, 1784 566.195, 1784 566.696 C 1784 567.205, 1781.580 567.339, 1778.500 567 C 1775.475 566.667, 1773 566.796, 1773 567.286 C 1773 567.777, 1771.679 567.067, 1770.065 565.708 C 1766.595 562.789, 1759.343 562.636, 1757.768 565.450 C 1757.207 566.453, 1756.146 566.864, 1755.031 566.510 C 1754.030 566.192, 1752.560 566.583, 1751.765 567.378 C 1748.466 570.677, 1737.353 568.613, 1738.525 564.920 C 1738.913 563.700, 1738.358 562.733, 1736.798 561.911 C 1735.534 561.245, 1734.275 560.397, 1734 560.026 C 1732.720 558.300, 1724.396 556.482, 1721.865 557.375 C 1719.816 558.098, 1718.482 557.848, 1715.865 556.247 C 1712.478 554.175, 1707.969 553.978, 1705.702 555.802 C 1705.041 556.334, 1703.018 557.086, 1701.207 557.473 C 1698.609 558.029, 1697.792 558.792, 1697.332 561.089 C 1697.012 562.690, 1696.164 564, 1695.448 564 C 1693.474 564, 1687.911 571.224, 1688.132 573.500 C 1688.380 576.048, 1685.980 581.106, 1684.854 580.410 C 1684.384 580.119, 1684 580.809, 1684 581.941 C 1684 583.073, 1683.386 584, 1682.635 584 C 1681.884 584, 1680.102 584.918, 1678.675 586.041 L 1676.081 588.081 1674.018 586.018 C 1672.251 584.251, 1671.869 584.177, 1671.359 585.507 C 1670.981 586.493, 1670.076 586.842, 1668.882 586.462 C 1667.763 586.107, 1667 586.345, 1667 587.049 C 1667 587.741, 1666.168 588.016, 1665 587.710 C 1663.900 587.423, 1663 587.483, 1663 587.844 C 1663 589.054, 1650.094 588.494, 1648.829 587.229 C 1647.398 585.798, 1642.378 585.579, 1641.555 586.912 C 1641.226 587.444, 1639.680 587.340, 1637.839 586.662 C 1635.369 585.751, 1634.595 585.772, 1634.258 586.756 C 1634.022 587.447, 1633.421 587.760, 1632.923 587.452 C 1632.425 587.144, 1630.897 588.012, 1629.527 589.382 C 1628.158 590.751, 1626.778 591.450, 1626.460 590.935 C 1625.507 589.393, 1623 589.880, 1623 591.607 C 1623 592.648, 1622.454 593.004, 1621.448 592.618 C 1620.594 592.291, 1620.142 592.421, 1620.442 592.907 C 1621.325 594.334, 1617.745 595.193, 1616.788 593.784 C 1616.115 592.793, 1615.953 592.842, 1616.077 594 C 1616.382 596.858, 1615.995 598.115, 1615 597.500 C 1614.101 596.944, 1613.567 598.257, 1613.882 600.250 C 1613.947 600.663, 1613.325 601, 1612.500 601 C 1611.675 601, 1611 601.450, 1611 602 C 1611 602.550, 1610.662 602.947, 1610.250 602.882 C 1608.114 602.544, 1607.123 603.158, 1607.638 604.500 C 1607.955 605.325, 1607.753 606, 1607.190 606 C 1606.627 606, 1605.950 605.438, 1605.685 604.750 C 1605.419 604.063, 1604.663 604.962, 1604.003 606.750 C 1602.785 610.053, 1601.615 610.804, 1600.500 609 C 1599.552 607.466, 1598 607.813, 1598 609.559 C 1598 610.416, 1598.359 610.896, 1598.798 610.625 C 1599.237 610.354, 1600.243 610.532, 1601.035 611.022 C 1602.165 611.720, 1602.047 611.891, 1600.487 611.814 C 1599.394 611.761, 1597.852 611.893, 1597.059 612.109 C 1596.258 612.326, 1595.439 611.671, 1595.213 610.632 C 1594.922 609.290, 1595.187 608.983, 1596.154 609.542 C 1596.894 609.970, 1597.149 609.935, 1596.721 609.465 C 1595.663 608.302, 1592.851 607.950, 1593.541 609.067 C 1594.438 610.517, 1592.073 614.003, 1590.215 613.970 C 1588.617 613.941, 1588.619 613.870, 1590.250 612.920 C 1592.534 611.590, 1592.489 609.361, 1590.167 608.754 C 1589.031 608.457, 1588.333 608.809, 1588.333 609.680 C 1588.333 610.453, 1588.933 610.856, 1589.667 610.574 C 1590.400 610.293, 1591 610.499, 1591 611.031 C 1591 611.564, 1590.550 612.056, 1590 612.125 C 1589.450 612.194, 1588.475 612.306, 1587.833 612.375 C 1587.192 612.444, 1586.482 613.175, 1586.257 614 C 1585.893 615.333, 1585.966 615.333, 1586.909 614 C 1587.836 612.688, 1587.971 612.704, 1587.985 614.128 C 1587.993 615.023, 1587.325 616.315, 1586.500 617 C 1585.675 617.685, 1585 617.895, 1585 617.467 C 1585 617.040, 1584.081 617.522, 1582.957 618.539 C 1580.964 620.342, 1580.932 620.340, 1581.644 618.444 C 1582.291 616.722, 1582.182 616.657, 1580.687 617.872 C 1579.689 618.684, 1579 618.811, 1579 618.181 C 1579 617.597, 1579.457 616.835, 1580.016 616.490 C 1581.639 615.487, 1579.962 613.777, 1577.887 614.319 C 1576.427 614.701, 1576 614.273, 1576 612.425 C 1576 610.759, 1575.321 609.893, 1573.750 609.558 C 1572.513 609.294, 1570.600 608.888, 1569.500 608.655 C 1568.400 608.422, 1569.772 608.180, 1572.550 608.116 C 1575.327 608.052, 1578.111 608.511, 1578.736 609.136 C 1580.160 610.560, 1582.993 608.035, 1583.015 605.321 C 1583.025 604.216, 1583.319 603.930, 1583.765 604.595 C 1584.771 606.095, 1601.005 607.928, 1600.985 606.540 C 1600.939 603.425, 1599.191 602.746, 1592.862 603.387 C 1586.568 604.023, 1582.018 602.975, 1585.416 601.671 C 1587.484 600.877, 1587.564 593.128, 1585.532 590.441 C 1584.177 588.649, 1584.060 588.885, 1584.018 593.500 C 1583.950 600.960, 1583.114 603.539, 1581.485 601.311 C 1580.412 599.843, 1579.969 599.781, 1578.608 600.910 C 1577.545 601.792, 1577 601.864, 1577 601.122 C 1577 600.505, 1575.524 600, 1573.721 600 C 1571.589 600, 1569.937 599.300, 1569 598 C 1567.946 596.537, 1566.411 596, 1563.288 596 C 1560.100 596, 1558.700 596.507, 1557.768 598 C 1557.081 599.100, 1555.672 600, 1554.637 600 C 1553.027 600, 1552.947 599.769, 1554.080 598.403 C 1555.198 597.057, 1555.139 596.657, 1553.703 595.854 C 1552.766 595.329, 1552 594.248, 1552 593.450 C 1552 592.653, 1551.550 592, 1551 592 C 1550.450 592, 1550 591.127, 1550 590.059 C 1550 588.991, 1550.450 587.840, 1551 587.500 C 1551.565 587.151, 1552 587.969, 1552 589.381 C 1552 592.369, 1553.912 592.671, 1569.750 592.186 L 1580 591.871 1580 589.293 L 1580 586.714 1572.069 587.258 C 1563.877 587.819, 1562.251 587.115, 1563.604 583.590 C 1563.929 582.743, 1563.318 581.918, 1562.072 581.523 C 1560.933 581.161, 1560 580.221, 1560 579.433 C 1560 577.507, 1559.439 577.615, 1555.908 580.226 C 1553.340 582.124, 1552.761 582.235, 1551.974 580.976 C 1550.901 579.261, 1546 583.709, 1546 586.397 C 1546 589.158, 1544.140 589.054, 1543.658 586.267 C 1543.395 584.745, 1543.255 585.638, 1543.347 588.250 L 1543.514 593 1539.757 593 C 1532.866 593, 1535.890 594.782, 1544 595.500 C 1551.995 596.208, 1552 596.210, 1552 599.104 C 1552 601.816, 1551.746 602, 1548 602 C 1544.167 602, 1543.997 602.136, 1543.937 605.250 C 1543.879 608.200, 1543.790 608.292, 1542.969 606.250 C 1541.820 603.392, 1538.016 603.224, 1537.290 606 C 1537.002 607.100, 1536.369 608, 1535.883 608 C 1535.398 608, 1535 609.800, 1535 612 C 1535 615.753, 1535.180 616, 1537.918 616 C 1544.983 616, 1546.347 619.408, 1539.750 620.578 L 1535.500 621.331 1540 622.511 L 1544.500 623.691 1540.366 624.853 C 1535.715 626.160, 1533.495 628.241, 1534.357 630.487 C 1534.817 631.686, 1534.085 632, 1530.829 632 C 1528.074 632, 1526.295 632.577, 1525.430 633.750 C 1524.219 635.393, 1524.012 635.363, 1522.031 633.250 C 1520.871 632.013, 1519.365 631, 1518.683 631 C 1518.002 631, 1516.632 630.051, 1515.639 628.892 C 1514.258 627.279, 1513.129 626.924, 1510.835 627.383 C 1509.186 627.713, 1506.973 627.521, 1505.918 626.956 C 1504.223 626.049, 1504 626.283, 1504 628.965 C 1504 631.536, 1503.618 632, 1501.500 632 C 1496.951 632, 1497.832 624.226, 1502.429 623.810 C 1505.619 623.522, 1505.759 623.366, 1504.445 621.581 C 1503.186 619.870, 1502.840 619.821, 1501.266 621.132 C 1500.295 621.941, 1497.025 622.721, 1494 622.866 C 1490.045 623.054, 1487.871 623.718, 1486.260 625.228 C 1484.090 627.264, 1483.959 627.273, 1482.010 625.509 C 1480.043 623.729, 1480 623.749, 1480 626.416 C 1480 630.337, 1477.820 632.011, 1472.821 631.930 C 1469.489 631.876, 1468.958 631.663, 1470.500 631 C 1472.253 630.247, 1472.280 630.132, 1470.717 630.070 C 1466.767 629.915, 1460.041 639.120, 1463.250 640.289 C 1465.585 641.139, 1457.029 642.225, 1454.257 641.430 C 1451.668 640.687, 1451.637 640.616, 1453.750 640.250 C 1458.278 639.467, 1455.834 638, 1450 638 C 1446.667 638, 1444 638.444, 1444 639 C 1444 639.550, 1443.100 640, 1442 640 C 1440.533 640, 1440 640.667, 1440 642.500 C 1440 644.750, 1439.600 645, 1436 645 C 1433.800 645, 1432 645.445, 1432 645.989 C 1432 646.533, 1430.987 646.987, 1429.750 646.998 C 1425.255 647.039, 1423 647.445, 1423 648.214 C 1423 648.646, 1421.623 649, 1419.941 649 C 1418.259 649, 1417.141 648.581, 1417.457 648.069 C 1418.571 646.267, 1415.792 645.810, 1407.936 646.506 C 1402.056 647.026, 1400 647.578, 1400 648.635 C 1400 650.938, 1396.868 651.540, 1395.392 649.522 C 1394.283 648.005, 1393.313 647.842, 1389.287 648.495 C 1382.563 649.587, 1377.683 649.227, 1376.430 647.546 C 1375.524 646.330, 1374.757 646.309, 1371.430 647.411 C 1368.838 648.269, 1363.328 648.618, 1355.250 648.436 C 1345.450 648.216, 1343 648.433, 1343 649.521 C 1343 651.807, 1340.775 652.412, 1339.380 650.505 C 1338.656 649.515, 1338.289 648.341, 1338.564 647.896 C 1338.839 647.451, 1336.913 647.279, 1334.282 647.514 C 1324.901 648.351, 1316.529 648.770, 1318.250 648.316 C 1319.213 648.061, 1320 647.211, 1320 646.427 C 1320 644.718, 1318.818 644.582, 1317.284 646.116 C 1316.463 646.937, 1315.559 646.805, 1313.862 645.616 C 1312.593 644.727, 1310.331 644, 1308.834 644 C 1307.338 644, 1305.525 643.212, 1304.807 642.250 C 1304.088 641.288, 1302.938 640.455, 1302.250 640.400 C 1301.563 640.345, 1299.875 640.232, 1298.500 640.150 C 1296.717 640.043, 1296 639.427, 1296 638 C 1296 636.120, 1291.966 635.236, 1286.383 635.895 C 1284.442 636.124, 1282.407 632.985, 1283.898 632.063 C 1285.883 630.836, 1282.657 629.858, 1272.432 628.586 L 1263.365 627.457 1263.799 629.729 C 1264.140 631.512, 1263.778 632, 1262.117 632 C 1260.656 632, 1260 631.371, 1260 629.969 C 1260 628.851, 1259.353 627.689, 1258.563 627.386 C 1257.773 627.083, 1257.371 626.197, 1257.670 625.417 C 1257.969 624.638, 1257.716 624, 1257.107 624 C 1256.498 624, 1256 624.900, 1256 626 C 1256 627.100, 1255.649 628, 1255.221 628 C 1254.792 628, 1253.793 627.100, 1253 626 C 1252.207 624.900, 1250.602 624, 1249.432 624 C 1248.263 624, 1246.899 623.102, 1246.403 622.005 C 1245.539 620.095, 1245.360 620.140, 1242.230 623.074 C 1238.298 626.759, 1235.747 626.555, 1234.876 622.488 C 1234.524 620.845, 1234.183 620.089, 1234.118 620.809 C 1233.935 622.837, 1232 621.130, 1232 618.941 C 1232 617.346, 1231.293 617, 1228.031 617 C 1225.121 617, 1224.200 616.642, 1224.578 615.657 C 1224.990 614.585, 1222.570 614.271, 1212.547 614.095 C 1200.468 613.883, 1200 613.952, 1200 615.937 C 1200 617.849, 1200.586 618, 1208 618 C 1215.333 618, 1216 618.167, 1216 620 C 1216 621.660, 1215.333 622, 1212.083 622 C 1209.929 622, 1208.002 622.495, 1207.800 623.101 C 1207.160 625.021, 1189.986 624.726, 1188.894 622.775 C 1186.695 618.845, 1168.315 617.989, 1167.653 621.786 C 1167.393 623.279, 1167.255 622.362, 1167.347 619.750 C 1167.439 617.138, 1167.174 615, 1166.757 615 C 1166.341 615, 1166 613.965, 1166 612.700 C 1166 610.375, 1164.341 608, 1162.717 608 C 1162.231 608, 1162.037 608.563, 1162.286 609.250 C 1162.535 609.938, 1162.028 611.315, 1161.159 612.311 C 1160.215 613.394, 1159.966 614.399, 1160.540 614.811 C 1161.070 615.191, 1161.231 617.516, 1160.900 620 C 1160.570 622.475, 1160.233 623.995, 1160.150 623.378 C 1160.068 622.761, 1158.313 621.977, 1156.250 621.637 C 1147.482 620.189, 1144.862 619.009, 1145.557 616.821 C 1146.025 615.347, 1145.826 614.892, 1144.855 615.219 C 1144.047 615.491, 1143.630 616.750, 1143.822 618.337 C 1143.998 619.802, 1143.686 621, 1143.126 621 C 1142.567 621, 1141.972 618.893, 1141.805 616.317 C 1141.483 611.377, 1138.337 609.137, 1133.750 610.583 C 1131.871 611.175, 1131.300 614, 1133.059 614 C 1133.641 614, 1133.840 614.450, 1133.500 615 C 1133.160 615.550, 1130.696 616, 1128.024 616 C 1125.074 616, 1122.969 616.491, 1122.662 617.250 C 1122.385 617.938, 1122.122 617.514, 1122.079 616.309 C 1121.941 612.478, 1120 612.634, 1120 616.476 C 1120 619.720, 1119.811 619.969, 1118.066 619.035 C 1115.038 617.415, 1108.977 617.813, 1102.986 620.026 C 1099.188 621.429, 1096.331 621.861, 1093.700 621.430 C 1090.141 620.847, 1089.825 621.005, 1088.730 623.904 C 1087.522 627.105, 1084 628.294, 1084 625.500 C 1084 623.375, 1079.394 623.583, 1078.458 625.750 C 1078.043 626.712, 1077.802 628.513, 1077.923 629.750 C 1078.044 630.987, 1077.605 632, 1076.947 632 C 1076.290 632, 1072.263 633.575, 1068 635.500 C 1063.737 637.425, 1059.341 639, 1058.231 639 C 1057.122 639, 1055.955 639.675, 1055.638 640.500 C 1055.004 642.154, 1050 642.598, 1050 641 C 1050 639.049, 1047.205 640.038, 1045.541 642.578 C 1044.552 644.087, 1043.262 644.931, 1042.431 644.612 C 1040.665 643.934, 1032 647.550, 1032 648.964 C 1032 649.534, 1031.100 650, 1030 650 C 1028.900 650, 1028 649.550, 1028 649 C 1028 648.450, 1028.436 648, 1028.969 648 C 1029.501 648, 1029.678 647.325, 1029.362 646.500 C 1028.515 644.293, 1024.905 644.648, 1024.290 647 C 1024.002 648.100, 1022.988 649, 1022.036 649 C 1019.735 649, 1016 652.321, 1016 654.367 C 1016 655.265, 1015.325 656, 1014.500 656 C 1013.675 656, 1013 656.450, 1013 657 C 1013 657.550, 1011.875 658, 1010.500 658 C 1007.899 658, 1007.075 656.497, 1009.250 655.720 C 1009.938 655.475, 1010.138 654.888, 1009.696 654.416 C 1009.253 653.944, 1008.548 654.114, 1008.128 654.793 C 1007.699 655.486, 1005.102 656.079, 1002.204 656.144 C 996.465 656.273, 996.020 658, 1001.726 658 C 1007.244 658, 1004.945 659.077, 997.439 660.008 C 992.783 660.585, 990.155 660.489, 988.884 659.695 C 987.393 658.765, 986.753 658.920, 985.467 660.525 C 983.952 662.416, 983.901 662.361, 984.269 659.250 C 984.623 656.262, 984.427 656, 981.838 656 C 978.434 656, 974.959 658.729, 975.747 660.784 C 976.126 661.771, 975.844 662.101, 974.909 661.761 C 974.134 661.480, 973.579 660.845, 973.675 660.350 C 973.771 659.855, 972.481 658.665, 970.808 657.705 L 967.767 655.959 968.203 658.927 C 968.442 660.559, 968.289 661.679, 967.863 661.415 C 966.857 660.793, 960.003 663.652, 959.991 664.699 C 959.985 665.140, 957.960 666.388, 955.491 667.474 C 953.021 668.560, 951 670.022, 951 670.724 C 951 671.516, 949.671 672, 947.500 672 C 944.709 672, 944 672.391, 944 673.930 C 944 675.168, 943.196 675.976, 941.760 676.180 C 938.656 676.623, 938.224 679.734, 941.191 680.282 C 942.461 680.516, 941.466 680.521, 938.979 680.292 C 936.493 680.063, 933.155 680.371, 931.562 680.976 C 929.620 681.715, 928.459 681.743, 928.039 681.063 C 926.423 678.448, 920.029 681.893, 920.658 685.038 C 921.020 686.851, 920.833 688, 920.175 688 C 917.946 688, 909.671 694.444, 907.776 697.656 C 906.690 699.495, 905.397 701, 904.901 701 C 904.406 701, 904 701.482, 904 702.071 C 904 702.661, 903.325 703.818, 902.500 704.643 C 900.593 706.550, 900.593 707.907, 902.500 708.638 C 903.334 708.958, 904 710.444, 904 711.985 C 904 713.508, 904.675 715.315, 905.500 716 C 907.538 717.692, 907.394 719.999, 905.250 720.007 C 904 720.011, 904.358 720.579, 906.500 721.993 C 908.150 723.081, 909.650 723.528, 909.833 722.986 C 910.017 722.444, 910.804 722, 911.583 722 C 912.363 722, 913 721.550, 913 721 C 913 720.450, 912.235 720, 911.300 720 C 910.063 720, 909.900 719.700, 910.701 718.899 C 911.918 717.682, 919 719.690, 919 721.252 C 919 722.456, 925.973 725.224, 927.516 724.632 C 930.174 723.612, 936 731.784, 936 736.532 C 936 739.633, 936.508 741.200, 937.750 741.932 C 939.131 742.746, 939.224 743.145, 938.190 743.828 C 936.851 744.711, 940.615 748, 942.965 748 C 943.574 748, 944 750.725, 944 754.625 L 944 761.250 947.116 760.627 C 950.028 760.044, 950.201 760.169, 949.748 762.536 C 949.482 763.929, 949.484 764.849, 949.754 764.580 C 950.610 763.723, 962.232 772.172, 962.710 773.999 C 962.962 774.963, 964.256 776.334, 965.584 777.045 C 966.913 777.756, 968 778.712, 968 779.169 C 968 780.321, 975.164 780.186, 977 779 C 978 778.354, 978.083 778.026, 977.250 778.015 C 976.563 778.007, 976 777.325, 976 776.500 C 976 774.569, 976.297 774.601, 981.075 777.038 C 983.469 778.260, 984.794 779.524, 984.381 780.193 C 983.977 780.846, 984.142 781.030, 984.777 780.638 C 985.374 780.269, 986.569 780.974, 987.432 782.206 C 988.294 783.437, 989 783.920, 989 783.279 C 989 782.638, 990.326 781.330, 991.946 780.373 C 993.566 779.416, 994.667 778.271, 994.394 777.828 C 994.120 777.385, 994.668 777.319, 995.612 777.681 C 996.868 778.164, 997.109 777.985, 996.510 777.015 C 995.928 776.075, 996.074 775.927, 997.012 776.507 C 998.280 777.291, 993.782 781.982, 991.750 781.995 C 991.337 781.998, 991 782.830, 991 783.845 C 991 786.973, 987.385 789.563, 985.358 787.888 C 983.842 786.636, 983.729 786.769, 984.200 789.250 C 984.563 791.159, 984.306 792, 983.361 792 C 982.613 792, 982 792.435, 982 792.967 C 982 793.498, 980.454 795.479, 978.565 797.368 C 976.672 799.261, 974.635 802.643, 974.026 804.902 C 973.380 807.302, 972.324 809, 971.477 809 C 970.681 809, 968.336 811.209, 966.265 813.908 C 964.194 816.607, 961.591 819.065, 960.480 819.369 C 959.113 819.744, 958.004 821.473, 957.054 824.711 C 955.250 830.856, 952.528 837.017, 948.891 843.186 C 947.301 845.882, 946 849.404, 946 851.013 C 946 854.669, 942.647 861.220, 939.027 864.636 C 935.079 868.363, 935.782 877.578, 940.288 881.141 C 942.685 883.037, 944.963 889.847, 944.985 895.184 C 944.998 898.393, 944.205 899.638, 938.835 904.845 C 933.308 910.204, 932.684 911.212, 932.811 914.587 C 932.889 916.658, 932.457 918.949, 931.852 919.679 C 931.237 920.419, 931.023 922.365, 931.367 924.084 C 932.055 927.524, 930.843 930.424, 927.348 933.702 C 925.921 935.041, 925 937.052, 925 938.830 C 925 940.439, 924.325 942.315, 923.500 943 C 922.675 943.685, 922 944.786, 922 945.448 C 922 946.846, 917.580 951.247, 916.880 950.547 C 916.468 950.134, 916.464 952.804, 916.871 956.750 C 916.942 957.438, 917.900 958, 919 958 C 922.330 958, 921.244 959.854, 917.250 960.986 C 912.740 962.266, 904.601 972.647, 902.152 980.242 C 901.311 982.851, 899.920 985.212, 899.062 985.490 C 898.203 985.768, 895.787 987.571, 893.694 989.498 C 891.601 991.424, 889.249 993, 888.467 993 C 885.745 993, 883.957 997.528, 883.685 1005.112 C 883.516 1009.818, 882.834 1013.408, 881.805 1015 C 880.917 1016.375, 879.848 1019.975, 879.429 1023 C 879.010 1026.025, 878.498 1029.400, 878.292 1030.500 C 877.899 1032.590, 877.958 1046.931, 878.403 1057.890 C 878.601 1062.762, 879.104 1064.603, 880.521 1065.639 C 882.325 1066.958, 882.310 1067.341, 879.993 1078.748 C 877.362 1091.700, 875.729 1094.281, 870.787 1093.302 C 865.930 1092.340, 863.348 1093.672, 861.600 1098.042 C 860.580 1100.591, 859.550 1101.840, 858.833 1101.397 C 858.115 1100.953, 857.966 1101.136, 858.432 1101.890 C 860.661 1105.496, 859.139 1116.465, 856.049 1119.073 C 854.372 1120.488, 853 1122.331, 853 1123.169 C 853 1125.730, 849.908 1131.061, 848.815 1130.386 C 848.159 1129.980, 848.278 1129.433, 849.143 1128.875 C 850.286 1128.138, 850.286 1127.862, 849.143 1127.125 C 848.197 1126.515, 848.121 1126.043, 848.893 1125.566 C 849.502 1125.190, 850 1125.385, 850 1126 C 850 1126.615, 850.457 1126.835, 851.016 1126.490 C 851.575 1126.144, 851.779 1125.452, 851.470 1124.952 C 851.161 1124.451, 851.422 1123.080, 852.051 1121.905 C 852.967 1120.193, 852.926 1119.866, 851.847 1120.259 C 851.106 1120.529, 850.598 1121.214, 850.718 1121.780 C 850.838 1122.347, 850.266 1123.068, 849.445 1123.383 C 848.232 1123.848, 848.154 1123.582, 849.023 1121.957 C 850.531 1119.140, 849.264 1117.697, 845.879 1118.374 C 843.223 1118.905, 843 1118.719, 843 1115.975 C 843 1112.625, 842.955 1112.652, 846.357 1113.946 C 848.207 1114.649, 849.153 1114.520, 850.045 1113.446 C 851.071 1112.210, 850.300 1112, 844.739 1112 C 838.996 1112, 838.170 1111.757, 837.691 1109.925 C 837.229 1108.161, 836.834 1108.018, 835.053 1108.971 C 833.901 1109.588, 832.509 1109.815, 831.960 1109.475 C 829.979 1108.251, 824 1111.044, 824 1113.193 C 824 1115.087, 823.839 1115.124, 821.708 1113.728 C 820.448 1112.903, 818.535 1112.003, 817.458 1111.729 C 815.825 1111.314, 815.790 1111.213, 817.250 1111.116 C 819.221 1110.985, 819.693 1108.997, 817.750 1109.006 C 817.063 1109.010, 815.308 1109.634, 813.852 1110.394 C 811.544 1111.598, 810.998 1111.570, 809.602 1110.173 C 808.133 1108.704, 808 1108.713, 808 1110.286 C 808 1111.229, 807.325 1112, 806.500 1112 C 805.675 1112, 805 1112.675, 805 1113.500 C 805 1114.325, 804.550 1115, 804 1115 C 803.450 1115, 803 1114.341, 803 1113.535 C 803 1111.286, 799.199 1109.590, 797.436 1111.053 C 796.227 1112.056, 796 1111.589, 796 1108.099 L 796 1103.954 798.750 1105.664 C 800.263 1106.605, 802.288 1108.035, 803.250 1108.842 C 804.355 1109.769, 805 1109.893, 805 1109.178 C 805 1108.555, 803.861 1107.300, 802.469 1106.388 C 801.077 1105.475, 800.181 1104.486, 800.478 1104.189 C 801.403 1103.264, 796.860 1099.117, 795.495 1099.640 C 794.784 1099.913, 793.973 1099.766, 793.694 1099.313 C 793.414 1098.861, 789.656 1098.799, 785.343 1099.176 C 767.854 1100.706, 763.851 1100.534, 761.938 1098.172 C 759.660 1095.358, 759.169 1095.432, 759.755 1098.500 C 760.317 1101.440, 760.304 1101.443, 755.622 1099.487 C 752.223 1098.066, 750.704 1096, 753.059 1096 C 753.641 1096, 753.864 1095.589, 753.553 1095.086 C 753.243 1094.584, 751.198 1095.146, 749.009 1096.336 L 745.030 1098.500 748.253 1099 C 750.161 1099.296, 751.604 1100.164, 751.788 1101.127 C 752.284 1103.719, 734.066 1102.581, 732.128 1099.899 C 730.678 1097.892, 728 1097.309, 728 1099 C 728 1099.550, 727.311 1100, 726.469 1100 C 725.626 1100, 724.678 1100.675, 724.362 1101.500 C 723.631 1103.404, 720 1103.474, 720 1101.583 C 720 1100.804, 720.563 1099.966, 721.250 1099.720 C 721.977 1099.461, 722.129 1098.903, 721.613 1098.387 C 721.097 1097.871, 720.539 1098.023, 720.280 1098.750 C 719.506 1100.917, 716.169 1100.179, 715.759 1097.750 C 715.439 1095.857, 715.093 1096.174, 713.581 1099.750 C 712.408 1102.522, 711.153 1104, 709.973 1104 C 708.978 1104, 707.564 1104.151, 706.832 1104.336 C 706.099 1104.521, 705.837 1104.483, 706.250 1104.253 C 707.607 1103.494, 707.032 1101, 705.500 1101 C 704.675 1101, 704 1100.148, 704 1099.107 C 704 1096.393, 701.075 1095.629, 698.709 1097.726 C 697.313 1098.964, 696.581 1099.138, 696.288 1098.302 C 695.966 1097.382, 695.275 1097.373, 693.324 1098.262 C 691.167 1099.245, 690.572 1099.135, 689.405 1097.539 C 688.192 1095.880, 687.490 1095.780, 683.491 1096.695 C 680.975 1097.270, 678.714 1097.347, 678.418 1096.867 C 677.522 1095.417, 674.800 1095.896, 673.392 1097.750 C 672.581 1098.819, 672.051 1099.013, 672.032 1098.250 C 671.976 1096.044, 664.965 1096.735, 662.867 1099.153 C 660.735 1101.611, 660.675 1101.942, 661.985 1104 C 662.711 1105.140, 662.408 1105.630, 660.720 1106.041 C 659.364 1106.371, 658.369 1107.494, 658.163 1108.927 C 657.810 1111.377, 662.466 1111.578, 670 1109.438 C 671.619 1108.978, 672.148 1109.069, 671.500 1109.695 C 667.535 1113.531, 656.549 1113.322, 655.562 1109.391 C 655.232 1108.076, 654.494 1107, 653.922 1107 C 653.350 1107, 653.203 1106.480, 653.596 1105.844 C 654.110 1105.013, 653.286 1104.854, 650.669 1105.279 C 648.237 1105.673, 646.773 1105.446, 646.263 1104.594 C 644.983 1102.455, 641.113 1101.991, 639.998 1103.843 C 639.104 1105.329, 638.873 1105.341, 637.751 1103.958 C 637.063 1103.110, 634.813 1101.626, 632.750 1100.661 C 630.688 1099.696, 629 1098.477, 629 1097.953 C 629 1097.429, 628.311 1097, 627.469 1097 C 626.626 1097, 625.689 1096.352, 625.385 1095.561 C 624.976 1094.495, 624.065 1094.995, 621.874 1097.491 C 618.357 1101.497, 616.566 1101.439, 602.788 1096.873 C 594.489 1094.123, 575.028 1091.247, 573.039 1092.476 C 572.543 1092.782, 571.856 1092.575, 571.510 1092.016 C 571.165 1091.457, 571.414 1091, 572.063 1091 C 572.944 1091, 572.928 1090.618, 572 1089.500 C 571.315 1088.675, 570.248 1088.036, 569.628 1088.079 C 568.968 1088.125, 569.041 1088.375, 569.803 1088.680 C 570.778 1089.071, 570.652 1089.546, 569.303 1090.569 C 567.133 1092.214, 565 1092.399, 565 1090.941 C 565 1090.359, 565.520 1090.203, 566.155 1090.595 C 566.886 1091.048, 567.037 1090.869, 566.565 1090.106 C 565.988 1089.172, 565.489 1089.179, 564.335 1090.137 C 563.449 1090.873, 562.575 1090.993, 562.174 1090.436 C 561.419 1089.388, 559.020 1089.242, 557.500 1090.151 C 556.079 1091.001, 545 1089.920, 545 1088.932 C 545 1088.480, 547.813 1088.244, 551.250 1088.406 C 554.733 1088.570, 558.138 1088.213, 558.942 1087.600 C 560.018 1086.779, 560.204 1086.801, 559.674 1087.684 C 559.196 1088.480, 559.721 1088.787, 561.274 1088.621 C 565.732 1088.146, 568.049 1085, 563.941 1085 C 562.809 1085, 562.123 1084.610, 562.417 1084.134 C 563.562 1082.282, 559.194 1079.830, 555.342 1080.162 C 552.349 1080.420, 551.453 1080.115, 551.190 1078.749 C 550.952 1077.514, 551.312 1077.183, 552.427 1077.610 C 553.455 1078.005, 554 1077.658, 554 1076.607 C 554 1075.723, 553.550 1075, 553 1075 C 552.450 1075, 552 1074.073, 552 1072.941 C 552 1071.809, 551.550 1071.160, 551 1071.500 C 550.450 1071.840, 550 1073.441, 550 1075.059 C 550 1077.333, 549.547 1078, 548 1078 C 546.521 1078, 546 1077.333, 546 1075.441 C 546 1074.034, 545.663 1073.077, 545.250 1073.316 C 544.838 1073.554, 543.600 1073.388, 542.500 1072.945 C 540.802 1072.262, 540.764 1072.130, 542.250 1072.070 C 543.310 1072.028, 544 1071.211, 544 1070 C 544 1068.900, 544.450 1068, 545 1068 C 545.550 1068, 546 1068.450, 546 1069 C 546 1069.550, 546.450 1070, 547 1070 C 548.603 1070, 548.154 1067.837, 546.250 1066.392 C 544.210 1064.843, 536 1064.529, 536 1066 C 536 1066.550, 534.200 1067, 532 1067 C 529.374 1067, 528 1067.449, 528 1068.307 C 528 1069.026, 526.763 1070.103, 525.250 1070.701 L 522.500 1071.787 525.250 1071.894 C 526.763 1071.952, 528 1072.398, 528 1072.883 C 528 1074.470, 524 1074.857, 522.554 1073.411 C 520.592 1071.449, 520.002 1071.641, 519.985 1074.250 C 519.973 1075.997, 519.765 1076.177, 519.056 1075.057 C 518.318 1073.889, 517.653 1073.837, 515.576 1074.784 C 512.737 1076.077, 508.587 1075.043, 507.668 1072.815 C 507.235 1071.766, 506.860 1071.804, 505.813 1073 C 505.091 1073.825, 503.712 1074.537, 502.750 1074.583 C 496.991 1074.858, 496.472 1075.012, 498 1076 C 499.266 1076.818, 499.213 1076.972, 497.656 1076.985 C 496.636 1076.993, 495.569 1077.932, 495.267 1079.087 C 494.743 1081.092, 494.287 1081.150, 483.611 1080.568 C 469.955 1079.824, 421.085 1079.829, 419.877 1080.576 C 419.395 1080.874, 419 1080.664, 419 1080.109 C 419 1079.554, 419.784 1078.661, 420.742 1078.125 C 423.257 1076.717, 421.993 1076.009, 415.886 1075.405 C 408.274 1074.651, 405.441 1073.969, 406.648 1073.181 C 407.221 1072.807, 407.969 1070.736, 408.310 1068.581 C 408.650 1066.425, 409.332 1064.400, 409.824 1064.081 C 410.316 1063.761, 411.307 1061.854, 412.027 1059.841 C 413.010 1057.093, 414.035 1056.043, 416.148 1055.620 C 418.769 1055.096, 419.407 1052, 416.893 1052 C 416.402 1052, 416 1050.875, 416 1049.500 C 416 1047.223, 416.379 1047.001, 420.250 1047.015 C 423.392 1047.027, 424.109 1047.287, 423 1048.015 C 421.937 1048.713, 421.830 1049.218, 422.634 1049.750 C 423.258 1050.162, 423.975 1051.400, 424.227 1052.500 C 424.635 1054.281, 424.809 1054.199, 425.818 1051.750 C 426.551 1049.971, 426.629 1048.155, 426.041 1046.607 C 425.540 1045.291, 425.379 1043.266, 425.682 1042.107 C 426 1040.893, 425.760 1040, 425.117 1040 C 424.502 1040, 424 1040.675, 424 1041.500 C 424 1042.583, 422.889 1043, 420 1043 C 417.800 1043, 416 1043.450, 416 1044 C 416 1044.550, 415.311 1045, 414.469 1045 C 413.626 1045, 412.678 1045.675, 412.362 1046.500 C 412.016 1047.402, 410.507 1048, 408.582 1048 C 404.832 1048, 401.053 1051.087, 400.882 1054.289 C 400.790 1055.998, 400.602 1055.819, 400.054 1053.500 L 399.344 1050.500 398.012 1053.250 C 396.953 1055.435, 395.993 1056, 393.339 1056 C 391.503 1056, 390 1056.444, 390 1056.987 C 390 1057.529, 388.419 1058.634, 386.486 1059.441 C 384.553 1060.249, 382.710 1061.718, 382.390 1062.705 C 382.070 1063.692, 381.553 1065.175, 381.240 1066 C 380.928 1066.825, 380.634 1067.933, 380.586 1068.462 C 380.462 1069.849, 372.685 1071.555, 372.263 1070.289 C 371.090 1066.770, 369.552 1066.161, 364.750 1067.314 C 362.137 1067.941, 360 1068.833, 360 1069.295 C 360 1069.757, 359.042 1069.831, 357.870 1069.459 C 356.699 1069.087, 354.561 1068.650, 353.120 1068.488 C 351.679 1068.326, 348.137 1067.862, 345.250 1067.457 C 341.558 1066.940, 340 1067.060, 340 1067.861 C 340 1068.487, 339.100 1069, 338 1069 C 336.900 1069, 336 1068.571, 336 1068.047 C 336 1066.494, 328.721 1064.834, 327.880 1066.195 C 327.369 1067.020, 326.456 1066.874, 324.621 1065.671 C 321.229 1063.449, 320 1063.564, 320 1066.107 C 320 1067.727, 319.596 1068.044, 318.250 1067.478 C 317.288 1067.074, 315.488 1066.523, 314.250 1066.255 C 311.624 1065.685, 311.213 1064, 313.700 1064 C 314.969 1064, 315.112 1063.712, 314.264 1062.864 C 313.416 1062.016, 312.034 1062.772, 308.814 1065.845 L 304.500 1069.963 304.192 1067.060 C 303.925 1064.535, 303.371 1064.070, 299.942 1063.490 C 297.528 1063.082, 296 1062.277, 296 1061.412 C 296 1059.781, 294.411 1059.525, 293.494 1061.009 C 292.120 1063.233, 294.101 1066, 297.067 1066 C 298.680 1066, 300 1066.450, 300 1067 C 300 1067.550, 299.100 1068, 298 1068 C 296.667 1068, 296 1068.667, 296 1070 C 296 1071.100, 295.438 1072.005, 294.750 1072.011 C 294.063 1072.018, 292.640 1073.818, 291.589 1076.011 C 289.732 1079.889, 288.961 1080.301, 283.658 1080.260 C 281.923 1080.246, 281.915 1080.339, 283.528 1081.873 C 284.599 1082.891, 285.392 1083.096, 285.647 1082.420 C 285.892 1081.769, 288.325 1081.461, 291.777 1081.644 C 295.997 1081.868, 296.843 1081.718, 295 1081.074 L 292.500 1080.199 295.050 1080.100 C 296.452 1080.045, 298.159 1080.559, 298.842 1081.242 C 299.794 1082.194, 300.255 1082.206, 300.818 1081.294 C 301.280 1080.546, 302.080 1080.431, 302.974 1080.984 C 304.879 1082.161, 302.471 1082.651, 288 1084.031 C 272.738 1085.486, 269.673 1085.850, 262 1087.114 C 258.425 1087.703, 254.488 1088.200, 253.250 1088.217 C 252.012 1088.235, 251 1088.575, 251 1088.972 C 251 1089.864, 231.402 1094.614, 224.269 1095.450 C 219.829 1095.971, 219.127 1095.832, 219.626 1094.532 C 219.949 1093.689, 220.841 1093, 221.607 1093 C 223.463 1093, 223.389 1091.363, 221.500 1090.638 C 219.293 1089.791, 219.666 1088.517, 222.576 1086.959 C 224.656 1085.846, 225.030 1085.090, 224.516 1083.040 C 224.165 1081.643, 223.788 1079.375, 223.678 1078 C 223.501 1075.792, 223.041 1075.513, 219.739 1075.614 C 217.109 1075.694, 216 1075.304, 216 1074.297 C 216 1073.417, 215.325 1073.050, 214.250 1073.345 C 206.055 1075.594, 199.021 1076.252, 196.100 1075.042 C 193.650 1074.027, 192.688 1074.014, 191.524 1074.980 C 190.714 1075.653, 188.577 1076.332, 186.775 1076.489 C 184.974 1076.646, 182.488 1077.103, 181.250 1077.504 C 179.825 1077.966, 179 1077.824, 179 1077.117 C 179 1076.502, 179.477 1076, 180.059 1076 C 180.641 1076, 180.829 1075.532, 180.475 1074.959 C 180.121 1074.387, 178.970 1074.192, 177.916 1074.527 C 175.826 1075.190, 175.217 1073.483, 177.250 1072.662 C 177.938 1072.385, 177.284 1072.122, 175.797 1072.079 C 174.310 1072.036, 171.986 1072.505, 170.632 1073.122 C 167.664 1074.474, 162.378 1072.555, 161.676 1069.869 C 161.094 1067.644, 144 1067.235, 144 1069.446 C 144 1070.964, 140.942 1071.967, 136.250 1071.986 C 134.052 1071.996, 133 1071.524, 133 1070.531 C 133 1069.637, 133.586 1069.288, 134.500 1069.638 C 135.503 1070.023, 136 1069.596, 136 1068.348 C 136 1067.321, 136.900 1065.919, 138 1065.232 C 140.518 1063.659, 140.582 1062, 138.125 1062 C 137.017 1062, 135.635 1063.270, 134.747 1065.102 C 133.855 1066.944, 132.968 1067.757, 132.563 1067.102 C 131.274 1065.017, 129.158 1066.005, 128.500 1069 C 127.356 1074.207, 125.108 1072.276, 125.588 1066.500 C 125.725 1064.850, 125.874 1062.713, 125.919 1061.750 C 125.968 1060.694, 126.793 1060, 128 1060 C 129.100 1060, 130 1059.550, 130 1059 C 130 1058.450, 129.100 1058, 128 1058 C 126.045 1058, 125.258 1056.581, 126.750 1055.747 C 127.163 1055.517, 126.896 1055.481, 126.157 1055.668 C 120.007 1057.227, 119.728 1057.250, 120.414 1056.139 C 121.444 1054.472, 119.037 1053.936, 115 1054.932 C 113.075 1055.407, 112.063 1055.841, 112.750 1055.898 C 116.889 1056.237, 113.548 1059, 109 1059 C 105.222 1059, 104 1058.633, 104 1057.500 C 104 1056.609, 103.082 1056, 101.741 1056 C 99.021 1056, 96.668 1052.621, 97.520 1049.937 C 97.993 1048.447, 97.657 1048, 96.067 1048 C 94.667 1048, 94 1048.645, 94 1050 C 94 1053.594, 90.178 1052.524, 89.813 1048.827 C 89.577 1046.433, 88.986 1045.618, 87.405 1045.506 C 86.253 1045.424, 83.846 1044.315, 82.057 1043.041 C 80.268 1041.766, 77.129 1040.630, 75.082 1040.514 L 71.361 1040.304 71.794 1045.902 L 72.228 1051.500 70.054 1049.228 C 68.103 1047.187, 65.238 1046.958, 66.463 1048.940 C 68.119 1051.620, 63.158 1053.916, 54.259 1054.588 C 47.851 1055.072, 45.303 1055.626, 45.625 1056.466 C 46.190 1057.938, 39.862 1059.941, 33.916 1060.174 C 31.078 1060.286, 27.941 1061.363, 24.840 1063.291 C 19.621 1066.534, 9.099 1067.777, 8.252 1065.250 C 6.782 1060.864, 3.172 1064.131, 1.579 1071.287 C -1.117 1083.405, -0.566 1112.907, 2.346 1112.353 C 4.417 1111.959, 4.413 1111.982, 2.250 1112.940 L -0 1113.936 -0 1166.863 L 0 1219.790 17.932 1219.645 C 32.584 1219.527, 35.464 1219.278, 33.682 1218.285 C 31.711 1217.188, 31.935 1217.069, 36 1217.051 C 38.475 1217.040, 39.961 1217.373, 39.303 1217.791 C 38.645 1218.210, 44.945 1218.458, 53.303 1218.342 C 65.165 1218.178, 69.236 1218.467, 71.854 1219.662 C 74.286 1220.772, 75.509 1220.891, 76.304 1220.096 C 76.907 1219.493, 78.795 1219, 80.500 1219 C 82.205 1219, 84.110 1218.490, 84.733 1217.867 C 86.236 1216.364, 89.116 1217.533, 88.415 1219.361 C 87.451 1221.873, 90.088 1222.311, 93.039 1220.129 C 95.161 1218.561, 96.474 1218.240, 98.182 1218.872 C 99.446 1219.339, 101.266 1219.334, 102.238 1218.860 C 103.207 1218.387, 105.013 1217.478, 106.250 1216.839 C 108.206 1215.830, 108.338 1215.875, 107.259 1217.181 C 106.576 1218.008, 106.338 1219.005, 106.730 1219.396 C 107.122 1219.788, 106.786 1220.514, 105.984 1221.010 C 104.825 1221.726, 104.933 1221.892, 106.513 1221.816 C 107.606 1221.763, 110.451 1222.035, 112.834 1222.421 C 117.922 1223.244, 124.024 1222.251, 121.910 1220.944 C 121.091 1220.438, 120.243 1220.581, 119.773 1221.303 C 119.309 1222.016, 119.096 1221.514, 119.247 1220.062 C 119.548 1217.160, 114.412 1216.377, 112.282 1219 C 111.230 1220.296, 111.059 1220.227, 111.032 1218.500 C 111.004 1216.742, 111.665 1216.497, 116.500 1216.474 C 120.307 1216.456, 122 1216.840, 122 1217.724 C 122 1218.426, 122.787 1219.069, 123.750 1219.152 C 124.713 1219.236, 125.950 1219.409, 126.500 1219.537 C 127.050 1219.665, 128.030 1219.821, 128.677 1219.885 C 129.324 1219.948, 130.059 1220.788, 130.311 1221.750 C 130.720 1223.317, 130.780 1223.304, 130.884 1221.628 C 130.980 1220.079, 131.260 1219.971, 132.500 1221 C 133.709 1222.004, 134.003 1221.979, 134.015 1220.872 C 134.028 1219.713, 134.166 1219.713, 134.903 1220.877 C 135.529 1221.866, 139.091 1222.400, 147.537 1222.773 C 161.480 1223.388, 162.851 1221.669, 149.294 1220.569 C 144.476 1220.178, 140.061 1219.466, 139.483 1218.986 C 138.906 1218.507, 136.311 1218.005, 133.717 1217.870 C 131.122 1217.736, 129 1217.355, 129 1217.024 C 129 1216.692, 157.036 1216.565, 191.303 1216.742 C 250.059 1217.046, 265 1216.694, 265 1215.009 C 265 1214.616, 262.816 1214.503, 260.146 1214.760 C 255.604 1215.196, 251 1213.897, 251 1212.179 C 251 1211.277, 253.364 1210.934, 262.108 1210.569 C 265.742 1210.418, 269.191 1210, 269.773 1209.641 C 270.354 1209.281, 270.999 1209.498, 271.207 1210.121 C 271.486 1210.958, 272.908 1210.971, 276.632 1210.172 C 280.069 1209.435, 284.522 1209.391, 290.590 1210.033 C 299.371 1210.963, 327.138 1210.398, 335.970 1209.111 C 338.462 1208.748, 345.390 1208.965, 351.366 1209.594 C 357.625 1210.252, 363.771 1210.390, 365.863 1209.918 C 368.434 1209.338, 370.341 1209.523, 372.400 1210.550 C 373.999 1211.347, 376.138 1212, 377.154 1212 C 378.169 1212, 379 1212.450, 379 1213 C 379 1213.550, 378.438 1214.007, 377.750 1214.015 C 376.920 1214.025, 377.004 1214.349, 378 1214.979 C 379.083 1215.664, 379.688 1215.451, 380.179 1214.213 C 380.554 1213.270, 380.891 1213.080, 380.930 1213.791 C 380.986 1214.820, 384.614 1214.958, 398.750 1214.469 C 408.512 1214.131, 418.525 1213.891, 421 1213.934 C 423.475 1213.978, 429.430 1213.426, 434.233 1212.707 C 440.243 1211.808, 443.103 1211.728, 443.404 1212.450 C 443.670 1213.088, 443.873 1213.108, 443.920 1212.500 C 444.003 1211.441, 449.926 1211.432, 473.500 1212.455 C 481.200 1212.789, 491.933 1213.229, 497.352 1213.433 C 502.817 1213.639, 507.706 1214.306, 508.331 1214.931 C 509.166 1215.766, 508.946 1216.009, 507.479 1215.870 C 503.852 1215.527, 500.657 1215.991, 501.416 1216.750 C 502.373 1217.707, 520.051 1217.892, 519.462 1216.938 C 519.220 1216.547, 519.805 1215.613, 520.761 1214.863 C 522.335 1213.630, 522.370 1213.666, 521.128 1215.250 C 520.310 1216.293, 520.185 1217, 520.819 1217 C 521.403 1217, 522.134 1216.592, 522.442 1216.094 C 523.128 1214.984, 527.224 1215.916, 528.235 1217.412 C 528.754 1218.181, 528.974 1218.164, 528.985 1217.357 C 528.993 1216.728, 529.698 1215.946, 530.552 1215.618 C 531.442 1215.277, 531.843 1215.445, 531.493 1216.011 C 531.157 1216.555, 531.359 1217, 531.941 1217 C 532.523 1217, 533.007 1216.213, 533.015 1215.250 C 533.027 1213.866, 533.213 1213.788, 533.904 1214.878 C 534.384 1215.636, 535.238 1215.971, 535.803 1215.622 C 536.367 1215.273, 536.980 1215.441, 537.165 1215.995 C 537.391 1216.672, 538.653 1216.673, 541 1216 C 543.336 1215.330, 544.610 1215.330, 544.833 1215.998 C 545.016 1216.549, 546.731 1217, 548.642 1217 C 550.554 1217, 551.870 1216.598, 551.566 1216.107 C 551.253 1215.600, 552.415 1215.519, 554.257 1215.921 C 556.041 1216.309, 560.650 1216.474, 564.500 1216.287 C 574.567 1215.798, 584.209 1215.875, 584.783 1216.450 C 586.287 1217.953, 578.730 1219.107, 571.336 1218.502 C 562.575 1217.786, 552 1218.668, 552 1220.115 C 552 1221.221, 565.699 1221.296, 566.380 1220.194 C 566.654 1219.750, 568.531 1219.580, 570.550 1219.816 C 579.367 1220.845, 570.382 1221.959, 554.500 1221.804 C 545.150 1221.714, 539.638 1221.471, 542.250 1221.265 C 544.862 1221.059, 547 1220.532, 547 1220.093 C 547 1219.140, 511.293 1219.374, 510.333 1220.334 C 509.966 1220.700, 513.593 1221, 518.392 1221 C 523.816 1221, 526.890 1221.370, 526.514 1221.977 C 526.167 1222.539, 521.283 1222.857, 515.002 1222.727 C 509.002 1222.602, 504.859 1222.194, 505.796 1221.820 C 506.818 1221.413, 505.775 1221.112, 503.191 1221.070 C 500.557 1221.027, 499.122 1221.389, 499.500 1222 C 499.868 1222.595, 498.677 1223, 496.559 1223 C 494.602 1223, 493 1222.550, 493 1222 C 493 1221.450, 491.875 1221, 490.500 1221 C 489.125 1221, 488 1221.442, 488 1221.981 C 488 1222.521, 485.942 1222.842, 483.427 1222.695 C 480.912 1222.548, 478.635 1222.781, 478.368 1223.214 C 478.101 1223.646, 472.257 1224, 465.382 1224 C 457.303 1224, 453.101 1223.646, 453.500 1223 C 453.840 1222.450, 453.390 1222, 452.500 1222 C 451.610 1222, 451.160 1222.450, 451.500 1223 C 451.878 1223.611, 450.248 1224.022, 447.309 1224.058 C 444.664 1224.089, 440.700 1224.469, 438.500 1224.902 L 434.500 1225.688 437.500 1227.004 L 440.500 1228.319 437.500 1229.041 C 435.850 1229.438, 431.939 1229.817, 428.809 1229.882 C 425.679 1229.947, 422.840 1230.450, 422.500 1231 C 422.160 1231.550, 419.456 1232, 416.491 1232 C 412.675 1232, 410.847 1232.450, 410.237 1233.541 C 409.312 1235.195, 401.641 1235.866, 378.879 1236.286 C 370.887 1236.433, 367.390 1236.845, 367.681 1237.605 C 368.138 1238.801, 360.785 1239.977, 352.750 1239.991 C 350.137 1239.996, 348 1240.450, 348 1241 C 348 1241.550, 346.875 1242, 345.500 1242 C 344.125 1242, 343 1242.502, 343 1243.117 C 343 1243.749, 342.113 1244.001, 340.956 1243.699 C 339.832 1243.405, 337.757 1243.763, 336.346 1244.496 C 333.958 1245.735, 334.291 1245.853, 341.140 1246.196 C 352.153 1246.747, 416.767 1246.262, 417.805 1245.620 C 418.301 1245.314, 428.649 1244.999, 440.801 1244.920 C 460.349 1244.793, 462.947 1244.587, 463.332 1243.138 C 463.711 1241.715, 463.783 1241.730, 463.884 1243.250 C 464.030 1245.449, 468.240 1245.621, 470 1243.500 C 471.380 1241.838, 473.478 1241.418, 472.500 1243 C 472.160 1243.550, 472.321 1244, 472.858 1244 C 473.394 1244, 474.096 1243.438, 474.417 1242.750 C 474.880 1241.758, 475.120 1241.756, 475.580 1242.741 C 476.241 1244.153, 479 1241.999, 479 1240.071 C 479 1238.530, 480.896 1238.753, 482.643 1240.500 C 483.512 1241.369, 485.955 1242, 488.449 1242 C 491.057 1242, 493.246 1241.408, 494 1240.500 C 495.028 1239.262, 494.933 1239, 493.456 1239 C 492.472 1239, 491.946 1238.721, 492.287 1238.380 C 492.628 1238.039, 494.142 1238.070, 495.651 1238.449 C 497.807 1238.990, 498.085 1239.337, 496.948 1240.066 C 495.999 1240.674, 498.164 1240.928, 503.223 1240.803 C 507.470 1240.698, 511.258 1240.924, 511.639 1241.306 C 512.021 1241.688, 511.493 1242, 510.467 1242 C 509.255 1242, 508.942 1242.342, 509.574 1242.974 C 510.176 1243.576, 511.684 1243.609, 513.524 1243.060 C 515.161 1242.572, 515.712 1242.133, 514.750 1242.086 C 513.788 1242.039, 513 1241.577, 513 1241.059 C 513 1239.434, 515.029 1238.779, 516.439 1239.949 C 517.182 1240.566, 518.174 1241.001, 518.645 1240.917 C 520.684 1240.551, 522.071 1241.077, 521.500 1242 C 521.160 1242.550, 521.610 1243, 522.500 1243 C 523.390 1243, 523.914 1242.662, 523.664 1242.250 C 523.414 1241.838, 523.725 1241.050, 524.355 1240.500 C 525.809 1239.230, 529 1238.946, 529 1240.086 C 529 1240.565, 530.040 1240.555, 531.333 1240.063 C 532.698 1239.544, 534.255 1239.548, 535.083 1240.073 C 537.255 1241.447, 543.271 1241.247, 542.395 1239.830 C 541.901 1239.031, 542.229 1238.874, 543.429 1239.334 C 547.585 1240.929, 550.295 1241.286, 549.590 1240.146 C 549.201 1239.516, 548.207 1239, 547.382 1239 C 546.557 1239, 546.160 1238.550, 546.500 1238 C 547.398 1236.547, 559.339 1236.753, 560.925 1238.250 C 561.985 1239.250, 562.342 1239.250, 562.708 1238.250 C 563.493 1236.109, 565.142 1236.882, 564.813 1239.237 C 564.527 1241.279, 564.936 1241.488, 569.500 1241.636 C 573.694 1241.773, 573.936 1241.695, 571 1241.150 C 566.393 1240.295, 565.266 1236.307, 569.707 1236.574 C 574.096 1236.838, 574.248 1236.912, 573.638 1238.500 C 572.889 1240.454, 574.716 1240.427, 576.687 1238.456 C 579.683 1235.460, 589.791 1238.287, 588.516 1241.764 C 588.198 1242.631, 588.986 1242.957, 591.026 1242.801 C 592.662 1242.677, 594 1242.172, 594 1241.680 C 594 1241.188, 593.339 1241.040, 592.532 1241.349 C 591.725 1241.659, 590.798 1241.482, 590.473 1240.956 C 590.148 1240.430, 590.584 1240, 591.441 1240 C 592.298 1240, 593 1239.550, 593 1239 C 593 1238.450, 593.900 1238, 595 1238 C 596.100 1238, 597 1238.520, 597 1239.155 C 597 1239.828, 597.796 1239.590, 598.909 1238.583 C 600.408 1237.226, 602.132 1236.945, 606.947 1237.271 C 610.318 1237.499, 613.311 1237.307, 613.597 1236.843 C 613.884 1236.379, 613.191 1236, 612.059 1236 C 610.927 1236, 610 1235.550, 610 1235 C 610 1234.429, 612.895 1234.014, 616.750 1234.032 C 622.677 1234.060, 623.280 1234.230, 621.696 1235.432 C 620.084 1236.654, 620.440 1236.837, 625.042 1237.150 C 630.658 1237.532, 632.474 1236.523, 628.814 1235.055 C 626.692 1234.204, 626.790 1234.111, 630 1233.933 C 639.184 1233.425, 643 1233.510, 643 1234.222 C 643 1234.650, 641.848 1235, 640.441 1235 C 638.962 1235, 638.147 1235.429, 638.510 1236.016 C 638.856 1236.575, 639.557 1236.774, 640.069 1236.457 C 640.581 1236.141, 641 1236.362, 641 1236.949 C 641 1237.664, 641.628 1237.625, 642.900 1236.830 C 643.945 1236.178, 644.572 1235.049, 644.293 1234.322 C 643.698 1232.772, 644.882 1232.631, 647 1234 C 648 1234.646, 648.083 1234.974, 647.250 1234.985 C 646.563 1234.993, 646 1235.375, 646 1235.833 C 646 1237.084, 649.184 1236.997, 651.906 1235.672 L 654.312 1234.500 651.406 1233.857 C 649.774 1233.496, 651.868 1233.269, 656.183 1233.341 C 660.409 1233.410, 664.144 1233.190, 664.483 1232.850 C 664.822 1232.511, 666.655 1232.584, 668.555 1233.012 C 670.468 1233.444, 672.258 1233.392, 672.564 1232.896 C 673.384 1231.569, 678.395 1231.810, 679.947 1233.250 C 681.041 1234.266, 681.145 1234.219, 680.500 1233 C 679.865 1231.800, 679.969 1231.743, 681.018 1232.715 C 682.057 1233.677, 682.624 1233.573, 683.739 1232.215 C 685.032 1230.642, 685.109 1230.686, 684.667 1232.751 C 684.403 1233.990, 684.563 1234.770, 685.024 1234.485 C 685.485 1234.200, 686.118 1234.383, 686.432 1234.890 C 687.030 1235.858, 671.998 1237.402, 661.380 1237.464 C 656.908 1237.490, 655.389 1237.836, 655.737 1238.750 C 656.084 1239.658, 654.680 1240, 650.607 1240 C 646.805 1240, 644.990 1239.598, 644.968 1238.750 C 644.946 1237.879, 644.567 1237.955, 643.718 1239 C 643.048 1239.825, 642.050 1240.520, 641.500 1240.544 C 637.096 1240.736, 618.889 1242.273, 612 1243.034 C 607.325 1243.550, 599.900 1244.196, 595.500 1244.470 C 591.100 1244.743, 583.900 1245.192, 579.500 1245.468 C 569.638 1246.085, 534.561 1247.059, 506.500 1247.495 C 482.595 1247.866, 454.733 1248.710, 441.500 1249.464 C 436.550 1249.746, 424.045 1250.191, 413.711 1250.453 C 403.377 1250.716, 394.591 1251.135, 394.186 1251.385 C 393.782 1251.635, 391.887 1251.472, 389.975 1251.022 C 387.720 1250.492, 387.269 1250.169, 388.691 1250.102 C 389.896 1250.046, 391.203 1249.480, 391.596 1248.844 C 392.721 1247.024, 384.728 1248.652, 383.361 1250.521 C 382.416 1251.813, 379.435 1252.124, 366.358 1252.294 C 356.478 1252.422, 350.058 1252.915, 349.328 1253.601 C 348.682 1254.208, 341.957 1255.030, 334.328 1255.435 C 304.646 1257.010, 300.416 1257.194, 298 1257.020 C 292.994 1256.659, 281.326 1257.974, 278 1259.274 C 275.481 1260.259, 254.425 1261.396, 237 1261.489 C 227.171 1261.541, 219.691 1262.017, 218.500 1262.665 C 217.400 1263.264, 210.650 1264.069, 203.500 1264.455 C 196.350 1264.841, 187.665 1265.491, 184.199 1265.901 C 180.734 1266.310, 177.707 1266.335, 177.474 1265.957 C 177.240 1265.579, 175.800 1265.436, 174.274 1265.639 C 172.748 1265.842, 164.075 1266.676, 155 1267.491 C 145.925 1268.307, 136.700 1269.286, 134.500 1269.667 C 132.300 1270.048, 128.025 1270.434, 125 1270.526 C 121.975 1270.617, 115 1271.092, 109.500 1271.580 C 104 1272.068, 95.225 1272.475, 90 1272.484 C 84.775 1272.493, 80.275 1272.780, 80 1273.123 C 79.406 1273.864, 66.178 1274.807, 45.500 1275.583 C 37.250 1275.893, 27.800 1276.560, 24.500 1277.066 C 21.200 1277.571, 14.338 1277.988, 9.250 1277.992 L 0 1278 0 1406.500 L 0 1535 1023.500 1535 L 2047 1535 2047 1009.441 C 2047 659.323, 2046.666 484.088, 2046 484.500 C 2045.450 484.840, 2045 484.615, 2045 484 C 2045 483.385, 2044.482 483.202, 2043.848 483.594 C 2043.215 483.985, 2042.090 483.476, 2041.348 482.462 C 2040.607 481.447, 2040 481.151, 2040 481.803 C 2040 483.155, 2036.857 482.905, 2034.848 481.392 C 2033.058 480.044, 2030.500 480.206, 2030.500 481.667 C 2030.500 483.412, 2029.019 484.556, 2028.882 482.917 C 2028.816 482.137, 2028.816 481.163, 2028.882 480.750 C 2028.947 480.337, 2028.850 480, 2028.667 480 C 2028.483 480, 2027.996 480.337, 2027.583 480.750 M 852 616 L 852 624 849 624 C 845.645 624, 845.346 624.489, 847.429 626.571 C 849.408 628.551, 851.301 628.357, 853 626 C 855.416 622.647, 860 623.302, 860 627 L 860 630 867.514 630 C 874.128 630, 878.368 628.936, 880 626.866 C 880.275 626.517, 881.400 626.025, 882.500 625.773 C 885.406 625.107, 880.037 623, 875.435 623 C 873.048 623, 872 622.542, 872 621.500 C 872 620.417, 870.889 620, 868 620 C 864.667 620, 864 620.333, 864 622 C 864 623.333, 863.333 624, 862 624 C 860.203 624, 860 623.333, 860 617.429 C 860 610.144, 858.765 608, 854.571 608 C 852.024 608, 852 608.074, 852 616 M 1552.607 617.582 C 1551.655 620.062, 1551.896 624, 1553 624 C 1553.550 624, 1554 624.900, 1554 626 C 1554 627.100, 1554.645 628, 1555.433 628 C 1556.221 628, 1557.151 627.100, 1557.500 626 C 1557.851 624.893, 1559.013 624, 1560.103 624 C 1561.738 624, 1561.896 624.327, 1561.035 625.934 C 1559.729 628.375, 1559.716 629.293, 1561 628.500 C 1562.489 627.580, 1562.209 628.934, 1560.571 630.571 C 1558.922 632.221, 1552 632.519, 1552 630.941 C 1552 630.359, 1551.502 630.190, 1550.893 630.566 C 1549.047 631.707, 1552.084 632.968, 1556.719 632.985 C 1559.584 632.995, 1560.839 633.401, 1560.633 634.250 C 1560.465 634.938, 1560.517 635.163, 1560.747 634.750 C 1561.555 633.306, 1563.208 634.015, 1562.618 635.552 C 1562.277 636.442, 1562.445 636.843, 1563.011 636.493 C 1563.555 636.157, 1564 636.284, 1564 636.774 C 1564 638.445, 1562.688 638.986, 1561.342 637.869 C 1560.355 637.050, 1560 637.052, 1560 637.878 C 1560 638.520, 1558.291 639, 1556 639 C 1553.111 639, 1552 638.583, 1552 637.500 C 1552 636.417, 1550.889 636, 1548 636 C 1540.869 636, 1542.387 639.815, 1549.671 640.200 C 1553.269 640.390, 1555.435 640.966, 1555.596 641.775 C 1555.736 642.476, 1555.621 642.589, 1555.342 642.025 C 1555.062 641.461, 1554.083 641.014, 1553.167 641.032 C 1551.750 641.059, 1551.799 641.290, 1553.495 642.571 C 1555.429 644.033, 1553.936 646.696, 1551.891 645.433 C 1551.504 645.193, 1551.464 646.010, 1551.803 647.249 C 1552.382 649.364, 1552.445 649.379, 1552.844 647.500 C 1553.245 645.617, 1553.308 645.608, 1553.932 647.347 C 1554.567 649.118, 1554.654 649.120, 1556.047 647.405 C 1556.935 646.312, 1557.014 645.908, 1556.250 646.367 C 1555.563 646.780, 1555 646.659, 1555 646.098 C 1555 644.572, 1559.153 641, 1561.658 640.371 C 1563.889 639.811, 1565.415 637.480, 1564.509 636.015 C 1564.235 635.572, 1564.735 634.932, 1565.618 634.593 C 1566.919 634.094, 1566.990 633.693, 1565.990 632.488 C 1565.311 631.670, 1565.148 630.986, 1565.628 630.970 C 1566.107 630.953, 1565.713 630.481, 1564.750 629.920 C 1563.787 629.359, 1563 628.418, 1563 627.828 C 1563 627.183, 1563.672 627.302, 1564.687 628.128 C 1566.165 629.329, 1566.293 629.282, 1565.719 627.750 C 1565.254 626.510, 1565.564 625.996, 1566.781 625.985 C 1568.127 625.973, 1568.206 625.783, 1567.143 625.110 C 1566.314 624.584, 1566.039 623.454, 1566.435 622.203 C 1566.886 620.784, 1566.387 619.506, 1564.807 618.035 C 1563.554 616.868, 1562.373 616.382, 1562.181 616.956 C 1561.737 618.290, 1559 618.328, 1559 617 C 1559 615.328, 1553.272 615.849, 1552.607 617.582 M 880 633 C 880 633.583, 876.667 634, 872 634 L 864 634 864 637 C 864 639.839, 863.772 640.008, 859.750 640.150 C 856.548 640.263, 856.208 640.405, 858.371 640.728 C 862.858 641.397, 865.823 640.266, 866.181 637.748 C 866.571 635, 869.330 634.760, 869.844 637.429 C 870.361 640.115, 873.204 642.887, 873.753 641.241 C 873.981 640.558, 875.442 640, 877 640 C 878.558 640, 880.096 639.438, 880.417 638.750 C 880.883 637.750, 881.117 637.750, 881.583 638.750 C 881.904 639.438, 883.062 640, 884.157 640 C 887.303 640, 886.028 636.563, 882.741 636.184 C 880.221 635.893, 878.711 634, 881 634 C 881.550 634, 882 633.550, 882 633 C 882 632.450, 881.550 632, 881 632 C 880.450 632, 880 632.450, 880 633 M 1537.500 634 C 1539.298 635.986, 1539.247 636, 1530.015 636 C 1522.336 636, 1520.490 635.696, 1519.392 634.250 C 1516.816 630.856, 1517.715 634.660, 1520.726 639.893 C 1520.850 640.108, 1521.657 639.700, 1522.518 638.985 C 1523.705 638, 1524.366 637.966, 1525.242 638.842 C 1527.442 641.042, 1541.678 640.338, 1542.290 638 C 1542.617 636.750, 1542.320 636, 1541.500 636 C 1540.680 636, 1540.383 635.250, 1540.710 634 C 1541.140 632.355, 1540.741 632, 1538.462 632 C 1535.753 632, 1535.731 632.046, 1537.500 634 M 1316.105 769.373 C 1315.478 770.129, 1315.224 771.420, 1315.540 772.244 C 1316.287 774.190, 1313.416 775.293, 1310.988 773.994 C 1309.743 773.327, 1308.915 773.329, 1308.502 773.997 C 1308.161 774.549, 1306.446 774.993, 1304.691 774.985 C 1302.563 774.974, 1301.944 774.688, 1302.834 774.124 C 1303.891 773.453, 1303.811 773.141, 1302.444 772.617 C 1301.309 772.181, 1300.226 772.660, 1299.275 774.018 C 1298.396 775.273, 1297.163 775.869, 1296.127 775.540 C 1295.190 775.243, 1292.770 775.843, 1290.749 776.873 C 1288.338 778.102, 1285.944 778.559, 1283.787 778.201 C 1281.979 777.901, 1278.700 777.656, 1276.500 777.657 C 1274.300 777.657, 1272.220 777.239, 1271.879 776.728 C 1271.522 776.195, 1268.031 776.883, 1263.678 778.345 C 1256.236 780.844, 1249.395 781.047, 1247.920 778.811 C 1247.601 778.328, 1246.551 778.235, 1245.586 778.605 C 1244.200 779.137, 1244.112 779.455, 1245.166 780.124 C 1246.040 780.678, 1245.292 780.969, 1243 780.969 C 1240.606 780.969, 1239.938 780.692, 1240.886 780.092 C 1241.761 779.537, 1240.531 779.332, 1237.543 779.533 C 1234.943 779.708, 1232.560 780.106, 1232.249 780.417 C 1231.938 780.728, 1231.093 780.492, 1230.370 779.892 C 1229.396 779.084, 1228.630 779.227, 1227.412 780.445 C 1226.028 781.830, 1224.103 782.013, 1215.201 781.607 C 1204.677 781.128, 1202.451 781.556, 1198.771 784.764 C 1197.150 786.177, 1191.016 787.362, 1186.500 787.135 C 1185.400 787.080, 1182.700 787.087, 1180.500 787.152 C 1175.280 787.306, 1174.603 787.269, 1167.387 786.445 C 1163.238 785.971, 1161.051 786.109, 1160.578 786.874 C 1158.739 789.850, 1150.683 788.145, 1147.027 784.006 C 1143.530 780.045, 1143.436 780.010, 1136 779.890 C 1126.887 779.744, 1125 779.311, 1125 777.365 C 1125 776.263, 1124.403 776.056, 1122.750 776.584 C 1119.076 777.758, 1112.593 777.864, 1111.250 776.772 C 1110.555 776.206, 1110 776.164, 1110 776.678 C 1110 777.185, 1110.563 778.195, 1111.250 778.922 C 1112.282 780.014, 1112.104 780.041, 1110.229 779.076 C 1108.980 778.433, 1107.518 778.180, 1106.979 778.513 C 1105.966 779.139, 1105.654 777.947, 1105.930 774.500 C 1106.063 772.832, 1105.916 772.749, 1105.047 774 C 1104.473 774.825, 1104.275 776.791, 1104.607 778.369 C 1104.939 779.946, 1104.771 782.196, 1104.232 783.369 C 1103.694 784.541, 1102.211 787.666, 1100.937 790.314 C 1098.765 794.827, 1097.801 804.134, 1099.346 805.679 C 1099.865 806.198, 1103.544 807.125, 1111.218 808.670 C 1112.713 808.971, 1114.455 809.844, 1115.090 810.609 C 1115.725 811.374, 1117.111 812, 1118.170 812 C 1119.229 812, 1121.199 813.191, 1122.548 814.646 C 1123.896 816.101, 1125 816.932, 1125 816.491 C 1125 816.050, 1125.934 816.536, 1127.076 817.569 C 1128.219 818.603, 1130.539 819.910, 1132.234 820.474 C 1134.350 821.179, 1136.440 823.276, 1138.907 827.172 C 1145.127 836.993, 1150.812 843.762, 1154.214 845.398 C 1157.356 846.910, 1157.413 846.903, 1155.500 845.239 C 1152.645 842.757, 1153.283 838.546, 1156.272 840.145 C 1157.871 841.001, 1158.500 841.001, 1158.786 840.143 C 1158.995 839.515, 1160.217 839, 1161.502 839 C 1163.096 839, 1164.530 837.879, 1166.021 835.465 C 1167.725 832.709, 1168.651 832.072, 1170.228 832.572 C 1171.427 832.953, 1172.575 832.688, 1173.049 831.921 C 1173.636 830.970, 1174.198 830.918, 1175.174 831.725 C 1178.287 834.298, 1183.572 834.302, 1185.257 831.731 C 1186.237 830.235, 1188.656 828.796, 1191.558 827.984 C 1194.312 827.213, 1197.653 825.280, 1199.601 823.332 C 1204.751 818.183, 1212 820.798, 1212 827.806 C 1212 828.844, 1212.728 831.151, 1213.617 832.934 C 1214.809 835.323, 1215.058 837.502, 1214.566 841.215 C 1214.012 845.393, 1214.146 846.158, 1215.355 845.694 C 1216.156 845.387, 1217.598 846.003, 1218.558 847.064 C 1219.708 848.335, 1220.690 848.673, 1221.435 848.054 C 1222.133 847.475, 1223.130 847.470, 1224.034 848.042 C 1226.233 849.433, 1228.954 849.189, 1230.699 847.444 C 1231.903 846.239, 1233.440 846.036, 1237.501 846.543 C 1242.127 847.121, 1242.923 846.948, 1244.233 845.077 C 1245.179 843.728, 1246.317 843.184, 1247.360 843.585 C 1248.262 843.931, 1249 843.743, 1249 843.166 C 1249 842.530, 1250.079 842.682, 1251.750 843.553 C 1255.251 845.379, 1257 845.384, 1257 843.567 C 1257 842.779, 1257.907 841.847, 1259.015 841.495 C 1260.123 841.144, 1260.771 840.438, 1260.456 839.928 C 1260.140 839.418, 1260.310 839, 1260.834 839 C 1261.358 839, 1262.087 839.785, 1262.455 840.743 C 1263.050 842.294, 1263.336 842.211, 1265.040 839.993 C 1266.589 837.977, 1266.960 837.835, 1266.978 839.250 C 1266.990 840.212, 1267.480 841, 1268.067 841 C 1268.664 841, 1268.867 840.155, 1268.527 839.084 C 1267.870 837.014, 1269.458 835.315, 1270.490 836.984 C 1270.835 837.543, 1272.018 838, 1273.118 838 C 1274.218 838, 1274.840 837.550, 1274.500 837 C 1273.861 835.967, 1275.135 835.625, 1278.359 835.966 C 1279.394 836.076, 1279.941 835.714, 1279.593 835.150 C 1279.249 834.594, 1279.385 833.880, 1279.896 833.564 C 1280.407 833.248, 1280.714 834.005, 1280.577 835.245 C 1280.383 837.012, 1280.835 837.500, 1282.665 837.500 C 1284.251 837.500, 1285 836.920, 1285 835.691 C 1285 834.564, 1285.441 834.155, 1286.170 834.605 C 1286.957 835.091, 1287.131 834.783, 1286.701 833.664 C 1285.878 831.519, 1286.829 831.550, 1289.341 833.750 C 1291.261 835.432, 1291.311 835.422, 1290.610 833.500 C 1290.077 832.037, 1290.180 831.796, 1290.992 832.601 C 1291.602 833.206, 1292.171 834.619, 1292.255 835.740 C 1292.394 837.583, 1292.612 837.645, 1294.534 836.386 C 1295.703 835.620, 1297.033 835.332, 1297.489 835.746 C 1297.945 836.161, 1298.079 835.824, 1297.786 834.999 C 1297.362 833.803, 1298.196 833.498, 1301.877 833.499 C 1305.592 833.500, 1306.448 833.180, 1306.234 831.871 C 1305.968 830.244, 1309.154 828.605, 1311.881 828.965 C 1312.846 829.093, 1313.115 828.383, 1312.775 826.604 C 1312.508 825.205, 1312.674 824.298, 1313.144 824.589 C 1313.615 824.880, 1314 824.641, 1314 824.059 C 1314 822.596, 1317.569 822.727, 1319.179 824.250 C 1321.834 826.762, 1328 823.456, 1328 819.520 C 1328 818.576, 1329.195 817.711, 1331 817.350 C 1332.650 817.020, 1334 816.330, 1334 815.816 C 1334 815.302, 1334.450 815.160, 1335 815.500 C 1336.531 816.446, 1336.191 814.718, 1334.320 812.046 C 1332.747 809.800, 1332.747 809.689, 1334.320 810.293 C 1336.093 810.973, 1336.692 806.735, 1336.101 797.692 C 1335.964 795.597, 1336.372 793.256, 1337.009 792.490 C 1337.645 791.723, 1338.006 790.287, 1337.811 789.298 C 1337.434 787.381, 1342.530 782, 1344.723 782 C 1345.425 782, 1346 781.635, 1346 781.189 C 1346 780.742, 1346.882 779.430, 1347.960 778.273 L 1349.920 776.169 1345.094 776.443 C 1342.439 776.593, 1339.645 777.039, 1338.884 777.432 C 1338.123 777.826, 1338.400 777.412, 1339.500 776.512 C 1341.493 774.882, 1339.774 772, 1336.809 772 C 1336.364 772, 1336 771.072, 1336 769.938 C 1336 767.618, 1324.172 767.952, 1321 770.361 C 1319.696 771.351, 1319.679 771.272, 1320.872 769.750 C 1322.626 767.513, 1317.955 767.144, 1316.105 769.373 M 1062.048 830.532 C 1060.150 832.439, 1058.012 834, 1057.298 834 C 1056.584 834, 1056 834.675, 1056 835.500 C 1056 837.660, 1052.015 837.414, 1051.937 835.250 C 1051.888 833.909, 1051.662 834.026, 1050.969 835.750 C 1050.471 836.987, 1049.712 838.052, 1049.282 838.115 C 1042.656 839.087, 1037.996 838.653, 1036.425 836.917 C 1034.146 834.398, 1032.608 834.496, 1031.132 837.253 C 1030.469 838.492, 1028.593 840.271, 1026.963 841.206 C 1025.334 842.142, 1023.997 843.490, 1023.994 844.203 C 1023.990 844.917, 1023.248 846.850, 1022.344 848.500 C 1020.538 851.796, 1019.553 863.755, 1020.948 865.440 C 1021.449 866.045, 1021.453 868.431, 1020.956 871 C 1019.616 877.938, 1019.742 878.300, 1024.586 881.500 C 1029.796 884.941, 1031.986 889.142, 1032.408 896.500 C 1032.923 905.476, 1037.271 912.996, 1040.841 911.085 C 1042.690 910.096, 1043.534 910.306, 1046.356 912.458 C 1048.472 914.072, 1050.979 915, 1053.222 915 C 1055.165 915, 1057.281 915.633, 1057.923 916.407 C 1058.565 917.181, 1060.083 917.682, 1061.295 917.521 C 1064.344 917.116, 1072.093 915.252, 1072.443 914.839 C 1073.210 913.935, 1078.105 905.203, 1079.080 903 C 1079.688 901.625, 1080.722 897.920, 1081.376 894.767 C 1082.031 891.613, 1083.114 888.486, 1083.783 887.817 C 1084.452 887.148, 1085 885.583, 1085 884.339 C 1085 883.095, 1085.943 881.200, 1087.095 880.126 C 1088.509 878.809, 1088.981 877.516, 1088.548 876.150 C 1088.194 875.036, 1088.324 873.309, 1088.836 872.313 C 1091.920 866.307, 1092.190 865.223, 1091.106 863.197 C 1090.501 862.069, 1090.265 860.474, 1090.580 859.653 C 1090.894 858.833, 1090.449 857.089, 1089.590 855.777 C 1088.638 854.324, 1088.072 851.410, 1088.142 848.317 C 1088.261 843.018, 1086.062 837.666, 1082.750 835.193 C 1081.787 834.475, 1081 833.189, 1081 832.336 C 1081 831.318, 1080.444 830.999, 1079.379 831.408 C 1078.360 831.799, 1076.891 831.096, 1075.426 829.515 C 1071.857 825.663, 1066.487 826.071, 1062.048 830.532 M 400 918.031 C 400 920.056, 397.919 920.598, 391.750 920.179 C 390.238 920.076, 389 920.444, 389 920.996 C 389 922.827, 386.146 922.035, 385.509 920.028 C 384.975 918.345, 384.595 918.235, 382.911 919.278 C 381.308 920.271, 380.768 920.225, 380.026 919.032 C 379.259 917.799, 378.805 917.919, 377.189 919.782 C 376.131 921.002, 374.643 922.015, 373.883 922.033 C 372.111 922.076, 368 925.484, 368 926.910 C 368 927.515, 369.780 928, 372 928 C 376.486 928, 377.702 931.441, 374.386 934.757 C 372.561 936.581, 375.514 938.508, 378.423 937.391 C 379.204 937.091, 380.752 937.332, 381.861 937.926 C 383.280 938.685, 384.073 938.691, 384.535 937.944 C 384.911 937.334, 386.426 937.154, 388.095 937.521 C 390.321 938.010, 391 937.799, 391 936.618 C 391 935.634, 392.803 934.542, 395.988 933.596 C 406.576 930.452, 410.236 919.712, 401.750 916.687 C 400.465 916.228, 400 916.586, 400 918.031 M 690 1105 C 690 1105.550, 689.663 1105.927, 689.250 1105.839 C 688.837 1105.750, 687.244 1106.196, 685.708 1106.830 C 684.173 1107.464, 681.120 1107.912, 678.923 1107.826 C 676.727 1107.740, 674.384 1108.244, 673.715 1108.947 C 672.743 1109.969, 672.908 1110.102, 674.537 1109.613 C 675.658 1109.276, 679.155 1108.941, 682.310 1108.868 C 685.464 1108.795, 688.260 1108.388, 688.524 1107.962 C 688.787 1107.536, 690.014 1107.380, 691.251 1107.614 C 693.229 1107.990, 693.267 1107.939, 691.566 1107.193 C 690.062 1106.533, 689.929 1106.162, 690.968 1105.520 C 691.801 1105.005, 692.726 1105.272, 693.425 1106.229 C 694.042 1107.072, 696.786 1108.039, 699.523 1108.378 C 702.261 1108.716, 705.254 1109.091, 706.177 1109.211 C 707.099 1109.331, 707.666 1109.731, 707.438 1110.101 C 705.877 1112.625, 716.937 1116.190, 719.317 1113.930 C 721.793 1111.579, 715.918 1107.974, 710.285 1108.387 C 705.451 1108.741, 703.262 1108.089, 705.166 1106.862 C 705.959 1106.351, 705.118 1106.268, 703.095 1106.657 C 700.643 1107.129, 699.889 1106.988, 700.404 1106.156 C 700.797 1105.520, 701.841 1105, 702.726 1105 C 703.610 1105, 704.016 1104.682, 703.627 1104.294 C 703.239 1103.905, 701.365 1104.426, 699.462 1105.450 C 696.237 1107.187, 695.880 1107.201, 694.173 1105.657 C 692.130 1103.807, 690 1103.472, 690 1105 M 783.583 1135.643 C 783.237 1136.547, 782.671 1137.004, 782.325 1136.659 C 781.980 1136.314, 781.057 1136.812, 780.275 1137.766 C 779.492 1138.719, 779.173 1138.879, 779.565 1138.120 C 780.010 1137.260, 779.822 1136.893, 779.064 1137.145 C 776 1138.167, 782.812 1142.967, 796 1149.078 C 798.475 1150.225, 801.281 1151.577, 802.236 1152.082 C 805.314 1153.709, 806.374 1153.059, 804 1151 C 802.732 1149.900, 801.313 1148.944, 800.847 1148.875 C 800.381 1148.806, 799.663 1148.644, 799.250 1148.515 C 798.837 1148.385, 797.030 1147.934, 795.234 1147.512 C 792.250 1146.810, 792.121 1146.628, 793.734 1145.404 C 795.818 1143.822, 798 1143.600, 798 1144.969 C 798 1145.501, 797.212 1145.660, 796.250 1145.321 C 794.924 1144.855, 794.768 1144.997, 795.608 1145.911 C 796.217 1146.573, 798.467 1147.271, 800.608 1147.461 C 802.748 1147.652, 803.712 1147.593, 802.750 1147.330 C 801.788 1147.068, 801 1146.410, 801 1145.868 C 801 1145.326, 800.550 1145.160, 800 1145.500 C 798.789 1146.249, 798.718 1144.993, 799.870 1143.176 C 800.561 1142.086, 800.957 1142.100, 802.114 1143.256 C 804.060 1145.203, 806 1144.302, 806 1141.452 C 806 1138.659, 803.091 1136.793, 799.207 1137.093 C 794.149 1137.483, 791.851 1137.050, 792.595 1135.845 C 793.085 1135.054, 792.868 1134.968, 791.905 1135.572 C 789.685 1136.964, 784.172 1136.717, 784.735 1135.250 C 784.998 1134.563, 784.989 1134, 784.714 1134 C 784.439 1134, 783.930 1134.739, 783.583 1135.643 M 817 1137.985 C 814.525 1138.963, 812.369 1140.418, 812.208 1141.219 C 811.348 1145.509, 821.592 1150.276, 822.686 1146.095 C 822.987 1144.943, 823.803 1144, 824.500 1144 C 826.392 1144, 826.987 1139.130, 825.301 1137.444 C 823.535 1135.678, 822.704 1135.732, 817 1137.985 M 664.572 1217.762 C 664.340 1217.993, 660.854 1218.192, 656.825 1218.203 C 651.779 1218.217, 650.278 1218.468, 652 1219.012 C 654.222 1219.713, 654.083 1219.812, 650.750 1219.900 C 648.585 1219.958, 647 1219.526, 647 1218.878 C 647 1218.126, 646.479 1218.188, 645.424 1219.063 C 644.125 1220.141, 643.704 1220.139, 643.031 1219.051 C 642.407 1218.040, 641.946 1218.232, 641.072 1219.865 C 640.097 1221.687, 639.020 1222.005, 633.715 1222.031 C 630.297 1222.048, 624.350 1222.458, 620.500 1222.943 C 612.750 1223.919, 605.360 1223.040, 605.750 1221.188 C 605.920 1220.381, 604.316 1220.029, 600.750 1220.090 L 595.500 1220.180 599 1221.301 L 602.500 1222.421 599.250 1222.774 C 594.114 1223.331, 595.467 1224.804, 601.156 1224.848 C 603.992 1224.870, 606.580 1225.251, 606.906 1225.694 C 607.233 1226.137, 613.350 1226.560, 620.500 1226.633 C 627.650 1226.705, 631.925 1226.561, 630 1226.311 C 623.840 1225.512, 624.187 1224.005, 630.550 1223.924 C 653.917 1223.626, 669.941 1222.920, 672.500 1222.075 C 675.109 1221.214, 674.727 1221.105, 669.564 1221.234 C 665.743 1221.329, 663.486 1220.957, 663.230 1220.191 C 662.826 1218.977, 664.162 1218.706, 669.500 1218.915 C 671.150 1218.980, 673.037 1218.677, 673.693 1218.243 C 674.364 1217.799, 672.720 1217.428, 669.940 1217.396 C 667.219 1217.365, 664.804 1217.530, 664.572 1217.762 M 322.669 1223.235 C 322.026 1223.639, 318.327 1223.976, 314.450 1223.985 C 308.087 1223.999, 305 1225.003, 305 1227.058 C 305 1227.698, 314.171 1228.305, 320.750 1228.102 C 322.538 1228.046, 324 1228.477, 324 1229.060 C 324 1229.642, 323.581 1229.859, 323.069 1229.543 C 322.557 1229.226, 321.856 1229.425, 321.510 1229.984 C 321.150 1230.567, 321.928 1231, 323.334 1231 C 324.683 1231, 326.037 1230.346, 326.344 1229.546 C 326.783 1228.402, 328.886 1228.124, 336.201 1228.245 C 341.315 1228.329, 346.906 1228.060, 348.624 1227.647 C 351.246 1227.017, 351.746 1227.186, 351.737 1228.698 C 351.715 1232.249, 352.020 1232.929, 353.399 1232.400 C 354.168 1232.105, 355.095 1232.344, 355.458 1232.932 C 356.417 1234.483, 362.667 1234.287, 362.667 1232.706 C 362.667 1230.488, 360.275 1228.842, 359.601 1230.596 C 359.231 1231.562, 359.434 1231.850, 360.166 1231.397 C 360.816 1230.995, 361.037 1231.131, 360.678 1231.711 C 359.980 1232.841, 355 1232.217, 355 1231 C 355 1230.578, 356.012 1229.908, 357.250 1229.511 C 359.095 1228.918, 359.195 1228.706, 357.805 1228.331 C 356.873 1228.080, 356.329 1227.307, 356.595 1226.613 C 356.976 1225.619, 355.568 1225.547, 349.937 1226.274 C 344.942 1226.918, 342.465 1226.865, 341.698 1226.098 C 340.901 1225.301, 342.436 1225, 347.300 1225 C 351.114 1225, 354 1224.568, 354 1223.997 C 354 1223.441, 351.435 1222.997, 348.250 1223.002 C 345.087 1223.007, 338.301 1222.896, 333.169 1222.755 C 328.036 1222.615, 323.311 1222.831, 322.669 1223.235 M 221.500 1224.963 C 218.750 1225.385, 210.650 1225.797, 203.500 1225.877 C 196.350 1225.958, 188.250 1226.425, 185.500 1226.914 C 182.750 1227.404, 179.283 1227.571, 177.795 1227.286 C 176.041 1226.950, 174.503 1227.354, 173.424 1228.433 C 171.870 1229.987, 171.927 1230.057, 174.270 1229.468 C 175.681 1229.114, 177.075 1229.312, 177.450 1229.919 C 177.844 1230.557, 177.293 1231, 176.106 1231 C 174.999 1231, 172.899 1231.545, 171.438 1232.210 C 169.141 1233.257, 168.592 1233.163, 167.391 1231.519 C 165.984 1229.596, 166.930 1228.031, 169.500 1228.031 C 170.050 1228.031, 169.838 1228.449, 169.029 1228.961 C 168.220 1229.473, 167.810 1230.143, 168.118 1230.452 C 168.427 1230.760, 169.464 1230.145, 170.422 1229.086 C 172.086 1227.247, 172.074 1227.110, 170.150 1226.080 C 167.989 1224.924, 164 1228.981, 164 1232.337 C 164 1233.178, 163.163 1234.131, 162.141 1234.455 C 160.012 1235.131, 157 1234.216, 157 1232.893 C 157 1231.537, 159.753 1231.826, 160.407 1233.250 C 160.723 1233.938, 160.742 1233.525, 160.450 1232.334 C 160.158 1231.143, 160.387 1229.879, 160.959 1229.525 C 161.532 1229.171, 162 1228.459, 162 1227.941 C 162 1226.651, 150.276 1226.744, 149.475 1228.041 C 149.121 1228.613, 147.970 1228.808, 146.916 1228.473 C 144.836 1227.813, 144.198 1229.547, 146.250 1230.280 C 146.938 1230.525, 147.200 1231.050, 146.833 1231.446 C 146.467 1231.843, 145.200 1231.200, 144.019 1230.019 C 141.500 1227.500, 127.480 1227.202, 128.434 1229.688 C 128.697 1230.374, 128.370 1231.248, 127.706 1231.628 C 127.043 1232.009, 126.845 1231.941, 127.267 1231.477 C 128.436 1230.190, 121.880 1227.720, 120.625 1228.975 C 119.264 1230.336, 114.684 1230.284, 113.292 1228.892 C 112.499 1228.099, 111.236 1228.083, 108.842 1228.836 C 106.777 1229.486, 102.853 1229.595, 98.570 1229.123 C 92.638 1228.469, 91.388 1228.612, 89.883 1230.117 C 88.916 1231.084, 87.984 1231.477, 87.813 1230.991 C 87.163 1229.154, 78.072 1229.520, 76.668 1231.440 C 75.584 1232.922, 74.956 1233.047, 73.231 1232.124 C 71.745 1231.328, 62.311 1231.122, 41.310 1231.426 C 24.915 1231.663, 8.940 1231.889, 5.811 1231.929 L 0.122 1232 0.087 1241.960 L 0.051 1251.919 3.276 1252.489 C 5.049 1252.802, 11.450 1252.949, 17.500 1252.815 C 28.023 1252.583, 32.111 1252.873, 41.903 1254.550 C 45.128 1255.103, 46.116 1254.996, 45.594 1254.152 C 45.202 1253.518, 43.784 1253, 42.441 1253 C 41.098 1253, 40 1252.610, 40 1252.133 C 40 1251.656, 44.612 1251.202, 50.250 1251.124 C 55.888 1251.047, 63.200 1250.938, 66.500 1250.882 C 69.800 1250.826, 79.666 1250.884, 88.425 1251.011 C 102.967 1251.221, 104.469 1251.079, 105.715 1249.375 C 106.743 1247.969, 107.270 1247.819, 107.856 1248.767 C 108.364 1249.589, 109.734 1249.803, 111.816 1249.387 C 115.375 1248.675, 116.071 1246.513, 113 1245.710 C 111.900 1245.423, 111 1244.647, 111 1243.987 C 111 1243.303, 111.681 1243.047, 112.582 1243.393 C 113.452 1243.727, 114.577 1244, 115.082 1244 C 115.587 1244, 116 1244.675, 116 1245.500 C 116 1247.579, 118.623 1247.377, 120.876 1245.124 C 122.348 1243.652, 123.799 1243.342, 127.626 1243.684 C 130.307 1243.924, 134.604 1244.209, 137.175 1244.318 C 141.754 1244.513, 145.356 1246, 141.248 1246 C 137.938 1246, 136.081 1247.047, 136.670 1248.583 C 137.312 1250.255, 148.500 1250.618, 149.500 1249 C 149.840 1248.450, 149.641 1248, 149.059 1248 C 148.477 1248, 148 1247.602, 148 1247.117 C 148 1245.841, 153.324 1244.983, 154.450 1246.077 C 155.042 1246.652, 154.800 1247, 153.807 1247 C 152.931 1247, 151.951 1247.685, 151.629 1248.523 C 151.168 1249.726, 151.423 1249.844, 152.841 1249.085 C 153.915 1248.510, 157.020 1248.447, 160.557 1248.927 C 166.342 1249.712, 168.840 1248.768, 168.968 1245.750 C 168.986 1245.338, 170.125 1245, 171.500 1245 C 172.875 1245, 174 1244.550, 174 1244 C 174 1243.450, 173.100 1243, 172 1243 C 168.858 1243, 169.664 1241.276, 173.038 1240.781 C 176.720 1240.241, 180.582 1242.438, 177.827 1243.506 C 176.907 1243.863, 175.944 1244.704, 175.686 1245.376 C 175.057 1247.015, 190.553 1247.616, 192.467 1246.027 C 193.279 1245.354, 194.933 1245.209, 196.654 1245.660 C 198.219 1246.070, 200.400 1246.276, 201.500 1246.116 C 204.148 1245.733, 205.950 1244, 203.700 1244 C 202.765 1244, 202 1243.351, 202 1242.557 C 202 1241.763, 200.988 1240.371, 199.750 1239.464 L 197.500 1237.815 200 1238.560 C 201.916 1239.131, 217.803 1239.472, 223.309 1239.060 C 223.754 1239.027, 223.780 1238.438, 223.367 1237.750 C 222.850 1236.889, 223.138 1236.923, 224.295 1237.862 C 225.219 1238.611, 226.732 1238.933, 227.657 1238.578 C 229.746 1237.777, 231.263 1239.978, 229.820 1241.716 C 229.038 1242.659, 229.133 1243, 230.174 1243 C 230.955 1243, 232.698 1241.669, 234.047 1240.042 C 236.640 1236.916, 240.387 1235.829, 239.362 1238.500 C 238.941 1239.597, 239.487 1240, 241.393 1240 C 242.827 1240, 244 1240.502, 244 1241.117 C 244 1241.798, 244.878 1241.984, 246.250 1241.593 C 247.488 1241.241, 250.719 1240.510, 253.430 1239.968 C 256.142 1239.427, 259.067 1238.366, 259.930 1237.611 C 261.715 1236.050, 279 1235.592, 279 1237.105 C 279 1237.597, 277.875 1238, 276.500 1238 C 275.125 1238, 274 1238.508, 274 1239.129 C 274 1240.467, 283.936 1239.434, 285.450 1237.938 C 287.123 1236.286, 299.701 1236.778, 300.370 1238.523 C 300.876 1239.839, 301.398 1239.866, 304.227 1238.717 C 308.153 1237.123, 328 1236.527, 328 1238.003 C 328 1238.551, 327.212 1239.036, 326.250 1239.079 C 325.112 1239.130, 324.957 1239.341, 325.808 1239.682 C 326.527 1239.970, 327.961 1239.440, 328.995 1238.505 C 330.028 1237.569, 331.356 1237.102, 331.945 1237.466 C 332.534 1237.830, 333.662 1237.481, 334.452 1236.691 C 336.126 1235.017, 330.536 1231.247, 327.915 1232.283 C 326.920 1232.676, 327.056 1232.866, 328.372 1232.921 C 330.492 1233.010, 328.781 1236.014, 326.628 1235.985 C 325.977 1235.976, 326.085 1235.599, 326.881 1235.095 C 327.858 1234.476, 327.127 1234.034, 324.381 1233.583 C 318.044 1232.542, 310.702 1232.198, 312.004 1233.002 C 312.813 1233.502, 312.867 1233.964, 312.168 1234.396 C 311.593 1234.751, 310.670 1234.245, 310.117 1233.271 C 309.267 1231.774, 308.795 1231.694, 307.069 1232.750 C 304.591 1234.267, 303.666 1234.349, 304.515 1232.975 C 305.323 1231.668, 302.740 1232.163, 301.788 1233.498 C 300.146 1235.798, 260.939 1234.848, 258.346 1232.445 C 255.472 1229.782, 255.334 1228, 258 1228 C 260.970 1228, 260.422 1226.245, 257.250 1225.599 C 252.459 1224.622, 226.707 1224.165, 221.500 1224.963 M 227.991 1228.500 C 227.909 1229.601, 227.615 1229.938, 227.338 1229.250 C 226.389 1226.898, 213.030 1227.623, 210.314 1230.174 C 208.349 1232.021, 208 1232.096, 208 1230.674 C 208 1229.753, 207.523 1229, 206.941 1229 C 206.359 1229, 206.141 1229.419, 206.457 1229.931 C 207.401 1231.458, 205.525 1231.974, 202.414 1231.043 L 199.500 1230.172 202.500 1230.071 C 204.820 1229.992, 205.160 1229.750, 204 1229 C 201.839 1227.604, 197.710 1227.722, 198.595 1229.155 C 199.053 1229.895, 198.868 1230.036, 198.080 1229.550 C 196.226 1228.404, 182.595 1228.011, 180.944 1229.056 C 180.150 1229.558, 179.924 1229.976, 180.441 1229.985 C 180.959 1229.993, 180.509 1230.676, 179.441 1231.502 C 177.801 1232.772, 177.773 1232.910, 179.263 1232.391 C 180.232 1232.053, 181.582 1232.200, 182.263 1232.718 C 183.706 1233.818, 195.135 1233.750, 199.500 1232.617 C 201.497 1232.099, 202.045 1232.159, 201.139 1232.797 C 200.145 1233.497, 200.819 1233.886, 203.639 1234.238 C 205.763 1234.504, 207.991 1234.338, 208.592 1233.870 C 209.193 1233.401, 209.913 1233.247, 210.193 1233.527 C 210.911 1234.244, 254.922 1234.411, 255.634 1233.699 C 255.956 1233.377, 254.707 1232.699, 252.860 1232.191 L 249.500 1231.268 252.500 1230.421 C 257.686 1228.957, 245.662 1227.236, 236.750 1228.167 C 235.512 1228.296, 233.488 1228.056, 232.250 1227.633 C 230.470 1227.026, 229.985 1227.245, 229.930 1228.683 C 229.867 1230.314, 229.772 1230.296, 229 1228.500 L 228.141 1226.500 227.991 1228.500" stroke="none" fill="black" fill-rule="evenodd"/>
</svg>