<svg xmlns="http://www.w3.org/2000/svg" width="2186" height="2690" viewBox="0 0 2186 2690" version="1.1">
	<path d="M 389.424 374.250 C 389.774 429.938, 390.497 580.350, 391.031 708.500 C 391.566 836.650, 392.437 1044.325, 392.967 1170 C 393.497 1295.675, 394.185 1472.525, 394.497 1563 C 394.808 1653.475, 395.479 1814.800, 395.989 1921.500 C 396.499 2028.200, 397.217 2185.475, 397.586 2271 C 397.954 2356.525, 398.347 2426.612, 398.459 2426.748 C 398.572 2426.885, 442.952 2423.160, 497.082 2418.471 C 551.212 2413.781, 610.800 2408.621, 629.500 2407.003 C 648.200 2405.386, 713 2399.764, 773.500 2394.511 C 834 2389.258, 899.250 2383.612, 918.500 2381.966 C 937.750 2380.319, 958.225 2378.539, 964 2378.011 C 969.775 2377.482, 985.300 2376.132, 998.500 2375.010 C 1011.700 2373.888, 1037.575 2371.642, 1056 2370.019 C 1074.425 2368.396, 1102.775 2365.925, 1119 2364.529 C 1135.225 2363.132, 1163.800 2360.654, 1182.500 2359.022 C 1201.200 2357.390, 1219.425 2355.814, 1223 2355.521 C 1232.750 2354.722, 1319.273 2347.256, 1345 2344.994 C 1357.375 2343.906, 1401.475 2340.087, 1443 2336.506 C 1484.525 2332.926, 1531.325 2328.863, 1547 2327.476 C 1562.675 2326.090, 1601.375 2322.727, 1633 2320.003 C 1700.689 2314.173, 1720.140 2312.488, 1789.500 2306.444 C 1845.363 2301.576, 1854.232 2300.814, 1877.765 2298.864 C 1886.161 2298.168, 1893.586 2297.256, 1894.265 2296.836 C 1895.226 2296.243, 1895.538 2278.467, 1895.671 2216.787 C 1895.765 2173.179, 1896.081 2092.950, 1896.373 2038.500 C 1896.664 1984.050, 1896.559 1936.697, 1896.138 1933.271 C 1895.717 1929.846, 1895.707 1926.921, 1896.117 1926.771 C 1896.807 1926.520, 1897.151 1861.705, 1898.512 1476 C 1899.002 1337.235, 1900.060 1077.647, 1901.978 625.510 C 1902.497 503.416, 1902.601 403.244, 1902.210 402.906 C 1901.612 402.389, 1795.786 393.186, 1558 372.971 C 1532.975 370.843, 1491.125 367.271, 1465 365.031 C 1292.709 350.262, 1156.301 338.599, 1102 333.995 C 1076.425 331.826, 1031.875 328.025, 1003 325.549 C 955.937 321.512, 938.310 320.011, 873.500 314.520 C 863.600 313.681, 845.375 312.102, 833 311.011 C 820.625 309.920, 791.600 307.431, 768.500 305.480 C 745.400 303.530, 713.450 300.817, 697.500 299.453 C 681.550 298.089, 655.225 295.845, 639 294.466 C 622.775 293.088, 596.900 290.842, 581.500 289.476 C 566.100 288.111, 535.050 285.433, 512.500 283.527 C 458.206 278.936, 428.149 276.359, 407.500 274.522 C 398.150 273.690, 390.115 273.008, 389.644 273.005 C 389.172 273.002, 389.073 318.306, 389.424 374.250" stroke="none" fill="black" fill-rule="evenodd"/>
</svg>