<svg xmlns="http://www.w3.org/2000/svg" width="1964" height="2452" viewBox="0 0 1964 2452" version="1.1">
	<path d="M 305.917 254.907 C 305.872 255.233, 305.927 260, 306.041 265.500 C 306.154 271, 306.235 276.400, 306.220 277.500 C 306.206 278.600, 306.146 727.700, 306.087 1275.500 L 305.981 2271.500 661.084 2271.504 C 856.390 2271.506, 1016.385 2271.186, 1016.629 2270.792 C 1016.872 2270.398, 1018.067 2270.450, 1019.285 2270.907 C 1023.285 2272.408, 1055.564 2271.602, 1057.597 2269.951 C 1058.580 2269.153, 1059.075 2269.015, 1058.698 2269.645 C 1057.382 2271.842, 1062.750 2271.874, 1362.171 2271.485 C 1527.902 2271.269, 1665.525 2271.164, 1668 2271.250 C 1670.475 2271.337, 1705.350 2271.429, 1745.500 2271.454 L 1818.500 2271.500 1818.500 1263 L 1818.500 254.500 1062.250 254.407 C 646.313 254.356, 305.963 254.581, 305.917 254.907 M 593.306 1948.581 C 591.763 1950, 591.063 1950.873, 591.750 1950.522 C 592.860 1949.954, 593.574 1952.458, 593.108 1955.282 C 593.037 1955.712, 594.472 1955.963, 596.298 1955.841 C 598.622 1955.684, 600.297 1956.297, 601.886 1957.886 C 603.134 1959.134, 604.818 1959.900, 605.629 1959.589 C 606.458 1959.271, 606.836 1959.456, 606.493 1960.011 C 606.157 1960.555, 606.310 1961, 606.834 1961 C 607.358 1961, 608.045 1960.325, 608.362 1959.500 C 608.678 1958.675, 608.389 1957.993, 607.719 1957.985 C 606.900 1957.974, 606.964 1957.676, 607.912 1957.075 C 608.997 1956.389, 608.766 1956.103, 606.912 1955.841 C 605.345 1955.619, 604.450 1954.799, 604.356 1953.500 C 604.277 1952.400, 604.165 1950.915, 604.106 1950.199 C 604.020 1949.140, 598.397 1946, 596.588 1946 C 596.326 1946, 594.849 1947.161, 593.306 1948.581 M 604.694 1964.700 C 603.032 1965.131, 603.064 1965.321, 605.094 1967.082 C 606.898 1968.646, 607.582 1968.767, 608.842 1967.748 C 609.859 1966.925, 610.147 1966.895, 609.688 1967.661 C 609.305 1968.300, 609.613 1970.100, 610.373 1971.661 C 611.134 1973.223, 612.543 1976.162, 613.504 1978.193 C 615.501 1982.409, 621.222 1989, 622.885 1989 C 623.498 1989, 624 1989.900, 624 1991 C 624 1993.203, 625.585 1993.729, 626.258 1991.750 C 626.695 1990.466, 625.486 1987.741, 623.208 1984.875 C 622.498 1983.981, 622.028 1982.856, 622.164 1982.375 C 622.476 1981.269, 619.347 1975.332, 618.019 1974.511 C 617.431 1974.148, 617.262 1974.634, 617.606 1975.698 C 618.062 1977.110, 617.972 1977.195, 617.187 1976.091 C 616.636 1975.316, 616.417 1974.078, 616.700 1973.341 C 616.998 1972.563, 616.540 1972, 615.607 1972 C 614.570 1972, 614 1971.134, 614 1969.559 C 614 1968.216, 613.543 1966.835, 612.984 1966.490 C 612.425 1966.144, 612.226 1965.443, 612.543 1964.931 C 613.125 1963.989, 608.017 1963.839, 604.694 1964.700" stroke="none" fill="black" fill-rule="evenodd"/>
</svg>