<svg xmlns="http://www.w3.org/2000/svg" width="2005" height="2503" viewBox="0 0 2005 2503" version="1.1">
	<path d="M 156.030 232.204 C 155.984 253.824, 156.296 262.652, 157.141 263.670 C 158.030 264.742, 158.034 265.366, 157.158 266.242 C 155.689 267.711, 155.594 283.631, 157.049 284.530 C 157.767 284.974, 157.732 285.618, 156.938 286.575 C 156.049 287.646, 156.068 336.660, 156.961 345.905 C 156.982 346.128, 157.863 345.529, 158.918 344.575 C 159.972 343.620, 161.856 342.988, 163.105 343.170 C 165.682 343.545, 165.107 344.380, 159.158 348.900 L 156 351.299 156 380.100 C 156 405.178, 156.202 409.014, 157.563 409.775 C 158.980 410.568, 158.980 410.772, 157.559 411.951 C 155.689 413.503, 155.159 1712.362, 157.028 1713.517 C 157.563 1713.848, 158 1713.416, 158 1712.559 C 158 1711.702, 158.675 1711, 159.500 1711 C 161.713 1711, 161.326 1712.598, 158.593 1714.748 L 156.186 1716.641 156.343 1775.571 L 156.500 1834.500 159.250 1834.312 C 162.777 1834.070, 162.720 1834.577, 159 1836.500 C 154.406 1838.876, 154.903 1848.124, 159.577 1847.230 C 160.971 1846.964, 162 1847.241, 162 1847.883 C 162 1848.498, 160.911 1849, 159.579 1849 C 156.031 1849, 156.207 1839.458, 156.113 2036.226 L 156.026 2217.952 236.763 2218.090 C 463.719 2218.478, 565.485 2218.453, 594.195 2218 L 625.890 2217.500 623.951 2215 L 622.013 2212.500 621.390 2214.750 C 621.047 2215.988, 620.339 2217, 619.816 2217 C 619.293 2217, 619.139 2216.138, 619.473 2215.084 C 619.808 2214.030, 619.613 2212.879, 619.041 2212.525 C 618.468 2212.171, 618 2212.359, 618 2212.941 C 618 2213.523, 617.052 2214, 615.893 2214 C 614.431 2214, 613.962 2213.541, 614.362 2212.500 C 614.678 2211.675, 614.558 2211, 614.094 2211 C 613.630 2211, 612.969 2212.405, 612.625 2214.123 C 612.141 2216.544, 611.708 2217.003, 610.698 2216.165 C 609.982 2215.570, 608.488 2215.321, 607.378 2215.611 C 604.223 2216.437, 602.001 2213.203, 604.479 2211.392 C 606.318 2210.047, 606.308 2210, 604.191 2210 C 602.986 2210, 602 2209.550, 602 2209 C 602 2208.450, 602.450 2208, 603 2208 C 603.550 2208, 604 2207.100, 604 2206 C 604 2203.413, 612.674 2202.986, 613.648 2205.526 C 614.071 2206.628, 614.584 2206.760, 615.495 2206.004 C 617.149 2204.632, 622 2206.415, 622 2208.396 C 622 2210.724, 627.472 2211.392, 630.467 2209.430 C 633.388 2207.516, 633.232 2207.438, 634.557 2211.479 C 635.094 2213.117, 636.536 2214.957, 637.761 2215.568 C 638.986 2216.179, 639.691 2216.976, 639.327 2217.339 C 638.576 2218.090, 655.505 2218.145, 956 2218.350 C 1200.482 2218.518, 1186.348 2218.684, 1184.796 2215.660 C 1181.827 2209.875, 1181.737 2209.588, 1182.782 2209.239 C 1183.863 2208.879, 1183.837 2208.119, 1182.034 2187 C 1181.493 2180.675, 1181.109 2174.150, 1181.179 2172.500 C 1181.248 2170.850, 1180.981 2161.625, 1180.585 2152 C 1179.110 2116.191, 1178.940 2109.893, 1178.735 2083.250 C 1178.620 2068.263, 1178.267 2056.739, 1177.950 2057.641 C 1177.634 2058.544, 1177.473 2053.144, 1177.594 2045.641 C 1177.742 2036.395, 1177.464 2032, 1176.731 2032 C 1176.137 2032, 1176.424 2031.212, 1177.371 2030.250 C 1178.318 2029.287, 1179.732 2027.600, 1180.514 2026.500 C 1181.839 2024.637, 1181.934 2024.775, 1181.898 2028.500 C 1181.868 2031.635, 1181.673 2032.067, 1181 2030.500 C 1180.253 2028.763, 1180.120 2028.894, 1179.982 2031.500 C 1179.577 2039.173, 1179.782 2048.997, 1180.399 2051.455 C 1180.845 2053.229, 1180.720 2053.945, 1180.040 2053.525 C 1178.601 2052.636, 1178.732 2053.731, 1180.669 2058.803 C 1182.067 2062.463, 1182.115 2063.311, 1180.965 2064.022 C 1179.869 2064.699, 1179.831 2065.336, 1180.775 2067.185 C 1181.426 2068.458, 1182.187 2074.225, 1182.468 2080 C 1182.749 2085.775, 1183.186 2094.325, 1183.439 2099 C 1183.692 2103.675, 1184.192 2115.600, 1184.551 2125.500 C 1185.232 2144.305, 1185.919 2147, 1190.033 2147 C 1191.998 2147, 1194.315 2149.352, 1193.325 2150.342 C 1192.963 2150.704, 1193.165 2151, 1193.774 2151 C 1194.384 2151, 1195.176 2150.524, 1195.536 2149.941 C 1196.277 2148.742, 1201.933 2149.644, 1203.500 2151.211 C 1204.167 2151.877, 1203.333 2151.989, 1201 2151.545 C 1198.655 2151.099, 1197.957 2151.193, 1198.885 2151.832 C 1200.001 2152.600, 1199.836 2153.017, 1198.040 2153.979 C 1195.577 2155.297, 1192 2152.669, 1192 2149.542 C 1192 2146.265, 1188.115 2147.870, 1187.449 2151.422 C 1186.064 2158.801, 1190.762 2163.907, 1194.149 2158.705 C 1194.524 2158.130, 1195.921 2158.830, 1197.450 2160.359 L 1200.102 2163.011 1197.486 2164.005 C 1194.074 2165.303, 1191.665 2165.265, 1190.293 2163.893 C 1187.299 2160.899, 1185.805 2201.065, 1188.336 2216.500 C 1188.635 2218.325, 1211.571 2218.507, 1441 2218.504 L 1668.500 2218.500 1668.665 1863 C 1668.838 1492.341, 1668.903 1501.750, 1666.183 1502.705 C 1664.901 1503.154, 1665.004 1502.804, 1666.616 1501.233 L 1668.732 1499.172 1668.379 1414.836 C 1668.186 1368.451, 1668.133 1327.575, 1668.262 1324 C 1668.391 1320.425, 1668.452 1257.875, 1668.398 1185 C 1668.344 1112.125, 1668.309 1050.250, 1668.321 1047.500 C 1668.986 883.512, 1668.149 398.550, 1667.200 398.233 C 1666.540 398.013, 1666 397.394, 1666 396.858 C 1666 396.321, 1666.450 396.160, 1667 396.500 C 1667.605 396.874, 1668.024 395.414, 1668.061 392.809 C 1668.170 385.056, 1668.096 249.540, 1667.982 248 C 1667.921 247.175, 1667.942 237.950, 1668.030 227.500 C 1668.219 205.113, 1668.085 201.733, 1667.113 204.313 C 1666.465 206.033, 1666.295 206.020, 1663.803 204.060 L 1661.177 201.994 1534.838 202.351 C 1465.352 202.548, 1408.050 202.723, 1407.500 202.742 C 1406.950 202.760, 1350.739 202.580, 1282.587 202.342 C 1189.980 202.019, 1158.494 202.200, 1157.964 203.058 C 1157.440 203.906, 1156.713 203.917, 1155.189 203.101 C 1152.431 201.625, 375.615 201.600, 372.858 203.076 C 371.617 203.740, 371 203.735, 371 203.060 C 371 202.385, 335.311 202.066, 263.547 202.101 L 156.093 202.152 156.030 232.204 M 1373 209.566 C 1373 209.877, 1373.537 211.114, 1374.194 212.316 C 1374.850 213.517, 1375.266 215.738, 1375.118 217.250 C 1374.928 219.200, 1375.307 220, 1376.425 220 C 1377.333 220, 1378 220.846, 1378 222 C 1378 223.352, 1377.333 224, 1375.941 224 C 1374.698 224, 1374.151 224.436, 1374.562 225.100 C 1375.056 225.899, 1374.681 225.899, 1373.186 225.100 C 1368.026 222.338, 1370.317 225.258, 1376 228.686 C 1382.223 232.441, 1392.230 230.830, 1388.133 226.733 C 1387.510 226.110, 1387 224.799, 1387 223.820 C 1387 219.403, 1383.881 214.414, 1379.444 211.734 C 1375.062 209.087, 1373 208.393, 1373 209.566 M 1391.704 213.328 C 1391.424 214.059, 1392.501 216.602, 1394.097 218.979 C 1395.694 221.356, 1397 224.328, 1397 225.582 C 1397 226.952, 1398.145 228.679, 1399.863 229.902 C 1403.117 232.220, 1404.812 231.555, 1402.412 228.903 C 1400.461 226.747, 1401.329 223.348, 1404.051 222.484 C 1405.123 222.144, 1406 221.206, 1406 220.401 C 1406 218.083, 1403.057 217.540, 1401.564 219.582 C 1400.310 221.296, 1400.090 221.190, 1398.171 217.958 C 1394.590 211.925, 1392.749 210.607, 1391.704 213.328 M 1433.246 267.567 C 1432.674 269.730, 1432.160 270.712, 1432.103 269.750 C 1431.883 266.022, 1428.235 268.480, 1428.244 272.351 C 1428.248 274.521, 1428.916 275.482, 1431.041 276.375 C 1435.268 278.153, 1433.319 281.087, 1428.616 280.026 C 1426.289 279.501, 1425.269 279.613, 1425.386 280.380 C 1425.768 282.889, 1427.284 283.999, 1430.309 283.985 C 1432.224 283.975, 1433.009 283.657, 1432.272 283.189 C 1431.370 282.616, 1431.569 282.032, 1433.022 280.984 C 1434.343 280.032, 1435.005 278.386, 1435.015 276.029 C 1435.024 274.088, 1435.487 271.825, 1436.046 271 C 1436.799 269.887, 1436.896 270.210, 1436.422 272.250 C 1436.020 273.980, 1436.194 275, 1436.892 275 C 1438.698 275, 1438.154 268.411, 1436.143 265.928 L 1434.285 263.634 1433.246 267.567 M 1387.026 329.242 C 1386.218 331.034, 1385.481 333.802, 1385.388 335.393 C 1385.295 336.985, 1384.959 340.360, 1384.641 342.893 C 1384.002 347.974, 1387.699 352.701, 1390.287 350.113 C 1390.979 349.421, 1391.015 349, 1390.383 349 C 1388.949 349, 1389.927 337.930, 1391.499 336.358 C 1392.194 335.663, 1393.081 335.411, 1393.470 335.798 C 1393.859 336.184, 1393.622 335.277, 1392.943 333.781 C 1392.263 332.286, 1391.258 331.340, 1390.709 331.680 C 1390.099 332.057, 1389.905 331.278, 1390.211 329.679 C 1390.486 328.239, 1390.365 327.275, 1389.941 327.536 C 1389.517 327.798, 1389.019 327.556, 1388.833 326.999 C 1388.647 326.441, 1387.834 327.451, 1387.026 329.242 M 177.294 343.841 C 176.084 344.753, 173.908 346.338, 172.459 347.363 C 168.630 350.070, 170.228 351.302, 178.309 351.872 C 179.339 351.945, 179.829 352.468, 179.446 353.087 C 179.077 353.685, 178.018 353.976, 177.093 353.735 C 175.917 353.427, 175.356 353.973, 175.225 355.552 C 175.026 357.953, 181.688 359.282, 187.207 357.944 L 189.500 357.387 187.298 356.800 C 186.085 356.476, 184.933 356.702, 184.732 357.303 C 184.532 357.903, 184.283 355.281, 184.178 351.476 C 184.012 345.426, 181.042 337.577, 180.985 343.036 C 180.974 344.047, 180.741 344.142, 180.232 343.341 C 179.696 342.499, 178.892 342.636, 177.294 343.841 M 645.854 1050.427 C 642.872 1053.704, 640.811 1055.025, 637.917 1055.514 C 633.551 1056.252, 630 1059.864, 630 1063.567 C 630 1064.992, 629.235 1066.108, 627.985 1066.505 C 626.877 1066.856, 626.203 1067.520, 626.487 1067.979 C 626.771 1068.438, 626.080 1068.572, 624.952 1068.277 C 623.085 1067.789, 619.977 1068.766, 611.500 1072.509 C 609.850 1073.237, 607.251 1074.107, 605.725 1074.442 C 604.198 1074.777, 602.061 1075.939, 600.975 1077.025 C 599.889 1078.111, 599 1078.550, 599 1078 C 599 1077.450, 598.561 1077, 598.025 1077 C 596.621 1077, 592.789 1085.850, 593.615 1087.186 C 594.041 1087.875, 593.858 1088.030, 593.143 1087.588 C 592.388 1087.122, 591.765 1087.926, 591.376 1089.870 C 591.046 1091.521, 590.151 1093.112, 589.388 1093.405 C 587.302 1094.205, 587.708 1096.898, 589.890 1096.733 C 590.930 1096.655, 591.595 1096.107, 591.368 1095.516 C 590.879 1094.242, 597.272 1087, 598.885 1087 C 600.791 1087, 600.108 1091.452, 598 1092.768 C 596.900 1093.455, 596 1094.463, 596 1095.008 C 596 1095.554, 596.900 1096, 598 1096 C 599.333 1096, 600 1095.333, 600 1094 C 600 1092.361, 600.678 1091.994, 603.750 1091.967 C 607.272 1091.935, 611.997 1089.287, 612.002 1087.340 C 612.004 1086.878, 613.353 1084.925, 615 1083 C 616.647 1081.075, 617.996 1079.174, 617.998 1078.776 C 618.004 1076.751, 624.337 1074.741, 625.538 1076.383 C 627.014 1078.401, 628.681 1078.415, 632.467 1076.441 C 634.882 1075.181, 635.858 1075.121, 637.717 1076.116 C 640.178 1077.433, 640.744 1079.585, 638.799 1080.234 C 637.865 1080.545, 637.865 1080.798, 638.799 1081.376 C 639.460 1081.784, 640 1081.657, 640 1081.094 C 640 1079.541, 643.637 1077.924, 645.511 1078.643 C 646.657 1079.082, 646.810 1079.499, 646.010 1079.994 C 645.162 1080.518, 645.230 1081.088, 646.267 1082.125 C 647.912 1083.769, 648.348 1090.167, 646.877 1091.076 C 646.326 1091.417, 645.830 1093.226, 645.775 1095.098 C 645.720 1096.969, 645.485 1097.938, 645.254 1097.250 C 645.023 1096.563, 644.196 1096, 643.417 1096 C 642.638 1096, 642 1095.538, 642 1094.973 C 642 1093.931, 638.199 1089.335, 632.170 1083.090 C 629.492 1080.315, 628.663 1079.920, 627.935 1081.070 C 626.821 1082.831, 626.709 1088, 627.784 1088 C 628.216 1088, 629.355 1089.331, 630.315 1090.957 C 631.351 1092.710, 632.623 1093.698, 633.441 1093.384 C 635.628 1092.545, 641 1095.810, 641 1097.979 C 641 1099.170, 642.241 1100.495, 644.250 1101.449 C 648.792 1103.606, 648.843 1107.197, 644.407 1112.380 C 640.827 1116.562, 639.967 1120, 642.500 1120 C 643.325 1120, 644 1119.325, 644 1118.500 C 644 1117.675, 644.437 1117, 644.970 1117 C 645.504 1117, 645.841 1118.688, 645.720 1120.750 C 645.515 1124.236, 645.711 1124.523, 648.500 1124.827 C 655.180 1125.555, 653.601 1129.003, 644.563 1133.425 C 636.321 1137.458, 634.626 1136.753, 640.500 1131.735 C 644.663 1128.179, 644.919 1126.300, 641.422 1124.970 C 639.195 1124.124, 638.933 1123.581, 639.501 1120.995 C 640.170 1117.948, 637.097 1116.416, 635.500 1119 C 635.160 1119.550, 633.805 1120, 632.488 1120 C 626.938 1120, 621.908 1123.668, 619.974 1129.124 C 618.273 1133.922, 619.238 1136.379, 622.570 1135.742 C 624.503 1135.372, 624.982 1135.606, 624.558 1136.709 C 624.251 1137.509, 624 1138.577, 624 1139.082 C 624 1139.587, 623.058 1140, 621.906 1140 C 620.654 1140, 619.603 1140.803, 619.290 1142 C 618.961 1143.256, 617.926 1144, 616.506 1144 C 612.796 1144, 611.467 1146.514, 614.175 1148.410 C 616.889 1150.311, 620.636 1150.489, 621.338 1148.750 C 621.659 1147.955, 621.871 1148.092, 621.921 1149.129 C 622.013 1151.032, 627.339 1153.526, 629.051 1152.468 C 629.696 1152.070, 630.616 1152.364, 631.096 1153.122 C 631.698 1154.072, 631.974 1153.491, 631.985 1151.250 C 631.993 1149.463, 632.501 1148, 633.113 1148 C 633.786 1148, 634.050 1149.209, 633.779 1151.053 C 633.279 1154.461, 633.870 1154.961, 641.441 1157.531 C 649.712 1160.340, 658.875 1164.984, 660.379 1167.130 C 661.182 1168.278, 662.321 1168.920, 662.909 1168.556 C 663.560 1168.154, 663.749 1168.490, 663.393 1169.419 C 662.691 1171.249, 666.413 1176.270, 668.800 1176.713 C 674.587 1177.785, 676.519 1177.784, 677.219 1176.705 C 677.752 1175.882, 678.195 1176.211, 678.614 1177.739 C 678.951 1178.970, 679.577 1179.761, 680.004 1179.497 C 681.489 1178.580, 683.729 1183.484, 683.267 1186.637 C 683.014 1188.356, 683.301 1190.068, 683.904 1190.441 C 685.414 1191.374, 685.276 1194.239, 683.563 1197.541 C 680.718 1203.024, 680.440 1212.726, 683.067 1214.853 L 685.366 1216.714 682.433 1218.521 C 680.820 1219.515, 678.509 1220.925, 677.297 1221.656 C 675.945 1222.471, 674.832 1224.437, 674.416 1226.742 C 674.044 1228.809, 673.311 1231.040, 672.789 1231.700 C 672.266 1232.360, 671.978 1234.520, 672.148 1236.499 C 672.319 1238.479, 671.985 1240.414, 671.406 1240.799 C 669.785 1241.879, 668.814 1245.267, 669.929 1245.956 C 670.476 1246.294, 670.641 1247.656, 670.294 1248.982 C 669.703 1251.242, 669.611 1251.271, 668.817 1249.446 C 668.191 1248.010, 668.115 1248.243, 668.525 1250.334 C 668.893 1252.212, 668.718 1252.944, 668.007 1252.504 C 665.938 1251.226, 667.809 1263.168, 670.052 1265.555 C 671.306 1266.890, 672.273 1269.555, 672.541 1272.416 C 672.783 1274.989, 673.436 1277.946, 673.993 1278.987 C 674.550 1280.028, 675.210 1285.069, 675.458 1290.190 C 675.707 1295.310, 676.586 1301.300, 677.411 1303.500 L 678.911 1307.500 678.329 1303.255 C 678.002 1300.875, 678.202 1298.459, 678.785 1297.755 C 679.356 1297.065, 679.825 1295.375, 679.827 1294 C 679.848 1279.385, 680.621 1269.272, 681.653 1270.127 C 683.199 1271.410, 683.955 1269.155, 682.919 1266.349 C 682.350 1264.808, 682.637 1263.734, 683.931 1262.563 C 685.528 1261.117, 688.651 1248.107, 688.327 1244.250 C 688.269 1243.563, 688.622 1243, 689.111 1243 C 689.600 1243, 690.011 1241.537, 690.024 1239.750 C 690.037 1237.963, 690.520 1234.700, 691.097 1232.500 C 693.843 1222.026, 695.629 1208.503, 694.310 1208.177 C 693.589 1207.999, 693 1207.310, 693 1206.646 C 693 1205.982, 691.706 1204.950, 690.125 1204.353 C 687.560 1203.385, 687.261 1202.817, 687.359 1199.094 C 687.447 1195.740, 687.690 1195.222, 688.594 1196.460 C 689.214 1197.307, 690.432 1198, 691.301 1198 C 693.579 1198, 694.351 1199.780, 692.262 1200.218 C 690.759 1200.533, 690.849 1200.780, 692.879 1201.898 C 696.790 1204.053, 700.348 1199.172, 699.719 1192.515 C 699.374 1188.856, 699.747 1186.598, 701.124 1184.029 C 702.156 1182.105, 703 1179.585, 703 1178.431 C 703 1177.277, 703.309 1176.024, 703.687 1175.646 C 704.065 1175.268, 704.434 1174.144, 704.508 1173.148 C 704.656 1171.132, 709.408 1151.278, 711.603 1143.500 C 712.379 1140.750, 713.677 1135.125, 714.486 1131 C 715.296 1126.875, 716.695 1121.025, 717.595 1118 C 720.559 1108.034, 720.562 1105.230, 717.607 1102.906 C 716.173 1101.778, 715 1100.138, 715 1099.261 C 715 1098.384, 714.707 1097.960, 714.348 1098.318 C 713.990 1098.677, 713.126 1097.869, 712.428 1096.523 C 709.052 1090.016, 707.355 1087.392, 705.750 1086.193 C 704.788 1085.475, 704 1084.012, 704 1082.943 C 704 1081.874, 703.144 1080.144, 702.099 1079.099 C 701.053 1078.053, 699.887 1076.220, 699.508 1075.026 C 699.075 1073.661, 698.277 1073.063, 697.358 1073.416 C 696.554 1073.725, 696.143 1073.578, 696.445 1073.089 C 696.979 1072.225, 690.643 1066.007, 689.215 1065.993 C 688.822 1065.989, 687.429 1064.414, 686.121 1062.493 C 684.813 1060.572, 683.321 1059, 682.807 1059 C 682.292 1059, 680.787 1057.712, 679.462 1056.137 C 677.341 1053.616, 676.009 1053.139, 668.349 1052.150 C 661.949 1051.324, 658.686 1050.361, 656.019 1048.513 C 651.178 1045.159, 650.539 1045.279, 645.854 1050.427 M 433.035 1048.934 C 431.689 1051.450, 431.707 1055.701, 433.068 1056.542 C 433.656 1056.905, 433.922 1057.760, 433.661 1058.442 C 431.684 1063.594, 442.352 1066.488, 444.487 1061.378 C 447.128 1055.056, 442.327 1045.826, 437.840 1048.599 C 437.130 1049.038, 436.964 1048.868, 437.405 1048.155 C 437.854 1047.427, 437.369 1047, 436.094 1047 C 434.981 1047, 433.605 1047.870, 433.035 1048.934 M 686.719 1086.615 C 686.362 1086.971, 686.537 1088.134, 687.107 1089.199 C 688.032 1090.929, 687.965 1095.717, 686.794 1111.453 C 686.519 1115.147, 686.713 1115.467, 689.750 1116.347 C 691.538 1116.865, 693 1117.661, 693 1118.115 C 693 1119.143, 703.122 1124, 705.265 1124 C 709.098 1124, 709.897 1123.029, 708.410 1120.180 C 707.641 1118.706, 707.010 1116.422, 707.006 1115.105 C 706.999 1112.272, 702.018 1104.004, 700.317 1104.002 C 699.667 1104.001, 698.849 1103.100, 698.500 1102 C 698.151 1100.900, 697.221 1100, 696.433 1100 C 695.645 1100, 695 1099.100, 695 1098 C 695 1096.900, 694.602 1096, 694.117 1096 C 693.631 1096, 692.949 1095.213, 692.601 1094.250 C 690.970 1089.739, 687.760 1085.573, 686.719 1086.615 M 736.946 1098.179 C 735.978 1103.948, 735.436 1115.001, 735.999 1117.496 C 736.559 1119.979, 736.338 1121.233, 735.127 1122.444 C 733.863 1123.709, 733.477 1126.318, 733.376 1134.283 C 733.304 1139.902, 732.735 1148.775, 732.111 1154 C 731.486 1159.225, 730.750 1166.425, 730.476 1170 C 730.201 1173.575, 729.713 1179.200, 729.391 1182.500 C 727.401 1202.896, 728.125 1216, 731.241 1216 C 731.655 1216, 732.675 1217.463, 733.508 1219.250 C 734.493 1221.366, 734.876 1221.715, 734.604 1220.251 C 734.375 1219.014, 734.596 1217.750, 735.094 1217.442 C 735.592 1217.134, 736.007 1217.696, 736.015 1218.691 C 736.027 1220.113, 736.218 1220.204, 736.906 1219.118 C 737.816 1217.681, 744.395 1218.280, 746.500 1219.992 C 748.349 1221.495, 751.474 1221.370, 755.484 1219.633 C 758.003 1218.541, 759.597 1218.291, 759.817 1218.952 C 760.030 1219.589, 761.696 1219.752, 764.083 1219.371 C 767.804 1218.776, 768 1218.876, 768 1221.372 C 768 1222.817, 768.379 1224, 768.841 1224 C 769.304 1224, 770.753 1227.600, 772.062 1232 C 773.370 1236.400, 774.714 1240, 775.047 1240 C 775.381 1240, 775.453 1241.369, 775.207 1243.042 C 774.962 1244.716, 775.449 1247.978, 776.291 1250.292 C 778.174 1255.469, 779.710 1262.735, 780.459 1270 C 780.770 1273.025, 781.132 1276.400, 781.262 1277.500 C 781.393 1278.600, 782.020 1279.950, 782.656 1280.500 C 784.238 1281.867, 785.596 1288.487, 784.107 1287.566 C 782.243 1286.414, 782.824 1292.488, 785.125 1298.213 C 787.138 1303.222, 788.401 1307.396, 789.591 1312.969 C 789.881 1314.327, 790.485 1315.902, 790.934 1316.469 C 791.812 1317.580, 792.902 1322.484, 793.456 1327.817 C 793.885 1331.947, 793.671 1331.767, 798.777 1332.278 C 803.996 1332.800, 805.256 1330.166, 802.532 1324.427 C 801.603 1322.470, 800.631 1319.660, 800.370 1318.184 C 800.110 1316.708, 798.120 1310.166, 795.949 1303.647 C 793.777 1297.128, 792 1290.078, 792 1287.981 C 792 1285.883, 791.618 1284.017, 791.152 1283.833 C 789.460 1283.169, 788.925 1272.481, 790.480 1270.425 C 791.803 1268.676, 791.939 1268.660, 791.968 1270.250 C 791.990 1271.442, 792.877 1272.055, 794.750 1272.171 C 799.454 1272.464, 800.429 1272.614, 802.851 1273.418 C 804.200 1273.866, 805.628 1273.772, 806.204 1273.196 C 806.874 1272.526, 808 1272.883, 809.601 1274.275 C 812.570 1276.856, 817.858 1278.878, 824.882 1280.119 C 831.243 1281.242, 831.896 1280.912, 828.878 1278.101 L 826.623 1276 828.877 1276 C 834.729 1276, 835.351 1269.652, 829.744 1267.165 C 829.328 1266.980, 829.270 1266.373, 829.614 1265.815 C 829.996 1265.198, 829.434 1265.232, 828.181 1265.903 C 826.823 1266.630, 825.910 1266.664, 825.502 1266.003 C 825.161 1265.451, 825.246 1264.993, 825.691 1264.985 C 826.136 1264.976, 825.877 1264.575, 825.115 1264.092 C 824.271 1263.558, 825.626 1263.429, 828.585 1263.762 C 832.051 1264.153, 834.307 1265.122, 836.470 1267.150 C 838.906 1269.434, 840.419 1269.992, 844.191 1269.995 C 846.771 1269.998, 849.160 1270.450, 849.500 1271 C 849.840 1271.550, 851.194 1272, 852.509 1272 C 853.825 1272, 855.260 1272.639, 855.700 1273.420 C 856.654 1275.114, 862 1276.661, 862 1275.243 C 862 1273.162, 857.786 1269.075, 853.502 1267.001 C 851.032 1265.805, 848.753 1264.409, 848.437 1263.898 C 848.122 1263.388, 846.432 1262.302, 844.682 1261.487 C 842.932 1260.671, 840.150 1259.136, 838.500 1258.075 C 836.850 1257.014, 834.938 1256.113, 834.250 1256.073 C 833.563 1256.033, 832.147 1255.213, 831.105 1254.250 C 826.737 1250.216, 823.762 1248, 822.715 1248 C 821.942 1248, 821.968 1247.632, 822.800 1246.800 C 824.743 1244.857, 824.239 1244.434, 819.758 1244.256 C 812.025 1243.947, 808.025 1241.221, 808.011 1236.250 C 808.002 1232.663, 808.312 1232, 810 1232 C 811.100 1232, 812 1231.550, 812 1231 C 812 1230.450, 812.900 1230, 814 1230 C 815.100 1230, 816 1229.544, 816 1228.987 C 816 1228.409, 817.613 1228.668, 819.750 1229.589 C 822.392 1230.727, 827.193 1231.281, 836 1231.464 C 844.876 1231.649, 849.370 1232.172, 851.500 1233.268 C 853.150 1234.116, 856.525 1235.132, 859 1235.524 C 861.475 1235.916, 864.850 1236.942, 866.500 1237.805 C 868.844 1239.030, 872.409 1239.335, 882.800 1239.201 C 890.531 1239.101, 895.866 1239.408, 895.540 1239.935 C 894.837 1241.072, 899.921 1245.167, 901.118 1244.427 C 901.603 1244.127, 902 1240.969, 902 1237.409 C 902 1229.821, 903.752 1225.027, 907.914 1221.226 C 909.565 1219.717, 910.598 1218.011, 910.208 1217.434 C 909.404 1216.242, 896.687 1210, 895.063 1210 C 894.478 1210, 894 1209.660, 894 1209.244 C 894 1208.828, 892.538 1207.860, 890.750 1207.091 C 888.962 1206.323, 883.900 1203.994, 879.500 1201.916 C 875.100 1199.838, 869.250 1197.249, 866.500 1196.162 C 863.750 1195.075, 860.207 1193.504, 858.626 1192.672 C 857.045 1191.839, 855.132 1191.396, 854.376 1191.686 C 853.619 1191.976, 853 1191.716, 853 1191.107 C 853 1190.498, 852.212 1189.992, 851.250 1189.982 C 850.288 1189.972, 847.066 1188.622, 844.090 1186.982 C 841.115 1185.342, 838.281 1184, 837.792 1184 C 837.303 1184, 835.041 1183.100, 832.764 1182 C 830.487 1180.900, 827.471 1179.998, 826.062 1179.996 C 822.012 1179.990, 817.282 1176.559, 816.516 1173.073 C 816.145 1171.383, 815.257 1170, 814.543 1170 C 813.829 1170, 812.685 1169.325, 812 1168.500 C 811.315 1167.675, 811.148 1166.996, 811.628 1166.992 C 812.107 1166.988, 813.036 1165.830, 813.690 1164.419 C 814.760 1162.115, 814.718 1161.988, 813.278 1163.177 C 812.016 1164.219, 811.585 1164.234, 811.254 1163.250 C 811.023 1162.563, 810.331 1162, 809.717 1162 C 808.941 1162, 808.966 1162.366, 809.800 1163.200 C 811.450 1164.850, 811.303 1166, 809.441 1166 C 808.523 1166, 808.142 1166.514, 808.515 1167.250 C 808.863 1167.938, 808.493 1167.699, 807.692 1166.721 C 806.349 1165.078, 806.187 1165.070, 805.594 1166.615 C 805.221 1167.588, 805.695 1169.123, 806.726 1170.278 C 808.453 1172.213, 808.433 1172.247, 806 1171.554 C 804.625 1171.162, 802.600 1170.616, 801.500 1170.341 C 800.400 1170.066, 798.015 1169.170, 796.199 1168.349 C 791.467 1166.211, 786 1165.454, 786 1166.937 C 786 1167.703, 786.765 1167.892, 788.125 1167.460 C 789.562 1167.004, 790.027 1167.147, 789.562 1167.900 C 789.183 1168.513, 789.577 1169.284, 790.437 1169.614 C 791.296 1169.944, 792 1171.038, 792 1172.046 C 792 1173.907, 795.132 1174.649, 803.880 1174.859 C 805.738 1174.903, 808.213 1175.556, 809.380 1176.308 C 810.546 1177.061, 813.631 1178.483, 816.236 1179.469 C 818.841 1180.454, 821.483 1181.877, 822.108 1182.630 C 823.386 1184.170, 821.930 1184.530, 820.442 1183.042 C 819.915 1182.515, 818.923 1182.430, 818.237 1182.853 C 817.405 1183.368, 818.155 1184.080, 820.496 1184.998 C 824.687 1186.643, 825.108 1188.949, 821.250 1189.126 C 808.537 1189.708, 800.585 1188.742, 798.736 1186.392 C 797.699 1185.073, 795.793 1184, 794.488 1184 C 792.480 1184, 792.069 1183.431, 791.779 1180.250 L 791.438 1176.500 790.411 1180 C 789.416 1183.392, 784 1185.982, 784 1183.066 C 784 1181.234, 775.823 1181.829, 773.564 1183.825 C 766.167 1190.364, 754.580 1187.648, 760.312 1180.718 C 761.515 1179.263, 763.512 1176.819, 764.748 1175.287 L 766.996 1172.500 764.498 1171.557 C 763.124 1171.038, 762 1170.063, 762 1169.390 C 762 1168.717, 761.563 1168.017, 761.029 1167.833 C 757.583 1166.649, 762.775 1162.576, 768.008 1162.359 C 771.029 1162.234, 775.479 1161.913, 777.897 1161.647 C 780.316 1161.380, 783.408 1161.585, 784.769 1162.102 C 788.117 1163.375, 790.386 1161.589, 788.914 1158.839 C 788.339 1157.765, 787.111 1156.598, 786.185 1156.244 C 785.258 1155.890, 783.600 1154.760, 782.500 1153.732 C 781.400 1152.704, 779.247 1151.609, 777.715 1151.299 C 776.184 1150.990, 775.181 1150.486, 775.487 1150.179 C 776.434 1149.233, 756.661 1142.936, 753.854 1143.290 C 752.140 1143.506, 751.366 1143.210, 751.657 1142.452 C 752.502 1140.251, 747.046 1134.953, 744.425 1135.428 C 741.282 1135.998, 741.044 1135.465, 740.351 1126.297 C 740.026 1122.009, 739.353 1117.990, 738.856 1117.368 C 737.974 1116.265, 738.474 1106.660, 739.499 1105.001 C 739.782 1104.544, 739.447 1103.943, 738.756 1103.664 C 737.758 1103.262, 737.757 1103.142, 738.750 1103.079 C 740.445 1102.972, 740.325 1101.182, 738.500 1099.357 C 737.675 1098.532, 736.976 1098.002, 736.946 1098.179 M 312.003 1109.500 C 312.002 1110.145, 324.349 1110.552, 346.751 1110.647 C 365.863 1110.727, 385.888 1110.952, 391.251 1111.147 C 398.573 1111.412, 401.001 1111.189, 401.001 1110.250 C 401 1108.763, 403.679 1108.850, 352.252 1108.654 C 325.984 1108.553, 312.003 1108.847, 312.003 1109.500 M 265.462 1110.592 C 264.168 1111.132, 265.809 1128.200, 267.244 1129.125 C 267.777 1129.469, 267.929 1130.647, 267.582 1131.743 C 267.234 1132.839, 267.393 1134.904, 267.936 1136.333 C 268.593 1138.061, 268.586 1139.138, 267.914 1139.553 C 266.775 1140.257, 267.065 1144.180, 268.324 1145.105 C 268.777 1145.437, 268.358 1146.499, 267.394 1147.463 C 265.008 1149.849, 271.847 1149.302, 284.500 1146.095 C 289.450 1144.840, 295.210 1143.381, 297.300 1142.852 C 300.929 1141.933, 301.953 1138.359, 298.924 1137.185 C 298.478 1137.012, 298.333 1136.297, 298.602 1135.596 C 298.871 1134.894, 298.396 1133.743, 297.546 1133.038 C 296.695 1132.332, 296 1130.777, 296 1129.581 C 296 1123.842, 281.408 1116.277, 279.776 1121.171 C 279.506 1121.981, 278.396 1121.757, 276.173 1120.443 C 273.439 1118.828, 272.647 1118.739, 270.875 1119.846 C 269.729 1120.562, 269.058 1120.715, 269.384 1120.187 C 269.711 1119.659, 269.308 1118.671, 268.489 1117.991 C 267.670 1117.311, 267.053 1115.348, 267.118 1113.628 L 267.237 1110.500 268.010 1113.500 C 268.738 1116.323, 268.825 1116.370, 269.500 1114.283 C 270.204 1112.103, 273.584 1110.250, 274.742 1111.409 C 275.067 1111.734, 274.583 1112, 273.667 1112 C 272.750 1112, 272 1112.450, 272 1113 C 272 1114.145, 273.131 1114.271, 275.444 1113.383 C 276.688 1112.906, 276.792 1112.454, 275.903 1111.383 C 274.834 1110.095, 267.907 1109.570, 265.462 1110.592 M 417.112 1116.644 C 415.928 1117.981, 415.928 1118.340, 417.112 1119.090 C 418.013 1119.661, 416.659 1119.975, 413.250 1119.985 C 408.087 1120, 408 1120.050, 408 1123 C 408 1125.833, 407.778 1126, 404 1126 C 401.800 1126, 400 1125.590, 400 1125.088 C 400 1124.587, 399.212 1124.303, 398.250 1124.457 C 396.541 1124.731, 396.018 1129.352, 397.526 1130.859 C 397.865 1131.198, 402.882 1131.706, 408.676 1131.988 L 419.210 1132.500 420.605 1129.800 C 422.217 1126.680, 422.547 1115.544, 421 1116.500 C 420.450 1116.840, 420 1116.641, 420 1116.059 C 420 1114.556, 418.734 1114.812, 417.112 1116.644 M 883.765 1125.734 C 882.944 1127.418, 883.630 1143.159, 884.553 1143.806 C 885.955 1144.791, 887.856 1149.394, 889.039 1154.672 C 890.385 1160.682, 893 1163.542, 893 1159.006 C 893 1157.280, 892.549 1155.025, 891.997 1153.995 C 891.446 1152.964, 891.378 1151.884, 891.847 1151.595 C 892.804 1151.003, 897.072 1155.502, 896.419 1156.414 C 896.189 1156.736, 896.296 1156.779, 896.658 1156.509 C 897.020 1156.238, 898.014 1156.576, 898.868 1157.259 C 899.721 1157.941, 899.088 1156.597, 897.460 1154.271 C 895.832 1151.946, 894.163 1150.033, 893.750 1150.021 C 892.399 1149.983, 889.366 1146.401, 889.739 1145.284 C 889.939 1144.684, 888.954 1143.045, 887.551 1141.642 C 885.031 1139.122, 883.741 1131, 885.861 1131 C 886.335 1131, 886.506 1129.868, 886.242 1128.485 C 885.743 1125.876, 884.415 1124.400, 883.765 1125.734 M 962.626 1139.797 C 962.049 1140.730, 965.312 1142.406, 969.500 1143.328 C 971.287 1143.721, 971.261 1143.780, 969.250 1143.884 C 967.359 1143.981, 967 1144.569, 967 1147.566 C 967 1154.074, 961.849 1158.020, 955.113 1156.673 C 953.624 1156.375, 951.752 1156.545, 950.953 1157.050 C 949.931 1157.697, 950.834 1158.016, 954 1158.127 C 963.736 1158.468, 966.017 1158.683, 966.654 1159.320 C 967.018 1159.685, 967.954 1159.453, 968.734 1158.806 C 971.314 1156.664, 972.010 1160.034, 971.751 1173.418 C 971.420 1190.441, 969.230 1192.559, 968.747 1176.322 L 968.425 1165.500 968.212 1176.250 L 968 1187 964.750 1187.118 C 962.123 1187.213, 962.429 1187.391, 966.350 1188.049 C 973.798 1189.299, 974.888 1189.857, 972.832 1191.371 C 971.380 1192.442, 971.573 1192.625, 974.332 1192.795 C 976.075 1192.902, 978.850 1193.105, 980.500 1193.245 C 983.828 1193.528, 985.261 1190.224, 982.994 1187.493 C 982.356 1186.725, 982.100 1185.261, 982.423 1184.242 C 982.747 1183.222, 982.591 1180.163, 982.077 1177.444 C 981.502 1174.401, 981.500 1172.135, 982.071 1171.550 C 984.181 1169.392, 983.160 1158.995, 980.750 1158.094 C 979.423 1157.597, 978.250 1157.645, 977.889 1158.210 C 976.683 1160.101, 976.097 1155.928, 976.459 1148.035 L 976.828 1140 972.164 1139.986 C 969.599 1139.979, 966.538 1139.715, 965.363 1139.399 C 964.187 1139.084, 962.956 1139.263, 962.626 1139.797 M 409.330 1143.939 C 402.086 1144.251, 395.875 1144.792, 395.526 1145.141 C 394.328 1146.338, 404.973 1148.191, 414.732 1148.484 C 434.348 1149.072, 469.563 1150.938, 471.881 1151.513 C 473.191 1151.838, 483.766 1152.294, 495.381 1152.527 C 517.040 1152.961, 530.599 1153.646, 531.813 1154.369 C 532.191 1154.593, 538.171 1155.065, 545.102 1155.417 C 552.033 1155.769, 560.358 1156.491, 563.602 1157.023 C 566.846 1157.554, 574.900 1157.994, 581.500 1158 C 590.161 1158.009, 594.294 1158.426, 596.354 1159.501 C 597.924 1160.320, 599.631 1160.728, 600.148 1160.409 C 600.665 1160.089, 601.702 1160.338, 602.454 1160.962 C 603.515 1161.842, 604.173 1161.592, 605.401 1159.838 C 607.476 1156.876, 606.460 1156.056, 599.923 1155.415 C 596.941 1155.123, 592.700 1154.441, 590.500 1153.900 C 588.300 1153.359, 582.450 1152.753, 577.500 1152.553 C 572.550 1152.354, 562.200 1151.482, 554.500 1150.617 C 546.800 1149.751, 530.600 1148.374, 518.500 1147.557 C 506.400 1146.739, 494.475 1145.833, 492 1145.542 C 489.525 1145.252, 473.550 1144.770, 456.500 1144.471 C 439.450 1144.171, 424.825 1143.802, 424 1143.649 C 423.175 1143.496, 416.573 1143.626, 409.330 1143.939 M 429.500 1155.857 C 430.068 1156.433, 439.329 1157.136, 450.928 1157.486 C 462.163 1157.824, 471.613 1158.249, 471.928 1158.429 C 472.242 1158.609, 478.350 1159.070, 485.500 1159.453 C 492.650 1159.836, 502.100 1160.562, 506.500 1161.067 C 510.900 1161.572, 519 1161.990, 524.500 1161.995 C 530 1162.001, 538.325 1162.428, 543 1162.945 C 555.949 1164.376, 568 1164.901, 568 1164.034 C 568 1163.607, 563.388 1162.905, 557.750 1162.475 C 552.112 1162.044, 546.375 1161.559, 545 1161.397 C 529.532 1159.574, 492.127 1157.525, 455 1156.469 C 444.275 1156.163, 433.925 1155.673, 432 1155.379 C 429.641 1155.019, 428.826 1155.175, 429.500 1155.857 M 1040.785 1157.412 C 1039.827 1158.114, 1039.440 1159.074, 1039.908 1159.585 C 1041.362 1161.174, 1041.994 1174.595, 1040.681 1176.016 C 1039.861 1176.903, 1039.849 1177.098, 1040.643 1176.654 C 1042.115 1175.830, 1043.114 1221.847, 1041.666 1223.779 C 1040.419 1225.442, 1041.492 1256.331, 1042.812 1256.771 C 1043.349 1256.950, 1043.605 1257.862, 1043.382 1258.798 C 1043.159 1259.734, 1043.399 1264.100, 1043.916 1268.500 L 1044.856 1276.500 1044.665 1268.872 C 1044.518 1263.022, 1044.772 1261.359, 1045.755 1261.736 C 1046.735 1262.112, 1046.812 1261.637, 1046.084 1259.721 C 1045.560 1258.343, 1045.379 1256.266, 1045.682 1255.107 C 1045.993 1253.917, 1045.759 1253, 1045.144 1253 C 1044.484 1253, 1044.099 1250.935, 1044.165 1247.750 C 1044.224 1244.862, 1043.921 1240.295, 1043.490 1237.600 C 1042.915 1234.005, 1043.011 1232.889, 1043.853 1233.409 C 1044.672 1233.915, 1045 1232.211, 1045 1227.452 C 1045 1222.198, 1045.292 1220.898, 1046.379 1221.315 C 1048.174 1222.004, 1049.367 1214.147, 1047.762 1212.213 C 1047.117 1211.436, 1046.739 1207.657, 1046.859 1203.188 C 1047.163 1191.886, 1046.138 1185.018, 1044.135 1184.921 C 1043.236 1184.878, 1042.952 1184.652, 1043.504 1184.420 C 1044.627 1183.947, 1044.371 1161.166, 1043.208 1158.050 C 1042.613 1156.457, 1042.226 1156.355, 1040.785 1157.412 M 921.285 1176.500 C 921.299 1192.854, 921.422 1194, 923.150 1194 C 924.333 1194, 925 1193.279, 925 1192 C 925 1190.900, 925.540 1190, 926.200 1190 C 927.111 1190, 927.101 1189.701, 926.158 1188.758 C 925.170 1187.770, 924.725 1187.820, 923.974 1189.008 C 923.158 1190.299, 923.029 1190.280, 923.015 1188.872 C 922.998 1186.987, 925.372 1184.705, 926.342 1185.675 C 926.704 1186.037, 927 1184.035, 927 1181.226 C 927 1178.416, 926.550 1175.840, 926 1175.500 C 925.450 1175.160, 925 1171.582, 925 1167.548 C 925 1160.664, 924.329 1159, 921.553 1159 C 921.398 1159, 921.277 1166.875, 921.285 1176.500 M 489.149 1185.483 C 489.415 1185.748, 498.152 1185.987, 508.566 1186.014 C 518.980 1186.040, 531.100 1186.481, 535.500 1186.994 C 548.843 1188.549, 609 1188.999, 609 1187.545 C 609 1186.626, 602.096 1186.158, 581.250 1185.663 C 548.973 1184.896, 488.445 1184.778, 489.149 1185.483 M 492.917 1208.408 C 492.688 1208.633, 476.750 1209.108, 457.500 1209.465 C 407.496 1210.390, 394.807 1211.078, 394.201 1212.897 C 393.998 1213.505, 391.590 1214, 388.833 1214 C 380.129 1214, 383.392 1216.458, 392.492 1216.756 C 400.272 1217.010, 400.310 1216.999, 398.505 1215.006 C 396.875 1213.204, 396.858 1213, 398.345 1213 C 399.255 1213, 400 1213.398, 400 1213.885 C 400 1215.978, 431.084 1217.249, 431.772 1215.184 C 431.989 1214.533, 433.592 1214.007, 435.333 1214.015 C 437.468 1214.026, 438.062 1214.308, 437.155 1214.883 C 435.010 1216.242, 439.876 1217.049, 444.250 1216.059 C 446.313 1215.592, 448 1215.556, 448 1215.977 C 448 1216.399, 461.163 1216.689, 477.250 1216.622 C 505.802 1216.503, 603.307 1217.628, 643.750 1218.543 C 656.893 1218.840, 664 1218.650, 664 1218 C 664 1217.450, 664.620 1217, 665.378 1217 C 666.135 1217, 667.284 1216.363, 667.930 1215.584 C 669.358 1213.863, 667.085 1212.947, 660.098 1212.426 C 657.569 1212.238, 650.775 1211.566, 645 1210.934 C 639.225 1210.303, 626.738 1209.721, 617.250 1209.643 C 607.763 1209.564, 600 1209.162, 600 1208.750 C 600 1207.992, 493.688 1207.653, 492.917 1208.408 M 857.500 1223.945 C 858.600 1224.396, 860.357 1225.717, 861.405 1226.882 C 862.453 1228.047, 863.803 1229.003, 864.405 1229.006 C 865.007 1229.010, 866.671 1229.624, 868.103 1230.371 C 869.535 1231.118, 872.910 1232.045, 875.603 1232.432 C 882.232 1233.384, 888 1235.129, 888 1236.182 C 888 1236.658, 889.590 1236.872, 891.532 1236.658 C 895.496 1236.221, 897.479 1235, 894.226 1235 C 893.066 1235, 891.840 1234.550, 891.500 1234 C 891.160 1233.450, 891.344 1233, 891.910 1233 C 892.475 1233, 892.678 1232.325, 892.362 1231.500 C 891.716 1229.818, 886.467 1229.436, 885.500 1231 C 884.317 1232.915, 879.391 1232.045, 877 1229.500 C 875.708 1228.125, 873.812 1227, 872.786 1227 C 871.760 1227, 869.156 1226.100, 867 1225 C 864.844 1223.900, 861.374 1223.029, 859.290 1223.063 C 856.327 1223.113, 855.937 1223.305, 857.500 1223.945 M 673.624 1301.539 C 673.281 1302.432, 673 1304.440, 673 1306 C 673 1309.931, 672.058 1312, 670.268 1312 C 669.125 1312, 668.894 1312.719, 669.332 1314.910 C 669.881 1317.654, 668.149 1319.816, 666.623 1318.290 C 666.309 1317.975, 663.115 1317.746, 659.526 1317.780 L 653 1317.841 653 1314.862 C 653 1313.223, 652.624 1312.114, 652.164 1312.399 C 650.101 1313.673, 651.747 1317.563, 655.061 1319.248 C 659.146 1321.325, 658.140 1321.460, 652.081 1319.648 C 649.481 1318.871, 648.143 1318.030, 648.831 1317.604 C 649.474 1317.207, 649.984 1316.121, 649.965 1315.191 C 649.939 1313.955, 649.564 1314.159, 648.573 1315.950 C 647.826 1317.297, 647.469 1319.058, 647.778 1319.864 C 648.140 1320.808, 647.925 1321.071, 647.170 1320.605 C 646.526 1320.207, 646.007 1320.246, 646.015 1320.691 C 646.037 1321.822, 647.966 1324.698, 647.985 1323.628 C 647.993 1323.148, 648.604 1323.256, 649.342 1323.869 C 650.080 1324.481, 650.952 1324.715, 651.280 1324.387 C 651.607 1324.060, 654.378 1323.822, 657.438 1323.858 C 660.497 1323.895, 663 1323.559, 663 1323.112 C 663 1322.666, 664.853 1322.485, 667.118 1322.712 C 672.221 1323.222, 675.185 1322.350, 672.980 1320.988 C 671.815 1320.267, 671.770 1319.830, 672.758 1318.842 C 673.487 1318.113, 674 1314.972, 674 1311.241 C 674 1307.093, 674.362 1305.105, 675.040 1305.525 C 675.722 1305.946, 675.846 1305.192, 675.399 1303.334 C 674.531 1299.721, 674.380 1299.568, 673.624 1301.539 M 897.500 1348 L 895.500 1348.859 897.500 1348.962 C 899.474 1349.062, 899.474 1349.083, 897.559 1350.532 C 895.675 1351.956, 895.688 1352, 897.976 1352 C 901.567 1352, 900.034 1352.755, 895 1353.465 C 892.525 1353.815, 889.691 1354.340, 888.702 1354.633 C 887.713 1354.926, 886.256 1354.628, 885.465 1353.971 C 884.641 1353.287, 883.272 1353.099, 882.263 1353.531 C 879.322 1354.789, 871 1355.701, 871 1354.765 C 871 1354.281, 868.200 1354.205, 864.750 1354.595 C 858.402 1355.312, 855.873 1355.398, 850.500 1355.081 C 848.850 1354.983, 845.250 1355.149, 842.500 1355.448 C 839.750 1355.748, 831.425 1356.220, 824 1356.498 C 810.349 1357.009, 802.069 1357.401, 783 1358.438 C 777.225 1358.753, 744.600 1359.272, 710.500 1359.592 C 676.400 1359.912, 646.565 1360.280, 644.199 1360.409 C 641.834 1360.539, 639.690 1360.308, 639.436 1359.896 C 639.181 1359.484, 637.603 1359.540, 635.929 1360.020 C 634.255 1360.500, 632.349 1360.697, 631.693 1360.457 C 629.685 1359.722, 608.132 1359.202, 607.457 1359.872 C 607.109 1360.217, 604.051 1360.611, 600.662 1360.747 C 582.593 1361.471, 560.471 1361.921, 534.840 1362.086 C 507.725 1362.260, 500.753 1362.835, 505.906 1364.470 C 508.230 1365.208, 589.872 1365.795, 590.587 1365.079 C 590.822 1364.844, 613.624 1364.515, 641.257 1364.348 C 699.202 1363.996, 749.718 1363.140, 755.500 1362.411 C 763.010 1361.464, 786.497 1361.327, 787.672 1362.223 C 788.367 1362.752, 791.222 1362.691, 794.672 1362.074 C 797.878 1361.500, 810.400 1360.802, 822.500 1360.523 C 834.600 1360.243, 850.462 1359.752, 857.750 1359.432 C 867.147 1359.018, 871 1359.172, 871 1359.960 C 871 1360.732, 871.566 1360.768, 872.856 1360.077 C 873.877 1359.530, 880.523 1358.866, 887.623 1358.600 C 894.724 1358.334, 901.201 1357.879, 902.017 1357.589 C 902.833 1357.300, 914.525 1356.834, 928 1356.554 C 941.475 1356.275, 957.900 1355.841, 964.500 1355.590 C 971.100 1355.339, 994.034 1354.834, 1015.464 1354.468 C 1036.894 1354.102, 1055.266 1353.641, 1056.291 1353.444 C 1057.315 1353.247, 1069.706 1352.782, 1083.827 1352.412 C 1097.947 1352.042, 1109.991 1351.351, 1110.592 1350.878 C 1111.193 1350.405, 1111.934 1350.268, 1112.240 1350.574 C 1112.546 1350.880, 1123.305 1351, 1136.148 1350.841 C 1148.992 1350.682, 1163.625 1350.671, 1168.668 1350.817 C 1176.992 1351.058, 1177.811 1350.917, 1177.573 1349.291 C 1177.139 1346.319, 1143.188 1346.491, 1045.500 1349.958 C 1019.634 1350.876, 990.677 1351.589, 940.160 1352.550 C 927.322 1352.794, 916.378 1353.266, 915.839 1353.600 C 912.558 1355.627, 901.612 1351.797, 902.519 1348.939 C 903.197 1346.804, 901.166 1346.425, 897.500 1348 M 1146.923 1360.410 C 1146.686 1360.648, 1135.693 1361.086, 1122.496 1361.385 C 1109.298 1361.684, 1095.125 1362.146, 1091 1362.413 C 1076.861 1363.327, 1053.498 1364.131, 1044.998 1363.995 C 1040.322 1363.921, 1032.672 1364.361, 1027.998 1364.973 C 1023.130 1365.611, 1000.440 1366.183, 974.879 1366.314 C 939.121 1366.496, 929.934 1366.810, 928.629 1367.893 C 927.733 1368.637, 927 1368.875, 927 1368.422 C 927 1367.970, 926.460 1368.140, 925.800 1368.800 C 924.227 1370.373, 920.304 1370.341, 919.662 1368.750 C 919.385 1368.062, 919.091 1368.399, 919.009 1369.500 L 918.859 1371.500 918 1369.500 C 917.180 1367.592, 917.137 1367.603, 917.070 1369.750 C 917.032 1370.987, 917.337 1372.041, 917.750 1372.090 C 921.262 1372.512, 968.526 1371.261, 997.500 1369.980 C 1009.600 1369.445, 1030.300 1368.784, 1043.500 1368.510 C 1069.288 1367.975, 1092.352 1367.180, 1106 1366.357 C 1110.675 1366.075, 1126.575 1365.733, 1141.332 1365.598 C 1163.279 1365.397, 1168.329 1365.092, 1169.067 1363.926 C 1169.698 1362.929, 1169.974 1362.876, 1169.985 1363.750 C 1169.993 1364.438, 1171.125 1365, 1172.500 1365 C 1175.302 1365, 1175.543 1364.300, 1173.615 1361.759 C 1172.503 1360.295, 1171.356 1360.130, 1166.397 1360.717 C 1158.480 1361.655, 1151.946 1361.664, 1149.428 1360.739 C 1148.288 1360.320, 1147.161 1360.172, 1146.923 1360.410 M 490.909 1362.424 C 490.676 1362.657, 466.464 1363.095, 437.104 1363.396 C 407.745 1363.697, 383.469 1364.197, 383.159 1364.508 C 382.848 1364.818, 408.336 1365.012, 439.798 1364.939 C 471.260 1364.866, 497.224 1364.447, 497.495 1364.008 C 498.337 1362.646, 492.170 1361.163, 490.909 1362.424 M 865.890 1369.538 C 864.961 1370.468, 862.207 1371.168, 858.926 1371.308 C 855.942 1371.435, 853.005 1371.853, 852.401 1372.236 C 851.797 1372.618, 843.022 1372.952, 832.901 1372.977 C 822.780 1373.002, 811.350 1373.303, 807.500 1373.647 C 803.650 1373.990, 798.378 1374.278, 795.784 1374.286 C 793.190 1374.294, 791.304 1374.683, 791.593 1375.150 C 792.357 1376.387, 791.505 1376.208, 787.475 1374.287 C 784.802 1373.012, 783.695 1372.876, 783.152 1373.754 C 782.177 1375.332, 700.002 1377.420, 700 1375.867 C 700 1374.688, 695.333 1374.332, 692.909 1375.325 C 690.483 1376.320, 665.001 1376.934, 665 1375.998 C 665 1375.722, 663.763 1375.436, 662.250 1375.362 C 657.878 1375.150, 650.636 1375.006, 649 1375.099 C 646.716 1375.229, 638.432 1375.207, 629.148 1375.048 C 623.021 1374.942, 620.152 1375.326, 618.380 1376.487 C 616.161 1377.941, 615.912 1377.933, 615.321 1376.395 C 614.735 1374.868, 614.549 1374.887, 613.224 1376.610 C 612.278 1377.841, 611.616 1378.089, 611.326 1377.322 C 611.039 1376.562, 609.608 1376.352, 607.285 1376.729 C 604.477 1377.184, 603.866 1377.025, 604.499 1376.002 C 605.028 1375.146, 604.918 1374.932, 604.185 1375.386 C 603.084 1376.066, 598.748 1376.177, 576.500 1376.095 C 570.226 1376.071, 565.357 1376.472, 565.167 1377.027 C 564.748 1378.248, 560.310 1378.310, 559.565 1377.106 C 558.761 1375.804, 551.094 1375.265, 550.585 1376.474 C 550.334 1377.068, 549.699 1376.868, 549.076 1376 C 548.286 1374.898, 547.798 1374.812, 547.237 1375.676 C 546.655 1376.572, 544.987 1376.541, 540.213 1375.545 C 534.896 1374.435, 534.125 1374.446, 535.099 1375.619 C 535.979 1376.679, 535.926 1377.004, 534.872 1377.015 C 533.794 1377.027, 533.822 1377.239, 535 1378 C 536.222 1378.790, 536.099 1378.972, 534.333 1378.985 C 533.142 1378.993, 531.977 1378.438, 531.746 1377.750 C 531.418 1376.775, 530.961 1376.800, 529.668 1377.868 C 528.757 1378.620, 526.849 1379.013, 525.427 1378.741 C 524.006 1378.470, 520.741 1378.826, 518.171 1379.534 C 515.602 1380.242, 514.089 1380.861, 514.809 1380.911 C 515.545 1380.961, 515.802 1381.512, 515.395 1382.170 C 514.902 1382.968, 515.227 1383.127, 516.418 1382.670 C 517.378 1382.301, 518.603 1382, 519.141 1382 C 519.678 1382, 519.812 1381.505, 519.438 1380.900 C 518.961 1380.127, 519.389 1380.138, 520.879 1380.935 C 522.390 1381.744, 523 1381.756, 523 1380.976 C 523 1380.369, 523.544 1380.218, 524.221 1380.636 C 525.973 1381.719, 585.876 1382.119, 589.683 1381.073 C 591.433 1380.592, 593.114 1380.448, 593.419 1380.752 C 595.173 1382.506, 754.437 1379.680, 756.661 1377.856 C 757.414 1377.238, 758.074 1377.311, 758.539 1378.063 C 759.007 1378.821, 760.860 1379.018, 763.878 1378.631 C 766.420 1378.304, 774.800 1377.985, 782.500 1377.921 C 792.736 1377.836, 797.105 1377.422, 798.750 1376.379 C 800.021 1375.574, 801 1375.399, 801 1375.977 C 801 1377.401, 803.010 1377.243, 806.226 1375.566 C 808.136 1374.569, 808.884 1374.496, 808.726 1375.322 C 808.450 1376.758, 816.259 1376.937, 827.590 1375.753 C 831.940 1375.299, 836.400 1374.925, 837.500 1374.922 C 838.600 1374.918, 845.125 1374.924, 852 1374.934 C 868.661 1374.959, 894.323 1374.137, 900.373 1373.385 C 903.915 1372.944, 905.473 1373.148, 906.081 1374.131 C 906.747 1375.208, 907.170 1375.230, 908.158 1374.242 C 908.841 1373.559, 910.435 1373, 911.700 1373 C 914.295 1373, 914.569 1372.394, 912.750 1370.679 C 911.362 1369.370, 898.209 1369.040, 896.319 1370.266 C 895.670 1370.688, 894.897 1370.642, 894.602 1370.165 C 894.307 1369.688, 888.679 1369.457, 882.094 1369.652 C 874.769 1369.869, 869.882 1369.618, 869.502 1369.004 C 868.639 1367.606, 867.681 1367.748, 865.890 1369.538 M 1071.500 1374.037 C 1062.150 1374.434, 1045.050 1375.048, 1033.500 1375.402 C 1021.950 1375.755, 1009.800 1376.255, 1006.500 1376.512 C 1003.200 1376.769, 990.429 1377.229, 978.121 1377.534 C 965.812 1377.838, 952.537 1378.497, 948.621 1378.998 C 944.704 1379.499, 937.675 1379.661, 933 1379.358 C 926.545 1378.939, 924.053 1379.146, 922.641 1380.219 C 921.024 1381.448, 923.298 1381.591, 940.141 1381.315 C 975.816 1380.730, 1026.484 1378.811, 1028.026 1377.986 C 1028.878 1377.530, 1030.373 1377.629, 1031.413 1378.211 C 1032.649 1378.903, 1033.062 1378.909, 1032.643 1378.231 C 1032.266 1377.621, 1033.587 1377.059, 1035.921 1376.836 C 1038.072 1376.631, 1039.618 1376.809, 1039.357 1377.232 C 1038.656 1378.365, 1039.757 1378.168, 1042.044 1376.750 C 1043.697 1375.726, 1044.223 1375.760, 1044.959 1376.943 C 1045.643 1378.043, 1046.409 1378.145, 1048.178 1377.373 C 1049.482 1376.804, 1054.229 1376.581, 1059 1376.864 C 1075.082 1377.818, 1113.116 1376.337, 1110.817 1374.847 C 1110.053 1374.351, 1112.437 1374.176, 1116.500 1374.429 C 1120.928 1374.704, 1122.765 1374.548, 1121.500 1374.003 C 1119.160 1372.994, 1095.676 1373.010, 1071.500 1374.037 M 898.917 1379.401 C 898.250 1380.043, 887.627 1380.888, 872 1381.540 C 849.421 1382.483, 843.179 1382.805, 833.500 1383.523 C 828.550 1383.891, 821.350 1384.310, 817.500 1384.454 C 805.904 1384.889, 804.924 1385.069, 808.970 1386.021 C 810.879 1386.470, 817.854 1386.407, 824.470 1385.882 C 831.087 1385.356, 842.742 1384.952, 850.371 1384.985 C 859.163 1385.022, 864.732 1384.637, 865.581 1383.933 C 866.518 1383.155, 869.022 1383.092, 873.903 1383.722 C 877.743 1384.217, 880.722 1384.359, 880.523 1384.037 C 880.324 1383.715, 882.037 1383.443, 884.331 1383.431 C 898.650 1383.361, 903.637 1382.494, 901.574 1380.432 C 900.069 1378.926, 899.599 1378.744, 898.917 1379.401 M 1103.139 1385.333 C 1102.302 1386.341, 1094.182 1386.976, 1069.766 1387.940 C 1052.020 1388.641, 1036.746 1389.614, 1035.825 1390.102 C 1034.904 1390.590, 1032.092 1390.781, 1029.575 1390.527 C 1027.059 1390.272, 1025 1390.439, 1025 1390.898 C 1025 1391.356, 1023.087 1391.361, 1020.750 1390.909 C 1015.076 1389.812, 1013.770 1389.818, 1014.464 1390.942 C 1014.821 1391.519, 1010.683 1391.713, 1003.773 1391.445 C 994.593 1391.087, 992.871 1391.233, 994.500 1392.230 C 996.855 1393.671, 1035.824 1393.805, 1036.863 1392.376 C 1037.214 1391.894, 1048.115 1391.416, 1061.090 1391.313 C 1074.064 1391.211, 1087.564 1390.898, 1091.090 1390.618 C 1094.615 1390.337, 1099.214 1390.084, 1101.309 1390.054 C 1103.907 1390.017, 1104.893 1389.636, 1104.410 1388.854 C 1103.901 1388.030, 1104.516 1387.932, 1106.601 1388.504 C 1108.195 1388.942, 1111.525 1389.213, 1114 1389.107 C 1116.475 1389, 1121.941 1388.965, 1126.147 1389.028 C 1130.643 1389.096, 1134.067 1388.700, 1134.457 1388.069 C 1134.925 1387.312, 1135.703 1387.306, 1137.088 1388.047 C 1139.137 1389.144, 1164.942 1388.690, 1165.078 1387.554 C 1165.118 1387.222, 1164.927 1386.399, 1164.654 1385.725 C 1164.288 1384.821, 1164.137 1384.846, 1164.079 1385.821 C 1164.019 1386.823, 1163.619 1386.762, 1162.429 1385.571 C 1161.564 1384.707, 1160.102 1384.007, 1159.179 1384.015 C 1158.078 1384.025, 1157.898 1384.284, 1158.657 1384.765 C 1159.293 1385.169, 1155.468 1385.523, 1150.157 1385.552 C 1144.845 1385.580, 1133.091 1385.740, 1124.035 1385.908 C 1112.650 1386.118, 1107.457 1385.870, 1107.202 1385.106 C 1106.697 1383.591, 1104.481 1383.715, 1103.139 1385.333 M 789.917 1385.404 C 789.688 1385.627, 777.909 1386.134, 763.743 1386.532 C 749.577 1386.930, 736.527 1387.627, 734.743 1388.080 C 731.575 1388.886, 777.419 1388.489, 787.500 1387.624 C 805.065 1386.115, 809.456 1385, 797.833 1385 C 793.708 1385, 790.146 1385.182, 789.917 1385.404 M 686.500 1388 C 686.114 1388.625, 685.197 1388.906, 684.463 1388.624 C 683.730 1388.343, 682.875 1388.650, 682.565 1389.306 C 682.137 1390.210, 681.857 1390.192, 681.411 1389.234 C 680.290 1386.823, 616.295 1387.580, 614.989 1390.020 C 613.810 1392.223, 617.464 1393.815, 620.748 1392.529 C 622.058 1392.016, 670.748 1390.688, 681 1390.886 C 687.411 1391.010, 697.732 1388.513, 691.750 1388.286 C 691.063 1388.260, 689.758 1387.929, 688.851 1387.551 C 687.944 1387.173, 686.886 1387.375, 686.500 1388 M 569.030 1389.297 C 565.471 1389.736, 562.263 1390.574, 561.901 1391.160 C 561.461 1391.873, 561.102 1391.806, 560.820 1390.959 C 560.224 1389.172, 544.533 1388.312, 542.551 1389.958 C 541.746 1390.626, 540.692 1390.928, 540.208 1390.629 C 539.724 1390.330, 538.017 1390.454, 536.414 1390.906 C 531.688 1392.237, 544.273 1392.518, 589 1392.078 C 592.025 1392.048, 597.087 1392.165, 600.250 1392.338 C 603.413 1392.510, 606 1392.280, 606 1391.826 C 606 1391.372, 606.788 1390.986, 607.750 1390.970 C 609.284 1390.943, 609.253 1390.791, 607.500 1389.744 C 605.169 1388.351, 579.164 1388.049, 569.030 1389.297 M 934 1392.009 C 934 1392.670, 932.626 1393.078, 930.750 1392.975 C 924.518 1392.634, 920.886 1393.007, 921.456 1393.929 C 921.771 1394.439, 921.010 1395.053, 919.765 1395.292 C 918.463 1395.543, 919.222 1395.786, 921.550 1395.864 C 923.778 1395.939, 926.140 1395.460, 926.800 1394.800 C 927.733 1393.867, 928 1393.875, 928 1394.836 C 928 1395.799, 934.069 1395.960, 955.525 1395.567 C 986.525 1394.998, 993.581 1394.405, 991.998 1392.497 C 991.226 1391.568, 981.500 1391.057, 981.500 1391.946 C 981.500 1392.011, 978.712 1392.193, 975.303 1392.351 C 971.687 1392.517, 969.345 1392.251, 969.679 1391.711 C 970.018 1391.162, 969.284 1391.107, 967.875 1391.574 C 964.699 1392.629, 939.096 1392.717, 936.250 1391.683 C 934.752 1391.138, 934 1391.247, 934 1392.009 M 899.917 1392.409 C 899.688 1392.635, 897.475 1393.068, 895 1393.372 C 886.205 1394.454, 882.411 1396.123, 885.641 1397.488 C 888.783 1398.817, 895.087 1399.172, 896.387 1398.093 C 897.065 1397.531, 900.138 1397.101, 903.216 1397.138 C 911.044 1397.231, 915.372 1394.416, 909.809 1392.850 C 907.144 1392.099, 900.532 1391.805, 899.917 1392.409 M 689.158 1401.791 C 687.324 1403.025, 686.418 1403.117, 684.978 1402.218 C 682.711 1400.803, 674.658 1400.784, 670.144 1402.184 C 667.688 1402.946, 666.183 1402.900, 664.528 1402.015 C 662.794 1401.087, 660.586 1401.065, 655.060 1401.923 C 650.856 1402.575, 645.073 1402.739, 641.177 1402.316 C 637.505 1401.917, 634.050 1401.772, 633.500 1401.993 C 632.950 1402.215, 628 1402.534, 622.500 1402.702 C 610.530 1403.068, 607.102 1403.410, 604.649 1404.482 C 603.476 1404.995, 602.520 1404.842, 602.039 1404.063 C 601.224 1402.745, 592 1403.568, 592 1404.959 C 592 1405.362, 589.596 1405.079, 586.658 1404.331 C 582.040 1403.155, 580.829 1403.174, 577.726 1404.470 C 570.839 1407.348, 572.583 1407.888, 587.229 1407.413 C 595.078 1407.159, 604.650 1407.058, 608.500 1407.188 C 622.544 1407.661, 643.193 1406.736, 646.250 1405.496 C 647.212 1405.105, 648 1405.172, 648 1405.643 C 648.001 1406.649, 673.866 1406.670, 692.500 1405.680 C 699.650 1405.300, 718.309 1404.744, 733.966 1404.446 C 760.416 1403.941, 771.277 1403.202, 757.417 1402.850 L 751.500 1402.700 756 1401.975 C 758.475 1401.576, 749.025 1401.382, 735 1401.543 C 720.975 1401.705, 706.125 1401.501, 702 1401.090 C 697.870 1400.678, 694.344 1400.733, 694.153 1401.213 C 693.962 1401.692, 693.287 1401.663, 692.653 1401.150 C 691.910 1400.549, 690.667 1400.777, 689.158 1401.791 M 414.398 1434.628 C 415.126 1443.743, 415.597 1447.153, 416.797 1452 C 417.274 1453.925, 417.699 1463.587, 417.742 1473.470 C 417.794 1485.484, 418.181 1491.560, 418.910 1491.803 C 419.510 1492.003, 419.948 1493.142, 419.884 1494.333 C 419.793 1496.024, 419.668 1496.116, 419.311 1494.750 C 418.794 1492.774, 416.795 1492.317, 417.126 1494.250 C 417.244 1494.938, 417.016 1497.525, 416.621 1500 C 416.226 1502.475, 415.825 1506.750, 415.731 1509.500 C 415.625 1512.600, 414.978 1514.976, 414.030 1515.752 C 412.683 1516.855, 412.703 1516.934, 414.201 1516.414 C 415.660 1515.908, 415.820 1516.336, 415.321 1519.412 C 414.940 1521.757, 415.130 1523, 415.869 1523 C 416.491 1523, 417 1523.814, 417 1524.809 C 417 1525.804, 417.703 1527.491, 418.563 1528.559 C 419.994 1530.336, 420.080 1529.446, 419.594 1518 C 419.263 1510.236, 419.402 1506.258, 419.961 1507.500 C 420.624 1508.976, 420.878 1507.966, 420.930 1503.643 C 420.987 1498.830, 420.733 1497.889, 419.500 1498.362 C 418.570 1498.718, 418 1498.357, 418 1497.410 C 418 1496.569, 418.419 1496.141, 418.931 1496.457 C 423.089 1499.027, 422.503 1453.183, 418.146 1435.060 C 415.619 1424.548, 413.574 1424.313, 414.398 1434.628 M 1154.136 1533.750 C 1154.061 1534.987, 1153.662 1535.947, 1153.250 1535.882 C 1150.593 1535.462, 1150 1536.316, 1150 1540.559 C 1150 1543.754, 1150.346 1544.904, 1151.156 1544.404 C 1151.980 1543.894, 1152.135 1544.575, 1151.695 1546.774 C 1151.300 1548.750, 1151.514 1550.065, 1152.289 1550.430 C 1153.207 1550.862, 1153.215 1551.135, 1152.324 1551.559 C 1151.079 1552.150, 1151.357 1558.952, 1152.932 1566.452 C 1153.400 1568.678, 1153.662 1575.189, 1153.513 1580.920 C 1153.332 1587.912, 1153.683 1592.391, 1154.580 1594.537 C 1155.315 1596.295, 1155.646 1599.031, 1155.317 1600.617 C 1154.988 1602.203, 1154.813 1604.175, 1154.929 1605 C 1155.044 1605.825, 1155.336 1612.125, 1155.577 1619 C 1155.818 1625.875, 1156.172 1633.075, 1156.365 1635 C 1156.558 1636.925, 1156.779 1639.662, 1156.858 1641.083 C 1156.996 1643.591, 1159.864 1644.911, 1160.118 1642.583 C 1160.183 1641.987, 1160.580 1642.850, 1161 1644.500 L 1161.763 1647.500 1161.882 1644.679 C 1161.947 1643.127, 1161.321 1641.178, 1160.490 1640.347 C 1159.660 1639.517, 1158.991 1637.637, 1159.003 1636.169 C 1159.016 1634.701, 1158.950 1632.825, 1158.857 1632 C 1158.764 1631.175, 1158.962 1625.325, 1159.296 1619 C 1159.654 1612.228, 1159.553 1608.528, 1159.051 1610 L 1158.199 1612.500 1158.100 1609.750 C 1158.045 1608.237, 1158.450 1607, 1159 1607 C 1159.550 1607, 1160 1606.073, 1160 1604.941 C 1160 1603.809, 1159.550 1603.160, 1159 1603.500 C 1158.450 1603.840, 1158 1603.165, 1158 1602 C 1158 1600.835, 1158.450 1600.160, 1159 1600.500 C 1159.550 1600.840, 1160 1600.641, 1160 1600.059 C 1160 1599.477, 1159.631 1599, 1159.180 1599 C 1158.153 1599, 1155.966 1582.944, 1156.100 1576.387 C 1156.180 1572.444, 1156.354 1571.983, 1157 1574 C 1158.148 1577.586, 1158.127 1574.305, 1156.967 1569 C 1154.886 1559.480, 1154.877 1559.409, 1155.954 1561 C 1156.791 1562.236, 1156.972 1562.119, 1156.985 1560.333 C 1156.993 1559.142, 1156.550 1558.017, 1156.001 1557.833 C 1154.716 1557.405, 1153.144 1538.256, 1154.299 1537.101 C 1154.778 1536.622, 1154.968 1535.166, 1154.721 1533.865 C 1154.280 1531.541, 1154.270 1531.539, 1154.136 1533.750 M 545.429 1589.982 C 545.429 1591.011, 545.782 1591.635, 546.214 1591.368 C 546.646 1591.100, 547 1591.321, 547 1591.858 C 547 1592.394, 546.576 1592.983, 546.058 1593.167 C 545.540 1593.350, 544.949 1596.737, 544.744 1600.694 C 544.539 1604.651, 544.738 1607.662, 545.186 1607.385 C 545.634 1607.108, 546.007 1609.721, 546.015 1613.191 C 546.032 1620.230, 547.301 1623.565, 548.985 1621 C 549.793 1619.769, 549.972 1619.883, 549.985 1621.633 C 549.994 1622.934, 549.219 1623.971, 548 1624.290 C 545.557 1624.929, 545.378 1628.267, 547.513 1633.378 C 548.346 1635.370, 548.595 1637, 548.067 1637 C 546.529 1637, 547.219 1687.240, 548.764 1687.755 C 550.544 1688.348, 550.314 1695.494, 548.467 1697.028 C 546.132 1698.965, 547.247 1700.409, 551.183 1700.546 C 554.751 1700.669, 555.418 1698.779, 552.962 1695.500 C 552.550 1694.950, 552.414 1692.700, 552.659 1690.500 C 552.904 1688.300, 553.085 1686.050, 553.061 1685.500 C 552.444 1671.159, 552.590 1662.372, 553.454 1661.765 C 554.176 1661.258, 554.168 1661.026, 553.430 1661.015 C 552.749 1661.006, 552.446 1658.446, 552.597 1653.992 C 552.760 1649.207, 552.495 1647.194, 551.763 1647.646 C 551.105 1648.053, 550.984 1647.834, 551.450 1647.081 C 552.498 1645.385, 552.792 1640.011, 551.803 1640.622 C 550.952 1641.148, 550.648 1638.447, 551.003 1633.500 C 551.648 1624.519, 551.590 1622.293, 550.658 1620.201 C 549.931 1618.567, 549.993 1616.908, 550.873 1614.474 C 552.228 1610.726, 550.871 1596.471, 548.979 1594.579 C 548.441 1594.041, 548 1592.845, 548 1591.922 C 548 1591, 547.421 1589.765, 546.714 1589.178 C 545.745 1588.373, 545.429 1588.571, 545.429 1589.982 M 410.908 1645.611 C 409.859 1646.875, 409.500 1650.579, 409.500 1660.153 C 409.500 1667.218, 409.163 1672.999, 408.750 1672.999 C 408.337 1673, 408.007 1673.787, 408.015 1674.750 C 408.028 1676.246, 408.172 1676.282, 409 1675 C 409.761 1673.822, 409.973 1674.064, 409.985 1676.128 C 409.993 1677.573, 409.325 1679.315, 408.500 1680 C 406.846 1681.372, 406.401 1684.488, 408 1683.500 C 408.569 1683.148, 409 1684.009, 409 1685.500 C 409 1687.224, 408.606 1687.874, 407.845 1687.405 C 407.122 1686.957, 406.963 1687.131, 407.419 1687.869 C 407.819 1688.517, 408.292 1692.018, 408.469 1695.650 C 408.669 1699.736, 409.308 1702.622, 410.146 1703.221 C 411.175 1703.956, 411.080 1704.054, 409.750 1703.626 C 408.736 1703.299, 407.994 1703.575, 407.985 1704.281 C 407.973 1705.209, 407.779 1705.199, 407.171 1704.243 C 406.714 1703.522, 406.400 1705.014, 406.437 1707.743 C 406.486 1711.443, 406.944 1712.734, 408.500 1713.552 C 410.745 1714.732, 412.692 1712.150, 410.614 1710.750 C 409.875 1710.253, 409.841 1709.747, 410.511 1709.250 C 411.899 1708.220, 412.424 1698.620, 411.046 1699.472 C 409.720 1700.291, 409.675 1698.725, 410.987 1697.413 C 412.276 1696.124, 413.549 1679.543, 412.300 1680.314 C 411.732 1680.666, 411.722 1678.878, 412.275 1675.694 C 413.623 1667.935, 414.313 1645.913, 413.242 1644.842 C 412.673 1644.273, 411.771 1644.570, 410.908 1645.611 M 1070.035 1665.250 C 1070.070 1667.450, 1072.894 1673.474, 1072.965 1671.500 C 1072.985 1670.950, 1073.948 1672.412, 1075.105 1674.750 C 1076.262 1677.088, 1077.612 1679, 1078.105 1679 C 1078.597 1679, 1079 1679.567, 1079 1680.260 C 1079 1680.953, 1080.032 1682.641, 1081.292 1684.010 C 1086.616 1689.792, 1091.861 1698.015, 1094.998 1705.500 C 1097.746 1712.056, 1098.951 1713.793, 1101.675 1715.124 C 1104.648 1716.575, 1106.524 1716.060, 1103.984 1714.490 C 1103.425 1714.144, 1103.228 1713.440, 1103.547 1712.924 C 1103.866 1712.408, 1103.423 1711.716, 1102.563 1711.386 C 1101.704 1711.056, 1101 1710.076, 1101 1709.207 C 1101 1708.339, 1099.987 1706.515, 1098.750 1705.153 C 1097.513 1703.792, 1097.096 1703.022, 1097.824 1703.443 C 1099.310 1704.303, 1097.595 1700.774, 1095.316 1698.283 C 1094.664 1697.571, 1093.844 1696.084, 1093.494 1694.980 C 1093.143 1693.875, 1092.444 1693.226, 1091.939 1693.537 C 1091.435 1693.849, 1091.247 1693.518, 1091.522 1692.802 C 1091.796 1692.086, 1090.981 1690.375, 1089.709 1689 C 1088.437 1687.625, 1087.080 1685.825, 1086.692 1685 C 1085.284 1682.007, 1081.436 1676.216, 1078.648 1672.896 C 1077.080 1671.028, 1076.140 1670.175, 1076.559 1671 C 1077.001 1671.870, 1076.944 1672.155, 1076.423 1671.679 C 1075.929 1671.228, 1075.520 1670.319, 1075.513 1669.660 C 1075.499 1668.336, 1071.567 1663, 1070.606 1663 C 1070.273 1663, 1070.016 1664.013, 1070.035 1665.250 M 1158.686 1677.250 C 1158.879 1680.138, 1159.141 1686.619, 1159.269 1691.653 C 1159.396 1696.687, 1159.831 1700.287, 1160.235 1699.653 C 1160.728 1698.878, 1160.974 1699.008, 1160.985 1700.050 C 1160.993 1700.902, 1160.460 1702.140, 1159.800 1702.800 C 1159.140 1703.460, 1159.028 1704.001, 1159.550 1704.003 C 1160.503 1704.006, 1161.355 1715.779, 1161.450 1730.251 C 1161.477 1734.514, 1161.857 1738.001, 1162.294 1738.001 C 1162.730 1738, 1162.978 1738.563, 1162.843 1739.250 C 1162.709 1739.938, 1162.941 1742.222, 1163.359 1744.326 C 1163.833 1746.709, 1163.713 1748.641, 1163.042 1749.449 C 1162.450 1750.163, 1162.202 1751.366, 1162.491 1752.123 C 1162.780 1752.880, 1163.649 1767.374, 1164.422 1784.331 C 1165.195 1801.287, 1166.092 1815.425, 1166.414 1815.747 C 1166.736 1816.070, 1167 1815.583, 1167 1814.667 C 1167 1813.750, 1167.416 1813, 1167.926 1813 C 1168.452 1813, 1168.627 1810.166, 1168.331 1806.431 C 1167.851 1800.364, 1167.973 1799.820, 1169.927 1799.309 C 1171.593 1798.873, 1171.799 1798.463, 1170.899 1797.378 C 1170.037 1796.340, 1170.046 1796, 1170.937 1796 C 1171.586 1796, 1171.852 1795.570, 1171.527 1795.044 C 1171.202 1794.518, 1170.275 1794.341, 1169.468 1794.651 C 1168.294 1795.101, 1167.987 1794.140, 1167.936 1789.857 C 1167.901 1786.911, 1167.729 1783.044, 1167.553 1781.263 C 1167.378 1779.483, 1167.632 1778.272, 1168.117 1778.573 C 1169.332 1779.323, 1169.232 1778.773, 1167.536 1775.373 C 1166.647 1773.591, 1166.347 1771.470, 1166.771 1769.969 C 1167.397 1767.760, 1167.536 1767.922, 1168.093 1771.500 L 1168.716 1775.500 1168.858 1770.833 C 1168.938 1768.195, 1168.520 1766.007, 1167.896 1765.799 C 1167.288 1765.596, 1166.692 1763.646, 1166.570 1761.465 C 1166.449 1759.284, 1166.059 1756.825, 1165.703 1756 C 1164.969 1754.298, 1165.398 1740.289, 1166.346 1735 C 1166.839 1732.247, 1166.784 1732.033, 1166.086 1734 C 1165.279 1736.275, 1165.179 1736.140, 1164.971 1732.500 C 1164.576 1725.607, 1164.177 1720.871, 1162.945 1708.500 C 1161.318 1692.170, 1161.334 1689.050, 1163.051 1687.856 C 1164.153 1687.089, 1164.201 1686.726, 1163.250 1686.341 C 1162.470 1686.024, 1162 1683.829, 1162 1680.498 C 1162 1674.394, 1161.313 1672, 1159.561 1672 C 1158.704 1672, 1158.441 1673.582, 1158.686 1677.250 M 594.477 1692.843 C 593.940 1693.336, 589.675 1695.683, 585 1698.057 C 580.325 1700.431, 574.619 1703.640, 572.320 1705.187 C 570.021 1706.734, 567.433 1708, 566.570 1708 C 565.706 1708, 565 1708.450, 565 1709 C 565 1709.550, 564.325 1710, 563.500 1710 C 562.675 1710, 562 1710.477, 562 1711.059 C 562 1711.641, 561.586 1711.862, 561.081 1711.550 C 560.575 1711.237, 559.562 1711.573, 558.831 1712.297 C 558.099 1713.020, 556.772 1713.887, 555.882 1714.224 C 554.191 1714.864, 552.640 1720, 554.139 1720 C 554.612 1720, 554.971 1721.912, 554.937 1724.250 C 554.884 1727.807, 554.726 1728.133, 553.969 1726.250 C 552.810 1723.366, 552 1723.379, 552 1726.282 C 552 1728.122, 552.870 1728.820, 556.500 1729.892 C 558.975 1730.623, 561 1731.642, 561 1732.158 C 561 1732.673, 563.025 1735.149, 565.500 1737.659 C 567.975 1740.170, 570 1742.378, 570 1742.566 C 570 1742.755, 571.013 1744.012, 572.250 1745.359 C 573.487 1746.707, 574.957 1748.415, 575.516 1749.155 C 581.845 1757.538, 582.825 1758.188, 587.244 1756.926 C 589.362 1756.322, 591.236 1756.810, 595.475 1759.072 C 598.493 1760.682, 601.850 1762, 602.934 1762 C 605.767 1762, 610.112 1764.163, 609.709 1765.373 C 609.316 1766.553, 599.849 1766.273, 596.452 1764.982 C 595.216 1764.512, 593.934 1764.399, 593.603 1764.731 C 593.271 1765.062, 593 1764.808, 593 1764.167 C 593 1762.245, 590.665 1763.328, 589.268 1765.898 C 587.805 1768.590, 590.669 1776.275, 593.546 1777.379 C 594.346 1777.686, 595 1778.825, 595 1779.910 C 595 1780.994, 595.457 1782.165, 596.016 1782.510 C 596.575 1782.856, 596.767 1783.568, 596.443 1784.093 C 596.081 1784.679, 597.449 1784.792, 599.986 1784.386 C 606.890 1783.282, 611.942 1787.698, 613.522 1796.220 C 614.075 1799.206, 614.620 1799.896, 616.288 1799.720 C 620.075 1799.319, 622.015 1811.285, 618.250 1811.820 C 617.013 1811.995, 616 1811.672, 616 1811.101 C 616 1810.530, 615.325 1810.322, 614.500 1810.638 C 613.675 1810.955, 613 1810.727, 613 1810.133 C 613 1809.538, 611.650 1808.353, 610 1807.500 C 607.006 1805.952, 606.001 1806.601, 608.117 1808.717 C 608.732 1809.332, 609.605 1813.506, 610.057 1817.992 C 610.509 1822.479, 611.378 1826.751, 611.988 1827.486 C 612.607 1828.231, 612.879 1830.630, 612.604 1832.911 C 612.300 1835.437, 612.517 1837, 613.172 1837 C 613.756 1837, 613.998 1837.900, 613.711 1838.999 C 613.423 1840.098, 613.576 1841.238, 614.050 1841.531 C 614.525 1841.824, 614.631 1842.798, 614.286 1843.696 C 613.883 1844.747, 614.056 1845.084, 614.771 1844.642 C 615.543 1844.165, 615.705 1845.042, 615.304 1847.517 C 614.859 1850.258, 615.145 1851.386, 616.547 1852.411 C 617.964 1853.447, 618.317 1854.884, 618.135 1858.872 C 617.976 1862.360, 618.290 1864, 619.117 1864 C 619.786 1864, 620.051 1864.282, 619.706 1864.627 C 619.361 1864.972, 619.744 1866.844, 620.556 1868.788 C 621.368 1870.732, 621.735 1873.259, 621.372 1874.403 C 620.827 1876.122, 620.960 1876.278, 622.136 1875.302 C 623.543 1874.134, 624.204 1878.129, 622.831 1879.502 C 622.234 1880.099, 624.124 1887.893, 625.316 1889.750 C 625.757 1890.438, 625.838 1891.453, 625.496 1892.006 C 624.623 1893.419, 627.188 1900.097, 628.456 1899.713 C 629.030 1899.539, 630.175 1898.002, 631 1896.298 C 632.508 1893.182, 638.196 1890.385, 640.335 1891.707 C 640.927 1892.073, 641.087 1891.669, 640.724 1890.724 C 640.272 1889.545, 641.003 1888.824, 643.481 1888.006 C 645.336 1887.394, 648.799 1885.347, 651.177 1883.456 C 653.555 1881.566, 655.908 1880.015, 656.406 1880.010 C 656.904 1880.004, 658.919 1878.773, 660.885 1877.274 C 662.973 1875.682, 665.422 1874.674, 666.775 1874.852 C 668.311 1875.053, 669.773 1874.287, 671.118 1872.577 C 672.233 1871.160, 674.001 1870, 675.048 1870 C 676.607 1870, 676.847 1869.485, 676.379 1867.144 C 675.876 1864.628, 676.146 1864.214, 678.654 1863.662 C 683.565 1862.580, 688.450 1857.284, 687.156 1854.444 C 686.475 1852.949, 686.431 1851.852, 687.038 1851.477 C 687.567 1851.150, 688.029 1851.696, 688.063 1852.691 C 688.114 1854.148, 688.303 1854.062, 689.031 1852.250 C 690.364 1848.934, 693.867 1849.319, 695.122 1852.920 C 696.111 1855.758, 699.217 1858.158, 698.738 1855.714 C 698.594 1854.978, 699.965 1854.378, 702.224 1854.191 C 704.736 1853.983, 706.572 1853.088, 707.868 1851.441 C 708.924 1850.099, 710.659 1849, 711.723 1849 C 713.087 1849, 713.635 1848.336, 713.579 1846.750 C 713.518 1845.006, 713.997 1844.552, 715.711 1844.731 C 717.228 1844.890, 717.758 1844.532, 717.397 1843.593 C 717.075 1842.752, 719.565 1840.008, 723.854 1836.480 C 729.885 1831.519, 731.927 1828.837, 731.986 1825.802 C 732.007 1824.720, 727.389 1820, 726.310 1820 C 725.781 1820, 724.310 1818.895, 723.042 1817.544 C 721.773 1816.194, 720.407 1815.181, 720.007 1815.294 C 719.314 1815.490, 712.612 1809.975, 705.675 1803.500 C 703.907 1801.850, 700.540 1798.798, 698.192 1796.717 C 695.825 1794.621, 694.224 1792.446, 694.600 1791.838 C 695.001 1791.190, 694.714 1790.929, 693.898 1791.201 C 692.368 1791.711, 690 1789.773, 690 1788.012 C 690 1787.391, 689.610 1787.123, 689.134 1787.417 C 688.292 1787.937, 684.500 1784.441, 684.500 1783.145 C 684.500 1782.790, 684.175 1782.608, 683.778 1782.741 C 683.381 1782.873, 680.265 1780.225, 676.854 1776.856 C 671.738 1771.803, 670.376 1770.930, 669.076 1771.871 C 668.209 1772.499, 666.825 1773.289, 666 1773.627 C 665.175 1773.965, 662.700 1775.042, 660.500 1776.021 C 650.485 1780.478, 646.827 1781.005, 643.919 1778.408 C 643.049 1777.631, 642.083 1777.250, 641.772 1777.562 C 641.460 1777.873, 637.863 1776.974, 633.779 1775.564 C 629.558 1774.107, 624.488 1773.074, 622.036 1773.170 C 618.022 1773.327, 615 1771.509, 615 1768.937 C 615 1767.819, 626.893 1768.869, 629.286 1770.198 C 630.504 1770.874, 633.774 1771.295, 636.553 1771.134 C 641.166 1770.866, 641.711 1771.069, 642.801 1773.462 L 643.995 1776.083 646.186 1774.041 C 647.391 1772.919, 648.966 1772, 649.686 1772 C 650.406 1772, 654.033 1770.550, 657.747 1768.778 C 661.461 1767.006, 664.837 1765.656, 665.250 1765.778 C 667.255 1766.371, 665.614 1762.503, 662.500 1759.297 C 660.575 1757.315, 659 1755.264, 659 1754.740 C 659 1754.215, 658.275 1754.064, 657.389 1754.404 C 656.245 1754.843, 655.943 1754.592, 656.347 1753.539 C 656.662 1752.717, 656.103 1751.484, 655.095 1750.777 C 654.093 1750.075, 652.385 1748.039, 651.300 1746.254 C 650.214 1744.468, 649.028 1743.306, 648.663 1743.670 C 648.298 1744.035, 648 1743.683, 648 1742.887 C 648 1742.092, 647.071 1740.780, 645.935 1739.971 C 644.799 1739.162, 642.916 1736.813, 641.750 1734.750 C 640.585 1732.688, 639.265 1731, 638.816 1731 C 638.367 1731, 638 1730.325, 638 1729.500 C 638 1728.675, 637.550 1728, 637 1728 C 636.450 1728, 636 1727.521, 636 1726.935 C 636 1724.749, 620.166 1710.500, 617.737 1710.500 C 617.057 1710.500, 615.905 1709.938, 615.179 1709.250 C 614.452 1708.563, 612.960 1708, 611.864 1708 C 610.768 1708, 608.735 1706.650, 607.347 1705 C 605.958 1703.350, 604.173 1702, 603.380 1702 C 602.586 1702, 601.650 1701.213, 601.298 1700.250 C 600.446 1697.916, 597.019 1693.495, 596.930 1694.615 C 596.891 1695.102, 596.543 1694.700, 596.157 1693.723 C 595.727 1692.634, 595.076 1692.293, 594.477 1692.843 M 406.553 1715.915 C 406.242 1716.418, 406.553 1717.019, 407.244 1717.252 C 408.207 1717.576, 408.228 1718.005, 407.336 1719.087 C 406.696 1719.864, 406.120 1722.525, 406.056 1725 C 405.992 1727.475, 405.876 1730.400, 405.797 1731.500 C 405.719 1732.600, 405.986 1735.351, 406.392 1737.614 C 406.964 1740.802, 406.762 1742.096, 405.493 1743.364 C 404.593 1744.264, 404.268 1745, 404.771 1745 C 405.274 1745, 405.781 1747.967, 405.898 1751.594 C 406.041 1756.014, 405.764 1757.972, 405.056 1757.535 C 404.475 1757.176, 404 1757.584, 404 1758.441 C 404 1759.298, 404.450 1760, 405 1760 C 406.413 1760, 406.246 1768.633, 404.788 1770.968 C 403.416 1773.165, 403.592 1773.472, 406.780 1774.453 C 408.983 1775.130, 409.044 1774.983, 408.596 1770.059 C 408.291 1766.703, 408.486 1765.182, 409.166 1765.603 C 409.860 1766.031, 409.889 1765.626, 409.256 1764.371 C 408.163 1762.205, 408.337 1753.394, 409.528 1750.586 C 410.103 1749.230, 409.999 1748.883, 409.170 1749.395 C 408.479 1749.822, 408 1749.514, 408 1748.642 C 408 1747.831, 408.563 1746.904, 409.250 1746.583 C 410.201 1746.140, 410.214 1745.865, 409.306 1745.435 C 408.650 1745.125, 408.328 1744.310, 408.590 1743.625 C 409.454 1741.375, 409.601 1723, 408.755 1723 C 408.301 1723, 408.372 1722.173, 408.913 1721.162 C 410.586 1718.037, 408.334 1713.032, 406.553 1715.915 M 550.071 1740.245 C 548.539 1745.718, 549.070 1757.878, 551.359 1769.728 C 552.489 1775.581, 552.696 1779.304, 552.076 1782.622 C 551.528 1785.554, 551.585 1788.378, 552.227 1790.222 C 552.944 1792.279, 552.917 1793.886, 552.137 1795.598 C 551.205 1797.644, 551.347 1798.317, 553.012 1799.742 C 555.421 1801.805, 555.509 1802.907, 553.389 1804.457 C 551.914 1805.536, 551.922 1805.779, 553.488 1807.345 C 555.304 1809.162, 554.864 1822.152, 552.903 1824.585 C 552.403 1825.206, 552.456 1832.906, 553.028 1842.585 C 554.511 1867.711, 554.759 1869.406, 557.115 1870.532 C 559.340 1871.596, 560.969 1887.111, 559.095 1889.400 C 558.600 1890.005, 558.039 1891.625, 557.848 1893 C 557.656 1894.375, 556.825 1896.054, 556 1896.731 C 555.047 1897.513, 554.865 1898.242, 555.502 1898.731 C 557.263 1900.083, 558.845 1904.356, 559.488 1909.500 C 560.307 1916.040, 560.917 1918, 562.135 1918 C 562.719 1918, 562.834 1917.065, 562.412 1915.750 C 562.015 1914.513, 561.774 1909.731, 561.877 1905.124 C 562.019 1898.810, 561.662 1896.133, 560.429 1894.251 C 559.529 1892.877, 559.289 1892.061, 559.896 1892.436 C 561.088 1893.172, 561.105 1893.084, 561.342 1885.250 C 561.429 1882.363, 561.275 1879.998, 561 1879.995 C 560.725 1879.992, 560.419 1876.279, 560.321 1871.745 C 560.222 1867.210, 559.632 1855.175, 559.009 1845 C 557.088 1813.637, 556.922 1786.786, 558.636 1784.869 C 559.876 1783.483, 559.888 1783.031, 558.716 1781.859 C 556.081 1779.224, 555.746 1771.291, 558.197 1769.574 C 560.127 1768.223, 560.171 1768.003, 558.636 1767.414 C 555.010 1766.023, 553.757 1761.203, 553.625 1748.153 C 553.556 1741.298, 553.327 1736.546, 553.115 1737.594 C 552.738 1739.462, 552.717 1739.461, 552.043 1737.580 C 551.504 1736.077, 551.076 1736.655, 550.071 1740.245 M 404.681 1778.750 C 403.748 1780.623, 403.358 1784.849, 403.459 1792 C 403.540 1797.775, 403.205 1803.045, 402.714 1803.710 C 402.187 1804.424, 402.215 1806.767, 402.781 1809.420 C 403.309 1811.895, 403.389 1814.050, 402.960 1814.210 C 402.531 1814.369, 402.091 1817.875, 401.983 1822 C 401.704 1832.637, 401.874 1835, 402.921 1835 C 404.312 1835, 404.953 1830.684, 405.467 1817.838 C 405.723 1811.425, 406.347 1803.325, 406.852 1799.838 C 407.837 1793.047, 407.781 1789.073, 406.676 1787.285 C 406.297 1786.672, 406.505 1785.998, 407.137 1785.788 C 407.988 1785.504, 407.962 1784.798, 407.040 1783.075 C 406.305 1781.701, 406.174 1780.490, 406.720 1780.123 C 407.229 1779.780, 407.936 1778.713, 408.292 1777.750 C 409.372 1774.821, 406.201 1775.699, 404.681 1778.750 M 651 1816.378 C 651 1818.436, 654.380 1824, 655.630 1824 C 656.756 1824, 657.073 1824.613, 656.695 1826.057 C 656.302 1827.559, 656.811 1828.412, 658.579 1829.218 C 659.910 1829.825, 661 1830.699, 661 1831.161 C 661 1831.622, 662.350 1832, 664 1832 C 665.650 1832, 667 1831.596, 667 1831.103 C 667 1829.579, 661.635 1824, 660.170 1824 C 659.356 1824, 659.021 1823.388, 659.357 1822.512 C 660.123 1820.517, 655.807 1816, 653.135 1816 C 651.961 1816, 651 1816.170, 651 1816.378 M 1168.511 1838.500 C 1168.016 1842.350, 1167.726 1845.918, 1167.866 1846.429 C 1168.005 1846.940, 1168.331 1853.240, 1168.590 1860.429 C 1168.849 1867.618, 1169.240 1878.450, 1169.459 1884.500 C 1169.678 1890.550, 1170.340 1897.072, 1170.929 1898.993 C 1172.267 1903.359, 1172.278 1904.956, 1170.954 1903 C 1170.182 1901.859, 1170.076 1902.099, 1170.512 1904 C 1170.827 1905.375, 1171.240 1913.475, 1171.430 1922 C 1171.929 1944.382, 1171.901 1944, 1173.087 1944 C 1173.842 1944, 1173.993 1940.223, 1173.580 1931.601 C 1173.254 1924.782, 1172.972 1911.394, 1172.952 1901.851 C 1172.933 1892.308, 1172.445 1883.020, 1171.868 1881.211 C 1171.126 1878.884, 1171.136 1877.541, 1171.903 1876.617 C 1172.685 1875.674, 1172.555 1872.022, 1171.433 1863.465 C 1170.578 1856.949, 1170.079 1850.692, 1170.324 1849.559 C 1170.568 1848.427, 1170.462 1843.900, 1170.089 1839.500 L 1169.410 1831.500 1168.511 1838.500 M 576.587 1840.493 C 577.498 1841.883, 578.380 1845.704, 578.581 1849.132 C 578.780 1852.512, 579.570 1856.003, 580.338 1856.889 C 581.106 1857.775, 581.787 1859.175, 581.850 1860 C 581.914 1860.825, 582.250 1862.963, 582.597 1864.750 C 583.148 1867.590, 582.961 1868, 581.113 1868 C 578.823 1868, 578.219 1869.573, 580.250 1870.250 C 581.097 1870.532, 581.521 1873.134, 581.565 1878.315 C 581.601 1882.522, 581.939 1886.272, 582.315 1886.649 C 583.566 1887.899, 583.023 1889.223, 581.500 1888.638 C 580.586 1888.288, 580 1888.637, 580 1889.531 C 580 1890.339, 580.490 1891, 581.090 1891 C 581.689 1891, 583.024 1892.013, 584.056 1893.250 L 585.933 1895.500 585.967 1891.375 C 585.985 1889.106, 586.295 1885.774, 586.656 1883.970 C 587.032 1882.091, 586.925 1880.924, 586.406 1881.240 C 585.908 1881.542, 584.946 1881.190, 584.268 1880.457 C 583.277 1879.384, 583.427 1878.999, 585.033 1878.490 C 586.131 1878.141, 586.780 1877.452, 586.475 1876.959 C 585.786 1875.845, 585.170 1870.857, 584.444 1860.500 C 584.076 1855.268, 583.384 1852.116, 582.441 1851.390 C 581.648 1850.779, 581 1848.935, 581 1847.293 C 581 1845.650, 580.100 1843.268, 579 1842 C 577.900 1840.732, 577 1839.313, 577 1838.847 C 577 1838.381, 576.540 1838, 575.977 1838 C 575.414 1838, 575.689 1839.122, 576.587 1840.493 M 387 1912.108 C 383.975 1912.580, 379.700 1912.754, 377.500 1912.496 C 375.300 1912.237, 374.063 1912.282, 374.750 1912.596 C 375.438 1912.910, 376 1913.740, 376 1914.440 C 376 1915.194, 377.325 1915.744, 379.250 1915.789 C 388.520 1916.008, 391.531 1915.806, 391.833 1914.946 C 392.436 1913.235, 394 1913.959, 394 1915.950 C 394 1917.622, 393.182 1917.943, 388.260 1918.200 C 384.094 1918.418, 382.441 1918.915, 382.232 1920.014 C 381.907 1921.725, 391.873 1921.808, 397.500 1920.141 L 400.500 1919.252 397.750 1918.151 C 394.329 1916.781, 394.236 1915.241, 397.500 1914 C 404.252 1911.433, 398.253 1910.352, 387 1912.108 M 557.037 1924 C 557.023 1928.675, 557.488 1934.218, 558.071 1936.318 C 558.831 1939.053, 558.820 1940.512, 558.034 1941.459 C 556.712 1943.052, 556.074 1953.928, 557.259 1954.660 C 557.720 1954.945, 557.575 1955.808, 556.936 1956.577 C 555.663 1958.111, 556.239 1958.476, 561.170 1959.265 C 564.275 1959.762, 566.342 1950.376, 564.065 1946.121 C 563.427 1944.929, 563.008 1939.547, 563.078 1933.453 C 563.178 1924.849, 562.891 1922.543, 561.554 1921.179 C 560.649 1920.256, 559.268 1918.600, 558.486 1917.500 C 557.210 1915.706, 557.061 1916.376, 557.037 1924 M 238.835 1924.673 C 234.201 1925.900, 236.363 1927.687, 242.089 1927.363 C 246.802 1927.096, 248 1927.329, 248 1928.514 C 248 1929.581, 246.872 1930, 244 1930 C 241.800 1930, 240 1930.436, 240 1930.969 C 240 1931.501, 239.407 1931.710, 238.682 1931.431 C 237.060 1930.809, 232 1934.642, 232 1936.493 C 232 1938.249, 237.263 1939.471, 243.250 1939.106 C 247.769 1938.830, 248 1938.942, 248 1941.408 C 248 1943.333, 248.514 1944, 250 1944 C 252.576 1944, 256 1947.424, 256 1950 C 256 1951.111, 256.667 1952, 257.500 1952 C 258.583 1952, 259 1953.111, 259 1956 C 259 1958.889, 258.583 1960, 257.500 1960 C 256.667 1960, 256 1960.889, 256 1962 C 256 1963.467, 256.667 1964, 258.500 1964 C 259.875 1964, 261 1964.450, 261 1965 C 261 1965.550, 259.875 1966, 258.500 1966 C 257.125 1966, 256 1966.450, 256 1967 C 256 1967.550, 257.800 1968, 260 1968 C 263.746 1968, 264 1968.184, 264 1970.895 L 264 1973.790 271.778 1973.841 C 279.499 1973.892, 283.350 1972.953, 281.107 1971.566 C 280.498 1971.190, 280 1971.359, 280 1971.941 C 280 1972.523, 278.200 1973, 276 1973 C 273.800 1973, 272 1972.614, 272 1972.142 C 272 1971.144, 281.700 1970, 290.160 1970 C 295.882 1970, 299.396 1968.825, 301.497 1966.208 C 302.067 1965.498, 303.651 1964.362, 305.017 1963.683 C 306.957 1962.719, 307.695 1961.307, 308.391 1957.225 C 308.991 1953.705, 309.760 1952, 310.748 1952 C 311.674 1952, 311.990 1951.417, 311.607 1950.418 C 311.273 1949.548, 311 1948.622, 311 1948.359 C 311 1948.097, 310.563 1948.152, 310.029 1948.482 C 309.495 1948.812, 308.772 1947.938, 308.421 1946.541 C 308.019 1944.940, 307.083 1944, 305.892 1944 C 303.648 1944, 303.066 1936.478, 305.250 1935.702 C 305.938 1935.458, 305.328 1935.401, 303.896 1935.575 C 302.464 1935.749, 300.776 1935.376, 300.146 1934.746 C 299.504 1934.104, 299 1934.033, 299 1934.584 C 299 1935.833, 283.330 1936.343, 282.574 1935.119 C 282.264 1934.619, 282.684 1933.952, 283.506 1933.636 C 284.328 1933.321, 285 1933.499, 285 1934.031 C 285 1934.564, 286.462 1934.955, 288.250 1934.900 C 292.077 1934.783, 297.537 1933.257, 294.691 1933.100 C 293.696 1933.045, 293.117 1932.620, 293.403 1932.156 C 293.690 1931.692, 290.117 1931.498, 285.463 1931.724 C 279.871 1931.996, 277 1931.774, 277 1931.068 C 277 1930.481, 275.875 1930, 274.500 1930 C 273.125 1930, 272 1930.398, 272 1930.883 C 272 1931.369, 271.102 1932.002, 270.005 1932.289 C 268.316 1932.730, 268.102 1932.441, 268.613 1930.405 C 269.063 1928.612, 268.808 1928, 267.608 1928 C 266.724 1928, 266 1928.450, 266 1929 C 266 1929.550, 265.550 1930, 265 1930 C 264.450 1930, 264 1929.416, 264 1928.702 C 264 1927.745, 262.223 1927.457, 257.250 1927.608 C 252.876 1927.741, 251.204 1927.519, 252.500 1926.977 C 253.916 1926.385, 252.837 1926.120, 248.809 1926.070 C 245.679 1926.032, 242.840 1925.550, 242.500 1925 C 241.859 1923.962, 241.605 1923.939, 238.835 1924.673 M 558.896 1969.636 C 558.019 1973.760, 560.006 2005.646, 561.489 2011.250 C 562.309 2014.349, 564 2014.966, 564 2012.167 C 564 2011.158, 564.337 2009.995, 564.750 2009.582 C 565.163 2009.169, 565.500 2001.938, 565.500 1993.513 C 565.500 1985.088, 565.163 1978.403, 564.750 1978.657 C 564.337 1978.910, 564.007 1977.854, 564.015 1976.309 C 564.027 1974.128, 564.247 1973.835, 565 1975 C 565.755 1976.169, 565.973 1975.893, 565.985 1973.750 C 565.997 1971.494, 565.560 1971, 563.550 1971 C 562.202 1971, 560.693 1970.274, 560.196 1969.386 C 559.393 1967.952, 559.249 1967.979, 558.896 1969.636 M 158.300 1987.405 C 158.324 1998.165, 158.594 2000.709, 159.665 2000.298 C 160.399 2000.017, 161 2000.253, 161 2000.825 C 161 2001.667, 164.871 2001.748, 167 2000.950 C 167.275 2000.847, 167.950 2000.872, 168.500 2001.005 C 173.445 2002.199, 209.981 2001.492, 210.480 2000.192 C 210.792 1999.379, 211.329 1998.996, 211.675 1999.341 C 212.800 2000.467, 214.918 1996.606, 213.869 1995.342 C 213.235 1994.578, 213.302 1993.931, 214.063 1993.461 C 214.701 1993.066, 215.563 1993.293, 215.978 1993.964 C 216.468 1994.757, 216.905 1994.278, 217.227 1992.592 C 217.500 1991.166, 217.335 1990, 216.861 1990 C 215.258 1990, 215.988 1988.149, 217.750 1987.748 C 218.713 1987.529, 216.125 1987.559, 212 1987.813 C 207.875 1988.068, 204.350 1988.664, 204.167 1989.138 C 203.700 1990.344, 200 1990.221, 200 1989 C 200 1988.444, 197.333 1988, 194 1988 C 188.667 1988, 188 1988.222, 188 1990 C 188 1991.886, 187.329 1992.001, 176.250 1992.014 C 169.787 1992.021, 163.375 1992.255, 162 1992.534 C 159.821 1992.976, 159.757 1992.919, 161.500 1992.091 C 163.074 1991.343, 163.152 1991.126, 161.866 1991.070 C 160.049 1990.992, 158.285 1979.827, 159.491 1976.029 C 159.845 1974.913, 159.715 1974, 159.202 1974 C 158.670 1974, 158.282 1979.758, 158.300 1987.405 M 593.165 2003.100 C 588.810 2003.991, 587.348 2010, 591.486 2010 C 594.012 2010, 595.610 2013.081, 593.779 2014.420 C 592.873 2015.082, 591.840 2016.791, 591.482 2018.217 C 591.123 2019.647, 589.910 2021.052, 588.779 2021.348 C 586.071 2022.056, 587.021 2027.711, 590.270 2030.228 L 592.500 2031.956 589.320 2031.978 C 586.793 2031.995, 586.072 2032.463, 585.812 2034.250 C 585.171 2038.655, 586.143 2042, 588.064 2042 C 589.074 2042, 590.345 2042.787, 590.888 2043.750 C 593.036 2047.556, 594.291 2043.401, 594.286 2032.504 L 594.281 2021.899 598.390 2022.199 C 601.436 2022.422, 602.411 2022.888, 602.157 2024 C 601.969 2024.825, 601.684 2027.210, 601.523 2029.301 C 601.363 2031.392, 600.954 2033.379, 600.616 2033.718 C 598.767 2035.566, 601.879 2044, 604.409 2044 C 605.156 2044, 606.002 2044.900, 606.290 2046 C 606.865 2048.199, 604.487 2048.892, 603.718 2046.750 C 603.418 2045.914, 602.562 2046.297, 601.135 2047.903 C 598.544 2050.819, 598.369 2053.527, 600.759 2053.707 C 605.873 2054.092, 608 2055.748, 608 2059.345 C 608 2062.289, 606.702 2062.917, 602.082 2062.208 C 599.223 2061.769, 598.767 2061.949, 599.289 2063.310 C 599.632 2064.204, 599.482 2065.202, 598.956 2065.527 C 595.852 2067.446, 600.559 2074.309, 606.906 2077.119 C 608.608 2077.872, 610.051 2078.941, 610.114 2079.494 C 610.177 2080.047, 610.450 2081.850, 610.721 2083.500 C 612.140 2092.124, 610.515 2095.372, 606.693 2091.550 C 604.955 2089.813, 602 2089.466, 602 2091 C 602 2091.550, 601.325 2092, 600.500 2092 C 599.675 2092, 599 2092.488, 599 2093.083 C 599 2093.679, 599.563 2093.965, 600.250 2093.718 C 600.938 2093.472, 602.345 2093.706, 603.377 2094.238 C 604.715 2094.928, 605.489 2094.826, 606.073 2093.882 C 606.523 2093.154, 607.253 2092.921, 607.696 2093.365 C 608.138 2093.809, 607.438 2095.033, 606.139 2096.086 C 603.824 2097.963, 603.995 2098.362, 607 2098.099 C 610.347 2097.805, 614.390 2103.038, 612.071 2104.663 C 609.429 2106.513, 609.383 2108.330, 612 2107.500 C 613.303 2107.086, 614.011 2107.324, 614.032 2108.183 C 614.126 2112.100, 616.405 2113.006, 621.814 2111.277 C 626.071 2109.915, 631.172 2110.318, 627.286 2111.708 C 626.342 2112.046, 626.337 2112.567, 627.267 2114.055 C 628.242 2115.618, 628.138 2116.291, 626.694 2117.734 C 625.151 2119.277, 624.808 2119.311, 623.979 2118 C 623.211 2116.785, 623.028 2116.912, 623.015 2118.668 C 623.007 2119.861, 622.727 2121.548, 622.393 2122.418 C 622.002 2123.437, 622.332 2124, 623.320 2124 C 624.163 2124, 625.043 2123.213, 625.274 2122.250 C 625.620 2120.813, 625.884 2120.947, 626.748 2123 C 627.643 2125.129, 627.902 2125.247, 628.488 2123.798 C 628.867 2122.862, 628.879 2121.512, 628.514 2120.798 C 628.150 2120.084, 628.560 2120.374, 629.426 2121.441 C 631.377 2123.848, 631.387 2124.434, 629.500 2126 C 628.675 2126.685, 628 2126.947, 628 2126.583 C 628 2126.219, 627.398 2126.483, 626.663 2127.170 C 625.548 2128.212, 625.573 2129.049, 626.815 2132.210 C 628.546 2136.619, 630 2137.141, 630 2133.354 L 630 2130.708 632.452 2133.354 C 633.801 2134.809, 635.601 2136, 636.452 2136 C 637.333 2136, 638 2136.861, 638 2138 C 638 2139.333, 637.333 2140, 636 2140 C 634.889 2140, 634 2139.333, 634 2138.500 C 634 2137.675, 633.663 2137.004, 633.250 2137.008 C 632.322 2137.017, 630 2141.886, 630 2143.822 C 630 2144.818, 630.375 2144.950, 631.250 2144.261 C 634.836 2141.439, 640 2141.995, 640 2145.203 C 640 2146.932, 639.263 2148.818, 638.317 2149.510 C 635.228 2151.769, 639.275 2164, 643.111 2164 C 646.287 2164, 646.844 2165.675, 644.772 2168.993 C 643.762 2170.611, 643.868 2171.507, 645.370 2174.050 C 646.375 2175.750, 646.956 2178.060, 646.662 2179.183 C 646.187 2181.001, 646.469 2181.156, 649.241 2180.602 C 653.337 2179.783, 653.476 2179.564, 652.066 2176.160 C 651.198 2174.063, 651.133 2171.770, 651.833 2167.916 C 652.645 2163.450, 652.547 2162.389, 651.230 2161.426 C 649.390 2160.081, 649.387 2146.997, 651.227 2145.860 C 651.894 2145.447, 652.061 2143.460, 651.669 2140.599 C 651.248 2137.532, 651.406 2136, 652.142 2136 C 652.900 2136, 652.869 2135.547, 652.042 2134.550 C 651.380 2133.753, 650.971 2131.840, 651.133 2130.300 C 651.294 2128.759, 651.079 2126.937, 650.654 2126.249 C 650.229 2125.562, 650.131 2124.598, 650.434 2124.106 C 650.738 2123.615, 650.272 2121.502, 649.399 2119.412 C 648.026 2116.126, 648.005 2115.469, 649.245 2114.556 C 650.846 2113.376, 652.193 2108, 650.886 2108 C 650.426 2108, 650.334 2106.580, 650.681 2104.845 C 651.132 2102.589, 650.983 2101.893, 650.156 2102.404 C 648.854 2103.208, 648.698 2101.509, 648.508 2084.500 C 648.419 2076.590, 647.911 2072.415, 646.697 2069.638 C 645.471 2066.835, 645.125 2063.925, 645.432 2059.026 C 645.716 2054.516, 645.402 2051.401, 644.487 2049.638 C 643.735 2048.187, 643.542 2047, 644.059 2047 C 644.577 2047, 644.050 2046.050, 642.890 2044.890 C 641.171 2043.171, 640.897 2042.044, 641.413 2038.816 C 641.828 2036.221, 641.694 2035.071, 641.024 2035.485 C 640.456 2035.836, 640 2035.227, 640 2034.118 C 640 2033.018, 639.564 2031.849, 639.032 2031.520 C 638.499 2031.191, 638.120 2029.439, 638.188 2027.626 C 638.256 2025.814, 637.567 2022.837, 636.656 2021.012 C 635.745 2019.186, 635 2017.087, 635 2016.346 C 635 2015.606, 634.438 2015.004, 633.750 2015.008 C 632.159 2015.018, 629.870 2019.802, 631.094 2020.558 C 631.592 2020.866, 632 2024.241, 632 2028.059 C 632 2032.020, 632.429 2035, 633 2035 C 633.550 2035, 634 2037.025, 634 2039.500 C 634 2042.750, 634.588 2044.588, 636.118 2046.118 L 638.236 2048.236 635.960 2052.286 C 634.097 2055.599, 633.983 2056.220, 635.332 2055.703 C 637.209 2054.982, 638.582 2058.597, 637.600 2061.678 C 636.147 2066.239, 627.982 2064.049, 626.650 2058.740 C 626.271 2057.233, 625.563 2056, 625.075 2056 C 624.587 2056, 624.423 2056.900, 624.710 2058 C 624.998 2059.100, 624.783 2060, 624.233 2060 C 622.764 2060, 621.917 2055.804, 623.099 2054.380 C 623.725 2053.627, 623.772 2052.454, 623.222 2051.328 C 618.285 2041.224, 616.935 2038.076, 616.429 2035.500 C 615.362 2030.066, 611.794 2023.871, 610.073 2024.463 C 609.043 2024.818, 609.172 2024.485, 610.446 2023.499 C 611.957 2022.330, 612.125 2021.725, 611.196 2020.796 C 610.538 2020.138, 610 2018.565, 610 2017.300 C 610 2016.035, 609.564 2015, 609.031 2015 C 608.499 2015, 608.309 2014.360, 608.609 2013.577 C 608.925 2012.753, 608.247 2011.667, 607 2011 C 605.753 2010.333, 605.075 2009.247, 605.391 2008.423 C 605.934 2007.009, 604.462 2006.513, 600.692 2006.840 C 599.697 2006.926, 599.064 2006.660, 599.283 2006.249 C 600.249 2004.438, 596.374 2002.444, 593.165 2003.100 M 1057.250 2138.706 C 1056.013 2138.944, 1054.999 2139.445, 1054.999 2139.820 C 1054.998 2140.194, 1052.411 2140.525, 1049.249 2140.555 C 1044.590 2140.599, 1038.054 2142.478, 1035.153 2144.607 C 1033.524 2145.802, 1038.687 2150.813, 1041.058 2150.338 C 1042.543 2150.041, 1044.064 2150.294, 1044.438 2150.899 C 1044.812 2151.505, 1046.104 2152.014, 1047.309 2152.032 C 1048.514 2152.049, 1050.338 2152.698, 1051.362 2153.474 C 1052.386 2154.249, 1055.761 2155.161, 1058.862 2155.500 C 1061.963 2155.838, 1067.731 2156.596, 1071.680 2157.183 C 1075.629 2157.771, 1080.063 2157.950, 1081.533 2157.581 L 1084.206 2156.910 1081.353 2154.428 C 1079.325 2152.663, 1077.777 2152.107, 1076 2152.503 C 1074.299 2152.883, 1073.937 2152.769, 1074.868 2152.148 C 1075.978 2151.408, 1075.837 2150.837, 1074.118 2149.118 C 1072.953 2147.953, 1072 2146.325, 1072 2145.500 C 1072 2144.667, 1071.111 2144, 1070 2144 C 1068.889 2144, 1068 2143.333, 1068 2142.500 C 1068 2141.667, 1067.111 2141, 1066 2141 C 1061.591 2141, 1064.349 2139.080, 1069.250 2138.737 C 1073.151 2138.464, 1072.572 2138.357, 1067 2138.321 C 1062.875 2138.294, 1058.487 2138.467, 1057.250 2138.706 M 590.865 2153.667 C 589.965 2153.907, 588.953 2155.486, 588.615 2157.176 C 587.739 2161.555, 587.821 2162, 589.500 2162 C 590.325 2162, 591 2162.450, 591 2163 C 591 2163.550, 591.648 2164, 592.441 2164 C 595.029 2164, 594.877 2165.496, 592.273 2165.652 C 589.225 2165.836, 587.751 2167.776, 588.591 2170.500 C 588.930 2171.600, 589.309 2173.545, 589.434 2174.823 C 589.561 2176.134, 590.713 2177.669, 592.080 2178.348 C 593.449 2179.028, 594.645 2180.624, 594.835 2182.025 C 595.019 2183.386, 595.581 2184.928, 596.085 2185.450 C 598.751 2188.217, 594.857 2189.786, 591.741 2187.200 C 589.769 2185.563, 589 2186.676, 589 2191.167 C 589 2193.885, 589.431 2195, 590.481 2195 C 591.295 2195, 592.222 2196.238, 592.541 2197.750 C 593.768 2203.583, 596.362 2205.679, 597.372 2201.654 C 598.013 2199.101, 600.978 2197.178, 601.030 2199.281 C 601.047 2199.952, 601.509 2199.731, 602.057 2198.792 C 602.605 2197.852, 603.670 2197.320, 604.425 2197.610 C 605.180 2197.899, 606.108 2197.634, 606.488 2197.020 C 606.993 2196.203, 607.553 2196.214, 608.576 2197.063 C 611.123 2199.177, 612.603 2197.527, 612.176 2193.049 C 611.850 2189.635, 611.478 2188.999, 610.139 2189.571 C 606.546 2191.105, 599 2189.067, 599 2186.563 C 599 2185.959, 597.825 2183.735, 596.389 2181.622 C 594.203 2178.405, 593.956 2177.392, 594.868 2175.390 C 596.110 2172.664, 597.787 2172.283, 598.650 2174.530 C 599.021 2175.497, 599.931 2175.839, 601.123 2175.461 C 602.329 2175.078, 603.227 2175.429, 603.612 2176.431 C 604.262 2178.125, 606 2178.591, 606 2177.071 C 606 2176.561, 605.329 2175.472, 604.509 2174.652 C 603.521 2173.664, 603.219 2172.155, 603.614 2170.181 C 604.095 2167.776, 603.821 2167.078, 602.195 2166.562 C 599.782 2165.796, 597.963 2163.759, 597.495 2161.300 C 597.307 2160.310, 597.081 2159.500, 596.993 2159.500 C 596.905 2159.500, 596.718 2158.446, 596.577 2157.158 C 596.350 2155.081, 594.372 2152.855, 593 2153.131 C 592.725 2153.187, 591.764 2153.428, 590.865 2153.667" stroke="none" fill="black" fill-rule="evenodd"/>
</svg>