<svg xmlns="http://www.w3.org/2000/svg" width="1037" height="1280" viewBox="0 0 1037 1280" version="1.1">
	<path d="M 113.249 614.653 L 113.500 1061.305 123.500 1065.547 C 134.715 1070.303, 136.992 1071.217, 142 1072.974 C 148.216 1075.153, 160.472 1080.319, 161.450 1081.172 C 161.973 1081.627, 163.029 1082, 163.799 1082 C 164.568 1082, 166.616 1082.628, 168.349 1083.395 C 174.182 1085.977, 190.437 1092.272, 198.500 1095.071 C 202.900 1096.598, 211.675 1099.722, 218 1102.013 C 224.325 1104.304, 231.750 1106.990, 234.500 1107.982 C 237.250 1108.974, 244.900 1111.900, 251.500 1114.484 C 258.100 1117.068, 272.275 1122.521, 283 1126.603 C 293.725 1130.685, 303.400 1134.425, 304.500 1134.915 C 307.707 1136.342, 317.043 1139.703, 323 1141.576 C 326.025 1142.526, 333.450 1145.307, 339.500 1147.755 C 345.550 1150.202, 351.625 1152.572, 353 1153.020 C 354.375 1153.468, 361.125 1155.923, 368 1158.475 C 374.875 1161.028, 385.225 1164.730, 391 1166.702 C 396.775 1168.675, 404.650 1171.686, 408.500 1173.394 L 415.500 1176.500 642.750 1176.759 L 870 1177.017 870 1145.509 C 870 1115.343, 869.920 1114, 868.121 1114 C 864.749 1114, 844.782 1117.752, 832 1120.787 C 813.304 1125.227, 812.675 1125.288, 804.702 1123.435 C 795.993 1121.411, 782.177 1117.875, 772 1115.066 C 767.875 1113.928, 752.575 1110.044, 738 1106.435 C 707.252 1098.823, 700.663 1097.003, 701.352 1096.315 C 702.176 1095.491, 736.465 1090.410, 748.191 1089.374 C 759.011 1088.419, 760.707 1088.540, 770 1090.934 C 785.784 1095, 834.599 1105.753, 845.087 1107.474 C 846.964 1107.782, 849.625 1108.244, 851 1108.500 C 852.375 1108.756, 855.075 1109.223, 857 1109.538 C 858.925 1109.852, 862.300 1110.524, 864.500 1111.030 C 866.700 1111.537, 868.837 1111.962, 869.250 1111.976 C 869.663 1111.989, 870 1109.300, 870 1106 L 870 1100 866.546 1100 C 864.646 1100, 856.897 1098.803, 849.327 1097.340 C 835.124 1094.595, 834.071 1093.506, 845.231 1093.103 C 848.404 1092.989, 853.587 1092.471, 856.750 1091.953 C 859.912 1091.435, 864.188 1091.009, 866.250 1091.006 L 870 1091 870 629.500 L 870 168 491.499 168 L 112.998 168 113.249 614.653 M 543.852 701.482 C 543.133 702.200, 509.783 708.690, 500.020 710.011 C 495.355 710.642, 490.855 711.592, 490.020 712.123 C 488.918 712.822, 489.325 712.948, 491.500 712.581 C 500.346 711.090, 504.449 710.818, 503.500 711.785 C 502.382 712.925, 493.678 716, 491.572 716 C 489.807 716, 489 718.223, 489 723.082 C 489 727.819, 488.346 727.750, 507 724.988 C 553.150 718.155, 550.127 719.282, 549.907 709.004 C 549.741 701.213, 547.234 698.099, 543.852 701.482 M 540 723.224 C 508.036 727.875, 494.806 730.003, 493.747 730.667 C 493.061 731.096, 491.825 731.459, 491 731.474 C 488.847 731.512, 487.716 751.629, 486.368 813.898 L 485.688 845.296 508.594 844.530 C 521.192 844.109, 536 843.480, 541.500 843.132 L 551.500 842.500 551.263 820 C 550.435 741.309, 549.818 721.996, 548.133 722.139 C 547.235 722.216, 543.575 722.704, 540 723.224 M 480.250 733.097 C 478.466 733.762, 477.997 734.719, 477.983 737.718 C 477.927 750.376, 476.738 778.888, 475.940 786.711 C 475.423 791.776, 475 806.964, 475 820.461 L 475 845 479.517 845 L 484.034 845 483.869 795.750 C 483.669 736.282, 483.417 731.918, 480.250 733.097 M 554.808 780.676 C 554.004 793.281, 555.532 841.346, 556.750 841.751 C 558.739 842.412, 558.550 778.701, 556.558 777.048 C 555.341 776.038, 555.068 776.604, 554.808 780.676 M 785.582 788.647 C 785.258 789.491, 785.253 790.601, 785.571 791.115 C 785.889 791.629, 785.568 791.926, 784.858 791.775 C 783.976 791.587, 783.336 793.399, 782.838 797.500 C 781.932 804.954, 782.697 810, 784.734 810 C 785.914 810, 785.991 809.694, 785.086 808.604 C 784.127 807.449, 784.754 807.134, 788.714 806.782 C 794.419 806.275, 795.731 806.627, 796.362 808.835 C 796.624 809.751, 796.799 805.144, 796.751 798.599 C 796.666 787.122, 796.601 786.774, 794.921 788.849 C 792.830 791.432, 792 791.570, 792 789.333 C 792 788.417, 791.729 787.938, 791.397 788.269 C 791.066 788.601, 789.754 788.477, 788.482 787.993 C 786.748 787.334, 786.023 787.498, 785.582 788.647 M 772.750 796.394 C 771.788 797.124, 771 798.233, 771 798.860 C 771 799.487, 770.523 800, 769.941 800 C 769.359 800, 769.179 800.480, 769.542 801.067 C 769.905 801.655, 769.257 802.381, 768.101 802.684 C 766.489 803.105, 766 804.020, 766 806.617 C 766 810.095, 767.340 811.163, 768.362 808.500 C 768.759 807.465, 770.375 807, 773.576 807 C 777.288 807, 778.099 807.300, 777.638 808.500 C 777.317 809.337, 777.612 810, 778.304 810 C 780.521 810, 780.525 797.407, 778.309 796.631 C 777.314 796.283, 776.050 795.789, 775.500 795.533 C 774.950 795.277, 773.712 795.665, 772.750 796.394 M 333.222 845.842 C 332.519 846.288, 325.994 846.497, 318.722 846.306 C 301.538 845.856, 296.696 847.309, 293.084 854 C 291.010 857.841, 290.936 858.261, 292.577 856.870 C 296.851 853.245, 313.630 853.745, 316.435 857.580 C 317.642 859.231, 318.140 859.274, 321.857 858.047 C 331.688 854.803, 335.133 858.680, 332.668 870.211 C 331.693 874.770, 330.035 883.112, 328.984 888.749 C 326.126 904.066, 327.081 903.238, 313.185 902.454 L 301.500 901.795 299.838 907.148 C 298.234 912.314, 298.244 912.564, 300.142 914.339 C 302.928 916.946, 301.952 918.500, 297.526 918.500 C 292.814 918.500, 290.770 916.087, 293.322 913.535 C 295.419 911.438, 295.468 910.607, 293.448 911.382 C 292.552 911.725, 292.156 911.556, 292.511 910.981 C 292.850 910.434, 292.423 909.716, 291.563 909.386 C 289.616 908.639, 289.602 906.110, 291.532 903.559 C 293.708 900.681, 293.410 900.243, 288.750 899.475 C 282.969 898.521, 282.021 897.508, 281.872 892.128 C 281.779 888.786, 281.373 890.280, 280.410 897.500 C 279.676 903, 278.376 911.100, 277.520 915.500 C 275.116 927.853, 273.459 944.861, 274.553 945.939 C 275.353 946.729, 294.037 951, 296.689 951 C 297.170 951, 297.665 949.782, 297.788 948.294 C 297.911 946.806, 298.496 945.118, 299.088 944.544 C 299.852 943.803, 300.070 944.651, 299.838 947.470 L 299.512 951.441 307.006 952.676 C 311.128 953.355, 315.910 954.167, 317.634 954.479 C 321.298 955.143, 321.493 954.817, 323.580 944.500 C 326.736 928.898, 328.977 913.816, 329.969 901.500 C 331.437 883.279, 335.469 865.536, 341.500 850.750 C 341.986 849.559, 341.750 849, 340.762 849 C 339.963 849, 338.495 848.100, 337.500 847 C 335.492 844.781, 335.073 844.667, 333.222 845.842 M 511 847.233 C 493.105 848.062, 486.718 849.052, 488.400 850.733 C 488.646 850.979, 488.207 852.997, 487.424 855.216 C 483.233 867.095, 484.272 867.851, 503.500 866.900 C 511.750 866.493, 523.950 866.123, 530.610 866.080 C 537.271 866.036, 544.825 865.712, 547.396 865.359 L 552.071 864.718 551.786 855.609 L 551.500 846.500 541.500 846.391 C 536 846.331, 522.275 846.710, 511 847.233 M 477.662 849.750 C 477.412 850.163, 476.608 853.087, 475.876 856.250 C 474.366 862.773, 474.672 862.655, 466.161 859.987 C 458.815 857.684, 454.421 857.367, 460.791 859.599 C 464.570 860.924, 476.873 864.368, 482.500 865.677 C 484.399 866.119, 484.484 865.710, 484.177 857.571 L 483.853 849 480.986 849 C 479.408 849, 477.913 849.337, 477.662 849.750 M 277.242 925.978 C 276.230 927.603, 276.230 928.003, 277.242 928.015 C 278.164 928.027, 278.132 928.263, 277.122 928.904 C 276.364 929.384, 276.071 930.306, 276.471 930.953 C 277.002 931.813, 277.695 931.681, 279.038 930.466 C 280.658 928.999, 281.123 928.972, 282.932 930.240 C 285.173 931.810, 284.708 933, 281.852 933 C 279.845 933, 278.387 936.960, 279.411 939.629 C 279.960 941.059, 280.272 940.992, 281.919 939.093 L 283.800 936.924 286.650 939.393 C 290.559 942.778, 288.839 944.710, 283.190 943.276 C 280.789 942.667, 278.621 942.632, 277.628 943.188 C 275.498 944.380, 275.555 945.539, 277.750 945.698 C 279.991 945.860, 285.704 946.786, 289.291 947.568 C 291.830 948.122, 292.029 947.964, 291.492 945.825 C 290.832 943.196, 293.326 932.517, 295.099 930.381 C 296.970 928.126, 294.488 926.246, 288.700 925.534 C 285.840 925.182, 282.375 924.683, 281 924.425 C 279.234 924.093, 278.130 924.549, 277.242 925.978 M 113 1122 L 113 1177 256.667 1177 C 335.683 1177, 400.146 1176.814, 399.917 1176.586 C 399.036 1175.710, 372.268 1166, 370.735 1166 C 369.846 1166, 368.871 1165.600, 368.568 1165.111 C 368.266 1164.622, 366.777 1163.912, 365.259 1163.534 C 363.742 1163.155, 361.150 1162.253, 359.500 1161.528 C 357.850 1160.804, 351.325 1158.321, 345 1156.011 C 333.305 1151.739, 331.506 1151.060, 301.400 1139.542 C 291.994 1135.944, 284.003 1133, 283.640 1133 C 282.725 1133, 251.785 1120.875, 238.874 1115.458 C 233.029 1113.005, 226.279 1110.306, 223.874 1109.460 C 221.468 1108.614, 216.125 1106.615, 212 1105.017 C 207.875 1103.420, 199.325 1100.252, 193 1097.977 C 179.478 1093.115, 160.171 1085.636, 154.500 1083.063 C 145.680 1079.061, 115.131 1067, 113.816 1067 C 113.367 1067, 113 1091.750, 113 1122" stroke="none" fill="black" fill-rule="evenodd"/>
</svg>