<svg xmlns="http://www.w3.org/2000/svg" width="1280" height="959" viewBox="0 0 1280 959" version="1.1">
	<path d="M 327.565 60.896 C 327.134 61.592, 326.515 694.141, 326.820 821.750 L 327 897 640.807 897 L 954.614 897 954.557 478.750 L 954.500 60.500 641.235 60.369 C 468.940 60.297, 327.788 60.534, 327.565 60.896 M 609.517 407.915 C 608.093 408.471, 609.622 408.999, 614.951 409.790 C 619.030 410.396, 622.696 410.688, 623.098 410.439 C 623.500 410.191, 623.980 410.337, 624.165 410.765 C 624.349 411.192, 636.200 413.472, 650.500 415.831 C 664.800 418.190, 677.400 420.506, 678.500 420.979 C 679.600 421.452, 685.225 422.585, 691 423.496 C 706.530 425.948, 708.183 426.105, 707.540 425.065 C 707.221 424.549, 706.182 424.086, 705.230 424.035 C 699.864 423.749, 698 423.424, 698 422.775 C 698 422.376, 696.538 422.302, 694.750 422.609 C 692.202 423.048, 691.824 422.926, 693 422.047 C 694.156 421.183, 693.584 421.066, 690.500 421.538 C 687.890 421.937, 686.964 421.824, 687.835 421.214 C 688.873 420.485, 688.706 420.156, 687.085 419.732 C 685.863 419.413, 684.994 419.666, 684.985 420.344 C 684.975 421.057, 684.636 420.973, 684.098 420.125 C 683.612 419.357, 681.410 418.702, 679.114 418.642 C 676.851 418.582, 675 418.279, 675 417.967 C 675 417.007, 658.338 414.933, 656.450 415.658 C 655.231 416.125, 654.900 415.972, 655.395 415.170 C 655.910 414.336, 654.681 414, 651.118 414 C 648.368 414, 645.813 413.507, 645.441 412.904 C 645.019 412.222, 643.015 412.026, 640.132 412.385 C 636.671 412.815, 636.006 412.709, 637.500 411.962 C 639.085 411.171, 638.717 411.059, 635.728 411.422 C 633.151 411.736, 632.170 411.534, 632.633 410.785 C 633.100 410.029, 632.191 409.870, 629.715 410.271 C 627.641 410.608, 625.975 410.426, 625.780 409.841 C 625.594 409.283, 623.318 408.794, 620.721 408.755 C 618.124 408.715, 616 408.305, 616 407.842 C 616 406.814, 612.226 406.857, 609.517 407.915 M 607.595 412.154 C 607.883 412.619, 607.079 413.036, 605.809 413.079 C 603.522 413.157, 603.524 413.166, 606 414.058 C 609.983 415.493, 625.995 417.801, 625.411 416.857 C 625.120 416.386, 625.546 416, 626.358 416 C 627.169 416, 628.001 416.503, 628.206 417.117 C 628.410 417.731, 631.710 418.872, 635.539 419.652 C 644.155 421.407, 685.895 428.442, 694 429.505 C 695.925 429.758, 701.325 430.647, 706 431.481 C 716.097 433.282, 720 433.397, 720 431.893 C 720 431.284, 719.339 431.040, 718.532 431.349 C 717.725 431.659, 716.767 431.433, 716.405 430.846 C 716.030 430.240, 714.281 430.017, 712.350 430.331 C 710.483 430.634, 709.192 430.499, 709.480 430.032 C 709.769 429.564, 706.967 428.685, 703.253 428.078 C 696.606 426.992, 682.987 424.611, 643.500 417.635 C 610.326 411.774, 607.051 411.274, 607.595 412.154 M 579.727 421.885 C 575.869 428.417, 578.083 437.280, 583.324 436.278 C 585.305 435.900, 586.032 436.187, 586.125 437.383 C 586.399 440.933, 586.541 441.347, 587.600 441.700 C 588.205 441.902, 589.272 441.377, 589.972 440.533 C 590.672 439.690, 591.865 439, 592.622 439 C 594.494 439, 594.354 437.980, 592.274 436.459 C 590.973 435.507, 590.454 433.329, 590.165 427.598 C 589.783 420.028, 589.771 420, 586.972 420 C 585.428 420, 583.554 419.766, 582.809 419.480 C 582.023 419.178, 580.730 420.187, 579.727 421.885 M 631.015 423.125 C 631.024 423.881, 631.361 425.003, 631.765 425.617 C 632.560 426.825, 644.725 428.632, 649.317 428.224 C 650.936 428.081, 651.879 428.387, 651.535 428.944 C 651.181 429.516, 652.173 429.757, 653.955 429.531 C 655.615 429.321, 657.220 429.546, 657.520 430.032 C 657.820 430.517, 659.288 430.897, 660.783 430.876 C 662.277 430.855, 665.638 431.158, 668.250 431.549 C 672.541 432.191, 673 432.071, 673 430.303 C 673 428.180, 656.915 424.756, 656.254 426.738 C 655.837 427.988, 649.732 426.985, 648.500 425.465 C 647.950 424.785, 645.074 423.929, 642.110 423.562 C 639.145 423.194, 635.433 422.637, 633.860 422.322 C 631.819 421.914, 631.004 422.144, 631.015 423.125 M 684 431.901 C 684 433.861, 684.477 434.046, 693.201 435.469 L 696.902 436.072 697.262 441.786 L 697.622 447.500 697.811 441.817 L 698 436.134 701.750 436.545 C 703.813 436.771, 707.300 437.405, 709.500 437.954 C 711.700 438.503, 715.300 438.970, 717.500 438.991 C 721.874 439.034, 723.400 439.712, 724.271 442 C 724.585 442.825, 724.878 442.046, 724.921 440.269 C 725.013 436.506, 726.806 437.101, 704.500 433.492 C 695.700 432.068, 687.487 430.691, 686.250 430.432 C 684.528 430.072, 684 430.417, 684 431.901" stroke="none" fill="black" fill-rule="evenodd"/>
</svg>