<svg xmlns="http://www.w3.org/2000/svg" width="1280" height="1043" viewBox="0 0 1280 1043" version="1.1">
	<path d="M 160 521.995 L 160 884 640.978 884 L 1121.955 884 1121.728 521.997 L 1121.500 159.993 880.593 160.004 C 690.134 160.013, 639.371 160.275, 638.181 161.258 C 636.985 162.244, 636.589 162.245, 636.258 161.262 C 635.928 160.282, 586.156 160.020, 397.921 160.006 L 160 159.989 160 521.995 M 655.546 181.250 C 651.452 186.100, 650.381 188.799, 651.963 190.277 C 653.022 191.267, 653.169 191.071, 652.730 189.250 C 652.061 186.475, 654.582 186.107, 655.453 188.853 C 656.083 190.836, 661.418 196, 662.836 196 C 664.875 196, 666.768 192.472, 665.921 190.250 C 664.900 187.569, 662.511 187.301, 661.469 189.750 C 660.830 191.253, 660.627 191.148, 660.028 189 C 659.549 187.281, 659.924 185.643, 661.229 183.757 C 662.273 182.248, 662.870 180.599, 662.557 180.092 C 662.244 179.585, 662.553 178.943, 663.244 178.664 C 663.935 178.386, 663.103 178.122, 661.395 178.079 C 659.066 178.020, 657.604 178.813, 655.546 181.250 M 748.736 246.598 C 748.407 246.927, 748.363 247.782, 748.638 248.498 C 748.913 249.215, 748.544 249.775, 747.819 249.743 C 747.093 249.711, 745.044 249.756, 743.264 249.842 L 740.027 250 742.855 255.235 C 745.258 259.684, 746.421 260.750, 750.592 262.328 C 758.171 265.197, 759.734 265.354, 763.397 263.616 C 765.270 262.727, 767.244 262, 767.785 262 C 768.804 262, 770.060 257.393, 769.259 256.592 C 768.545 255.879, 766 257.108, 766 258.166 C 766 258.690, 766.450 258.840, 767 258.500 C 767.550 258.160, 768 258.378, 768 258.985 C 768 260.552, 764.913 259.819, 762.793 257.750 C 761.807 256.788, 759.902 256, 758.559 256 C 757.216 256, 755.821 255.519, 755.458 254.932 C 755.095 254.344, 754.168 254.105, 753.399 254.400 C 752.488 254.750, 752 254.240, 752 252.937 C 752 251.837, 752.675 250.678, 753.500 250.362 C 754.325 250.045, 755 249.314, 755 248.738 C 755 248.162, 754.100 248.505, 753 249.500 C 750.993 251.317, 750.617 250.997, 750.948 247.750 C 751.122 246.037, 749.922 245.412, 748.736 246.598 M 629.016 268.403 C 627.650 270.245, 624.725 272.728, 622.516 273.921 C 614.632 278.180, 612.729 280.311, 614.107 283.336 C 615.685 286.798, 614.700 287.689, 611.566 285.635 C 607.938 283.258, 607.734 283.557, 609.980 287.960 C 612.138 292.191, 612.746 297.579, 610.938 296.462 C 610.354 296.101, 609.408 294.612, 608.835 293.153 L 607.794 290.500 606.929 292.750 C 605.748 295.823, 604.208 295.579, 603.777 292.250 C 603.581 290.738, 603.609 294.900, 603.839 301.500 C 604.068 308.100, 604.311 313.559, 604.378 313.631 C 605.042 314.346, 659.556 316.290, 660.822 315.643 C 661.745 315.172, 663.500 313.606, 664.721 312.163 C 666.853 309.645, 666.998 309.615, 668.310 311.410 C 670.043 313.780, 671.401 311.257, 670.175 307.944 L 669.414 305.886 667.552 307.943 C 665.360 310.365, 664 310.586, 664 308.520 C 664 306.721, 658.840 307.058, 656.488 309.010 C 654.219 310.893, 653.491 309.426, 655.313 306.646 C 657.285 303.636, 665.496 299.500, 669.500 299.500 C 671.864 299.500, 672.433 299.109, 672.184 297.655 C 671.891 295.939, 672.067 295.914, 674.684 297.292 C 676.233 298.107, 678.782 299.286, 680.348 299.911 C 682.229 300.661, 683.004 301.548, 682.629 302.523 C 681.888 304.454, 682.524 304.388, 684.989 302.278 C 687.350 300.256, 687.944 290.484, 685.750 289.747 C 684.772 289.418, 684.804 288.756, 685.901 286.698 C 687.071 284.501, 687.082 283.803, 685.967 282.461 C 684.771 281.019, 684.476 281.145, 683.113 283.676 C 681.936 285.864, 681.512 286.118, 681.234 284.805 C 681.022 283.807, 680.284 283.337, 679.437 283.662 C 678.605 283.982, 678 283.618, 678 282.798 C 678 282.019, 677.426 280.597, 676.724 279.637 C 675.052 277.351, 672.038 278.428, 672.727 281.065 C 673.009 282.144, 672.728 283, 672.092 283 C 671.464 283, 670.491 284.209, 669.929 285.687 L 668.907 288.375 667.459 285.583 C 666.662 284.048, 666.254 282.398, 666.552 281.917 C 666.849 281.435, 666.551 280.030, 665.889 278.793 C 664.725 276.617, 664.663 276.609, 663.965 278.522 C 663.301 280.344, 663.141 280.280, 661.944 277.711 C 661.188 276.091, 660.090 275.135, 659.322 275.430 C 658.588 275.712, 658 275.270, 658 274.437 C 658 271.836, 660.972 271.625, 663.547 274.044 C 666.193 276.530, 668.126 276.062, 665.965 273.458 C 663.856 270.917, 659.007 268.676, 658.968 270.224 C 658.948 271.046, 658.473 270.890, 657.633 269.785 C 656.674 268.521, 656.036 268.364, 655.213 269.187 C 654.390 270.010, 653.774 269.598, 652.874 267.624 C 650.967 263.437, 650.119 266.529, 651.786 271.593 C 653.525 276.873, 652.975 277.869, 649.559 275.631 C 647.120 274.032, 647.017 274.067, 645.495 277.011 L 643.933 280.031 641.326 277.265 C 639.883 275.735, 638.543 274.995, 638.324 275.608 C 636.994 279.333, 635.293 280.416, 634.145 278.270 C 633.383 276.848, 632.383 276.348, 631.013 276.707 C 629.374 277.135, 629 276.747, 629 274.617 C 629 272.553, 629.486 272, 631.300 272 C 633.555 272, 636 270.352, 636 268.831 C 636 268.409, 635.325 268.322, 634.500 268.638 C 633.459 269.038, 633 268.569, 633 267.107 C 633 264.158, 631.900 264.516, 629.016 268.403 M 718.015 276.750 C 717.999 281.303, 716.629 282.445, 715.617 278.750 C 715.145 277.029, 714.795 276.818, 714.127 277.853 C 713.434 278.929, 712.800 278.963, 711.042 278.022 C 708.471 276.646, 706.686 277.685, 709.201 279.093 C 710.457 279.795, 710.857 281.304, 710.772 285.018 C 710.667 289.626, 710.532 289.886, 708.973 288.475 C 707.236 286.904, 703.723 289.056, 705.357 290.691 C 705.711 291.044, 706 290.733, 706 290 C 706 288.719, 707.414 289.464, 707.582 290.833 C 707.920 293.597, 709.453 297.154, 710.578 297.784 C 711.389 298.237, 711.705 299.413, 711.365 300.713 C 710.800 302.873, 710.785 302.871, 708.389 300.285 C 706.037 297.748, 703.764 297.698, 705.681 300.226 C 708.068 303.372, 707.319 310, 704.576 310 C 701.633 310, 701.383 309.197, 703.468 306.441 C 705.368 303.930, 705.379 302.917, 703.500 303.638 C 702.565 303.997, 702 303.631, 702 302.666 C 702 301.815, 701.480 300.797, 700.844 300.404 C 700.014 299.891, 699.872 300.609, 700.340 302.950 C 700.862 305.562, 700.702 306.100, 699.533 305.651 C 697.945 305.042, 696.242 310.964, 697.444 312.910 C 699.333 315.965, 709.410 313.606, 710.470 309.860 L 711.500 306.221 713.250 308.548 C 714.212 309.829, 715 311.531, 715 312.331 C 715 314.475, 716.381 314.733, 728.945 314.932 C 735.232 315.033, 740.714 315.323, 741.127 315.579 C 742.890 316.668, 750.040 314.753, 748.980 313.476 C 748.403 312.781, 747.659 309.914, 747.326 307.106 C 746.930 303.763, 746.252 302, 745.361 302 C 744.612 302, 744 301.325, 744 300.500 C 744 299.675, 744.450 299, 745 299 C 746.683 299, 746.110 296.256, 744.280 295.554 C 743.335 295.191, 742.869 295.202, 743.245 295.579 C 744.883 297.217, 741.921 300.236, 740.170 298.713 C 739.252 297.915, 737.150 296.747, 735.500 296.119 C 733.850 295.492, 733.482 295.158, 734.683 295.378 C 736.604 295.730, 736.759 295.496, 735.976 293.437 C 735.268 291.574, 735.383 291.210, 736.543 291.655 C 737.470 292.011, 738 291.590, 738 290.500 C 738 289.384, 738.526 288.988, 739.506 289.364 C 740.706 289.824, 740.928 289.264, 740.598 286.605 C 740.076 282.399, 737.890 278.819, 736.252 279.488 C 735.563 279.770, 734.291 280.286, 733.425 280.636 C 732.412 281.045, 731.919 280.777, 732.043 279.886 C 732.659 275.474, 732.039 274.681, 730 277.273 C 726.688 281.484, 728.489 286.889, 732.676 285.303 C 734.402 284.649, 734.408 284.705, 732.779 286.348 C 730.506 288.642, 726.096 288.109, 723.250 285.198 C 722.013 283.933, 721 283.370, 721 283.948 C 721 284.527, 720.550 285, 720 285 C 718.349 285, 718.868 280.717, 721.002 276.735 C 722.103 274.681, 722.591 273, 722.085 273 C 721.580 273, 720.938 273.563, 720.659 274.250 C 720.278 275.191, 719.890 275.129, 719.091 274 C 718.274 272.844, 718.027 273.476, 718.015 276.750 M 779.072 431.750 C 779.194 443.712, 779.703 454.304, 780.202 455.287 C 781.140 457.133, 799.863 457.588, 799.250 455.750 C 799.112 455.337, 799 448.448, 799 440.441 C 799 432.434, 798.633 426.109, 798.184 426.386 C 795.583 427.994, 786.455 422.111, 788.545 420.175 C 788.946 419.804, 789.475 420.063, 789.720 420.750 C 789.966 421.438, 790.917 422.003, 791.833 422.006 C 792.750 422.010, 794.737 422.658, 796.250 423.447 L 799 424.881 799 418.080 L 799 411.279 793.750 410.648 C 790.862 410.301, 786.329 410.013, 783.675 410.009 L 778.850 410 779.072 431.750 M 780.986 440.250 C 780.979 440.938, 780.722 442.435, 780.415 443.577 C 779.883 445.558, 780.255 445.658, 788.429 445.728 C 794.262 445.779, 797.004 445.435, 797.014 444.651 C 797.021 444.018, 797.268 442.600, 797.562 441.500 C 798.016 439.804, 797.559 439.462, 794.549 439.251 C 792.011 439.072, 791 439.411, 791 440.442 C 791 441.234, 790.592 442.134, 790.093 442.442 C 789.595 442.751, 789.422 442.102, 789.710 441.001 C 790.132 439.386, 789.742 439, 787.686 439 C 785.840 439, 785.020 439.619, 784.706 441.250 L 784.272 443.500 784.136 441.250 C 783.996 438.931, 781.011 437.983, 780.986 440.250 M 636.559 547.905 C 636.159 548.552, 635.028 548.826, 634.045 548.514 C 632.460 548.011, 632.243 548.704, 632.113 554.656 C 631.975 561.025, 631.568 562.901, 630.546 561.879 C 630.296 561.629, 629.977 559.732, 629.838 557.662 C 629.575 553.760, 627.070 550.326, 626.254 552.750 C 626.023 553.438, 625.244 554, 624.524 554 C 623.803 554, 622.936 554.726, 622.595 555.613 C 622.129 556.829, 621.649 556.954, 620.646 556.121 C 618.562 554.391, 617.939 555.977, 619.667 558.615 C 621.079 560.770, 621.080 561, 619.674 561 C 617.689 561, 616.659 562.640, 617.644 564.234 C 618.064 564.912, 618.576 569.522, 618.783 574.477 C 618.990 579.433, 619.509 583.941, 619.936 584.494 C 621.377 586.364, 621.923 590.388, 620.901 591.619 C 620.141 592.536, 620.402 592.708, 621.943 592.305 C 623.393 591.926, 624 592.244, 624 593.383 C 624 594.273, 624.402 595, 624.893 595 C 626.002 595, 627.257 598.076, 626.469 598.864 C 626.151 599.182, 625.486 598.786, 624.990 597.984 C 624.297 596.863, 624.127 597.034, 624.254 598.720 C 624.345 599.927, 624.603 600.730, 624.829 600.505 C 625.054 600.280, 625.892 600.749, 626.690 601.548 C 630.012 604.869, 630.380 603.083, 630.001 585.508 C 629.838 577.965, 630.878 576.991, 631.465 584.136 C 631.662 586.536, 632.167 592.550, 632.588 597.500 C 633.009 602.450, 633.274 606.837, 633.177 607.250 C 633.080 607.663, 633.675 608, 634.500 608 C 635.325 608, 636 608.648, 636 609.441 C 636 610.234, 636.445 611.157, 636.989 611.493 C 637.536 611.831, 637.734 611.469, 637.431 610.681 C 637.131 609.898, 637.586 608.989, 638.443 608.660 C 639.299 608.332, 640 608.551, 640 609.148 C 640 609.745, 640.900 609.998, 641.999 609.710 C 644.757 608.989, 648.983 611.128, 648.992 613.250 C 648.996 614.212, 649.450 615, 650 615 C 650.588 615, 651 611.500, 651 606.500 C 651 601.500, 651.412 598, 652 598 C 652.550 598, 653 600.495, 653 603.545 C 653 610.144, 655.903 614, 660.871 614 C 662.500 614, 664.060 614.563, 664.338 615.250 C 664.615 615.938, 664.878 615.487, 664.921 614.250 C 665.006 611.829, 666.513 611.205, 667.338 613.250 C 667.685 614.112, 667.878 614.034, 667.956 613 C 668.030 612.041, 668.556 612.376, 669.417 613.930 C 670.715 616.273, 670.788 616.174, 671.480 611.145 C 672.351 604.812, 671.102 581, 669.899 581 C 669.425 581, 668.760 579.890, 668.419 578.533 C 668.079 577.177, 667.282 576.164, 666.650 576.283 C 666.017 576.403, 665.500 575.518, 665.500 574.319 C 665.500 573.119, 664.038 570.829, 662.250 569.230 C 660.462 567.630, 659 565.889, 659 565.360 C 659 563.344, 656.445 559.015, 655.250 559.008 C 654.563 559.004, 653.964 558.212, 653.921 557.250 C 653.871 556.150, 653.651 555.977, 653.327 556.784 C 653.043 557.490, 653.216 558.615, 653.711 559.284 C 654.277 560.049, 653.994 561.695, 652.947 563.721 L 651.282 566.941 650.611 559.721 C 649.779 550.770, 646.673 546.715, 642.752 549.461 C 640.683 550.910, 640.410 550.869, 638.905 548.875 C 637.779 547.382, 637.065 547.086, 636.559 547.905 M 675.157 594.660 C 673.825 596.103, 673.842 597.362, 675.374 610.937 C 675.984 616.337, 677.750 618.991, 679.208 616.697 C 679.627 616.039, 679.991 615.950, 680.016 616.500 C 680.042 617.050, 680.674 616.696, 681.419 615.713 C 682.165 614.729, 683.163 613.995, 683.638 614.081 C 686.835 614.659, 688 613.836, 688 611 C 688 607.978, 686.600 606.931, 685.659 609.250 C 685.277 610.194, 684.870 610.133, 684 609 C 683.130 607.867, 682.723 607.806, 682.341 608.750 C 681.609 610.552, 680 610.289, 680 608.367 C 680 607.469, 680.910 605.946, 682.022 604.981 C 684.037 603.234, 684.035 603.226, 681.585 602.611 C 679.514 602.091, 679.175 601.482, 679.432 598.747 C 679.600 596.961, 679.542 596.513, 679.302 597.750 C 679.063 598.987, 678.489 600, 678.027 600 C 677.565 600, 677.413 599.137, 677.689 598.082 C 678.485 595.039, 676.849 592.828, 675.157 594.660" stroke="none" fill="black" fill-rule="evenodd"/>
</svg>