<svg xmlns="http://www.w3.org/2000/svg" width="710" height="473" viewBox="0 0 710 473" version="1.1">
	<path d="M 455.250 42.991 C 405.836 43.325, 380.085 43.843, 380.250 44.500 C 380.387 45.050, 381.175 45.391, 382 45.259 C 387.545 44.366, 395.059 44.286, 395.570 45.114 C 395.961 45.746, 396.639 45.714, 397.472 45.023 C 398.434 44.225, 398.938 44.397, 399.436 45.694 C 399.804 46.654, 399.823 47.156, 399.478 46.811 C 399.132 46.465, 397.421 46.630, 395.675 47.178 C 393.929 47.725, 391.489 48.319, 390.253 48.498 C 382.140 49.673, 379.937 50.304, 380.306 51.347 C 380.531 51.981, 381.567 52.381, 382.608 52.236 C 392.053 50.917, 398.787 50.846, 399.535 52.057 C 400.025 52.849, 399.880 53.540, 399.177 53.774 C 397.289 54.404, 397.815 55.711, 400.250 56.442 C 402.436 57.097, 402.443 57.141, 400.500 57.988 C 399.400 58.467, 399.048 58.891, 399.719 58.930 C 400.389 58.968, 400.696 59.629, 400.400 60.399 C 400.105 61.168, 400.344 62.095, 400.932 62.458 C 401.519 62.821, 402 62.656, 402 62.090 C 402 61.525, 402.713 61.336, 403.584 61.671 C 404.859 62.160, 404.908 62.443, 403.834 63.124 C 402.820 63.766, 402.932 63.973, 404.300 63.985 C 405.674 63.996, 405.882 64.388, 405.180 65.642 C 403.898 67.934, 404.945 71.169, 407.662 73.306 C 408.926 74.300, 410.690 76.776, 411.582 78.807 C 412.474 80.838, 413.668 83.482, 414.235 84.683 C 416.474 89.422, 411.836 91.504, 396.500 92.642 C 392.650 92.928, 388.262 93.630, 386.749 94.203 C 384.708 94.975, 383.604 94.916, 382.468 93.973 C 381.206 92.926, 380.708 93.017, 379.630 94.492 C 378.442 96.117, 378.264 96.130, 377.692 94.640 C 376.801 92.318, 374.260 92.605, 373.463 95.117 C 372.846 97.060, 372.312 97.181, 367.001 96.580 C 359.986 95.786, 352.654 97.649, 353.547 99.997 C 354.005 101.201, 353.868 101.251, 352.859 100.250 C 351.071 98.474, 345.627 98.587, 346.317 100.385 C 347.107 102.442, 335.486 104.648, 333.322 102.852 C 332.053 101.799, 331.565 101.875, 330.532 103.288 C 328.988 105.399, 328 105.482, 328 103.500 C 328 102.675, 327.325 102, 326.500 102 C 325.675 102, 325 102.675, 325 103.500 C 325 105.462, 323.380 105.433, 322.622 103.457 C 322.154 102.237, 321.604 102.142, 319.994 103.003 C 318.875 103.602, 317.549 103.839, 317.048 103.530 C 316.547 103.220, 315.449 103.949, 314.608 105.150 C 313.557 106.650, 312.048 107.329, 309.789 107.318 C 307.980 107.309, 306.211 107.745, 305.857 108.287 C 304.771 109.949, 299.889 108.163, 300.213 106.222 C 300.371 105.275, 300.050 104.516, 299.500 104.535 C 295.759 104.666, 287.281 106.401, 286.231 107.250 C 285.330 107.979, 284.405 107.772, 283.038 106.534 C 279.839 103.639, 282.148 101.544, 288.846 101.263 C 292.816 101.097, 294.872 100.519, 295.750 99.322 C 296.720 98, 297.003 97.941, 297.015 99.059 C 297.026 100.069, 297.253 100.151, 297.773 99.333 C 298.181 98.692, 300.058 97.990, 301.944 97.775 C 306.527 97.252, 307.249 95, 302.833 95.001 C 298.909 95.003, 285.772 97.405, 284.126 98.422 C 282.692 99.308, 279.951 96.689, 280.841 95.283 C 281.203 94.711, 283.908 93.914, 286.852 93.513 C 290.115 93.069, 292.825 92.060, 293.793 90.928 C 294.921 89.612, 295.740 89.369, 296.613 90.093 C 297.541 90.864, 297.705 90.586, 297.279 88.961 C 296.811 87.169, 296.211 86.908, 293.715 87.407 C 291.932 87.764, 290.085 87.498, 289.165 86.754 C 288.222 85.991, 287.882 85.945, 288.297 86.636 C 288.698 87.306, 288.058 88.019, 286.739 88.373 C 283.413 89.264, 282 89.128, 282 87.917 C 282 87.321, 282.541 87.014, 283.202 87.234 C 283.864 87.455, 285.468 86.710, 286.768 85.580 C 288.068 84.450, 289.664 83.476, 290.316 83.415 C 293.573 83.112, 294 82.890, 294 81.500 C 294 80.675, 294.563 79.931, 295.250 79.848 C 295.938 79.764, 296.981 79.644, 297.569 79.581 C 301.066 79.207, 303.932 75.951, 302.976 73.437 C 302.335 71.750, 302.344 71.094, 303.003 71.502 C 304.716 72.561, 304.093 69.934, 302 67.273 C 299.574 64.189, 299.423 62.565, 301.641 63.416 C 303.076 63.967, 303.108 63.830, 301.891 62.331 C 300.952 61.173, 300.909 60.862, 301.758 61.372 C 303.151 62.209, 304.960 58.586, 304.473 55.934 C 304.240 54.666, 305.119 54.405, 309.093 54.561 C 311.792 54.668, 314 54.413, 314 53.994 C 314 53.576, 314.913 52.995, 316.029 52.703 C 317.144 52.411, 317.973 51.796, 317.870 51.336 C 317.520 49.776, 319.204 47.008, 320.149 47.592 C 320.665 47.911, 321.712 47.654, 322.474 47.021 C 323.237 46.388, 325.259 45.830, 326.966 45.782 C 328.674 45.733, 330.307 45.313, 330.595 44.847 C 330.883 44.381, 331.568 44, 332.118 44 C 332.668 44, 332.843 44.445, 332.507 44.989 C 332.157 45.555, 332.558 45.723, 333.448 45.382 C 338.440 43.466, 330.037 43.060, 284.500 43.018 L 234 42.972 234 244.483 L 234 445.994 385 445.959 L 536 445.924 536 426.943 L 536 407.962 533.750 408.436 C 532.513 408.697, 526.330 409.195, 520.010 409.544 C 513.691 409.893, 508.282 410.326, 507.989 410.507 C 507.697 410.687, 501.842 411.115, 494.979 411.456 C 488.115 411.798, 481.375 412.282, 480 412.532 C 478.625 412.782, 471.058 413.206, 463.185 413.474 C 455.311 413.743, 448.526 414.175, 448.107 414.434 C 445.472 416.063, 421 416.098, 421 414.473 C 421 413.151, 420.330 412.871, 417.981 413.216 C 416.195 413.478, 414.512 413.116, 413.859 412.330 C 413.252 411.598, 412.270 411, 411.678 411 C 410.951 411, 410.976 411.376, 411.753 412.153 C 413.800 414.200, 411.357 417, 407.524 417 C 405.651 417, 403.810 417.498, 403.434 418.107 C 402.994 418.820, 402.528 418.859, 402.125 418.217 C 401.719 417.570, 396.947 417.508, 388.500 418.040 C 381.350 418.491, 371 419.127, 365.500 419.453 C 360 419.780, 353.925 420.237, 352 420.469 C 350.075 420.701, 344 421.146, 338.500 421.458 C 333 421.769, 325.350 422.251, 321.500 422.527 C 317.650 422.804, 311.350 423.246, 307.500 423.509 C 303.650 423.772, 297.012 424.258, 292.750 424.589 C 286.187 425.097, 285 424.954, 285 423.654 C 285 422.809, 284.592 421.866, 284.093 421.558 C 283.595 421.249, 283.422 421.898, 283.710 422.999 C 284.141 424.647, 283.728 425.012, 281.367 425.069 C 279.790 425.108, 276.070 425.348, 273.100 425.603 C 268.490 425.998, 267.875 425.856, 268.892 424.630 C 269.821 423.511, 269.799 423.080, 268.792 422.676 C 268.081 422.391, 268.760 422.122, 270.300 422.079 C 273.568 421.987, 272.638 418.521, 269.341 418.508 C 268.305 418.503, 267.402 417.646, 267.226 416.500 C 266.938 414.618, 267.003 414.604, 268.328 416.261 C 269.653 417.917, 269.819 417.921, 271.118 416.319 C 272.089 415.122, 272.122 414.843, 271.229 415.380 C 270.303 415.937, 270.016 415.369, 270.174 413.294 C 270.294 411.726, 270.108 409.984, 269.762 409.424 C 269.415 408.863, 269.545 407.751, 270.051 406.952 C 270.556 406.154, 270.976 406.010, 270.985 406.633 C 270.993 407.257, 271.901 408.002, 273.001 408.290 C 274.353 408.644, 274.768 408.438, 274.280 407.657 C 273.882 407.021, 273.461 405.870, 273.345 405.100 C 273.228 404.330, 272.541 403.325, 271.816 402.865 C 270.875 402.268, 271.110 402.026, 272.643 402.015 C 273.822 402.007, 275.056 402.704, 275.386 403.563 C 275.716 404.423, 276.497 404.811, 277.121 404.425 C 277.901 403.943, 277.740 403.434, 276.607 402.800 C 275.700 402.292, 275.219 401.455, 275.538 400.939 C 275.857 400.422, 275.416 400, 274.559 400 C 273.702 400, 272.968 399.438, 272.930 398.750 C 272.891 398.063, 272.473 398.400, 272 399.500 C 271.299 401.130, 271.128 401.188, 271.070 399.809 C 270.983 397.708, 272.620 396.576, 273.556 398.090 C 274.048 398.886, 274.505 398.818, 275.125 397.857 C 275.758 396.875, 276.207 396.815, 276.750 397.639 C 277.294 398.466, 277.854 398.397, 278.789 397.389 C 279.849 396.248, 279.811 396, 278.575 396 C 276.003 396, 274.675 392.318, 277.025 391.704 C 278.113 391.419, 278.786 391.536, 278.522 391.964 C 277.887 392.991, 281.518 397.148, 282.336 396.331 C 282.684 395.983, 282.188 395.057, 281.234 394.275 C 280.281 393.492, 279.950 393.063, 280.500 393.321 C 281.780 393.921, 283.402 392.069, 283.845 389.500 C 284.035 388.400, 284.619 386.978, 285.144 386.339 C 285.765 385.583, 285.679 384.919, 284.897 384.436 C 284.023 383.896, 284.173 383.347, 285.449 382.414 C 286.412 381.709, 286.923 380.684, 286.584 380.136 C 286.245 379.587, 286.425 378.856, 286.984 378.510 C 287.548 378.161, 288 378.811, 288 379.972 C 288 381.122, 287.328 382.321, 286.506 382.636 C 285.684 382.952, 285.274 383.634, 285.595 384.153 C 285.937 384.707, 286.840 384.561, 287.781 383.799 C 288.983 382.825, 289.196 382.813, 288.633 383.750 C 288.202 384.467, 288.383 385, 289.058 385 C 289.728 385, 290.016 384.168, 289.727 383.065 C 289.444 381.982, 289.799 380.907, 290.533 380.626 C 291.339 380.317, 291.621 379.267, 291.265 377.905 C 290.865 376.377, 291.045 375.910, 291.842 376.403 C 292.877 377.042, 293.450 375.850, 293.118 373.750 C 293.053 373.338, 294.463 372.993, 296.250 372.985 C 298.413 372.974, 299.053 372.686, 298.165 372.123 C 296.390 370.998, 296.473 369.875, 298.410 368.790 C 299.285 368.301, 300 367.248, 300 366.450 C 300 365.653, 300.477 365, 301.059 365 C 301.641 365, 301.804 364.492, 301.420 363.870 C 300.992 363.178, 301.260 362.936, 302.111 363.245 C 302.875 363.523, 303.381 364.369, 303.236 365.125 C 303.090 365.882, 303.662 365.614, 304.508 364.529 C 305.353 363.444, 305.825 361.987, 305.558 361.291 C 305.291 360.594, 305.618 360.131, 306.286 360.262 C 306.954 360.393, 307.393 359.954, 307.262 359.286 C 307.131 358.618, 307.621 358.301, 308.352 358.581 C 310.219 359.298, 312.525 356.443, 310.894 355.435 C 310.204 355.008, 309.951 355.112, 310.302 355.679 C 310.637 356.222, 310.257 356.667, 309.456 356.667 C 308.655 356.667, 308 356.292, 308 355.833 C 308 355.375, 308.498 355, 309.107 355 C 309.716 355, 309.955 354.325, 309.638 353.500 C 308.884 351.535, 309.969 351.576, 311.426 353.568 C 312.378 354.870, 312.537 354.659, 312.367 352.318 C 312.078 348.333, 312.082 348.340, 310.909 350 C 310.206 350.993, 309.966 351.053, 310.199 350.175 C 310.392 349.446, 310.989 348.852, 311.525 348.854 C 312.061 348.856, 313.204 348.221, 314.064 347.442 C 315.214 346.402, 315.922 346.322, 316.742 347.142 C 317.562 347.962, 318.581 347.495, 320.591 345.379 C 322.094 343.795, 323.068 343.216, 322.755 344.091 C 322.441 344.966, 322.587 346.316, 323.077 347.091 C 323.798 348.229, 323.972 348.163, 323.985 346.750 C 323.999 345.157, 325.139 344.527, 327.324 344.906 C 327.778 344.985, 327.876 344.608, 327.542 344.068 C 327.209 343.529, 326.275 343.341, 325.468 343.651 C 324.651 343.964, 324 343.649, 324 342.940 C 324 342.240, 324.301 341.968, 324.669 342.336 C 325.037 342.703, 326.162 342.259, 327.169 341.347 C 328.264 340.356, 329 340.155, 329 340.845 C 329 341.480, 328.464 342, 327.809 342 C 327.154 342, 327.491 342.661, 328.559 343.468 C 330.804 345.167, 332.399 345.455, 331.500 344 C 330.245 341.970, 333.002 343.133, 342.137 348.489 C 347.287 351.508, 352.063 353.983, 352.750 353.989 C 353.438 353.995, 354 354.350, 354 354.778 C 354 355.408, 370.225 362.363, 372 362.494 C 372.275 362.514, 372.993 362.845, 373.595 363.229 C 374.807 364.001, 383.065 365.535, 384.250 365.207 C 384.663 365.093, 385 365.486, 385 366.080 C 385 370.559, 403.177 364.328, 412.153 356.771 C 414.944 354.422, 419.269 350.778, 421.764 348.673 C 424.350 346.491, 426.988 345.050, 427.900 345.322 C 428.780 345.585, 439.791 348.994, 452.369 352.900 C 464.947 356.805, 475.750 360, 476.376 360 C 477.463 360, 483.188 329.605, 496.058 255.500 C 502.389 219.046, 500.493 222.360, 511.961 227.709 C 517.748 230.408, 520.953 232.411, 520.214 232.868 C 519.469 233.328, 522.260 235.185, 527.503 237.716 L 536 241.818 536 141.909 L 536 42 533.250 42.241 C 531.737 42.373, 496.637 42.710, 455.250 42.991 M 356.488 70.907 C 355.944 71.447, 353.925 72.148, 352 72.465 C 346.999 73.288, 327.533 76.831, 320.750 78.153 C 315.694 79.138, 312.768 81, 316.275 81 C 322.721 81, 360 73.137, 360 71.777 C 360 71.285, 359.588 71.136, 359.085 71.447 C 358.582 71.758, 358.014 71.543, 357.823 70.969 C 357.595 70.285, 357.134 70.264, 356.488 70.907 M 368.500 79.032 C 366.300 79.506, 358.200 81.057, 350.500 82.478 C 332.180 85.858, 331.711 86.068, 332.325 90.619 C 333.126 96.567, 333.020 96.559, 356.674 92.528 C 368.678 90.482, 379.278 88.711, 380.230 88.591 C 382.758 88.274, 383.649 87.019, 382.049 86.030 C 381.283 85.557, 380.171 83.669, 379.578 81.835 C 378.368 78.092, 375.832 77.451, 368.500 79.032 M 506.120 198.254 C 505.446 202.789, 504.681 207.232, 504.420 208.126 C 504.055 209.372, 505.869 210.542, 512.171 213.126 C 516.696 214.982, 520.725 216.639, 521.124 216.808 C 521.826 217.107, 514.651 202.870, 509.748 194.239 L 507.345 190.008 506.120 198.254 M 427.661 294.049 C 424.019 296.245, 419.721 298.306, 418.109 298.628 C 411.838 299.882, 416.549 311.017, 423.337 310.985 C 430.920 310.950, 444.897 306.239, 447.801 302.740 C 448.847 301.480, 441.568 294.431, 435.391 290.722 C 434.780 290.356, 431.302 291.853, 427.661 294.049" stroke="none" fill="black" fill-rule="evenodd"/>
</svg>