<svg xmlns="http://www.w3.org/2000/svg" width="960" height="560" viewBox="0 0 960 560" version="1.1">
	<path d="M 65 155.392 L 65 279.783 67.509 280.413 C 68.951 280.775, 71.201 280.430, 72.801 279.603 C 76.501 277.690, 85.188 276.296, 98 275.561 C 103.775 275.230, 113.211 274.239, 118.970 273.360 C 145.763 269.269, 192.547 282.555, 199.639 296.270 C 202.353 301.517, 201.004 319.431, 197.437 325.518 C 195.779 328.347, 193.644 334.987, 191.929 342.646 C 186.998 364.674, 186.108 365.037, 144 362.213 C 133.825 361.530, 122.575 360.465, 119 359.846 C 115.425 359.226, 102.600 358.416, 90.500 358.045 C 78.400 357.674, 67.713 357.014, 66.750 356.578 C 65.119 355.840, 65 357.011, 65 373.841 L 65 391.896 68.250 390.811 C 70.037 390.215, 71.927 389.338, 72.450 388.864 C 75.566 386.031, 79 387.937, 79 392.500 C 79 394.975, 79.450 397, 80 397 C 80.550 397, 81 395.677, 81 394.059 C 81 392.441, 81.498 390.810, 82.107 390.434 C 82.845 389.978, 82.998 390.430, 82.566 391.791 C 82.204 392.934, 82.424 394.144, 83.066 394.541 C 83.898 395.055, 83.840 395.486, 82.857 396.110 C 81.790 396.786, 81.861 396.973, 83.191 396.985 C 85.518 397.006, 86.420 395.211, 84.964 393.456 C 84.047 392.352, 84.040 392, 84.937 392 C 85.586 392, 85.878 391.611, 85.584 391.136 C 85.290 390.660, 87.921 389.977, 91.432 389.617 C 94.942 389.258, 101.118 387.589, 105.157 385.909 C 115.593 381.568, 122.347 380.665, 133.912 382.065 C 139.185 382.703, 146.650 383.360, 150.500 383.525 C 166.660 384.217, 191.520 387.111, 193.728 388.557 C 198.441 391.646, 196.926 395.855, 189 401.687 C 181.185 407.436, 180.307 408.731, 180.269 414.558 C 180.160 431.595, 150.361 449.893, 115.199 454.515 C 91.429 457.639, 87.231 456.357, 73.518 441.790 L 65 432.741 65 476.871 L 65 521 177.065 521 L 289.130 521 286.315 517.056 C 284.767 514.887, 282.391 512.829, 281.035 512.483 C 275.554 511.085, 270.251 507.886, 265.695 503.230 L 260.890 498.320 262.189 494.160 C 263.658 489.451, 264.432 489.008, 265.525 492.250 C 266.153 494.115, 266.387 493.730, 266.891 490 C 267.265 487.241, 267.972 485.593, 268.720 485.740 C 270.651 486.120, 271.836 482.885, 272.181 476.296 C 272.463 470.906, 272.697 470.309, 274.211 471.116 C 275.812 471.970, 275.821 471.755, 274.356 467.764 C 272.140 461.728, 271.779 456.978, 273.588 457.672 C 275.962 458.583, 275.103 456.714, 271 452.041 C 266.749 447.199, 266.547 446.214, 270.164 447.974 C 272.270 448.998, 272.326 448.969, 270.733 447.682 C 269.598 446.765, 269.211 445.613, 269.653 444.463 C 270.038 443.457, 269.936 442.921, 269.420 443.240 C 268.914 443.552, 268.444 442.614, 268.377 441.154 C 268.309 439.694, 268.460 439.065, 268.712 439.756 C 268.964 440.447, 269.578 440.761, 270.075 440.453 C 270.575 440.145, 270.424 439.290, 269.740 438.547 C 268.799 437.526, 268.164 437.476, 267.106 438.342 C 265.971 439.272, 265.834 439.098, 266.370 437.410 C 266.816 436.005, 266.396 434.764, 265.071 433.564 C 263.529 432.169, 263.345 431.421, 264.205 430.044 C 265.573 427.853, 269.556 431.110, 268.589 433.629 C 268.262 434.480, 268.453 434.838, 269.039 434.476 C 269.598 434.130, 270.872 434.855, 271.869 436.086 C 273.267 437.813, 273.867 438.024, 274.495 437.008 C 275.069 436.079, 274.924 435.929, 274 436.500 C 273.164 437.017, 272.933 436.917, 273.362 436.224 C 273.731 435.627, 273.575 434.856, 273.016 434.510 C 272.457 434.165, 272.016 433.346, 272.036 432.691 C 272.056 432.036, 273.154 432.824, 274.476 434.442 C 275.799 436.060, 276.613 437.817, 276.286 438.346 C 275.959 438.876, 276.181 439.006, 276.780 438.636 C 277.404 438.250, 280.990 441.705, 285.181 446.732 C 289.203 451.554, 292.731 455.725, 293.021 456 C 299.177 461.839, 305.160 472, 302.441 472 C 301.584 472, 301.123 472.390, 301.418 472.867 C 301.715 473.348, 303.907 473.286, 306.351 472.727 C 312.960 471.214, 323.009 476.517, 322.976 481.500 C 322.972 482.050, 322.533 481.825, 322 481 C 321.413 480.091, 321.025 479.971, 321.015 480.695 C 321.006 481.398, 319.139 482.016, 316.487 482.195 L 311.973 482.500 315.126 488.950 C 318.633 496.124, 321.310 512.063, 319.131 512.790 C 318.509 512.997, 318 513.606, 318 514.142 C 318 514.679, 318.376 514.886, 318.835 514.602 C 319.295 514.318, 320.412 515.641, 321.319 517.543 C 322.872 520.800, 323.254 521, 327.935 521 L 332.901 521 329.223 513.254 C 325.606 505.639, 325.550 505.331, 325.866 495.004 C 326.321 480.170, 326.372 479.907, 329.056 478.470 L 331.466 477.180 326.121 471.840 C 317.835 463.562, 313 457.419, 313 455.170 C 313 454.042, 312.574 452.855, 312.053 452.533 C 309.363 450.870, 299.667 433.467, 299.667 430.301 C 299.667 429.586, 299.292 429, 298.833 429 C 298.375 429, 298 427.882, 298 426.515 C 298 424.042, 306.353 423.581, 312 425.743 C 312.825 426.059, 313.837 426.246, 314.250 426.159 C 314.662 426.071, 315.003 427.013, 315.007 428.250 C 315.011 429.661, 316.222 431.324, 318.257 432.712 C 320.041 433.929, 324.084 437.538, 327.241 440.732 L 332.983 446.540 331.925 457.870 C 330.763 470.306, 330.991 471.435, 333.942 467.892 L 335.933 465.500 335.967 468.250 C 336.006 471.483, 337.580 471.900, 338.523 468.927 C 339.147 466.962, 339.280 466.943, 341.067 468.561 C 342.104 469.499, 342.785 470.545, 342.579 470.884 C 342.374 471.223, 344.001 471.570, 346.195 471.656 C 349.744 471.794, 350.125 471.588, 349.653 469.782 C 349.168 467.928, 349.475 467.800, 353.214 468.302 C 358.305 468.985, 362.710 473.684, 366.289 482.250 C 366.921 483.762, 367.790 485, 368.219 485 C 368.649 485, 369 485.520, 369 486.156 C 369 486.791, 370.125 488.786, 371.500 490.589 C 372.875 492.392, 374 494.291, 374 494.811 C 374 495.330, 374.670 496.311, 375.489 496.991 C 376.308 497.671, 376.773 498.558, 376.523 498.963 C 376.273 499.367, 377.231 500.710, 378.652 501.946 C 381.265 504.217, 381.492 509.860, 379.330 518.750 L 378.783 521 405.892 521 L 433 521 433 464 L 433 407 421.969 407 C 412.950 407, 410.829 407.281, 410.345 408.543 C 409.016 412.007, 396.705 416, 387.352 416 C 377.579 416, 373.641 411.660, 374.024 401.312 C 374.342 392.706, 374.209 392.140, 372.422 394.500 C 371.589 395.600, 370.183 396.502, 369.298 396.505 C 368.413 396.507, 367.568 397.336, 367.420 398.346 C 367.050 400.865, 366.087 401.662, 366.192 399.363 C 366.238 398.338, 365.528 394.384, 364.612 390.576 C 362.362 381.213, 365.898 379.846, 370.091 388.457 C 372.400 393.201, 373.973 392.827, 372.843 387.802 C 372.310 385.436, 372.169 381.925, 372.529 380 C 373.202 376.407, 373.019 375.327, 371.808 375.731 C 370.953 376.016, 366.386 371.506, 362.887 366.923 C 356.396 358.419, 349.421 352.382, 342.732 349.478 L 335.965 346.540 331.423 337.745 C 325.685 326.637, 326.245 320.818, 332.343 328.178 C 333.791 329.927, 335.278 331.056, 335.646 330.687 C 336.015 330.319, 337.006 330.576, 337.850 331.259 C 339.090 332.263, 339.232 332.247, 338.587 331.176 C 337.927 330.080, 338.152 330.078, 339.895 331.167 C 341.053 331.890, 342 332.823, 342 333.241 C 342 333.658, 343.125 334, 344.500 334 C 348.026 334, 347.738 331.256, 343.651 325.894 C 337.658 318.033, 336.708 315.395, 337.605 309.111 C 338.166 305.178, 338.514 304.322, 338.769 306.250 C 338.969 307.762, 339.673 309, 340.334 309 C 341.758 309, 341.682 302.057, 340.247 301.119 C 338.960 300.276, 340.596 275.629, 342.131 272.739 C 342.786 271.508, 347.427 266.225, 352.445 261 C 365.656 247.246, 369.381 241.790, 369.447 236.098 C 369.514 230.309, 367.368 229.890, 365.498 235.327 C 363.843 240.143, 358.037 247.146, 346.754 257.936 C 335.155 269.029, 334.399 270.405, 333.576 281.925 C 333.205 287.109, 332.593 291.834, 332.216 292.425 C 331.839 293.016, 331.491 294.175, 331.442 295 C 330.809 305.785, 326.488 319, 323.595 319 C 322.904 319, 321.736 320.124, 321.001 321.498 C 317.634 327.790, 319.327 322.305, 323.018 314.964 C 329.279 302.511, 331.615 289.024, 328.540 283.077 C 327.093 280.279, 323.468 278.434, 322.498 280.004 C 321.697 281.300, 323.104 284.053, 324.217 283.366 C 327.180 281.535, 327.806 289.953, 325.451 299.947 C 323.848 306.749, 318.325 319, 316.863 319 C 316.388 319, 316 319.830, 316 320.845 C 316 323.781, 312.726 326.001, 308.421 325.985 C 302.884 325.963, 300.952 324.541, 304.637 323.200 C 306.212 322.627, 306.908 322.122, 306.184 322.079 C 305.461 322.036, 303.948 322.493, 302.823 323.095 C 300.478 324.350, 294.798 319.632, 290.394 312.770 C 287.403 308.109, 287.409 308.028, 290.750 307.868 C 293.189 307.752, 293.111 307.667, 290.058 307.118 C 287.008 306.570, 286.364 305.874, 284.399 301 L 282.183 295.500 285.341 294.882 L 288.500 294.263 285.357 294.132 C 283.628 294.059, 281.975 293.376, 281.682 292.613 C 281.308 291.640, 281.724 291.377, 283.075 291.730 C 284.169 292.016, 285 291.726, 285 291.058 C 285 290.411, 285.483 290.181, 286.074 290.546 C 286.665 290.911, 288.339 290.150, 289.794 288.855 C 291.249 287.560, 291.827 287.298, 291.078 288.273 C 289.893 289.817, 289.929 289.965, 291.359 289.416 C 293.338 288.656, 293.341 288.613, 291.676 284.651 C 290.243 281.239, 284.991 266.117, 284.687 264.524 C 284.460 263.341, 282.374 261, 281.546 261 C 281.217 261, 281.610 262.279, 282.419 263.842 C 283.687 266.296, 287.998 277.038, 287.999 277.750 C 288.002 278.778, 278.024 277.734, 277.090 276.608 C 275.695 274.928, 273.700 258.522, 274.560 255.811 C 275.392 253.191, 279.670 251.734, 284.500 252.427 C 286.700 252.743, 290.488 253.241, 292.918 253.534 C 304.138 254.885, 312.579 264.303, 317.984 281.500 C 319.545 286.466, 320.733 287.860, 321.562 285.699 C 322.276 283.838, 319.952 276.778, 316.289 269.683 C 313.634 264.541, 313.673 261.062, 316.446 255.750 C 317.236 254.238, 317.493 253, 317.018 253 C 316.544 253, 315.611 254.687, 314.946 256.750 C 314.281 258.813, 313.527 260.867, 313.269 261.315 C 312.501 262.654, 309 258.852, 309 256.678 C 309 255.572, 308.742 254.925, 308.426 255.241 C 308.110 255.557, 305.364 254.507, 302.324 252.908 C 299.284 251.308, 295.268 250, 293.398 250 C 291.529 250, 290 249.658, 290 249.240 C 290 248.354, 277.268 249.320, 274.885 250.387 C 271.236 252.021, 270.184 258.880, 271.952 269.500 C 272.970 275.618, 273.491 275.207, 266.561 273.754 C 260.394 272.460, 259.131 271.229, 260.979 268.311 C 261.953 266.774, 262.047 266.954, 261.603 269.500 C 261.315 271.150, 261.308 271.985, 261.588 271.356 C 261.867 270.727, 262.974 270.442, 264.048 270.723 C 265.167 271.015, 266 270.731, 266 270.058 C 266 269.411, 265.549 269.161, 264.998 269.501 C 264.447 269.842, 263.547 268.939, 262.998 267.495 C 261.739 264.184, 261.740 263.050, 263 265 C 263.828 266.282, 263.972 266.246, 263.985 264.750 C 263.993 263.788, 264.563 262.993, 265.250 262.985 C 266.095 262.974, 266.023 262.667, 265.026 262.037 C 264.057 261.424, 263.261 261.515, 262.700 262.303 C 262.068 263.191, 261.938 263.158, 262.199 262.175 C 262.392 261.446, 262.908 260.996, 263.345 261.175 C 264.356 261.588, 266.384 258.051, 265.592 257.258 C 265.266 256.933, 265 257.192, 265 257.833 C 265 258.475, 264.467 259, 263.814 259 C 263.162 259, 261.587 259.978, 260.314 261.174 C 256.335 264.913, 257.788 262.480, 262.281 257.882 C 264.636 255.472, 268.064 250.350, 269.899 246.500 C 271.735 242.650, 273.868 239.135, 274.639 238.689 C 275.411 238.242, 275.791 237.470, 275.483 236.973 C 275.176 236.475, 276.291 232.856, 277.962 228.929 C 279.633 225.003, 281 220.686, 281 219.336 C 281 217.986, 281.337 217.087, 281.750 217.337 C 282.418 217.742, 282.766 202.797, 282.215 197.391 C 281.906 194.360, 264.222 180.239, 254.250 175.061 L 246 170.777 246 156.389 C 246 147.706, 246.387 142, 246.975 142 C 247.591 142, 247.615 141.117, 247.039 139.604 C 246.154 137.275, 246.246 137.220, 250.314 137.668 C 262.531 139.014, 268.142 142.437, 275.009 152.737 C 277.748 156.846, 294.381 157.205, 300.119 153.279 C 309.449 146.895, 313.936 145.800, 322 147.940 C 323.925 148.450, 328.425 149.109, 332 149.402 C 341.817 150.209, 362.977 152.838, 367.500 153.813 C 387.256 158.072, 399.282 175.378, 407.415 211.250 C 407.974 213.717, 408.473 214.001, 412.269 214.006 C 414.596 214.009, 418.075 214.414, 420 214.907 C 421.925 215.400, 425.637 216.064, 428.250 216.383 L 433 216.962 433 123.981 L 433 31 249 31 L 65 31 65 155.392 M 713.992 107.250 C 713.982 108.841, 709.198 111.130, 708.442 109.906 C 707.527 108.425, 704.169 108.876, 703.199 110.609 C 702.371 112.089, 702.248 112.089, 701.680 110.609 C 700.864 108.482, 698.357 108.558, 697.080 110.750 C 696.119 112.400, 696.059 112.396, 696.030 110.684 C 695.976 107.431, 690.571 108.879, 690.184 112.250 C 689.890 114.799, 690.716 115.547, 693.324 115.094 C 693.778 115.015, 693.845 115.442, 693.473 116.043 C 693.102 116.645, 692.168 116.895, 691.399 116.600 C 690.629 116.304, 690 116.530, 690 117.101 C 690 118.942, 694.416 117.569, 695.496 115.392 C 696.355 113.662, 696.764 113.522, 697.779 114.608 C 699.058 115.977, 702 115.473, 702 113.885 C 702 113.389, 702.900 113.545, 704 114.232 C 705.485 115.159, 706.455 115.197, 707.767 114.378 C 709.097 113.547, 709.839 113.602, 710.774 114.603 C 713.052 117.042, 715 115.101, 715 110.393 C 715 107.977, 714.775 106, 714.500 106 C 714.225 106, 713.996 106.563, 713.992 107.250 M 304.529 163.614 C 303.615 164.528, 303 164.685, 303 164.005 C 303 163.354, 301.824 163.002, 300.250 163.184 C 296.547 163.610, 295.807 167.591, 299.180 168.943 L 301.500 169.873 299 169.952 C 297.134 170.011, 296.858 170.257, 297.909 170.923 C 299.973 172.229, 301.929 171.132, 302.649 168.264 C 303.182 166.140, 303.421 166.002, 304.190 167.374 C 305.338 169.426, 307.878 169.481, 308.650 167.471 C 309.167 166.123, 309.379 166.135, 310.434 167.579 C 312.078 169.828, 315.427 168.992, 315.820 166.235 C 316.211 163.493, 313.517 162.196, 310.868 163.851 C 309.840 164.492, 309 164.611, 309 164.115 C 309 162.415, 306.058 162.085, 304.529 163.614 M 257.832 187.137 C 258.015 190.912, 258.577 194, 259.082 194 C 259.587 194, 260 194.690, 260 195.532 C 260 196.375, 261.012 197.471, 262.250 197.969 C 263.488 198.466, 263.938 198.902, 263.250 198.937 C 261.777 199.011, 261.532 203, 263 203 C 263.550 203, 263.968 204.238, 263.930 205.750 C 263.867 208.187, 263.762 208.272, 263 206.500 C 262.527 205.400, 262.109 205.092, 262.070 205.816 C 262.032 206.539, 262.428 207.931, 262.950 208.907 C 263.979 210.828, 265.359 224.623, 265.012 229.500 C 264.561 235.830, 265.079 237.792, 267.066 237.272 C 274.479 235.334, 283.117 207.088, 279.075 198 C 278.076 195.754, 278.010 195.906, 278.422 199.500 L 278.881 203.500 277.690 200 C 276.121 195.386, 275.063 193.843, 273.942 194.536 C 273.437 194.848, 273.278 194.440, 273.589 193.629 C 273.929 192.743, 273.290 191.690, 271.989 190.994 C 270.798 190.357, 268.175 188.389, 266.162 186.622 C 264.148 184.854, 261.375 182.703, 260 181.841 L 257.500 180.274 257.832 187.137 M 717 194.559 C 717 195.416, 716.577 195.857, 716.060 195.537 C 715.543 195.218, 714.530 195.599, 713.810 196.385 C 712.675 197.622, 712.279 197.616, 710.850 196.342 C 709.397 195.047, 709.038 195.047, 707.850 196.342 C 706.669 197.629, 706.296 197.632, 704.869 196.359 C 703.440 195.086, 703.049 195.094, 701.718 196.425 C 700.439 197.704, 700.019 197.728, 699.063 196.575 C 697.145 194.265, 694 195.844, 694 199.117 C 694 200.702, 694.450 202, 695 202 C 695.550 202, 696 200.875, 696 199.500 C 696 198.125, 696.450 197, 697 197 C 697.550 197, 698 198.125, 698 199.500 C 698 200.875, 698.450 202, 699 202 C 699.550 202, 700.014 201.213, 700.030 200.250 C 700.059 198.583, 700.109 198.583, 701.080 200.250 C 701.641 201.213, 703.090 201.971, 704.300 201.937 C 706.403 201.876, 706.389 201.824, 704 200.763 L 701.500 199.653 703.910 199.236 C 705.413 198.976, 706.654 199.417, 707.209 200.410 C 707.699 201.284, 709.090 201.971, 710.300 201.937 C 712.403 201.876, 712.389 201.824, 710 200.763 L 707.500 199.653 709.910 199.236 C 711.413 198.976, 712.654 199.417, 713.209 200.410 C 715.210 203.984, 718 202.289, 718 197.500 C 718 195.025, 717.775 193, 717.500 193 C 717.225 193, 717 193.702, 717 194.559 M 412 232.624 C 410.691 232.996, 410.498 239.773, 410.484 285.775 C 410.476 314.774, 410.140 340.300, 409.738 342.500 C 409.337 344.700, 408.644 348.750, 408.199 351.500 C 407.073 358.452, 404.890 362.553, 402.460 362.279 C 401.382 362.158, 401.065 362.309, 401.756 362.615 C 402.447 362.920, 402.711 363.659, 402.342 364.255 C 401.936 364.912, 402.241 365.121, 403.114 364.787 C 405.271 363.959, 415.489 365.771, 424.302 368.545 C 428.593 369.895, 432.308 371, 432.558 371 C 432.809 371, 432.898 339.837, 432.757 301.750 L 432.500 232.500 423 232.349 C 417.775 232.266, 412.825 232.390, 412 232.624 M 290.472 259.046 C 289.894 259.980, 298.180 280.475, 299.832 282.197 C 300.199 282.580, 300.576 281.455, 300.669 279.697 C 300.807 277.081, 300.678 276.864, 299.961 278.500 C 299.345 279.905, 299.146 278.863, 299.292 275 C 299.406 271.975, 299.885 269.219, 300.355 268.876 C 300.826 268.532, 300.487 267.147, 299.602 265.796 C 298.717 264.445, 298.245 263.088, 298.554 262.779 C 299.208 262.125, 293.685 258, 292.155 258 C 291.585 258, 290.827 258.471, 290.472 259.046 M 255.882 291.734 C 251.638 292.682, 257.503 299.205, 264.733 301.579 C 272.311 304.067, 272.047 304.828, 264.409 302.511 C 258.020 300.573, 257.804 300.598, 258.180 303.250 C 258.405 304.834, 259.151 305.478, 260.700 305.426 C 261.910 305.385, 262.647 305.762, 262.337 306.263 C 262.028 306.764, 260.974 306.965, 259.995 306.709 C 257.719 306.114, 256.093 313.808, 258.211 315.152 C 259.211 315.786, 259.220 315.973, 258.250 315.985 C 257.491 315.994, 257 317.375, 257 319.500 C 257 321.425, 257.482 323, 258.071 323 C 258.661 323, 258.436 323.707, 257.571 324.571 C 255.976 326.167, 255.378 332.486, 256.750 333.253 C 257.163 333.483, 256.987 333.554, 256.360 333.410 C 255.237 333.151, 253.537 338.870, 254.462 339.795 C 254.724 340.057, 256.046 339.545, 257.400 338.658 C 260.052 336.920, 269.859 332.994, 271.500 333.013 C 272.514 333.025, 257.907 339.742, 254.819 340.684 C 253.895 340.966, 252.896 341.828, 252.601 342.599 C 251.766 344.772, 261.924 344.396, 268.740 342 C 276.189 339.382, 278.714 339.474, 273 342.155 C 270.019 343.554, 265.695 344.434, 260.189 344.762 C 252.916 345.195, 251.690 345.544, 250.373 347.554 C 249.545 348.817, 247.518 350.321, 245.868 350.896 C 243.248 351.809, 242.909 352.356, 243.184 355.218 C 243.728 360.857, 260.612 368.788, 264.275 365.125 C 265.108 364.292, 264.505 363.988, 261.950 363.955 C 260.053 363.930, 257.150 363.248, 255.500 362.440 C 253.850 361.631, 253.400 361.256, 254.500 361.606 C 261.176 363.730, 265.760 363.297, 267.636 360.368 C 268.646 358.790, 270.154 356.904, 270.986 356.176 C 272.065 355.232, 272.096 355.061, 271.095 355.580 C 270.164 356.064, 269.935 355.915, 270.415 355.138 C 270.813 354.494, 271.526 354.207, 272 354.500 C 272.474 354.793, 273.144 354.575, 273.490 354.016 C 273.835 353.457, 274.903 353, 275.862 353 C 276.821 353, 281.402 351.164, 286.043 348.920 L 294.480 344.840 291.085 342.069 L 287.690 339.299 292.595 338.634 C 295.293 338.268, 298.625 337.328, 300 336.544 C 309.932 330.885, 309.830 330.858, 312.990 339.970 L 315.471 347.126 322.736 350.933 C 326.731 353.027, 329.995 354.686, 329.989 354.620 C 329.983 354.554, 329.341 352.398, 328.561 349.829 C 327.304 345.689, 327.318 345.092, 328.684 344.568 C 329.842 344.123, 329.951 343.646, 329.121 342.646 C 328.514 341.915, 328.313 341.020, 328.675 340.658 C 329.037 340.296, 328.808 340, 328.167 340 C 327.525 340, 327 339.298, 327 338.441 C 327 337.584, 326.570 337.148, 326.044 337.473 C 325.518 337.798, 325.364 338.837, 325.703 339.782 C 327.319 344.293, 324.848 339.644, 321.964 332.750 C 319.107 325.918, 317 323.043, 317 325.974 C 317 328.951, 305.616 331.119, 302.500 328.735 C 301.950 328.315, 299.475 326.457, 297 324.608 C 294.499 322.739, 290.501 318.108, 288 314.181 C 284.498 308.684, 282.946 307.087, 281 306.983 C 279.625 306.908, 276.925 306.203, 275 305.415 C 271.287 303.895, 271.202 303.890, 280.154 305.681 L 283.075 306.265 280.954 300.883 C 278.332 294.229, 279.333 294.930, 271.766 294.444 C 268.232 294.217, 263.577 293.433, 261.420 292.702 C 259.264 291.971, 256.772 291.536, 255.882 291.734 M 381.667 303.667 C 380.222 305.111, 381.118 308.112, 383.250 308.969 L 385.500 309.873 383.050 309.937 C 381.225 309.984, 380.889 310.289, 381.733 311.133 C 383.282 312.682, 385.857 311.520, 386.961 308.772 C 387.463 307.522, 387.902 307.063, 387.937 307.750 C 387.971 308.438, 389.087 309, 390.417 309 C 391.746 309, 393.062 308.438, 393.341 307.750 C 393.736 306.776, 394.057 306.798, 394.794 307.848 C 396.339 310.052, 399.500 308.810, 399.500 306 C 399.500 303.190, 396.339 301.948, 394.794 304.152 C 394.057 305.202, 393.736 305.224, 393.341 304.250 C 393.062 303.563, 391.783 303, 390.500 303 C 389.217 303, 387.940 303.563, 387.662 304.250 C 387.259 305.250, 387.142 305.250, 387.079 304.250 C 386.997 302.950, 382.832 302.501, 381.667 303.667 M 665.212 309.750 C 664.741 310.712, 664.671 312.850, 665.059 314.500 L 665.763 317.500 665.882 314.750 C 666.029 311.316, 668 311.083, 668 314.500 C 668 317.115, 669.470 317.901, 670.338 315.750 C 670.741 314.750, 670.858 314.750, 670.921 315.750 C 671.039 317.615, 675.083 317.259, 676.608 315.250 C 677.873 313.583, 677.938 313.583, 677.968 315.250 C 677.986 316.212, 678.428 317, 678.950 317 C 679.473 317, 680.359 316.212, 680.920 315.250 C 681.891 313.583, 681.941 313.583, 681.970 315.250 C 682.018 318.020, 683.704 317.288, 684.850 314 C 685.852 311.126, 684.792 309.661, 683.583 312.250 C 683.117 313.250, 682.883 313.250, 682.417 312.250 C 681.581 310.460, 680.223 310.709, 679.689 312.750 C 679.254 314.417, 679.226 314.417, 679.116 312.750 C 678.982 310.730, 677.405 310.409, 676.662 312.250 C 676.259 313.250, 676.142 313.250, 676.079 312.250 C 676.036 311.563, 674.913 311, 673.583 311 C 672.254 311, 670.940 311.563, 670.662 312.250 C 670.385 312.938, 670.122 312.262, 670.079 310.750 C 669.987 307.534, 666.636 306.846, 665.212 309.750 M 242.250 316.662 C 240.180 317.498, 240.656 322.331, 242.750 321.739 C 246.004 320.819, 246.494 320.763, 250 320.913 C 253.348 321.057, 253.413 321.129, 251.500 322.576 C 250.326 323.465, 248.536 323.848, 247.165 323.504 C 242.812 322.414, 241 323.755, 241 328.067 L 241 332 247 332 C 252.026 332, 253.009 331.716, 253.057 330.250 C 253.089 329.288, 253.349 325.688, 253.635 322.250 L 254.155 316 250.651 316 C 248.154 316, 247.015 316.503, 246.689 317.750 C 246.254 319.417, 246.226 319.417, 246.116 317.750 C 246.002 316.029, 244.716 315.667, 242.250 316.662 M 291.049 350.078 C 288.601 351.685, 286.014 353, 285.299 353 C 283.533 353, 283.657 355.470, 285.500 357 C 288.325 359.345, 287.152 360.791, 281.830 361.523 L 276.659 362.235 279.080 364.093 C 284.780 368.470, 292.396 371.359, 297.670 371.143 C 300.514 371.027, 303.128 371.397, 303.479 371.966 C 307.538 378.534, 307.976 367.567, 303.991 359.143 C 297.942 346.356, 297.350 345.941, 291.049 350.078 M 301.500 375.263 C 298.246 376.605, 297.808 379.766, 300.560 382.050 C 301.352 382.707, 302 383.710, 302 384.277 C 302 384.845, 301.024 384.453, 299.830 383.405 C 297.690 381.526, 297.671 381.527, 298.442 383.500 C 298.871 384.600, 299.285 386.175, 299.361 387 C 299.505 388.554, 300.896 389.958, 302.317 389.985 C 302.767 389.993, 302.850 388.988, 302.502 387.750 C 302.006 385.989, 302.097 385.826, 302.919 387 C 303.497 387.825, 303.976 389.320, 303.985 390.321 C 304.006 392.812, 306.119 394.723, 311.473 397.091 C 313.963 398.192, 316 399.543, 316 400.092 C 316 400.641, 320.158 405.388, 325.241 410.642 C 336.135 421.903, 335.746 422.170, 335.900 403.316 L 336 391.133 328.062 383.871 C 323.696 379.877, 320.301 376.322, 320.518 375.971 C 320.735 375.620, 320.369 375.303, 319.706 375.265 C 319.043 375.228, 315.350 374.934, 311.500 374.612 C 306.940 374.231, 303.454 374.458, 301.500 375.263 M 264.494 401.009 C 264.152 401.564, 264.173 402.970, 264.543 404.134 C 264.994 405.557, 264.851 406.026, 264.107 405.566 C 263.498 405.190, 262.948 403.896, 262.884 402.691 C 262.799 401.081, 262.649 400.950, 262.321 402.198 C 261.722 404.471, 263.817 408.231, 265.205 407.373 C 265.885 406.953, 266.025 407.151, 265.569 407.889 C 265.151 408.564, 265.883 410.485, 267.247 412.293 C 268.578 414.057, 271.613 418.875, 273.993 423 C 284.684 441.529, 289.511 447.404, 296.025 449.813 C 303.136 452.444, 307.419 444.499, 301.584 439.500 C 300.056 438.191, 295.991 431.515, 296.032 430.382 C 296.049 429.897, 296.724 430.374, 297.532 431.441 C 298.339 432.509, 299 432.901, 299 432.314 C 299 430.926, 296.490 428.843, 295.732 429.602 C 295.410 429.923, 294.482 428.907, 293.669 427.343 C 292.187 424.494, 287 419.047, 287 420.339 C 287 420.718, 287.535 421.884, 288.190 422.932 C 289.724 425.389, 287.791 428.020, 284.989 427.287 C 281.704 426.428, 275.515 418.780, 271.317 410.394 C 268.778 405.320, 266.833 402.556, 265.998 402.834 C 265.124 403.125, 264.892 402.723, 265.309 401.636 C 266.003 399.830, 265.475 399.423, 264.494 401.009 M 79 431.990 C 79 433.486, 90.374 443.169, 93.929 444.700 C 96.526 445.818, 99.258 446.008, 105.185 445.484 C 113.186 444.775, 115.759 443.658, 111.723 442.645 C 110.478 442.333, 107.433 440.735, 104.956 439.094 C 102.185 437.259, 97.575 435.515, 92.976 434.562 C 88.864 433.710, 84.037 432.592, 82.250 432.076 C 80.463 431.561, 79 431.522, 79 431.990 M 288.842 474.661 C 289.902 476.682, 289.654 476.904, 284.987 478.100 C 282.191 478.817, 280 479.954, 280 480.689 C 280 481.410, 279.550 482, 279 482 C 276.133 482, 278.619 485.068, 282.750 486.629 C 285.363 487.615, 288.625 489, 290 489.705 C 295.089 492.316, 298.083 491.474, 296.315 487.930 C 294.888 485.069, 294.518 484.906, 290.857 485.524 C 287.219 486.139, 284 484.998, 284 483.093 C 284 481.977, 289.424 479.238, 290.712 479.703 C 291.379 479.944, 292.729 479.673, 293.712 479.101 C 295.323 478.164, 295.272 478.058, 293.191 478.030 C 291.921 478.014, 291.123 477.610, 291.417 477.134 C 291.712 476.657, 290.998 475.420, 289.831 474.384 C 287.732 472.521, 287.722 472.524, 288.842 474.661" stroke="none" fill="black" fill-rule="evenodd"/>
</svg>